<svg id="Layer_1" enable-background="new 0 0 512 512" viewBox="0 0 512 512" xmlns="http://www.w3.org/2000/svg" width="300" height="300" version="1.1" xmlns:xlink="http://www.w3.org/1999/xlink" xmlns:svgjs="http://svgjs.dev/svgjs"><g width="100%" height="100%" transform="matrix(1,0,0,1,0,0)"><path d="m244.69 344.53-.03 1.22c-.23 4.73 1.36 9.27-3.26 12.59l-15.53 11.11 5.33 19.81 18.99 1.87c2.92.28 5.3 2.07 6.46 4.51 4.99 9.98 13.41 20.52 21.63 28.06 2.13 1.98 2.95 4.85 2.41 7.51l-3.09 18.57 17.77 10.26 14.8-12.16c2.15-1.76 4.96-2.21 7.43-1.45v-.03c11.57 3.63 23.33 5.19 35.46 4.71 2.81-.11 5.3 1.22 6.8 3.35l11.14 15.53 19.81-5.33 1.87-18.99c.26-2.92 2.07-5.3 4.51-6.46 9.98-4.99 20.52-13.41 28.06-21.63 1.98-2.13 4.85-2.95 7.51-2.41l18.57 3.09 10.26-17.77-12.16-14.8c-1.76-2.15-2.21-4.96-1.45-7.43h-.03c3.63-11.57 5.19-23.33 4.68-35.46-.09-2.81 1.25-5.3 3.34-6.8l15.56-11.14-5.33-19.81-18.99-1.87c-2.92-.26-5.3-2.07-6.46-4.51-4.99-9.98-13.44-20.52-21.63-28.06-2.15-1.98-2.98-4.85-2.41-7.48l3.09-18.6-17.8-10.26-14.77 12.16c-2.15 1.76-4.96 2.21-7.43 1.45l-.03.03c-11.51-3.63-23.36-5.19-35.43-4.68-2.81.08-5.3-1.25-6.83-3.35l-11.11-15.56-19.81 5.33-1.87 19.02c-.28 2.89-2.07 5.27-4.51 6.43-9.98 4.99-20.52 13.44-28.06 21.63-1.98 2.15-4.85 2.98-7.51 2.41l-18.57-3.09-10.26 17.8 12.16 14.77c1.76 2.15 2.21 4.96 1.45 7.43l.03.03c-2.91 9.26-4.5 18.75-4.76 28.45zm137.6-3.38c15.93 5.81 20.64 26.31 8.5 38.44-2.38 2.38-5.27 4.25-8.5 5.41v7.46c0 4.42-3.57 7.99-7.99 7.99s-7.99-3.57-7.99-7.99v-7.46c-15.93-5.81-20.61-26.31-8.5-38.44 2.38-2.38 5.27-4.25 8.5-5.41v-39.32c0-4.42 3.57-7.99 7.99-7.99s7.99 3.57 7.99 7.99zm-2.81 16.73c-4.59-4.59-12.53-1.33-12.53 5.19 0 6.55 7.94 9.81 12.53 5.19 2.86-2.87 2.86-7.52 0-10.38zm-48.36-37.42c15.93 5.81 20.61 26.33 8.5 38.44-2.38 2.38-5.27 4.25-8.5 5.44v28.12c0 4.42-3.57 7.99-7.99 7.99s-8.02-3.57-8.02-7.99v-28.12c-15.9-5.81-20.61-26.33-8.5-38.44 2.41-2.38 5.3-4.25 8.5-5.44v-18.62c0-4.42 3.6-7.99 8.02-7.99s7.99 3.57 7.99 7.99zm-2.8 16.75c-4.62-4.62-12.53-1.33-12.53 5.19s7.91 9.78 12.53 5.19c2.86-2.86 2.86-7.51 0-10.38zm4.3-51.64c-.26.08-.51.14-.77.2-16.81 4.62-30.22 15.56-38.3 29.57-17.55 30.42-7.11 69.39 23.3 86.97s69.42 7.12 87-23.33v.02c17.55-30.44 7.11-69.42-23.33-87-13.96-8.08-31.03-10.86-47.9-6.43zm-4.5-15.34c21.2-5.7 42.75-2.21 60.38 7.97l.03.03v-.03c17.46 10.06 31.66 27.33 37.11 48.39 5.7 21.2 2.21 42.72-7.97 60.35v.03c-22 38.1-70.64 51.14-108.74 29.14-38.27-22.08-51.19-71.15-29.17-108.77 10.17-17.66 27.1-31.41 48.36-37.11zm-106.67 82.77h-158.74c-22.03 0-40.03-18-40.03-40.05v-250.9c0-22.02 18-40.02 40.03-40.02h268.27l7.06.62c9.16 1.64 17.49 6.49 23.5 13.61l3.91 5.5 3.74 8.42c.2.62.37 1.28.54 1.9.26.96.45 1.93.65 2.92.06.31.11.65.14.99.03.17.06.31.09.48.03.17.06.34.06.51.03.17.06.34.09.48.03.34.06.68.09 1.02.03.17.03.34.06.51 0 .17.03.34.03.51 0 .17.03.34.03.51 0 .17.03.34.03.51v.51c.03.17.03.34.03.51v.51 167.19c3.17.6 6.29 1.33 9.38 2.18l15.45-12.7c2.49-2.3 6.29-2.83 9.41-1.05l27.33 15.79c2.78 1.62 4.42 4.85 3.88 8.19l-3.34 20.18c7.74 7.68 14.4 16.33 19.81 25.88l19.84 1.93c3.43.11 6.52 2.44 7.46 5.92l8.19 30.5h-.03c.85 3.12-.28 6.58-3.09 8.56l-16.61 11.88c.09 10.91-1.39 21.88-4.25 32.31l12.7 15.45c2.32 2.49 2.83 6.32 1.05 9.41l-15.79 27.33c-1.62 2.81-4.82 4.42-8.19 3.88l-20.18-3.35c-7.68 7.74-16.33 14.4-25.88 19.84l-1.93 19.81c-.11 3.43-2.44 6.55-5.92 7.48l-30.5 8.16v-.03c-3.12.85-6.58-.28-8.56-3.06l-11.88-16.61c-10.91.06-21.88-1.42-32.31-4.28l-15.79 12.98c-2.49 2.04-6.09 2.47-9.04.77l-26.93-15.56c-3.03-1.5-4.88-4.88-4.31-8.42l3.34-20.18c-7.74-7.65-14.4-16.3-19.81-25.88l-19.84-1.93c-3.43-.09-6.55-2.44-7.46-5.92l-8.19-30.5h.03c-.85-3.12.28-6.58 3.06-8.56zm133.54-125.69v-91.36h-316.29v177c0 13.21 10.83 24.04 24.01 24.04h166.45c.6-7.29 1.9-14.54 3.83-21.52l-12.7-15.45c-2.32-2.49-2.83-6.29-1.05-9.41l15.79-27.33c1.62-2.78 4.82-4.42 8.19-3.88l20.18 3.35c7.65-7.74 16.3-14.4 25.88-19.81l1.93-19.81c.09-3.46 2.44-6.55 5.92-7.48l30.5-8.19v.03c3.12-.85 6.58.28 8.56 3.09l11.88 16.61c2.33-.05 4.62.01 6.92.12zm-201.35 79.15c-4.42 0-7.99-3.57-7.99-7.99s3.57-7.99 7.99-7.99h41.53c4.42 0 7.99 3.57 7.99 7.99s-3.57 7.99-7.99 7.99zm-90.08 0c-4.42 0-7.99-3.57-7.99-7.99s3.57-7.99 7.99-7.99h61.34c4.42 0 8.02 3.57 8.02 7.99s-3.6 7.99-8.02 7.99zm133.45-219.49c-4.42 0-8.02-3.57-8.02-7.99s3.6-7.99 8.02-7.99h22.88c4.42 0 7.99 3.57 7.99 7.99s-3.57 7.99-7.99 7.99zm102.34 0c-4.42 0-7.99-3.57-7.99-7.99s3.57-7.99 7.99-7.99h22.88c4.42 0 8.02 3.57 8.02 7.99s-3.6 7.99-8.02 7.99zm-51.17 0c-4.42 0-7.99-3.57-7.99-7.99s3.57-7.99 7.99-7.99h22.88c4.42 0 7.99 3.57 7.99 7.99s-3.57 7.99-7.99 7.99zm-175.95-36.99h76.59c8.45 0 15.34 6.89 15.34 15.34v27.33c0 8.45-6.89 15.34-15.34 15.34h-76.59c-8.45 0-15.34-6.89-15.34-15.34v-27.34c.01-8.44 6.9-15.33 15.34-15.33zm75.94 16.01h-75.28v25.99h75.29v-25.99zm17.44 94.48c31.49-8.25 62.36 15.65 62.36 48.13 0 32.77-31.38 56.72-63.04 47.96-3.54-.96-5.87-4.2-5.87-7.68v-80.53c0-3.94 2.81-7.2 6.55-7.88zm23.98 16.33c-4.62-1.64-9.58-2.3-14.54-1.84v67.32c19.7 1.81 36.91-13.66 36.91-33.68-.01-14.28-8.94-26.98-22.37-31.8zm-108.14 76.62c-1.7 4.08-6.35 6.04-10.43 4.37-4.05-1.67-6.01-6.35-4.34-10.43l11.59-28.03c.2-1.28.71-2.44 1.42-3.43l20.72-50.12c2.78-6.72 12.1-6.41 14.77 0l33.73 81.58c1.67 4.08-.28 8.76-4.34 10.43-4.08 1.67-8.73-.28-10.4-4.37l-10.29-24.83h-32.17zm26.36-63.75-9.5 22.9h18.96zm261.07-140.43c.11.31.23.62.31.94m1.19 4.82c.06.31.11.65.14.99m.23 1.47c.03.34.06.68.09 1.02m-15.85 61.46v-57.89c0-10.71-7.51-20.66-18.03-23.27l-5.98-.77h-268.27c-13.18 0-24.01 10.83-24.01 24.04v57.88h316.29z" fill="#ea1b29" fill-opacity="1" data-original-color="#000000ff" stroke="none" stroke-opacity="1"/></g></svg>