<svg id="Layer_1" height="300" viewBox="0 0 66 66" width="300" xmlns="http://www.w3.org/2000/svg" version="1.1" xmlns:xlink="http://www.w3.org/1999/xlink" xmlns:svgjs="http://svgjs.dev/svgjs"><g width="100%" height="100%" transform="matrix(1,0,0,1,0,0)"><g><path d="m65 52.1c0-.6-.4-1-1-1h-1.7v-33.4c0-.6-.4-1-1-1h-36.5c-1.4-4.2-5.3-7.2-9.9-7.2-.6 0-1 .4-1 1v9.4h-8.5c-.6 0-1 .5-1 1.1.3 3.6 2.5 6.7 5.5 8.3v21.8h-1.7c-.6 0-1 .4-1 1 0 .1.2 7.7 7.5 7.7h42.7c7 0 7.6-7.6 7.6-7.7zm-41.3-1.2h-3.6v-8.6h3.6zm14.2 0h-3.6v-14.8h3.6zm14.2 0h-3.6v-8.6h3.6zm-45.5-29h8.3c.6 0 1-.4 1-1v-9.3c4.2.5 7.5 4.1 7.5 8.4 0 4.7-3.8 8.5-8.5 8.5-4 .1-7.4-2.7-8.3-6.6zm8.3 8.7c5.8 0 10.5-4.7 10.5-10.5 0-.5 0-.9-.1-1.3h35v32.2h-6.2v-9.6c0-.6-.4-1-1-1h-5.6c-.6 0-1 .4-1 1v9.6h-6.5v-15.9c0-.6-.4-1-1-1h-5.6c-.6 0-1 .4-1 1v15.9h-6.5v-9.6c0-.6-.4-1-1-1h-5.6c-.6 0-1 .4-1 1v9.6h-6.2v-20.9c.8.3 1.7.5 2.8.5zm-5.6 22.5h53.7c-.4 2.7-2.7 4.7-5.5 4.7h-42.8c-2.7 0-5-2-5.4-4.7z" fill="#ea1b29" fill-opacity="1" data-original-color="#000000ff" stroke="none" stroke-opacity="1"/><path d="m21.9 39.4c1.8 0 3.2-1.4 3.2-3.2 0-.4-.1-.7-.2-1.1l8.6-5.5c.6.5 1.3.9 2.2.9 1 0 2-.5 2.5-1.3l8.8 3.6c0 .2-.1.4-.1.6 0 1.8 1.4 3.2 3.2 3.2s3.2-1.4 3.2-3.2c0-.3-.1-.6-.2-.9l4.9-4.9c.4-.4.4-1 0-1.4s-1-.4-1.4 0l-4.7 4.7c-.5-.4-1.2-.6-1.9-.6-.8 0-1.6.3-2.1.8l-9.2-3.7c0-1.8-1.4-3.2-3.2-3.2-2 0-3.5 1.8-3.1 3.8l-8.9 5.6c-.5-.3-1.1-.5-1.8-.5-1.8 0-3.2 1.4-3.2 3.2.2 1.7 1.7 3.1 3.4 3.1zm28.3-7.2c.7 0 1.2.5 1.2 1.2s-.5 1.2-1.2 1.2-1.2-.6-1.2-1.2c0-.7.6-1.2 1.2-1.2zm-14.5-6.1c.7 0 1.2.5 1.2 1.2s-.5 1.2-1.2 1.2-1.2-.5-1.2-1.2.6-1.2 1.2-1.2zm-13.8 8.9c.7 0 1.2.5 1.2 1.2s-.5 1.2-1.2 1.2-1.2-.5-1.2-1.2.6-1.2 1.2-1.2z" fill="#ea1b29" fill-opacity="1" data-original-color="#000000ff" stroke="none" stroke-opacity="1"/><path d="m38.2 54.4h-4.2c-.6 0-1 .4-1 1s.4 1 1 1h4.2c.6 0 1-.4 1-1s-.4-1-1-1z" fill="#ea1b29" fill-opacity="1" data-original-color="#000000ff" stroke="none" stroke-opacity="1"/><path d="m2 18.6h9.4c.6 0 1-.4 1-1v-10.4c0-.6-.4-1-1-1-6.2 0-11 5.3-10.4 11.5.1.5.5.9 1 .9zm8.5-10.4v8.3h-7.5c.1-4.2 3.3-7.8 7.5-8.3z" fill="#ea1b29" fill-opacity="1" data-original-color="#000000ff" stroke="none" stroke-opacity="1"/></g></g></svg>