<svg id="Outline" height="300" viewBox="0 0 64 64" width="300" xmlns="http://www.w3.org/2000/svg" version="1.1" xmlns:xlink="http://www.w3.org/1999/xlink" xmlns:svgjs="http://svgjs.dev/svgjs"><g width="100%" height="100%" transform="matrix(1,0,0,1,0,0)"><path d="m49.88 49.45c4.4-4.51 7.12-10.67 7.12-17.45s-2.72-12.94-7.12-17.45c-.05-.09-.09-.18-.17-.25s-.16-.12-.25-.17c-4.51-4.4-10.67-7.12-17.45-7.12s-12.94 2.72-17.45 7.12c-.09.05-.18.09-.25.17s-.12.16-.17.25c-4.4 4.51-7.12 10.67-7.12 17.45s2.72 12.94 7.12 17.45c.05.09.09.18.17.25s.16.12.25.17c4.51 4.4 10.67 7.12 17.45 7.12s12.94-2.72 17.45-7.12c.09-.05.18-.09.25-.17s.12-.16.17-.25zm-40.85-16.45h5.03c.13 2.41.74 4.7 1.74 6.77.03.08.06.17.12.24.72 1.45 1.63 2.78 2.7 3.97l-3.55 3.55c-3.55-3.87-5.79-8.94-6.03-14.53zm6.02-16.53 3.55 3.55c-2.64 2.95-4.32 6.77-4.55 10.98h-5.03c.24-5.59 2.48-10.67 6.03-14.53zm39.92 14.53h-5.03c-.23-4.21-1.91-8.03-4.55-10.98l3.55-3.55c3.55 3.87 5.79 8.94 6.03 14.53zm-7.96 6.48c-.08-.09-.15-.17-.23-.26-1.12-1.12-2.44-1.97-3.91-2.53-.03 0-.05-.02-.08-.03 0 0-.01 0-.02 0 1.36-1.1 2.23-2.78 2.23-4.66 0-3.31-2.69-6-6-6-.83 0-1.64.17-2.4.5-.51.22-.74.81-.51 1.32.22.5.81.74 1.32.51.51-.22 1.04-.33 1.6-.33 2.21 0 4 1.79 4 4s-1.79 4-4 4c-.55 0-1 .45-1 1s.45 1 1 1c.08 0 .17 0 .25-.01.03 0 .05.02.07.02.98.04 1.93.22 2.82.56.02 0 .05.02.07.02 1.19.46 2.24 1.15 3.14 2.05.29.29.53.58.76.88-.74 1.38-1.66 2.63-2.75 3.73-.02.02-.05.03-.07.05s-.03.05-.05.07c-.22.21-.45.41-.68.61-.51-1.79-1.47-3.44-2.79-4.76-1.12-1.12-2.44-1.97-3.91-2.53-.03 0-.05-.02-.08-.03 0 0-.01 0-.02 0 1.36-1.1 2.23-2.78 2.23-4.66 0-3.31-2.69-6-6-6s-6 2.69-6 6c0 1.72.73 3.26 1.89 4.36.02.02.03.03.05.04l.3.27c-.03.01-.06.02-.09.03-3.27 1.22-5.76 3.99-6.71 7.3-.23-.2-.46-.41-.68-.62-.02-.02-.03-.05-.05-.07s-.05-.03-.07-.05c-1.08-1.09-2.01-2.34-2.74-3.71 1.01-1.33 2.39-2.39 3.96-2.97.95-.36 1.95-.55 2.98-.56h.04.13c.55 0 1-.45 1-1s-.45-1-1-1c-2.21 0-4-1.79-4-4s1.79-4 4-4c.56 0 1.09.11 1.6.33s1.1 0 1.32-.51 0-1.1-.51-1.32c-.76-.33-1.57-.5-2.4-.5-3.31 0-6 2.69-6 6 0 1.88.87 3.56 2.24 4.67-.03.01-.06.02-.08.03-1.58.59-3.01 1.55-4.17 2.79-.63-1.71-.99-3.55-.99-5.48 0-4.38 1.77-8.35 4.63-11.24.02-.02.05-.03.07-.05s.03-.05.05-.07c2.89-2.86 6.86-4.63 11.24-4.63s8.35 1.77 11.24 4.63c.02.02.03.05.05.07s.05.03.07.05c2.86 2.89 4.63 6.86 4.63 11.24 0 1.93-.36 3.77-.99 5.48zm-15.01 10.52c-3.26 0-6.29-.98-8.82-2.66.57-3.05 2.73-5.68 5.67-6.77 1.99-.75 4.3-.75 6.3 0 .02 0 .05.02.07.02 1.19.46 2.24 1.15 3.14 2.05 1.28 1.28 2.14 2.93 2.47 4.69-2.53 1.68-5.57 2.67-8.83 2.67zm0-12c-2.21 0-4-1.79-4-4s1.79-4 4-4 4 1.79 4 4-1.79 4-4 4zm11.98-17.4c-2.95-2.64-6.77-4.32-10.98-4.55v-5.03c5.59.24 10.67 2.48 14.53 6.03zm-12.98-4.55c-4.21.23-8.03 1.91-10.98 4.55l-3.55-3.55c3.87-3.55 8.94-5.79 14.53-6.03zm-10.98 31.35c.46.41.93.8 1.43 1.16.05.05.11.09.17.13 2.68 1.9 5.9 3.08 9.38 3.27v5.03c-5.59-.24-10.67-2.48-14.53-6.03l3.55-3.55zm12.98 4.55c3.48-.19 6.7-1.37 9.38-3.27.07-.03.12-.08.17-.13.5-.36.97-.75 1.43-1.16l3.55 3.55c-3.87 3.55-8.94 5.79-14.53 6.03v-5.03zm12.4-5.97c1.07-1.2 1.98-2.53 2.71-3.98.03-.05.05-.11.08-.16 1.02-2.09 1.64-4.4 1.77-6.84h5.03c-.24 5.59-2.48 10.67-6.03 14.53l-3.55-3.55z" fill="#ea1b29" fill-opacity="1" data-original-color="#000000ff" stroke="none" stroke-opacity="1"/></g></svg>