<svg clip-rule="evenodd" fill-rule="evenodd" height="300" image-rendering="optimizeQuality" shape-rendering="geometricPrecision" text-rendering="geometricPrecision" viewBox="0 0 1707 1707" width="300" xmlns="http://www.w3.org/2000/svg" version="1.1" xmlns:xlink="http://www.w3.org/1999/xlink" xmlns:svgjs="http://svgjs.dev/svgjs"><g width="100%" height="100%" transform="matrix(1,0,0,1,0,0)"><g id="Layer_x0020_1"><g id="_631155328"><g><g><path d="m853 1050c-262 0-475-213-475-475 0-263 213-476 475-476 263 0 476 213 476 476 0 262-213 475-476 475zm0-911c-240 0-435 195-435 436 0 240 195 435 435 435 241 0 436-195 436-435 0-241-195-436-436-436z" fill="#ea1b29" fill-opacity="1" data-original-color="#000000ff" stroke="none" stroke-opacity="1"/></g><g><path d="m853 923c-192 0-348-157-348-348 0-192 156-349 348-349s348 157 348 349c0 191-156 348-348 348zm0-657c-170 0-308 139-308 309 0 169 138 308 308 308s308-139 308-308c0-170-138-309-308-309z" fill="#ea1b29" fill-opacity="1" data-original-color="#000000ff" stroke="none" stroke-opacity="1"/></g><g><g><g><path d="m854 1435c-85 0-154-69-154-155 0-85 69-154 154-154s154 69 154 154c0 86-69 155-154 155zm0-269c-63 0-114 51-114 114s51 115 114 115 114-52 114-115-51-114-114-114z" fill="#ea1b29" fill-opacity="1" data-original-color="#000000ff" stroke="none" stroke-opacity="1"/></g><g><path d="m1089 1652h-472c-11 0-20-9-20-20v-104c0-90 70-166 160-173 11-1 21 7 21 18 1 11-7 21-18 22-69 5-123 64-123 133v84h432v-84c0-69-53-127-121-133-11-1-20-11-19-22s11-19 22-18c89 8 158 84 158 173v104c0 11-9 20-20 20z" fill="#ea1b29" fill-opacity="1" data-original-color="#000000ff" stroke="none" stroke-opacity="1"/></g><g><path d="m728 1652c-11 0-20-9-20-20v-81c0-11 9-20 20-20s20 9 20 20v81c0 11-9 20-20 20z" fill="#ea1b29" fill-opacity="1" data-original-color="#000000ff" stroke="none" stroke-opacity="1"/></g><g><path d="m979 1652c-11 0-20-9-20-20v-81c0-11 9-20 20-20s20 9 20 20v81c0 11-9 20-20 20z" fill="#ea1b29" fill-opacity="1" data-original-color="#000000ff" stroke="none" stroke-opacity="1"/></g></g><g><g><path d="m256 1435c-85 0-154-69-154-155 0-85 69-154 154-154 86 0 155 69 155 154 0 86-69 155-155 155zm0-269c-63 0-114 51-114 114s51 115 114 115c64 0 115-52 115-115s-51-114-115-114z" fill="#ea1b29" fill-opacity="1" data-original-color="#000000ff" stroke="none" stroke-opacity="1"/></g><g><path d="m492 1652h-472c-11 0-20-9-20-20v-104c0-90 70-166 159-173 11-1 21 7 22 18s-7 21-18 22c-69 5-123 64-123 133v84h432v-84c0-69-54-127-122-133-11-1-19-11-18-22s11-19 22-18c88 8 158 84 158 173v104c0 11-9 20-20 20z" fill="#ea1b29" fill-opacity="1" data-original-color="#000000ff" stroke="none" stroke-opacity="1"/></g><g><path d="m130 1652c-11 0-20-9-20-20v-81c0-11 9-20 20-20 12 0 20 9 20 20v81c0 11-8 20-20 20z" fill="#ea1b29" fill-opacity="1" data-original-color="#000000ff" stroke="none" stroke-opacity="1"/></g><g><path d="m381 1652c-11 0-20-9-20-20v-81c0-11 9-20 20-20s20 9 20 20v81c0 11-9 20-20 20z" fill="#ea1b29" fill-opacity="1" data-original-color="#000000ff" stroke="none" stroke-opacity="1"/></g></g><g><g><path d="m1451 1435c-85 0-154-69-154-155 0-85 69-154 154-154 86 0 155 69 155 154 0 86-69 155-155 155zm0-269c-63 0-114 51-114 114s51 115 114 115 115-52 115-115-52-114-115-114z" fill="#ea1b29" fill-opacity="1" data-original-color="#000000ff" stroke="none" stroke-opacity="1"/></g><g><path d="m1687 1652h-472c-11 0-20-9-20-20v-104c0-90 70-166 159-173 11-1 21 7 22 18s-7 21-18 22c-69 5-123 64-123 133v84h432v-84c0-69-54-127-122-133-11-1-19-11-18-22s10-19 22-18c88 8 158 84 158 173v104c0 11-9 20-20 20z" fill="#ea1b29" fill-opacity="1" data-original-color="#000000ff" stroke="none" stroke-opacity="1"/></g><g><path d="m1325 1652c-11 0-20-9-20-20v-81c0-11 9-20 20-20s20 9 20 20v81c0 11-9 20-20 20z" fill="#ea1b29" fill-opacity="1" data-original-color="#000000ff" stroke="none" stroke-opacity="1"/></g><g><path d="m1576 1652c-11 0-20-9-20-20v-81c0-11 9-20 20-20s20 9 20 20v81c0 11-9 20-20 20z" fill="#ea1b29" fill-opacity="1" data-original-color="#000000ff" stroke="none" stroke-opacity="1"/></g></g></g><g><g><path d="m854 599c-67 0-122-55-122-122s55-121 122-121 121 54 121 121-54 122-121 122zm0-203c-45 0-82 36-82 81s37 82 82 82 81-37 81-82-36-81-81-81z" fill="#ea1b29" fill-opacity="1" data-original-color="#000000ff" stroke="none" stroke-opacity="1"/></g><g><path d="m1032 763h-357c-11 0-20-9-20-20v-79c0-70 55-130 125-135 11-1 21 7 22 18 0 11-8 21-19 22-49 4-88 46-88 95v59h317v-59c0-49-39-91-88-95-11-1-19-11-18-22s11-19 22-18c69 6 124 65 124 135v79c0 11-9 20-20 20z" fill="#ea1b29" fill-opacity="1" data-original-color="#000000ff" stroke="none" stroke-opacity="1"/></g><g><path d="m759 763c-11 0-20-9-20-20v-61c0-11 9-20 20-20s20 9 20 20v61c0 11-9 20-20 20z" fill="#ea1b29" fill-opacity="1" data-original-color="#000000ff" stroke="none" stroke-opacity="1"/></g><g><path d="m948 763c-11 0-20-9-20-20v-61c0-11 9-20 20-20s20 9 20 20v61c0 11-9 20-20 20z" fill="#ea1b29" fill-opacity="1" data-original-color="#000000ff" stroke="none" stroke-opacity="1"/></g></g><g><g><path d="m846 310c-11 0-20-9-20-20v-215c0-11 9-20 20-20s20 9 20 20v215c0 11-9 20-20 20z" fill="#ea1b29" fill-opacity="1" data-original-color="#000000ff" stroke="none" stroke-opacity="1"/></g><g><path d="m1353 587h-216c-11 0-20-9-20-20s9-20 20-20h216c11 0 20 9 20 20s-9 20-20 20z" fill="#ea1b29" fill-opacity="1" data-original-color="#000000ff" stroke="none" stroke-opacity="1"/></g><g><path d="m861 1094c-11 0-20-9-20-20v-215c0-11 9-20 20-20s20 9 20 20v215c0 11-9 20-20 20z" fill="#ea1b29" fill-opacity="1" data-original-color="#000000ff" stroke="none" stroke-opacity="1"/></g><g><path d="m569 602h-215c-11 0-20-9-20-20s9-20 20-20h215c11 0 20 9 20 20s-9 20-20 20z" fill="#ea1b29" fill-opacity="1" data-original-color="#000000ff" stroke="none" stroke-opacity="1"/></g></g></g></g></g></g></svg>