<svg id="Layer_1" enable-background="new 0 0 512 512" viewBox="0 0 512 512" xmlns="http://www.w3.org/2000/svg" width="300" height="300" version="1.1" xmlns:xlink="http://www.w3.org/1999/xlink" xmlns:svgjs="http://svgjs.dev/svgjs"><g width="100%" height="100%" transform="matrix(1,0,0,1,0,0)"><path d="m296.5 477.8c2.4 1.9 2.8 5.3.9 7.7l-18.6 23.5c-1.1 1.4-2.7 2.1-4.3 2.1-1.2 0-2.4-.4-3.4-1.2-2.4-1.9-2.8-5.3-.9-7.7l10.9-13.7c-8.2.8-16.6 1.3-24.9 1.4-78 0-149.4-35.8-196-98.1-.2-.3-.3-.7-.5-1-30.5-41.4-48-91.9-48.1-144.8 0-3 2.4-5.5 5.4-5.5 3 0 5.4 2.4 5.4 5.4.2 83 45 160.4 117 201.9.2.1.4.4.6.5 34.7 19.8 74.4 30.6 116.1 30.6 7.6 0 15.1-.5 22.6-1.2l-12.6-10c-2.4-1.9-2.8-5.3-.9-7.7s5.3-2.8 7.7-.9zm156.9-376.4 15.7 4c2.9.7 5.9-1 6.6-3.9s-1-5.9-3.9-6.6l-29-7.4c-2.9-.7-5.9 1-6.6 3.9l-7.4 29c-.7 2.9 1 5.9 3.9 6.6.4.1.9.2 1.3.2 2.4 0 4.6-1.6 5.3-4.1l4.3-16.8c29.9 40.3 45.8 88 45.9 138.1v1c0 4.8-.2 9.6-.5 14.3-.1 1.1-.2 2.1-.2 3.2-.3 4-.7 8-1.2 12-.1.7-.2 1.4-.3 2.1-9.8 70.7-51.7 134.2-114.4 170.5-2.6 1.5-3.5 4.8-2 7.4 1 1.7 2.8 2.7 4.7 2.7.9 0 1.9-.2 2.7-.7 45.6-26.4 80.6-66.6 101.2-113.5.4-.4.7-.9.9-1.4 8.8-20.5 14.7-41.9 17.6-63.8.1-.6.2-1.2.2-1.8.6-4.3 1-8.7 1.3-13.1.1-1 .2-2 .2-3 .3-5 .5-10.1.5-15.2.2-51.9-16-101.5-46.8-143.7zm-428.4 59.4c.4 1.4 1.3 2.6 2.5 3.3.9.5 1.8.8 2.8.8.4 0 .9-.1 1.3-.2l29-7.4c2.9-.7 4.7-3.7 3.9-6.6-.7-2.9-3.7-4.7-6.6-3.9l-15.4 3.9c16.2-36.6 41.7-68.6 74-92.6 7.9-5.9 16.1-11.2 24.6-16 1.4-.8 2.8-1.5 4.2-2.3 3.1-1.6 6.1-3.3 9.2-4.8 1.6-.8 3.2-1.4 4.7-2.2 3-1.3 5.9-2.7 8.9-3.9 2-.8 4.1-1.6 6.2-2.3 2.6-1 5.1-1.9 7.8-2.8s5.4-1.7 8.1-2.5c2-.6 4.1-1.2 6.1-1.8 3.3-.9 6.6-1.6 9.9-2.3 1.6-.3 3.1-.7 4.7-1 3.6-.7 7.2-1.3 10.8-1.8 1.4-.2 2.9-.5 4.3-.7 9.9-1.3 19.8-1.9 29.9-1.9 40.8 0 80.9 10.7 116.1 30.8 2.6 1.5 5.9.6 7.4-2s.6-5.9-2-7.4c-36.7-21-78.7-32.2-121.4-32.2-9.5 0-19 .6-28.3 1.7-.2 0-.4-.1-.6-.1-.7.1-1.5.2-2.2.3-1.6.2-3.1.5-4.7.7-3.7.5-7.4 1.1-11.1 1.8-1.7.3-3.4.8-5.1 1.1-3.4.7-6.8 1.5-10.2 2.4-2.2.6-4.4 1.3-6.6 1.9-2.8.8-5.6 1.6-8.3 2.5-2.8.9-5.5 2-8.2 3-2.1.8-4.3 1.6-6.4 2.4-3.2 1.3-6.2 2.7-9.3 4.1-1.7.8-3.4 1.5-5 2.3-3.2 1.5-6.4 3.2-9.5 4.9-1.6.8-3.1 1.6-4.7 2.5-.8.5-1.7.9-2.5 1.3-.2.1-.4.3-.6.5-7.8 4.5-15.4 9.4-22.6 14.8-33.8 25.2-60.5 58.7-77.4 97l-4.4-17.3c-.7-2.9-3.7-4.7-6.6-3.9-2.9.7-4.7 3.7-3.9 6.6zm332 11h37c8.7 0 15.7 7 15.7 15.6v18.9c0 3-2.4 5.4-5.4 5.4s-5.4-2.4-5.4-5.4v-18.9c0-2.6-2.1-4.7-4.8-4.7h-276.2c-2.6 0-4.7 2.1-4.7 4.7v111c0 3-2.4 5.4-5.4 5.4s-5.4-2.4-5.4-5.4v-111c0-8.6 7-15.6 15.6-15.6h37c1.9-4.5 4-8.9 6.4-13l-14.7-14.7c-3.6-3.7-3.5-9.3 0-12.9l26.5-26.5c3.6-3.6 9.3-3.5 12.9 0l14.7 14.7c8.6-5.1 17.8-8.9 27.5-11.4v-20.7c0-5 4.1-9.1 9.1-9.1h37.4c5 0 9.1 4.1 9.1 9.1v20.7c9.6 2.5 18.8 6.3 27.5 11.4l14.7-14.7c3.6-3.6 9.3-3.5 12.9 0l26.5 26.5c3.5 3.5 3.6 9.2.1 12.8l-14.7 14.7c2.2 4.2 4.2 8.6 6.1 13.1zm-11.8 0c-1.8-3.8-3.8-7.5-6-10.9-1.4-2.2-1.1-5 .7-6.8l16.4-16.4-23.9-23.9-16.4 16.4c-1.8 1.8-4.6 2.1-6.8.7-9.8-6.3-20.6-10.8-31.9-13.2-2.5-.5-4.3-2.8-4.3-5.3v-23.3h-33.8v23.3c0 2.6-1.8 4.8-4.3 5.3-11.4 2.4-22.1 6.9-31.9 13.2-2.1 1.4-5 1.1-6.8-.7l-16.4-16.4-23.9 23.9 16.4 16.4c1.8 1.8 2.1 4.6.7 6.8-2.2 3.5-4.3 7.1-6.1 10.9h35.4c12.9-16.4 32.8-26.2 53.8-26.2 3 0 5.4 2.4 5.4 5.4s-2.4 5.4-5.4 5.4c-14.5 0-28.4 5.6-38.9 15.3h77.7c-5.6-5.1-12-9.2-19.2-11.8-2.8-1-4.3-4.1-3.3-7 1-2.8 4.2-4.3 7-3.3 12.1 4.4 22.5 12 30.4 22.1h35.4zm48.9 206.9h-59.7c-3 0-5.4-2.4-5.4-5.4s2.4-5.4 5.4-5.4h59.7c2.6 0 4.8-2.1 4.8-4.7v-16.3h-285.8v16.3c0 2.6 2.1 4.7 4.8 4.7h116.8c.2 0 .4-.1.6-.1l20.7.1 20.6-.1c.2 0 .4.1.6.1h35.1c3 0 5.4 2.4 5.4 5.4s-2.4 5.4-5.4 5.4h-29.1l4.2 22.5h17c4.9 0 8.9 4 8.9 8.9v14.7c0 4.9-4 8.9-8.9 8.9h-96.8c-4.9 0-8.9-4-8.9-8.9v-14.7c0-4.9 4-8.9 8.9-8.9h17l4.2-22.5h-110.9c-8.6 0-15.6-7-15.6-15.6v-21.8-.1-22.5c0-3 2.4-5.4 5.4-5.4s5.4 2.4 5.4 5.4v17.2h285.7v-102.9c0-3 2.4-5.4 5.4-5.4s5.4 2.4 5.4 5.4v108.4.1 21.7c.1 8.5-6.9 15.5-15.5 15.5zm-158.5 22.6h40.7l-4.2-22.5h-32.3zm-26 10.9v10.7h92.8v-10.7zm4-186.9c-1.7-2.5-5-3.2-7.5-1.5l-54.2 35.8c-1.5 1-2.4 2.7-2.4 4.5s.9 3.5 2.4 4.5l54.2 35.8c.9.6 2 .9 3 .9 1.8 0 3.5-.9 4.5-2.4 1.7-2.5 1-5.9-1.5-7.5l-47.3-31.3 47.3-31.3c2.5-1.6 3.2-5 1.5-7.5zm84.8 77.6c1 1.6 2.8 2.4 4.5 2.4 1 0 2.1-.3 3-.9l54.2-35.8c1.5-1 2.4-2.7 2.4-4.5s-.9-3.5-2.4-4.5l-54.2-35.8c-2.5-1.7-5.9-1-7.5 1.5-1.7 2.5-1 5.9 1.5 7.5l47.3 31.3-47.3 31.3c-2.5 1.6-3.2 5-1.5 7.5zm-26.9-77.3-40.5 71.6c-1.5 2.6-.6 5.9 2.1 7.4.8.5 1.8.7 2.7.7 1.9 0 3.7-1 4.7-2.8l40.5-71.5c1.5-2.6.6-5.9-2.1-7.4-2.6-1.5-5.9-.6-7.4 2z" fill="#ea1b29" fill-opacity="1" data-original-color="#000000ff" stroke="none" stroke-opacity="1"/></g></svg>