<svg height="300" viewBox="1 -27 511.999 511" width="300" xmlns="http://www.w3.org/2000/svg" version="1.1" xmlns:xlink="http://www.w3.org/1999/xlink" xmlns:svgjs="http://svgjs.dev/svgjs"><g width="100%" height="100%" transform="matrix(1,0,0,1,0,0)"><path d="m494.523438 368.507812h-15.542969v-248.347656c0-23.296875-18.953125-42.253906-42.253907-42.253906h-3.902343l-.144531-59.246094c-.027344-10.011718-8.195313-18.160156-18.210938-18.160156h-317.097656c-10.042969 0-18.210938 8.167969-18.210938 18.207031v59.199219h-3.886718c-23.300782 0-42.253907 18.957031-42.253907 42.253906v248.347656h-15.542969c-9.636718 0-17.476562 7.839844-17.476562 17.480469v33.796875c0 20.714844 16.851562 37.566406 37.566406 37.566406h436.867188c20.714844 0 37.566406-16.851562 37.566406-37.566406v-33.796875c0-9.640625-7.839844-17.480469-17.476562-17.480469zm-80.050782-353.042968c1.785156 0 3.238282 1.453125 3.242188 3.234375l.160156 64.554687c0 14.316406-11.640625 26.1875-25.945312 26.460938-6.984376.160156-13.625-2.554688-18.734376-7.566406-4.585937-4.5-7.464843-10.519532-8.113281-16.835938.035157-.6875.054688-1.382812.054688-2.078125l-.167969-67.769531zm-64.496094 0v67.117187c0 .921875.042969 1.839844.105469 2.753907-1.066406 13.621093-12.484375 24.382812-26.378906 24.382812-13.777344 0-25.125-10.582031-26.351563-24.046875.046876-.808594.078126-1.617187.078126-2.4375l-.167969-67.769531zm-67.703124 0v67.789062c0 .816406.03125 1.621094.078124 2.425782-1.230468 13.460937-12.574218 24.042968-26.351562 24.042968s-25.125-10.585937-26.351562-24.050781c.046874-.808594.078124-1.617187.078124-2.4375l-.167968-67.769531zm-67.703126 0v67.789062c0 .816406.03125 1.621094.078126 2.425782-1.230469 13.457031-12.578126 24.039062-26.351563 24.039062-13.78125 0-25.132813-10.589844-26.351563-24.058594.046876-.800781.078126-1.609375.078126-2.425781l-.167969-67.769531zm-120.445312 3.246094c0-1.792969 1.453125-3.246094 3.246094-3.246094h49.496094v67.789062c0 .8125.027343 1.621094.074218 2.421875-1.222656 13.210938-12.339844 23.78125-25.832031 24.039063-6.972656.160156-13.621094-2.554688-18.730469-7.566406-5.246094-5.144532-8.253906-12.277344-8.253906-19.566407zm0 96.140624c7.472656 6.367188 16.742188 9.832032 26.480469 9.832032.261719 0 .527343-.003906.792969-.007813 13.585937-.257812 25.628906-7.207031 33.007812-17.632812 7.503906 10.65625 19.894531 17.640625 33.890625 17.640625 13.972656 0 26.34375-6.960938 33.847656-17.59375 7.507813 10.632812 19.878907 17.59375 33.855469 17.59375 13.972656 0 26.34375-6.960938 33.851562-17.59375 7.507813 10.632812 19.878907 17.59375 33.851563 17.59375 14.066406 0 26.503906-7.050782 33.996094-17.796875 1.484375 2.117187 3.15625 4.113281 5.015625 5.941406 7.8125 7.664063 17.976562 11.855469 28.710937 11.855469.261719 0 .523438-.003906.789063-.007813 9.726562-.1875 18.660156-3.800781 25.660156-9.664062v191.75c0 4.136719 3.351562 7.484375 7.484375 7.484375 4.128906 0 7.480469-3.347656 7.480469-7.484375v-213.890625h3.890625c15.046875 0 27.289062 12.242187 27.289062 27.289062v248.347656h-31.179687v-26.996093c0-4.132813-3.351563-7.480469-7.480469-7.480469-4.132813 0-7.484375 3.347656-7.484375 7.480469v26.996093h-323.75zm117.367188 268.621094h89.015624v10.839844c0 4.234375-3.441406 7.675781-7.675781 7.675781h-73.667969c-4.230468 0-7.675781-3.441406-7.675781-7.675781v-10.839844zm-163.511719-263.3125c0-15.046875 12.242187-27.289062 27.292969-27.289062h3.886718v275.636718h-31.179687zm449.054687 299.625c0 12.464844-10.140625 22.601563-22.601562 22.601563h-436.867188c-12.464844 0-22.601562-10.136719-22.601562-22.601563v-33.796875c0-1.386719 1.125-2.515625 2.511718-2.515625h179.050782v10.84375c0 12.480469 10.15625 22.636719 22.636718 22.636719h73.667969c12.484375 0 22.640625-10.15625 22.640625-22.636719v-10.84375h179.050782c1.386718 0 2.511718 1.128906 2.511718 2.515625zm0 0" fill="#ea1b29" fill-opacity="1" data-original-color="#000000ff" stroke="none" stroke-opacity="1"/><path d="m241.667969 234.039062c-5.738281 5.425782-8.992188 12.753907-9.175781 20.660157-.183594 7.980469 2.789062 15.519531 8.375 21.222656 8.886718 9.074219 22.253906 11.152344 33.191406 6.167969v39.796875c0 9.738281 7.921875 17.664062 17.664062 17.664062h22.570313c9.738281 0 17.660156-7.925781 17.660156-17.664062v-36.699219c10.34375 6.589844 24.175781 6.21875 34.238281-1.890625 6.214844-5.011719 10.054688-12.144531 10.808594-20.09375s-1.675781-15.679687-6.839844-21.769531c-.039062-.042969-.074218-.085938-.113281-.132813l-19.554687-21.988281h24.691406c6.800781 0 12.332031-5.53125 12.332031-12.332031v-48.1875c0-6.800781-5.53125-12.332031-12.332031-12.332031h-36.132813c-4.132812 0-7.484375 3.351562-7.484375 7.484374 0 4.132813 3.351563 7.480469 7.484375 7.480469h33.503907v42.921875h-35.367188l-18.863281-21.21875c-3.230469-3.769531-7.921875-6.09375-12.878907-6.386718-4.988281-.296876-9.953124 1.492187-13.609374 4.898437-.105469.097656-.207032.199219-.304688.304687l-21.441406 22.402344h-130.640625v-42.921875h165.359375c4.128906 0 7.480468-3.347656 7.480468-7.480469 0-4.132812-3.351562-7.484374-7.480468-7.484374h-167.992188c-6.796875 0-12.332031 5.53125-12.332031 12.332031v48.1875c0 6.800781 5.535156 12.332031 12.332031 12.332031h118.949219zm60.480469-41.550781c.902343-.773437 1.886718-.847656 2.417968-.808593.542969.03125 1.582032.230468 2.40625 1.199218.039063.046875.078125.089844.117188.132813l51.707031 58.160156c2.496094 2.976563 3.667969 6.742187 3.300781 10.617187-.367187 3.898438-2.25 7.398438-5.300781 9.855469-6.183594 4.980469-15.269531 4.007813-20.257813-2.175781-.148437-.183594-.304687-.363281-.472656-.535156l-1.835937-1.875c-2.871094-2.933594-7.183594-3.828125-10.984375-2.28125-3.800782 1.550781-6.257813 5.207031-6.257813 9.3125v47.796875c0 1.488281-1.210937 2.699219-2.699219 2.699219h-22.570312c-1.488281 0-2.695312-1.210938-2.695312-2.699219v-49.035157c0-4.058593-2.417969-7.695312-6.160157-9.269531-1.261719-.53125-2.589843-.789062-3.902343-.789062-2.578126 0-5.109376.996093-7.027344 2.875-5.675782 5.558593-14.816406 5.460937-20.375-.214844-2.738282-2.796875-4.199219-6.496094-4.109375-10.410156.089843-3.914063 1.71875-7.539063 4.585937-10.207031.105469-.097657.207032-.199219.304688-.304688zm0 0" fill="#ea1b29" fill-opacity="1" data-original-color="#000000ff" stroke="none" stroke-opacity="1"/></g></svg>