<svg clip-rule="evenodd" fill-rule="evenodd" height="300" image-rendering="optimizeQuality" shape-rendering="geometricPrecision" text-rendering="geometricPrecision" viewBox="0 0 4335 4335" width="300" xmlns="http://www.w3.org/2000/svg" version="1.1" xmlns:xlink="http://www.w3.org/1999/xlink" xmlns:svgjs="http://svgjs.dev/svgjs"><g width="100%" height="100%" transform="matrix(1,0,0,1,0,0)"><g id="Layer_x0020_1"><path d="m3162 3578h-453c-75 0-75-116 0-116h453c75 0 74 116 0 116zm213-2274h-128v536c0 31-26 57-58 57h-210c-32 0-57-26-57-57v-536c-217 0-198 23-198-194-88 0-193 20-193-57v-265c0-77 105-58 193-58 0-88-20-193 58-193h593l666-270c38-15 80 13 80 53v319h156c32 0 57 25 57 57v448c0 32-25 58-57 58h-156v318c0 41-43 69-80 54zm69-671v574l561 228v-1029zm-605 555h490v-536h-490zm1282-101h98v-333h-98zm-1084 695h94v-478h-94zm-391-787h78v-149h-78zm1607 3102h-1864c-32 0-58-26-58-58v-1589c0-32 26-57 58-57h1864c32 0 58 25 58 57v1589c0 32-26 58-58 58zm-1807-115h1749v-1474h-204v962c0 54-70 78-103 35l-189-243-203 245c-34 41-102 16-102-37v-962h-948zm-661-459h-55c0 279 30 279-130 279-119 392-601 392-721 0-160 0-130-1-130-279-139 0-112-13-112-263-49 0-142 15-142-58 0-1127-495-951-495-1725 0-683 556-1239 1240-1239 683 0 1239 556 1239 1239 0 775-494 597-494 1725 0 73-94 58-142 58v205c0 32-26 58-58 58zm-170 0h-750v163h750zm-923-379h2 1176c16-1093 494-962 494-1667 0-619-504-1124-1124-1124s-1124 505-1124 1124c0 705 478 574 494 1667zm60 263h975v-147h-975zm250 395c98 238 377 238 476 0zm385-1438h-294c-29 0-54-22-57-51l-28-235c-60-23-117-56-168-97l-217 94c-27 12-58 1-73-24l-146-254c-15-26-8-58 15-75l190-142c-10-64-10-129 0-193l-190-142c-23-17-30-49-15-75l146-254c15-25 46-36 73-24l218 94c50-41 107-74 167-97l28-235c3-29 28-51 57-51h294c29 0 54 22 57 51l27 235c61 23 117 56 168 97l217-94c27-12 58-1 73 24l147 254c15 26 8 58-16 75l-189 142c9 64 9 129 0 193l189 142c24 17 31 49 16 75l-147 254c-15 25-46 36-73 24l-217-93c-51 40-107 73-168 97l-27 234c-4 29-28 51-57 51zm-243-115h191l26-220c8-66 104-45 229-158 17-15 41-19 62-10l203 88 95-166c-267-198-187-102-187-299 0-198-80-102 187-300l-95-166-203 88c-62 27-92-69-252-120-21-7-36-26-39-48l-26-220h-191l-25 220c-8 67-105 45-230 158-16 15-41 19-61 10l-203-88-96 166c267 198 188 102 188 300 0 197 79 101-188 299l96 166 203-88c62-26 91 69 251 120 21 7 37 26 40 48zm96-463c-167 0-303-135-303-302 0-168 136-303 303-303s303 135 303 303c0 167-136 302-303 302zm0-490c-104 0-188 84-188 188 0 103 84 187 188 187 103 0 187-84 187-187 0-104-84-188-187-188zm2269 1212v802l147-177c23-28 68-27 90 1l130 168-1-794zm-147 1320h-653c-75 0-75-115 0-115h653c75 0 75 115 0 115z" fill="#ea1b29" fill-opacity="1" data-original-color="#000000ff" stroke="none" stroke-opacity="1"/></g></g></svg>