<svg xmlns="http://www.w3.org/2000/svg" id="Layer_1" data-name="Layer 1" viewBox="0 0 512 512" width="300" height="300" version="1.1" xmlns:xlink="http://www.w3.org/1999/xlink" xmlns:svgjs="http://svgjs.dev/svgjs"><g width="100%" height="100%" transform="matrix(1,0,0,1,0,0)"><path d="M255.418,116.937a194.681,194.681,0,0,1,19.918,1.035.912.912,0,0,0,1.009-.906V94.483a.927.927,0,0,0-.931-.931H235.4a.922.922,0,0,0-.9.931v22.583a.912.912,0,0,0,1.009.906,194.681,194.681,0,0,1,19.918-1.035ZM193.49,298.608l33.4-12.727a.918.918,0,0,0,.491-1.242L196.62,219.607c-3.932-8.33,6.493-16.168,13.4-9.959l110.741,99.436a6.386,6.386,0,0,1-2.406,10.839L283.95,331.59a.88.88,0,0,0-.569,1.112l18.78,65.291h.026c2.328,8.381-8.1,14.434-14.253,8.252l-96.669-97.187a6.371,6.371,0,0,1,2.251-10.45Zm45.295-3.622-30.266,11.537a.913.913,0,0,0-.31,1.5l74.655,75.069a.919.919,0,0,0,1.526-.906l-15.029-52.175c-1.112-3.829.543-7.114,3.932-8.278l29.334-9.959a.9.9,0,0,0,.336-1.527l-82.441-74.034a.928.928,0,0,0-1.449,1.087l23.049,48.709a6.337,6.337,0,0,1-3.337,8.976ZM391.3,306.42a135.418,135.418,0,0,1-39.811,96.126c-53.03,53.055-138.73,53.106-192.148.025a135.867,135.867,0,0,1,96.074-231.984C330.306,170.458,391.277,231.4,391.3,306.42Zm-13.917,6.441H351.311a6.39,6.39,0,1,1,0-12.779h26.075a.917.917,0,0,0,.931-.957,122.621,122.621,0,0,0-30.809-74.344.894.894,0,0,0-1.319-.052l-10.813,10.813a6.393,6.393,0,1,1-9.028-9.054L337.161,215.7a.914.914,0,0,0-.052-1.319,122.532,122.532,0,0,0-74.345-30.809.912.912,0,0,0-.957.905v26.1a6.389,6.389,0,1,1-12.778,0v-26.1a.919.919,0,0,0-.983-.905A122.662,122.662,0,0,0,173.7,214.356a.893.893,0,0,0-.026,1.319l10.787,10.813a6.393,6.393,0,0,1-9.028,9.054l-10.813-10.813a.893.893,0,0,0-1.319.026,122.352,122.352,0,0,0-30.783,74.37.882.882,0,0,0,.906.957H159.5a6.39,6.39,0,1,1,0,12.779H133.425a.912.912,0,0,0-.906.957A122.664,122.664,0,0,0,163.3,388.163a.945.945,0,0,0,1.345.051L175.434,377.4a6.384,6.384,0,0,1,9.028,9.028l-10.787,10.813a.893.893,0,0,0,.026,1.319,122.691,122.691,0,0,0,74.345,30.809.926.926,0,0,0,.983-.932V402.364a6.389,6.389,0,0,1,12.778,0v26.075a.919.919,0,0,0,.957.932,122.691,122.691,0,0,0,74.345-30.809.893.893,0,0,0,.026-1.319L326.348,386.43a6.384,6.384,0,1,1,9.028-9.028l10.813,10.812a.914.914,0,0,0,1.319-.051,122.691,122.691,0,0,0,30.809-74.345.917.917,0,0,0-.931-.957Zm20.177-133.194,14.9-14.745a.905.905,0,0,0,0-1.293l-11.486-11.615a.905.905,0,0,0-1.293,0l-14.848,14.693a.913.913,0,0,0,.025,1.319c3.958,3.725,7.735,7.58,11.382,11.615a.894.894,0,0,0,1.32.026Zm-22.48-21.212,15.625-15.5a.929.929,0,0,0,.025-1.293l-10.476-10.554a6.369,6.369,0,0,1,.026-9l25.195-24.937a6.345,6.345,0,0,1,9,.026l52.926,53.443a6.4,6.4,0,0,1-.026,9.028l-25.169,24.911a6.347,6.347,0,0,1-9-.026l-10.477-10.58a.929.929,0,0,0-1.293,0L405.633,189.6a.976.976,0,0,0-.077,1.216A189.494,189.494,0,0,1,389.44,440.494C315.406,514.5,195.4,514.5,121.4,440.494a189.5,189.5,0,0,1-15.624-250.325.914.914,0,0,0-.078-1.216L90.587,173.976a.929.929,0,0,0-1.293,0l-10.477,10.58a6.378,6.378,0,0,1-9.028.026L44.62,159.671a6.4,6.4,0,0,1-.026-9.028L97.52,97.2a6.377,6.377,0,0,1,9.028-.026l25.169,24.937a6.369,6.369,0,0,1,.026,9l-10.451,10.554a.905.905,0,0,0,0,1.293L136.4,157.938a.941.941,0,0,0,1.216.051,188.735,188.735,0,0,1,83.347-37.922.916.916,0,0,0,.75-.9V94.483a.922.922,0,0,0-.905-.931H187.049a6.387,6.387,0,0,1-6.39-6.389v-64.8A6.382,6.382,0,0,1,187.049,16H323.761a6.382,6.382,0,0,1,6.39,6.364v64.8a6.387,6.387,0,0,1-6.39,6.389H290.029a.927.927,0,0,0-.931.931v24.679a.916.916,0,0,0,.75.9,188.615,188.615,0,0,1,84.019,38.44.942.942,0,0,0,1.216-.052Zm29.8-20.591,32.232,32.542a.93.93,0,0,0,1.293.026l14.822-14.693a.9.9,0,0,0,0-1.293l-42.682-43.1a.905.905,0,0,0-1.293,0l-14.822,14.668a.9.9,0,0,0,0,1.293ZM85.362,159.852l32.205-32.542a.9.9,0,0,0,0-1.293l-14.822-14.668a.905.905,0,0,0-1.293,0l-42.682,43.1a.9.9,0,0,0,0,1.293l14.822,14.693a.929.929,0,0,0,1.293-.026Zm41.259,6.312-14.3-14.15a.875.875,0,0,0-1.267,0L99.537,163.629a.905.905,0,0,0,0,1.293l14.28,14.15a.913.913,0,0,0,1.319-.026q5.471-6.053,11.459-11.589a.884.884,0,0,0,.026-1.293ZM316.466,28.753H194.37a.928.928,0,0,0-.932.931V79.868a.907.907,0,0,0,.932.906h122.1a.9.9,0,0,0,.906-.906V29.684a.922.922,0,0,0-.906-.931Zm63.92,152.725a176.75,176.75,0,1,0,51.788,124.994,176.775,176.775,0,0,0-51.788-124.994Z" fill="#ea1b29" fill-opacity="1" data-original-color="#000000ff" stroke="none" stroke-opacity="1"/></g></svg>