<svg id="Layer_1" enable-background="new 0 0 64 64" viewBox="0 0 64 64" xmlns="http://www.w3.org/2000/svg" width="300" height="300" version="1.1" xmlns:xlink="http://www.w3.org/1999/xlink" xmlns:svgjs="http://svgjs.dev/svgjs"><g width="100%" height="100%" transform="matrix(1,0,0,1,0,0)"><g><g><path d="m53.8 64h-43.6c-1.31 0-2.37-1.06-2.37-2.37v-48.66c0-1.31 1.06-2.37 2.37-2.37h43.6c1.31 0 2.37 1.06 2.37 2.37v48.66c0 1.31-1.07 2.37-2.37 2.37zm-43.6-51.93c-.5 0-.9.41-.9.9v48.66c0 .5.41.9.9.9h43.6c.5 0 .9-.41.9-.9v-48.66c0-.5-.41-.9-.9-.9z" fill="#ea1b29" fill-opacity="1" data-original-color="#000000ff" stroke="none" stroke-opacity="1"/></g><g><g><path d="m46.42 12.07c-.4 0-.73-.33-.73-.73v-.14c0-2.55-2.08-4.63-4.63-4.63h-3.96c-.4 0-.73-.33-.73-.73 0-2.41-1.96-4.37-4.37-4.37s-4.37 1.96-4.37 4.37c0 .4-.33.73-.73.73h-3.96c-2.55 0-4.63 2.08-4.63 4.63v.14c0 .4-.33.73-.73.73s-.73-.33-.73-.73v-.14c0-3.36 2.73-6.1 6.1-6.1h3.27c.35-2.87 2.81-5.1 5.78-5.1s5.43 2.23 5.79 5.1h3.27c3.36 0 6.1 2.74 6.1 6.1v.14c-.01.4-.33.73-.74.73z" fill="#ea1b29" fill-opacity="1" data-original-color="#000000ff" stroke="none" stroke-opacity="1"/></g><g><path d="m32 8.31c-1.57 0-2.84-1.27-2.84-2.84s1.27-2.84 2.84-2.84 2.84 1.27 2.84 2.84-1.27 2.84-2.84 2.84zm0-4.21c-.76 0-1.38.62-1.38 1.38s.62 1.38 1.38 1.38 1.38-.62 1.38-1.38c0-.77-.62-1.38-1.38-1.38z" fill="#ea1b29" fill-opacity="1" data-original-color="#000000ff" stroke="none" stroke-opacity="1"/></g></g><g><g><g><path d="m42.64 55.09c-5.7 0-10.33-4.63-10.33-10.33s4.63-10.33 10.33-10.33 10.33 4.63 10.33 10.33-4.63 10.33-10.33 10.33zm0-19.19c-4.89 0-8.86 3.98-8.86 8.86 0 4.89 3.98 8.86 8.86 8.86 4.89 0 8.86-3.98 8.86-8.86.01-4.88-3.97-8.86-8.86-8.86z" fill="#ea1b29" fill-opacity="1" data-original-color="#000000ff" stroke="none" stroke-opacity="1"/></g><g><g><path d="m43.93 45.5c-.17 0-.33-.06-.47-.17l-4.74-4.01c-.31-.26-.35-.72-.09-1.03 1.32-1.57 3.25-2.47 5.3-2.47 2.06 0 3.99.9 5.29 2.47.26.31.22.77-.09 1.03l-4.68 3.96c-.06.06-.13.12-.22.15-.09.05-.19.07-.3.07zm-3.67-4.8 3.67 3.1 3.67-3.1c-.99-.91-2.29-1.42-3.67-1.42-1.37 0-2.67.51-3.67 1.42z" fill="#ea1b29" fill-opacity="1" data-original-color="#000000ff" stroke="none" stroke-opacity="1"/></g><g><path d="m36.61 49.5c-.21 0-.41-.09-.56-.26-1.06-1.25-1.65-2.85-1.65-4.48 0-1.64.59-3.23 1.65-4.48.26-.31.72-.34 1.03-.08l4.74 4.01c.17.14.26.34.26.56s-.1.42-.26.56l-4.74 4c-.13.11-.3.17-.47.17zm.12-7.68c-.56.87-.86 1.89-.86 2.94s.3 2.07.87 2.95l3.48-2.94z" fill="#ea1b29" fill-opacity="1" data-original-color="#000000ff" stroke="none" stroke-opacity="1"/></g><g><path d="m43.94 51.71c-2.05 0-3.99-.9-5.3-2.47-.26-.31-.22-.77.09-1.03l4.74-4c.22-.18.52-.23.78-.1.26.12.42.38.42.66v6.21c0 .4-.33.73-.73.73zm-3.68-2.88c.82.74 1.84 1.22 2.94 1.37v-3.85z" fill="#ea1b29" fill-opacity="1" data-original-color="#000000ff" stroke="none" stroke-opacity="1"/></g><g><path d="m43.94 51.71c-.4 0-.73-.33-.73-.73s.33-.73.73-.73c1.38 0 2.68-.51 3.67-1.42l-4.14-3.5c-.31-.26-.35-.72-.09-1.03s.73-.35 1.03-.09l4.73 4c.31.26.35.72.09 1.03-1.3 1.57-3.23 2.47-5.29 2.47z" fill="#ea1b29" fill-opacity="1" data-original-color="#000000ff" stroke="none" stroke-opacity="1"/></g><g><path d="m48.67 49.5c-.17 0-.34-.06-.47-.17-.31-.26-.35-.72-.08-1.03.84-.99 1.3-2.24 1.3-3.54 0-1.29-.46-2.55-1.3-3.52-.26-.31-.23-.77.08-1.03s.77-.23 1.03.08c1.06 1.24 1.65 2.83 1.65 4.48 0 1.64-.59 3.23-1.65 4.48-.15.16-.36.25-.56.25z" fill="#ea1b29" fill-opacity="1" data-original-color="#000000ff" stroke="none" stroke-opacity="1"/></g><g><path d="m43.94 45.5c-.4 0-.73-.32-.73-.73v-.01c0-.4.33-.73.73-.73s.73.33.73.73-.33.74-.73.74z" fill="#ea1b29" fill-opacity="1" data-original-color="#000000ff" stroke="none" stroke-opacity="1"/></g></g></g><g><g><path d="m33.05 45.88h-20.36c-.91 0-1.66-.74-1.66-1.66v-23.05c0-.92.75-1.66 1.66-1.66h30.63c.92 0 1.66.74 1.66 1.66v14.13c0 .4-.33.73-.73.73s-.73-.33-.73-.73v-14.13c0-.11-.09-.19-.19-.19h-30.64c-.11 0-.19.09-.19.19v23.06c0 .11.08.19.19.19h20.37c.4 0 .73.33.73.73s-.33.73-.74.73z" fill="#ea1b29" fill-opacity="1" data-original-color="#000000ff" stroke="none" stroke-opacity="1"/></g><g><g><g><g><path d="m27.73 33.99h-13c-.4 0-.73-.33-.73-.73s.33-.73.73-.73h13c.4 0 .73.33.73.73s-.33.73-.73.73z" fill="#ea1b29" fill-opacity="1" data-original-color="#000000ff" stroke="none" stroke-opacity="1"/></g><g><path d="m25.71 33.99c-.4 0-.73-.33-.73-.73v-9.44c0-.4.33-.73.73-.73s.73.33.73.73v9.44c0 .4-.33.73-.73.73z" fill="#ea1b29" fill-opacity="1" data-original-color="#000000ff" stroke="none" stroke-opacity="1"/></g><g><path d="m22.72 33.99c-.4 0-.73-.33-.73-.73v-7.62c0-.4.33-.73.73-.73s.73.33.73.73v7.62c.01.4-.32.73-.73.73z" fill="#ea1b29" fill-opacity="1" data-original-color="#000000ff" stroke="none" stroke-opacity="1"/></g><g><path d="m19.74 33.99c-.4 0-.73-.33-.73-.73v-6.11c0-.4.33-.73.73-.73s.73.33.73.73v6.11c0 .4-.33.73-.73.73z" fill="#ea1b29" fill-opacity="1" data-original-color="#000000ff" stroke="none" stroke-opacity="1"/></g><g><path d="m16.75 33.99c-.4 0-.73-.33-.73-.73v-4.9c0-.4.33-.73.73-.73s.73.33.73.73v4.9c.01.4-.32.73-.73.73z" fill="#ea1b29" fill-opacity="1" data-original-color="#000000ff" stroke="none" stroke-opacity="1"/></g></g><g><path d="m27.73 38.98h-13c-.4 0-.73-.33-.73-.73s.33-.73.73-.73h13c.4 0 .73.33.73.73s-.33.73-.73.73z" fill="#ea1b29" fill-opacity="1" data-original-color="#000000ff" stroke="none" stroke-opacity="1"/></g><g><path d="m27.73 42.31h-13c-.4 0-.73-.33-.73-.73s.33-.73.73-.73h13c.4 0 .73.33.73.73s-.33.73-.73.73z" fill="#ea1b29" fill-opacity="1" data-original-color="#000000ff" stroke="none" stroke-opacity="1"/></g></g><g><g><path d="m41.27 25.93h-8.49c-.4 0-.73-.33-.73-.73s.33-.73.73-.73h8.49c.4 0 .73.33.73.73s-.32.73-.73.73z" fill="#ea1b29" fill-opacity="1" data-original-color="#000000ff" stroke="none" stroke-opacity="1"/></g><g><path d="m41.27 29.26h-8.49c-.4 0-.73-.33-.73-.73s.33-.73.73-.73h8.49c.4 0 .73.33.73.73.01.41-.32.73-.73.73z" fill="#ea1b29" fill-opacity="1" data-original-color="#000000ff" stroke="none" stroke-opacity="1"/></g><g><path d="m41.27 32.6h-8.49c-.4 0-.73-.33-.73-.73s.33-.73.73-.73h8.49c.4 0 .73.33.73.73s-.32.73-.73.73z" fill="#ea1b29" fill-opacity="1" data-original-color="#000000ff" stroke="none" stroke-opacity="1"/></g></g></g></g></g></g></g></svg>