<svg height="300" viewBox="0 0 64 64" width="300" xmlns="http://www.w3.org/2000/svg" version="1.1" xmlns:xlink="http://www.w3.org/1999/xlink" xmlns:svgjs="http://svgjs.dev/svgjs"><g width="100%" height="100%" transform="matrix(1,0,0,1,0,0)"><path d="m23 30h-10a1 1 0 0 1 -1-1v-8a1 1 0 0 1 1-1h10a1 1 0 0 1 1 1v8a1 1 0 0 1 -1 1zm-9-2h8v-6h-8z" fill="#ea1b29" fill-opacity="1" data-original-color="#000000ff" stroke="none" stroke-opacity="1"/><path d="m37 38h-10a1 1 0 0 1 -1-1v-10a1 1 0 0 1 1-1h10a1 1 0 0 1 1 1v10a1 1 0 0 1 -1 1zm-9-2h8v-8h-8z" fill="#ea1b29" fill-opacity="1" data-original-color="#000000ff" stroke="none" stroke-opacity="1"/><path d="m16 36h8v2h-8z" fill="#ea1b29" fill-opacity="1" data-original-color="#000000ff" stroke="none" stroke-opacity="1"/><path d="m16 40h8v2h-8z" fill="#ea1b29" fill-opacity="1" data-original-color="#000000ff" stroke="none" stroke-opacity="1"/><path d="m16 44h8v2h-8z" fill="#ea1b29" fill-opacity="1" data-original-color="#000000ff" stroke="none" stroke-opacity="1"/><path d="m30 40h8v2h-8z" fill="#ea1b29" fill-opacity="1" data-original-color="#000000ff" stroke="none" stroke-opacity="1"/><path d="m30 44h8v2h-8z" fill="#ea1b29" fill-opacity="1" data-original-color="#000000ff" stroke="none" stroke-opacity="1"/><path d="m40 40h12v2h-12z" fill="#ea1b29" fill-opacity="1" data-original-color="#000000ff" stroke="none" stroke-opacity="1"/><path d="m40 44h12v2h-12z" fill="#ea1b29" fill-opacity="1" data-original-color="#000000ff" stroke="none" stroke-opacity="1"/><path d="m26 40h2v2h-2z" fill="#ea1b29" fill-opacity="1" data-original-color="#000000ff" stroke="none" stroke-opacity="1"/><path d="m26 44h2v2h-2z" fill="#ea1b29" fill-opacity="1" data-original-color="#000000ff" stroke="none" stroke-opacity="1"/><path d="m42 20a1 1 0 0 1 -.707-.293l-3-3a1 1 0 0 1 0-1.414l3-3a1 1 0 0 1 1.414 1.414l-2.293 2.293 2.293 2.293a1 1 0 0 1 -.707 1.707z" fill="#ea1b29" fill-opacity="1" data-original-color="#000000ff" stroke="none" stroke-opacity="1"/><path d="m50 20a1 1 0 0 1 -.707-1.707l2.293-2.293-2.293-2.293a1 1 0 0 1 1.414-1.414l3 3a1 1 0 0 1 0 1.414l-3 3a1 1 0 0 1 -.707.293z" fill="#ea1b29" fill-opacity="1" data-original-color="#000000ff" stroke="none" stroke-opacity="1"/><path d="m45 21a.976.976 0 0 1 -.244-.03 1 1 0 0 1 -.727-1.213l2-8a1 1 0 0 1 1.94.486l-2 8a1 1 0 0 1 -.969.757z" fill="#ea1b29" fill-opacity="1" data-original-color="#000000ff" stroke="none" stroke-opacity="1"/><path d="m16 32h8v2h-8z" fill="#ea1b29" fill-opacity="1" data-original-color="#000000ff" stroke="none" stroke-opacity="1"/><path d="m12 32h2v2h-2z" fill="#ea1b29" fill-opacity="1" data-original-color="#000000ff" stroke="none" stroke-opacity="1"/><path d="m12 36h2v2h-2z" fill="#ea1b29" fill-opacity="1" data-original-color="#000000ff" stroke="none" stroke-opacity="1"/><path d="m12 40h2v2h-2z" fill="#ea1b29" fill-opacity="1" data-original-color="#000000ff" stroke="none" stroke-opacity="1"/><path d="m12 44h2v2h-2z" fill="#ea1b29" fill-opacity="1" data-original-color="#000000ff" stroke="none" stroke-opacity="1"/><path d="m61 52h-1v-30.11a6.994 6.994 0 0 0 -5-11.89 6.836 6.836 0 0 0 -1 .073v-.073a8 8 0 0 0 -16 0v.073a6.836 6.836 0 0 0 -1-.073 6.976 6.976 0 0 0 -4.89 2h-23.11a5.006 5.006 0 0 0 -5 5v35h-1a1 1 0 0 0 -1 1v4a5.006 5.006 0 0 0 5 5h50a5.006 5.006 0 0 0 5-5v-4a1 1 0 0 0 -1-1zm-22.226-39.669a1 1 0 0 0 1.347-1.131 6.121 6.121 0 0 1 -.121-1.2 6 6 0 0 1 12 0 6.121 6.121 0 0 1 -.121 1.2 1 1 0 0 0 1.347 1.128 4.873 4.873 0 0 1 1.774-.328 5 5 0 0 1 0 10h-18a5 5 0 0 1 0-10 4.873 4.873 0 0 1 1.774.331zm-8.694 5.669a7 7 0 0 0 6.92 6h17v24h-44v-30zm-24.08-1a3 3 0 0 1 3-3h21.685a6.937 6.937 0 0 0 -.605 2h-21.08a1 1 0 0 0 -1 1v32a1 1 0 0 0 1 1h46a1 1 0 0 0 1-1v-25.08a6.937 6.937 0 0 0 2-.605v28.685h-52zm31 37v1a1 1 0 0 1 -1 1h-8a1 1 0 0 1 -1-1v-1zm23 3a3 3 0 0 1 -3 3h-50a3 3 0 0 1 -3-3v-3h21v1a3 3 0 0 0 3 3h8a3 3 0 0 0 3-3v-1h21z" fill="#ea1b29" fill-opacity="1" data-original-color="#000000ff" stroke="none" stroke-opacity="1"/><path d="m51 38h-10a1 1 0 0 1 -1-1v-10a1 1 0 0 1 1-1h10a1 1 0 0 1 1 1v10a1 1 0 0 1 -1 1zm-9-2h8v-8h-8z" fill="#ea1b29" fill-opacity="1" data-original-color="#000000ff" stroke="none" stroke-opacity="1"/></g></svg>