<svg id="Layer_1" enable-background="new 0 0 512 512" viewBox="0 0 512 512" xmlns="http://www.w3.org/2000/svg" width="300" height="300" version="1.1" xmlns:xlink="http://www.w3.org/1999/xlink" xmlns:svgjs="http://svgjs.dev/svgjs"><g width="100%" height="100%" transform="matrix(1,0,0,1,0,0)"><path d="m406.53 247.96c-.61-1.47-1.79-2.63-3.26-3.24-1.47-.6-3.12-.6-4.59.01l-72.54 30.32c-1.47.61-2.63 1.79-3.24 3.26-.6 1.47-.6 3.12.01 4.59l2.29 5.49c-15.9-6.58-33-12.6-51.07-17.95-1.27-.38-2.62-.32-3.85.15-2.76 1.06-5.48 2.09-8.17 3.1-14.73 5.56-28.63 10.82-42.58 18.64-1.69.95-2.82 2.65-3.03 4.58-.07.61-.14 1.2-.21 1.8l-32.65-6.55 5.42-12.98c.61-1.47.62-3.12.01-4.59-.6-1.47-1.77-2.64-3.24-3.26l-72.58-30.3c-3.06-1.28-6.57.17-7.85 3.23l-52.41 125.57c-.61 1.47-.62 3.12-.01 4.59.6 1.47 1.77 2.64 3.24 3.26l72.58 30.3c.76.32 1.54.46 2.31.46 2.35 0 4.58-1.39 5.54-3.69l5.38-12.89 13.98 9.7-9.04 9.62c-5.79 6.16-5.49 15.88.67 21.67l7.88 7.41c1.66 1.56 3.59 2.66 5.62 3.34-.53 4.64 1.05 9.47 4.71 12.91l7.88 7.41c2.96 2.78 6.73 4.15 10.5 4.15 2.06 0 4.12-.42 6.04-1.24.76 1.35 1.71 2.59 2.87 3.68l7.88 7.41c2.95 2.78 6.73 4.15 10.49 4.15 1.67 0 3.34-.29 4.94-.83.78 1.52 1.81 2.94 3.12 4.18l7.88 7.41c2.95 2.78 6.73 4.15 10.49 4.15 4.08 0 8.16-1.62 11.17-4.82l13.29-14.14 13.21 11.68c2.82 2.49 6.39 3.84 10.13 3.84.32 0 .64-.01.97-.03 4.09-.25 7.84-2.08 10.54-5.14l7.16-8.11c1.19-1.35 2.09-2.86 2.72-4.45 1.17.28 2.37.43 3.56.43 4.24 0 8.47-1.75 11.49-5.17l7.16-8.11c1.07-1.21 1.91-2.54 2.52-3.94 1.53.49 3.11.75 4.7.75 4.24 0 8.47-1.75 11.5-5.17l7.16-8.11c3.32-3.76 4.44-8.7 3.5-13.27 1.96-.86 3.77-2.16 5.29-3.87l7.16-8.1c5.6-6.33 5-16.04-1.33-21.64l-2.2-1.94 2.51-1.69 5.21 12.46c.61 1.47 1.79 2.63 3.26 3.24.73.3 1.5.45 2.28.45.79 0 1.57-.15 2.31-.46l72.54-30.32c3.06-1.28 4.5-4.79 3.22-7.85zm-278.65 146.64-61.5-25.68 47.81-114.5 61.5 25.68zm27.82 24.81 23.92-25.45c1.24-1.32 3.27-1.41 4.63-.21l8.11 7.17c.75.66 1.08 1.34 1.12 2.34.05 1-.21 1.71-.9 2.43l-24.15 25.69c-1.26 1.34-3.37 1.4-4.71.15l-7.88-7.41c-1.33-1.26-1.4-3.37-.14-4.71zm26.24 35.78-7.88-7.41c-1.34-1.26-1.4-3.37-.15-4.71l3.26-3.47 24.15-25.69s0 0 .01-.01l5.84-6.21c.66-.7 1.54-1.06 2.42-1.06.78 0 1.57.28 2.21.84l8.11 7.17c.75.66 1.08 1.34 1.12 2.34.05 1-.21 1.71-.9 2.43l-4.23 4.5-23.44 24.94-5.81 6.18c-1.26 1.35-3.37 1.42-4.71.16zm27.29 14-7.88-7.41c-.64-.6-1.01-1.43-1.04-2.32s.29-1.74.89-2.38l23.44-24.94c1.24-1.32 3.27-1.41 4.63-.21l8.11 7.17c.75.66 1.08 1.34 1.12 2.34.05 1-.21 1.71-.9 2.43l-18.71 19.9-4.96 5.27c-1.25 1.34-3.36 1.41-4.7.15zm31.15 14.77c-1.26 1.34-3.37 1.4-4.71.15l-7.88-7.41c-1.34-1.26-1.4-3.37-.15-4.71l18.71-19.9c.13-.14.25-.29.37-.44l.02.02c1.24-1.32 3.27-1.41 4.63-.21l8.11 7.17c.75.66 1.07 1.34 1.12 2.34s-.21 1.71-.9 2.43zm121.83-70.63-7.16 8.1c-1.22 1.38-3.32 1.51-4.7.29l-53.85-47.6c-2.48-2.19-6.28-1.96-8.47.52s-1.96 6.27.52 8.47l53.85 47.6c.75.67 1.56 1.24 2.39 1.73.31.52.7 1 1.18 1.43 1.38 1.22 1.51 3.32.29 4.7l-7.16 8.1c-1.21 1.38-3.32 1.51-4.7.29l-64.26-56.8c-2.48-2.19-6.28-1.96-8.47.52s-1.96 6.27.52 8.47l57.9 51.17c1.38 1.22 1.51 3.32.29 4.7l-7.16 8.11c-1.21 1.38-3.32 1.51-4.7.29l-55.67-49.2c-2.48-2.2-6.28-1.96-8.47.52s-1.96 6.27.52 8.47l50.24 44.41c.66.58 1.06 1.4 1.11 2.29s-.24 1.75-.82 2.41l-7.16 8.11c-.58.66-1.4 1.06-2.29 1.11s-1.75-.24-2.41-.82l-13.18-11.65c1.59-2.57 2.34-5.52 2.2-8.67-.2-4.24-1.98-7.97-5.16-10.78l-8.11-7.17c-2.65-2.34-5.85-3.6-9.1-3.82-.63-3.31-2.28-6.24-4.88-8.54l-8.11-7.17c-1.37-1.21-2.89-2.12-4.49-2.76.24-1.21.34-2.45.28-3.74-.2-4.24-1.98-7.97-5.16-10.78l-8.11-7.17c-4.62-4.08-10.93-4.9-16.22-2.6-.83-1.46-1.89-2.79-3.22-3.96l-8.11-7.17c-6.25-5.52-15.61-5.09-21.32.99l-6.57 6.99-17.56-12.19 32.19-77.09 35.77 7.18c-3.09 19.93-7.74 35.06-14.12 45.98-1.14 1.95-2.54 6.03.89 11.49 1.92 3.06 4.82 5.04 8.37 5.71l11.48 2.17c7.58 1.43 14.8-.32 20.87-5.09 9.49-7.44 13.49-17.62 11.93-30.31l21.21-8.51 86.59 76.54c1.37 1.25 1.5 3.35.28 4.73zm-3.82-23.84-77.88-68.84c-1.7-1.5-4.1-1.92-6.21-1.07l-29.16 11.7c-2.74 1.1-4.27 4.02-3.62 6.89 2.39 10.59.32 17.77-6.73 23.3-3.31 2.6-7.1 3.52-11.24 2.74l-11.47-2.17c-.25-.05-.31-.09-.44-.3-.03-.04-.05-.09-.08-.13 7.98-14.18 13.4-33.93 16.53-60.27 12.31-6.61 24.95-11.38 38.27-16.41 2.09-.79 4.19-1.58 6.32-2.39 21.29 6.39 41.17 13.72 59.19 21.8l33.6 80.38zm25.77 8.81-47.85-114.49 61.47-25.69 47.85 114.49zm-224.57-154.51c1.15 1.19 2.71 1.82 4.3 1.82.76 0 1.52-.14 2.26-.44 2.26-.92 3.74-3.12 3.74-5.56v-43.26h79.8c9.42 0 17.08-7.66 17.08-17.08v-147.19c0-9.42-7.66-17.08-17.08-17.08h-217.61c-9.42 0-17.08 7.66-17.08 17.08v147.18c0 9.42 7.66 17.08 17.08 17.08h81.39zm-132.59-64.52v-147.19c0-2.8 2.28-5.08 5.08-5.08h217.6c2.8 0 5.08 2.28 5.08 5.08v147.18c0 2.8-2.28 5.08-5.08 5.08h-85.8c-3.31 0-6 2.69-6 6v34.48l-37.58-38.66c-1.13-1.16-2.68-1.82-4.3-1.82h-83.92c-2.8.01-5.08-2.27-5.08-5.07zm149.72-14.08h61.62c3.31 0 6-2.69 6-6v-33.61c0-14.16-7.68-27.08-19.51-34.1 3.73-4.83 5.82-10.81 5.82-17.18 0-15.51-12.62-28.14-28.14-28.14-15.51 0-28.14 12.62-28.14 28.14 0 6.36 2.08 12.34 5.81 17.17-3.13 1.85-5.98 4.14-8.5 6.78-2.49-2.61-5.33-4.91-8.48-6.77 3.73-4.83 5.82-10.81 5.82-17.18 0-15.51-12.62-28.14-28.14-28.14s-28.14 12.62-28.14 28.14c0 6.36 2.08 12.35 5.82 17.18-3.15 1.87-5.99 4.16-8.48 6.77-2.52-2.64-5.37-4.93-8.5-6.78 3.73-4.83 5.81-10.81 5.81-17.17 0-15.51-12.62-28.14-28.14-28.14-15.51 0-28.14 12.62-28.14 28.14 0 6.36 2.08 12.35 5.82 17.18-11.84 7.02-19.51 19.95-19.51 34.1v33.61c0 3.31 2.69 6 6 6h61.62zm16.01-66.17c2.29-.66 3.98-2.61 4.29-4.98s-.8-4.69-2.84-5.92c-4.89-2.95-7.81-8.12-7.81-13.82 0-8.9 7.24-16.14 16.14-16.14s16.14 7.24 16.14 16.14c0 5.7-2.92 10.87-7.81 13.82-2.04 1.23-3.16 3.56-2.84 5.92.31 2.37 2 4.32 4.29 4.98 11.81 3.39 20.05 14.31 20.05 26.55v27.61h-49.62v-27.61c0-6.08-1.42-11.92-3.97-17.18 3.58-4.48 8.43-7.78 13.98-9.37zm-61.62 0c2.29-.66 3.98-2.61 4.29-4.98.31-2.36-.8-4.69-2.84-5.92-4.89-2.95-7.81-8.12-7.81-13.82 0-8.9 7.24-16.14 16.14-16.14s16.14 7.24 16.14 16.14c0 5.7-2.92 10.87-7.81 13.82-2.04 1.23-3.16 3.56-2.84 5.93.31 2.36 2 4.32 4.29 4.98 11.81 3.39 20.05 14.31 20.05 26.55v27.61h-59.66v-27.61c-.01-12.25 8.24-23.17 20.05-26.56zm-81.68 26.56c0-12.25 8.25-23.17 20.05-26.55 2.29-.66 3.98-2.61 4.29-4.98s-.8-4.69-2.84-5.93c-4.89-2.95-7.81-8.12-7.81-13.82 0-8.9 7.24-16.14 16.14-16.14s16.14 7.24 16.14 16.14c0 5.7-2.92 10.87-7.81 13.82-2.04 1.23-3.16 3.56-2.84 5.92.31 2.37 2 4.32 4.29 4.98 5.54 1.59 10.4 4.88 13.98 9.38-2.55 5.25-3.98 11.1-3.98 17.18v27.61h-49.61zm433.16-79.42h-165.01c-7.94 0-14.41 6.46-14.41 14.4v111.61c0 7.94 6.46 14.4 14.41 14.4h59.06v31.36c0 2.44 1.48 4.64 3.74 5.56.73.3 1.5.44 2.25.44 1.59 0 3.15-.63 4.3-1.82l34.54-35.54h61.11c7.94 0 14.41-6.46 14.41-14.4v-111.6c.01-7.94-6.45-14.41-14.4-14.41zm2.41 126.02c0 1.33-1.08 2.4-2.41 2.4h-63.64c-1.62 0-3.17.66-4.3 1.82l-26 26.76v-22.57c0-3.31-2.69-6-6-6h-65.06c-1.33 0-2.41-1.08-2.41-2.4v-111.62c0-1.33 1.08-2.4 2.41-2.4h165.01c1.33 0 2.41 1.08 2.41 2.4v111.61zm-81.26-92.38-3.65 3.65-3.65-3.65c-5.34-5.34-12.47-8.28-20.07-8.28s-14.72 2.94-20.07 8.28c-11.06 11.06-11.06 29.07 0 40.13l39.55 39.55c1.12 1.12 2.65 1.76 4.24 1.76s3.12-.63 4.24-1.76l39.55-39.55c11.06-11.07 11.06-29.07 0-40.13-11.07-11.07-29.07-11.07-40.14 0zm31.65 31.65-35.3 35.3-35.3-35.3c-6.39-6.39-6.39-16.78 0-23.16 3.08-3.08 7.19-4.77 11.58-4.77s8.51 1.69 11.58 4.77l7.9 7.9c2.34 2.34 6.14 2.34 8.49 0l7.9-7.9c6.39-6.39 16.78-6.39 23.16 0 6.38 6.38 6.38 16.77-.01 23.16z" fill="#ea1b29" fill-opacity="1" data-original-color="#000000ff" stroke="none" stroke-opacity="1"/></g></svg>