<svg clip-rule="evenodd" fill-rule="evenodd" height="300" image-rendering="optimizeQuality" shape-rendering="geometricPrecision" text-rendering="geometricPrecision" viewBox="0 0 512 512" width="300" xmlns="http://www.w3.org/2000/svg" version="1.1" xmlns:xlink="http://www.w3.org/1999/xlink" xmlns:svgjs="http://svgjs.dev/svgjs"><g width="100%" height="100%" transform="matrix(1,0,0,1,0,0)"><g id="Layer_x0020_1"><g id="_265155408"><g><g id="_265155504"><path id="_268265520" d="m320.5 378.5h-314.5c-3.30001 0-6.00002-2.70001-6.00002-6.00002v-292.699c0-3.30001 2.70001-6.00002 6.00002-6.00002h389.5c3.30001 0 6.00002 2.70001 6.00002 6.00002v114.2c0 3.30001-2.70001 6.00002-6.00002 6.00002s-6.00002-2.70001-6.00002-6.00002v-108.2h-377.5v280.7l308.5-.00118111c3.30001 0 6.00002 2.70001 6.00002 6.00002s-2.70001 6.00002-6.00002 6.00002z" fill="#ea1b29" fill-opacity="1" data-original-color="#000000ff" stroke="none" stroke-opacity="1"/></g><g id="_265155576"><path id="_268264992" d="m395.5 149.2h-389.5c-3.30001 0-6.00002-2.70001-6.00002-6.00002s2.70001-6.00002 6.00002-6.00002h389.5c3.30001 0 6.00002 2.70001 6.00002 6.00002s-2.70001 6.00002-6.00002 6.00002z" fill="#ea1b29" fill-opacity="1" data-original-color="#000000ff" stroke="none" stroke-opacity="1"/></g><g id="_265155720"><path id="_268264896" d="m50.2005 129.4c-9.49964 0-17.2997-7.69963-17.2997-17.2997 0-9.60003 7.69963-17.2997 17.2997-17.2997 9.60003 0 17.2997 7.69963 17.2997 17.2997 0 9.60003-7.69963 17.2997-17.2997 17.2997zm0-22.5001c-2.89962 0-5.29962 2.40001-5.29962 5.29962 0 2.89962 2.40001 5.29962 5.29962 5.29962 2.89962 0 5.29962-2.40001 5.29962-5.29962 0-2.89962-2.40001-5.29962-5.29962-5.29962z" fill="#ea1b29" fill-opacity="1" data-original-color="#000000ff" stroke="none" stroke-opacity="1"/></g><g id="_265155888"><path id="_268265088" d="m93.7999 129.4c-9.49964 0-17.2997-7.69963-17.2997-17.2997 0-9.60003 7.69963-17.2997 17.2997-17.2997 9.60003 0 17.2997 7.69963 17.2997 17.2997 0 9.60003-7.69963 17.2997-17.2997 17.2997zm0-22.5001c-2.89962 0-5.29962 2.40001-5.29962 5.29962 0 2.89962 2.40001 5.29962 5.29962 5.29962 2.89962 0 5.29962-2.40001 5.29962-5.29962 0-2.89962-2.40001-5.29962-5.29962-5.29962z" fill="#ea1b29" fill-opacity="1" data-original-color="#000000ff" stroke="none" stroke-opacity="1"/></g><g id="_265156008"><path id="_268265376" d="m137.4 129.4c-9.49964 0-17.2997-7.69963-17.2997-17.2997 0-9.60003 7.69963-17.2997 17.2997-17.2997 9.60003 0 17.2997 7.69963 17.2997 17.2997 0 9.60003-7.80002 17.2997-17.2997 17.2997zm0-22.5001c-2.89962 0-5.29962 2.40001-5.29962 5.29962 0 2.89962 2.40001 5.29962 5.29962 5.29962 2.89962 0 5.29962-2.40001 5.29962-5.29962 0-2.89962-2.40001-5.29962-5.29962-5.29962z" fill="#ea1b29" fill-opacity="1" data-original-color="#000000ff" stroke="none" stroke-opacity="1"/></g><g id="_265155864"><path id="_268264344" d="m148.8 279.2h-98.4003c-3.30001 0-6.00002-2.70001-6.00002-6.00002v-84.3995c0-3.30001 2.70001-6.00002 6.00002-6.00002l98.4003-.00118111c3.30001 0 6.00002 2.70001 6.00002 6.00002v84.3995c0 3.30119-2.6008 6.0012-6.00002 6.0012zm-92.4003-12h86.4003v-72.3994l-86.4003-.00118111v72.4006z" fill="#ea1b29" fill-opacity="1" data-original-color="#000000ff" stroke="none" stroke-opacity="1"/></g><g id="_265156776"><path id="_268264392" d="m351.1 193.3h-163.1c-3.30001 0-6.00002-2.70001-6.00002-6.00002s2.70001-6.00002 6.00002-6.00002h163.1c3.30001 0 6.00002 2.70001 6.00002 6.00002s-2.70001 6.00002-6.00002 6.00002z" fill="#ea1b29" fill-opacity="1" data-original-color="#000000ff" stroke="none" stroke-opacity="1"/></g><g id="_265156608"><path id="_268264104" d="m351.1 222h-163.1c-3.30001 0-6.00002-2.70001-6.00002-6.00002s2.70001-6.00002 6.00002-6.00002h163.1c3.30001 0 6.00002 2.70001 6.00002 6.00002s-2.70001 6.00002-6.00002 6.00002z" fill="#ea1b29" fill-opacity="1" data-original-color="#000000ff" stroke="none" stroke-opacity="1"/></g><g id="_265156200"><path id="_268264056" d="m351.1 250.6h-163.1c-3.30001 0-6.00002-2.70001-6.00002-6.00002s2.70001-6.00002 6.00002-6.00002h163.1c3.30001 0 6.00002 2.70001 6.00002 6.00002s-2.70001 6.00002-6.00002 6.00002z" fill="#ea1b29" fill-opacity="1" data-original-color="#000000ff" stroke="none" stroke-opacity="1"/></g><g id="_265156512"><path id="_268264464" d="m351.1 279.3h-163.1c-3.30001 0-6.00002-2.70001-6.00002-6.00002s2.70001-6.00002 6.00002-6.00002h163.1c3.30001 0 6.00002 2.70001 6.00002 6.00002s-2.70001 6.00002-6.00002 6.00002z" fill="#ea1b29" fill-opacity="1" data-original-color="#000000ff" stroke="none" stroke-opacity="1"/></g><g id="_265156848"><path id="_268263840" d="m351.1 309.6h-300.7c-3.30001 0-6.00002-2.70001-6.00002-6.00002s2.70001-6.00002 6.00002-6.00002h300.7c3.30001 0 6.00002 2.70001 6.00002 6.00002s-2.70001 6.00002-6.00002 6.00002z" fill="#ea1b29" fill-opacity="1" data-original-color="#000000ff" stroke="none" stroke-opacity="1"/></g><g id="_265156704"><path id="_268263960" d="m341.7 341.7h-291.3c-3.30001 0-6.00002-2.70001-6.00002-6.00002s2.70001-6.00002 6.00002-6.00002h291.3c3.30001 0 6.00002 2.70001 6.00002 6.00002s-2.70001 6.00002-6.00002 6.00002z" fill="#ea1b29" fill-opacity="1" data-original-color="#000000ff" stroke="none" stroke-opacity="1"/></g><g id="_265156320"><path id="_268263312" d="m78.3995 261.5c-1.0004 0-2.10001-.300001-3.00001-.799609-1.9004-1.09961-3.00001-3.1004-3.00001-5.20041v-49.0005c0-2.10001 1.09961-4.09962 3.00001-5.20041 1.9004-1.09961 4.09962-1.09961 6.00002 0l42.4005 24.4997c1.9004 1.09961 3.00001 3.1004 3.00001 5.20041s-1.09961 4.09962-3.00001 5.20041l-42.4005 24.4997c-.900003.500789-1.99961.80079-3.00001.80079zm6.00002-44.6009v28.2001l24.4005-14.1-24.4005-14.1z" fill="#ea1b29" fill-opacity="1" data-original-color="#000000ff" stroke="none" stroke-opacity="1"/></g><g id="_265157472"><path id="_268263984" d="m412.7 320.4c-21.1005 0-39.3001-16.5001-43.3005-39.1997-.799609-4.60041-.799609-9.30003 0-14.1 1.3004-7.39963 3.4004-21.7005 3.90001-34.9997-.400395-1.99961-.100394-4.39962 1.5-6.40041 3.49962-4.20001 10.3004-5.29962 33.7005 2.2004 7.50002 2.40001 15.4004 2.8004 22.9005 1.0004 6.70041-1.6004 9.40042-3.49962 10.5-4.50001 1.6004-1.6004 4.00041-2.10001 6.19963-1.5 2.2004.600002 3.79962 2.40001 4.39962 4.60041.100394.300001 6.40041 28.9005 4.60041 49.3005-2.5004 27.7985-18.6993 43.5982-44.4001 43.5982zm-27.3993-85.8995c-.600002 13.3996-2.70001 27.3001-3.90001 34.6005-.600002 3.4004-.600002 6.79963 0 10.0004 2.89962 16.9004 16.2 29.2005 31.3997 29.2005 19.5001 0 30.4005-10.9996 32.4001-32.5997 1.09961-11.8996-1.09961-27.9001-2.8004-37.6997-2.29961 1.0004-4.99962 1.80001-8.10002 2.5004-9.60003 2.29961-19.6997 1.80001-29.2997-1.3004-10.9996-3.30237-16.8001-4.40198-19.6997-4.70198z" fill="#ea1b29" fill-opacity="1" data-original-color="#000000ff" stroke="none" stroke-opacity="1"/></g><g id="_265157040"><path id="_268263744" d="m375.4 274.1c-1.5 0-2.89962-.499608-4.09962-1.6004-.600002-.600002-15.7004-14.7-14.4-35.7001 1.0004-16.3004 11.2996-31.6005 30.7005-45.6001.199607-.100394.400395-.300001.600002-.400395 1.09961-.600002 26.2005-14.2004 46.8001-5.10002 10.2 4.50001 17.2997 13.5 21.1005 26.8005 4.30041 2.29961 12 7.50002 14.5997 17.2004 3.1004 11.5004-1.9004 24.9001-14.8004 40.0005-2.2004 2.5004-5.89962 2.8004-8.50042.700396-2.5004-2.2004-2.8004-5.89962-.700396-8.50042 10.0004-11.7 14.2997-21.7005 12.4004-28.9997-1.9004-7.39963-10.0004-10.3996-10.0996-10.5-1.9004-.700396-3.30001-2.29961-3.79962-4.20001-2.70001-10.9996-7.69963-18.1997-15-21.4997-14.2004-6.30002-33.4005 3.19962-36.0001 4.50001-16.0997 11.7-24.7005 24.0001-25.3997 36.4005-.900003 15.3 10.5 25.9997 10.6004 26.1001 2.40001 2.2004 2.59961 6.00002.300001 8.50042-1.10197 1.29804-2.70237 1.89804-4.30159 1.89804z" fill="#ea1b29" fill-opacity="1" data-original-color="#000000ff" stroke="none" stroke-opacity="1"/></g><g id="_265157184"><path id="_268263384" d="m389.6 332.2c-3.30001 0-6.00002-2.70001-6.00002-6.00002v-20.4001c0-3.30001 2.70001-6.00002 6.00002-6.00002s6.00002 2.70001 6.00002 6.00002v20.4001c0 3.30001-2.70001 6.00002-6.00002 6.00002z" fill="#ea1b29" fill-opacity="1" data-original-color="#000000ff" stroke="none" stroke-opacity="1"/></g><g id="_265157064"><path id="_268262856" d="m436.601 332.2c-3.30001 0-6.00002-2.70001-6.00002-6.00002v-19.0005c0-3.30001 2.70001-6.00002 6.00002-6.00002s6.00002 2.70001 6.00002 6.00002v19.0005c0 3.30001-2.6008 6.00002-6.00002 6.00002z" fill="#ea1b29" fill-opacity="1" data-original-color="#000000ff" stroke="none" stroke-opacity="1"/></g><g id="_265157424"><path id="_268263096" d="m424.4 339.7h-21.6001c-1.0004 0-2.10001-.300001-3.00001-.799609l-13.3004-7.50002c-2.89962-1.6004-3.90001-5.29962-2.29961-8.20042 1.6004-2.89962 5.29962-3.90001 8.20042-2.29961l11.8996 6.70041 18.3001-.00118111 10.8-6.60002c2.8004-1.69961 6.49963-.900003 8.29963 1.99961 1.69961 2.8004.900003 6.49963-1.99961 8.29963l-12.1996 7.50002c-.900003.601183-1.9004.901184-3.1004.901184z" fill="#ea1b29" fill-opacity="1" data-original-color="#000000ff" stroke="none" stroke-opacity="1"/></g><g id="_265157136"><path id="_268262616" d="m418 357h-9.00003c-2.5004 0-4.80001-1.6004-5.70002-4.00041l-6.10041-17.4001c-1.09961-3.1004.499608-6.60002 3.70041-7.69963 3.1004-1.09961 6.60002.499608 7.69963 3.70041l4.69962 13.3996h.600002l4.99962-13.3996c1.09961-3.1004 4.60041-4.69962 7.69963-3.49962 3.1004 1.09961 4.69962 4.60041 3.49962 7.69963l-6.40041 17.4001c-.897641 2.29961-3.19844 3.79962-5.69766 3.79962z" fill="#ea1b29" fill-opacity="1" data-original-color="#000000ff" stroke="none" stroke-opacity="1"/></g><g id="_265156992"><path id="_268262904" d="m408.9 438.2c-2.5004 0-4.90041-1.6004-5.70002-4.20001l-33.4997-105.9c-1.0004-3.19962.799609-6.49963 3.90001-7.50002 3.19962-1.0004 6.49963.799609 7.50002 3.90001l33.4997 105.9c1.0004 3.19962-.799609 6.49963-3.90001 7.50002-.600002.200788-1.2.300001-1.80001.300001z" fill="#ea1b29" fill-opacity="1" data-original-color="#000000ff" stroke="none" stroke-opacity="1"/></g><g id="_265157352"><path id="_268263000" d="m417.3 438.2c-.600002 0-1.2-.100394-1.80001-.300001-3.19962-1.0004-4.90041-4.39962-3.90001-7.50002l33.7005-105.9c1.0004-3.19962 4.39962-4.90041 7.50002-3.90001 3.19962 1.0004 4.90041 4.39962 3.90001 7.50002l-33.7005 105.9c-.799609 2.6008-3.1004 4.20001-5.70002 4.20001z" fill="#ea1b29" fill-opacity="1" data-original-color="#000000ff" stroke="none" stroke-opacity="1"/></g><g id="_265156920"><path id="_268262424" d="m427.601 405.8c-2.8004 0-5.29962-1.99961-5.89962-4.80001l-9.60003-48.7005c-.600002-3.30001 1.5-6.40041 4.69962-7.00042 3.19962-.600002 6.40041 1.5 7.00042 4.69962l9.60003 48.7005c.600002 3.30001-1.5 6.40041-4.69962 7.00042-.301182.00118111-.701577.100394-1.10079.100394z" fill="#ea1b29" fill-opacity="1" data-original-color="#000000ff" stroke="none" stroke-opacity="1"/></g><g id="_265157568"><path id="_268261992" d="m398.6 405.7c-.400395 0-.799609 0-1.3004-.100394-3.19962-.700396-5.29962-3.90001-4.60041-7.09963l10.3996-48.7005c.700396-3.19962 3.90001-5.29962 7.09963-4.60041 3.19962.700396 5.29962 3.90001 4.60041 7.09963l-10.3996 48.7005c-.498427 2.8004-2.99883 4.7008-5.79923 4.7008z" fill="#ea1b29" fill-opacity="1" data-original-color="#000000ff" stroke="none" stroke-opacity="1"/></g><g id="_265158000"><path id="_268261920" d="m474 438.2c-3.30001 0-6.00002-2.70001-6.00002-6.00002v-51.4006c0-3.30001 2.70001-6.00002 6.00002-6.00002s6.00002 2.70001 6.00002 6.00002v51.4006c0 3.30001-2.70001 6.00002-6.00002 6.00002z" fill="#ea1b29" fill-opacity="1" data-original-color="#000000ff" stroke="none" stroke-opacity="1"/></g><g id="_265157760"><path id="_268261896" d="m352.2 438.2c-3.30001 0-6.00002-2.70001-6.00002-6.00002v-51.4006c0-3.30001 2.70001-6.00002 6.00002-6.00002s6.00002 2.70001 6.00002 6.00002v51.4006c0 3.30001-2.70001 6.00002-6.00002 6.00002z" fill="#ea1b29" fill-opacity="1" data-original-color="#000000ff" stroke="none" stroke-opacity="1"/></g><g id="_265158288"><path id="_268262136" d="m506 438.2h-185.8c-3.30001 0-6.00002-2.70001-6.00002-6.00002v-54.7998c0-31.6005 25.6997-57.3002 57.3002-57.3002h18.0993c3.30001 0 6.00002 2.70001 6.00002 6.00002s-2.70001 6.00002-6.00002 6.00002h-18.0993c-25.0005 0-45.3001 20.2997-45.3001 45.3001v48.7998h173.8v-48.7998c0-25.0005-20.2997-45.3001-45.3001-45.3001h-18.0993c-3.30001 0-6.00002-2.70001-6.00002-6.00002s2.70001-6.00002 6.00002-6.00002h18.0993c31.6005 0 57.3002 25.6997 57.3002 57.3002v54.7998c0 3.30001-2.70001 6.00002-6.00002 6.00002z" fill="#ea1b29" fill-opacity="1" data-original-color="#000000ff" stroke="none" stroke-opacity="1"/></g></g></g></g></g></svg>