<svg xmlns="http://www.w3.org/2000/svg" id="Layer_3" data-name="Layer 3" viewBox="0 0 64 64" width="300" height="300" version="1.1" xmlns:xlink="http://www.w3.org/1999/xlink" xmlns:svgjs="http://svgjs.dev/svgjs"><g width="100%" height="100%" transform="matrix(1,0,0,1,0,0)"><path d="M41,20a3,3,0,0,0-2.922,2.343l-1.054.526a20.271,20.271,0,0,1-8.03,2.1A1,1,0,0,0,28,24H25a6,6,0,0,0-1,11.91V44a1,1,0,0,0,1,1h6a1,1,0,0,0,1-1V40.9a5,5,0,0,0,3.937-4.271q.551.235,1.087.5l1.054.526A3,3,0,0,0,44,37V23A3,3,0,0,0,41,20ZM21,30a4,4,0,0,1,4-4h2v8H25A4,4,0,0,1,21,30Zm5,13V36h2a1,1,0,0,0,.994-.971c.336.017.671.045,1.006.079V43Zm8-7a3,3,0,0,1-2,2.816V35.411a20.2,20.2,0,0,1,2,.51Zm-5-2.971V26.971a22.3,22.3,0,0,0,8.919-2.313l.081-.04V35.382l-.081-.04A22.3,22.3,0,0,0,29,33.029ZM42,37a1,1,0,0,1-2,0V23a1,1,0,0,1,2,0Z" fill="#ea1b29" fill-opacity="1" data-original-color="#000000ff" stroke="none" stroke-opacity="1"/><rect x="23" y="29" width="2" height="2" fill="#ea1b29" fill-opacity="1" data-original-color="#000000ff" stroke="none" stroke-opacity="1"/><path d="M56.707,25.293A1,1,0,0,0,55,26v2H50.568a18.876,18.876,0,0,0-2.62-6.291l3.144-3.145,1.414,1.415a1,1,0,0,0,1.707-.707V10.787a1,1,0,0,0-1-1H44.728a1,1,0,0,0-.707,1.707l1.415,1.414-3.145,3.144A18.876,18.876,0,0,0,36,13.432V9h2a1,1,0,0,0,.707-1.707l-6-6a1,1,0,0,0-1.414,0l-6,6A1,1,0,0,0,26,9h2v4.432a18.876,18.876,0,0,0-6.291,2.62l-3.145-3.144,1.415-1.414a1,1,0,0,0-.707-1.707H10.787a1,1,0,0,0-1,1v8.485a1,1,0,0,0,1.707.707l1.414-1.415,3.144,3.145A18.876,18.876,0,0,0,13.432,28H9V26a1,1,0,0,0-1.707-.707l-6,6a1,1,0,0,0,0,1.414l6,6A1,1,0,0,0,8,39a.987.987,0,0,0,.383-.076A1,1,0,0,0,9,38V36h4.432a18.876,18.876,0,0,0,2.62,6.291l-3.144,3.145-1.414-1.415a1,1,0,0,0-1.707.707v8.485a1,1,0,0,0,1,1h8.485a1,1,0,0,0,.707-1.707l-1.415-1.414,3.145-3.144A18.876,18.876,0,0,0,28,50.568V55H26a1,1,0,0,0-.707,1.707l6,6a1,1,0,0,0,1.414,0l6-6A1,1,0,0,0,38,55H36V50.568a18.876,18.876,0,0,0,6.291-2.62l3.145,3.144-1.415,1.414a1,1,0,0,0,.707,1.707h8.485a1,1,0,0,0,1-1V44.728a1,1,0,0,0-1.707-.707l-1.414,1.415-3.144-3.145A18.876,18.876,0,0,0,50.568,36H55v2a1,1,0,0,0,.617.924A.987.987,0,0,0,56,39a1,1,0,0,0,.707-.293l6-6a1,1,0,0,0,0-1.414Zm-9.15-11.678a1,1,0,0,0,0-1.414l-.414-.414h5.07v5.07l-.414-.414a1,1,0,0,0-1.414,0l-3.621,3.622a19.2,19.2,0,0,0-2.829-2.829ZM29,7h-.586L32,3.414,35.586,7H35a1,1,0,0,0-1,1v5.107a18.745,18.745,0,0,0-4,0V8A1,1,0,0,0,29,7ZM13.615,16.443a1.029,1.029,0,0,0-1.414,0l-.414.414v-5.07h5.07l-.414.414a1,1,0,0,0,0,1.414l3.622,3.621a19.2,19.2,0,0,0-2.829,2.829ZM8,34a1,1,0,0,0-1,1v.586L3.414,32,7,28.414V29a1,1,0,0,0,1,1h5.107a18.745,18.745,0,0,0,0,4Zm8.443,16.385a1,1,0,0,0,0,1.414l.414.414h-5.07v-5.07l.414.414a1,1,0,0,0,1.414,0l3.621-3.622a19.2,19.2,0,0,0,2.829,2.829ZM35,57h.586L32,60.586,28.414,57H29a1,1,0,0,0,1-1V50.893a18.745,18.745,0,0,0,4,0V56A1,1,0,0,0,35,57Zm15.385-9.443a1.029,1.029,0,0,0,1.414,0l.414-.414v5.07h-5.07l.414-.414a1,1,0,0,0,0-1.414l-3.622-3.621a19.2,19.2,0,0,0,2.829-2.829ZM32,49A17,17,0,1,1,49,32,17.019,17.019,0,0,1,32,49ZM57,35.586V35a1,1,0,0,0-1-1H50.893a18.745,18.745,0,0,0,0-4H56a1,1,0,0,0,1-1v-.586L60.586,32Z" fill="#ea1b29" fill-opacity="1" data-original-color="#000000ff" stroke="none" stroke-opacity="1"/></g></svg>