<svg id="Layer_1" enable-background="new 0 0 66 66" height="300" viewBox="0 0 66 66" width="300" xmlns="http://www.w3.org/2000/svg" version="1.1" xmlns:xlink="http://www.w3.org/1999/xlink" xmlns:svgjs="http://svgjs.dev/svgjs"><g width="100%" height="100%" transform="matrix(1,0,0,1,0,0)"><g><path d="m64.11 42.71-3.31-.49c-.36-1.42-.92-2.76-1.66-4.02l1.99-2.69c.22-.3.19-.71-.07-.98l-1.27-1.27 1.52-1.52h2.69c.41 0 .75-.34.75-.75s-.34-.75-.75-.75h-2.25v-2.24c0-.41-.34-.75-.75-.75s-.75.34-.75.75v2.69l-1.52 1.52-1.27-1.27c-.26-.26-.68-.29-.98-.07l-2.69 1.99c-1.26-.75-2.6-1.3-4.01-1.66l-.49-3.3c-.06-.37-.37-.64-.74-.64h-5.09c-.37 0-.69.27-.74.64l-.49 3.3c-1.41.36-2.76.92-4.01 1.66l-2.69-1.99c-.3-.22-.71-.19-.98.07l-3.6 3.6c-.26.26-.29.68-.07.98l1.99 2.69c-.75 1.25-1.3 2.6-1.66 4.02l-3.31.49c-.37.05-.64.37-.64.74v5.09c0 .37.27.69.64.74l3.3.49c.36 1.41.92 2.76 1.66 4.02l-1.99 2.69c-.22.3-.19.71.07.98l3.6 3.6c.26.26.68.29.98.07l2.69-1.99c1.26.75 2.6 1.3 4.01 1.66l.49 3.3c.06.37.37.64.74.64h5.09c.37 0 .69-.27.74-.64l.49-3.3c1.41-.36 2.76-.92 4.01-1.66l1.76 1.3c.33.25.8.17 1.05-.16s.18-.8-.16-1.05l-2.17-1.6c-.25-.19-.59-.2-.85-.03-1.38.88-2.88 1.51-4.48 1.85-.3.07-.54.31-.58.62l-.47 3.17h-3.8l-.47-3.17c-.05-.31-.28-.56-.58-.62-1.59-.35-3.1-.97-4.48-1.85-.26-.17-.6-.16-.85.03l-2.57 1.91-2.69-2.69 1.91-2.57c.19-.25.2-.59.03-.85-.88-1.38-1.51-2.89-1.86-4.48-.07-.3-.31-.54-.62-.58l-3.17-.47v-3.8l3.17-.47c.31-.05.56-.28.62-.58.35-1.6.97-3.1 1.86-4.48.17-.26.16-.6-.03-.85l-1.91-2.57 2.69-2.69 2.57 1.91c.25.18.59.2.85.03 1.38-.88 2.88-1.51 4.48-1.85.3-.07.54-.31.58-.62l.47-3.17h3.8l.47 3.17c.05.31.28.56.58.62 1.59.35 3.1.97 4.48 1.85.26.17.6.16.85-.03l2.57-1.91.81.81-4.62 4.62c-1.89-1.64-4.35-2.65-7.04-2.65-1.1 0-2.19.17-3.22.49-.4.13-.62.55-.49.94s.55.62.94.49c.89-.28 1.83-.42 2.78-.42 2.28 0 4.37.83 5.98 2.21l-1.42 1.42c-1.25-1.01-2.84-1.62-4.56-1.62-4 0-7.25 3.25-7.25 7.25s3.26 7.24 7.26 7.24 7.25-3.25 7.25-7.25c0-1.73-.61-3.32-1.62-4.57l1.42-1.42c1.37 1.61 2.21 3.7 2.21 5.98 0 5.1-4.15 9.25-9.25 9.25s-9.26-4.14-9.26-9.24c0-2.9 1.32-5.58 3.63-7.35.33-.25.39-.72.14-1.05s-.72-.39-1.05-.14c-2.68 2.05-4.22 5.17-4.22 8.54 0 5.93 4.82 10.75 10.75 10.75s10.75-4.82 10.75-10.75c0-2.69-1-5.15-2.65-7.04l4.62-4.62.81.81-1.91 2.57c-.19.25-.2.59-.03.85.88 1.38 1.5 2.88 1.86 4.48.07.3.31.54.62.58l3.17.47v3.8l-3.17.47c-.31.05-.56.28-.62.58-.35 1.59-.97 3.1-1.86 4.48-.17.26-.16.6.03.85l1.91 2.57-1.52 1.52c-.29.29-.29.77 0 1.06s.77.29 1.06 0l1.98-1.98c.26-.26.29-.68.07-.98l-1.99-2.69c.75-1.26 1.31-2.61 1.66-4.02l3.3-.49c.37-.05.64-.37.64-.74v-5.09c.02-.36-.25-.67-.62-.73zm-12.36 3.29c0 3.17-2.58 5.75-5.75 5.75s-5.75-2.58-5.75-5.75 2.58-5.75 5.75-5.75c1.32 0 2.53.45 3.49 1.19l-1.43 1.43c-.59-.39-1.3-.62-2.06-.62-2.07 0-3.75 1.68-3.75 3.75s1.68 3.75 3.75 3.75 3.75-1.68 3.75-3.75c0-.76-.23-1.47-.63-2.06l1.43-1.43c.75.97 1.2 2.18 1.2 3.49zm-3.5 0c0 1.24-1.01 2.25-2.25 2.25s-2.25-1.01-2.25-2.25 1.01-2.25 2.25-2.25c.35 0 .67.09.96.23l-1.49 1.49c-.29.29-.29.77 0 1.06.15.15.34.22.53.22s.38-.07.53-.22l1.49-1.49c.14.29.23.61.23.96z" fill="#ea1b29" fill-opacity="1" data-original-color="#000000ff" stroke="none" stroke-opacity="1"/><circle cx="7" cy="6" r="1" fill="#ea1b29" fill-opacity="1" data-original-color="#000000ff" stroke="none" stroke-opacity="1"/><circle cx="11" cy="6" r="1" fill="#ea1b29" fill-opacity="1" data-original-color="#000000ff" stroke="none" stroke-opacity="1"/><circle cx="15" cy="6" r="1" fill="#ea1b29" fill-opacity="1" data-original-color="#000000ff" stroke="none" stroke-opacity="1"/><path d="m22.75 30v-16c0-.41-.34-.75-.75-.75h-16c-.41 0-.75.34-.75.75v16c0 .41.34.75.75.75h16c.41 0 .75-.34.75-.75zm-1.5-.75h-14.5v-14.5h14.5z" fill="#ea1b29" fill-opacity="1" data-original-color="#000000ff" stroke="none" stroke-opacity="1"/><path d="m45 17.25h-18c-.41 0-.75.34-.75.75s.34.75.75.75h18c.41 0 .75-.34.75-.75s-.34-.75-.75-.75z" fill="#ea1b29" fill-opacity="1" data-original-color="#000000ff" stroke="none" stroke-opacity="1"/><path d="m45.75 23c0-.41-.34-.75-.75-.75h-18c-.41 0-.75.34-.75.75s.34.75.75.75h18c.41 0 .75-.34.75-.75z" fill="#ea1b29" fill-opacity="1" data-original-color="#000000ff" stroke="none" stroke-opacity="1"/><path d="m38.75 28c0-.41-.34-.75-.75-.75h-11c-.41 0-.75.34-.75.75s.34.75.75.75h11c.41 0 .75-.34.75-.75z" fill="#ea1b29" fill-opacity="1" data-original-color="#000000ff" stroke="none" stroke-opacity="1"/><path d="m11.65 26.66c.11.06.23.09.35.09.15 0 .29-.04.42-.13l6-4c.21-.14.33-.37.33-.62s-.13-.49-.33-.62l-6-4c-.23-.15-.53-.17-.77-.04s-.4.38-.4.66v8c0 .28.15.53.4.66zm1.1-7.26 3.9 2.6-3.9 2.6z" fill="#ea1b29" fill-opacity="1" data-original-color="#000000ff" stroke="none" stroke-opacity="1"/><path d="m12 37.75h16c.41 0 .75-.34.75-.75s-.34-.75-.75-.75h-16c-.41 0-.75.34-.75.75s.34.75.75.75z" fill="#ea1b29" fill-opacity="1" data-original-color="#000000ff" stroke="none" stroke-opacity="1"/><path d="m9 39.75c.41 0 .75-.34.75-.75v-4c0-.41-.34-.75-.75-.75s-.75.34-.75.75v1.25h-2.25c-.41 0-.75.34-.75.75s.34.75.75.75h2.25v1.25c0 .41.34.75.75.75z" fill="#ea1b29" fill-opacity="1" data-original-color="#000000ff" stroke="none" stroke-opacity="1"/><path d="m25 43.25h-19c-1.79 0-3.25-1.46-3.25-3.25v-23.25c0-.42-.34-.75-.75-.75s-.75.34-.75.75v23.25c0 2.62 2.13 4.75 4.75 4.75h19c.41 0 .75-.34.75-.75s-.34-.75-.75-.75z" fill="#ea1b29" fill-opacity="1" data-original-color="#000000ff" stroke="none" stroke-opacity="1"/><path d="m2 14.1c.41 0 .75-.34.75-.75v-2.59h48.5v18.79c0 .41.34.75.75.75s.75-.34.75-.75v-19.55-4c0-2.62-2.13-4.75-4.75-4.75h-42c-2.62 0-4.75 2.13-4.75 4.75v4 3.34c0 .42.34.76.75.76zm.75-8.1c0-1.79 1.46-3.25 3.25-3.25h42c1.79 0 3.25 1.46 3.25 3.25v3.25h-48.5z" fill="#ea1b29" fill-opacity="1" data-original-color="#000000ff" stroke="none" stroke-opacity="1"/></g></g></svg>