<svg clip-rule="evenodd" fill-rule="evenodd" stroke-linejoin="round" stroke-miterlimit="2" viewBox="0 0 510 510" xmlns="http://www.w3.org/2000/svg" xmlns:serif="http://www.serif.com/" width="300" height="300" version="1.1" xmlns:xlink="http://www.w3.org/1999/xlink" xmlns:svgjs="http://svgjs.dev/svgjs"><g width="100%" height="100%" transform="matrix(1,0,0,1,0,0)"><path d="m38.459 495v-303.029c0-12.665 10.283-22.949 22.949-22.949h169.049c-.859-4.43-1.351-9.432-1.351-15.255 0-21.296 8.559-40.6 22.427-54.657l-.021-15.987c-8.082-2.872-13.875-10.591-13.875-19.652 0-11.507 9.342-20.849 20.848-20.849 11.507 0 20.849 9.342 20.849 20.849 0 9.041-5.768 16.747-13.822 19.633l.006 4.76c10.141-6.39 21.859-10.504 34.438-11.627v-27.746c-8.068-2.879-13.849-10.591-13.849-19.642 0-11.507 9.342-20.849 20.849-20.849s20.849 9.342 20.849 20.849c0 9.051-5.781 16.763-13.849 19.642v27.745c12.578 1.12 24.296 5.234 34.438 11.625l.006-4.757c-8.054-2.886-13.822-10.592-13.822-19.633 0-11.507 9.342-20.849 20.849-20.849 11.506 0 20.848 9.342 20.848 20.849 0 9.061-5.793 16.78-13.875 19.652l-.021 15.985c13.867 14.057 22.427 33.361 22.427 54.659 0 5.823-.492 10.825-1.351 15.255h65.137c12.666 0 22.949 10.284 22.949 22.949v303.029c0 3.866-3.134 7-7 7h-419.082c-3.866 0-7-3.134-7-7zm196.507-311.978h-173.558c-4.939 0-8.949 4.01-8.949 8.949v47.406h207.458c-3.1-19.101-8.876-29.761-14.47-38.609-3.852-6.093-7.57-11.455-10.481-17.746zm16.598-61.02c-5.381 9.355-8.458 20.202-8.458 31.765 0 8.26 1.152 14.478 3.061 19.735.03.077.059.155.086.233 2.723 7.375 6.849 12.942 11.028 19.552 7.121 11.264 14.588 25.102 17.603 52.305.001.005.013.116.019.167h64.106c.006-.051.018-.162.019-.167 3.015-27.203 10.482-41.041 17.603-52.305 4.179-6.61 8.305-12.177 11.028-19.552.027-.078.056-.156.086-.233 1.909-5.257 3.061-11.475 3.061-19.735 0-11.564-3.078-22.41-8.457-31.767l-.023 16.527c-.002 2.073-.924 4.039-2.517 5.367l-33.264 27.734c.815 2.23 1.26 4.638 1.26 7.149 0 11.507-9.342 20.849-20.849 20.849s-20.849-9.342-20.849-20.849c0-2.511.445-4.919 1.26-7.149l-33.264-27.734c-1.593-1.328-2.515-3.294-2.517-5.367zm6.931-51.683c3.775-.005 6.839-3.071 6.839-6.848 0-3.78-3.069-6.849-6.849-6.849s-6.848 3.069-6.848 6.849 3.068 6.848 6.848 6.848zm41.461 19.987c-13.058 1.426-24.934 6.789-34.415 14.877l.04 30.053 30.726 25.617c1.15-.685 2.371-1.262 3.649-1.718zm7-54.608c3.78 0 6.849-3.069 6.849-6.849s-3.069-6.849-6.849-6.849-6.849 3.069-6.849 6.849 3.069 6.849 6.849 6.849zm41.415 69.482c-9.481-8.089-21.358-13.452-34.415-14.875v68.83c1.278.456 2.5 1.033 3.649 1.718l30.726-25.617zm7.056-34.861c3.78 0 6.848-3.068 6.848-6.848s-3.068-6.849-6.848-6.849-6.849 3.069-6.849 6.849c0 3.777 3.064 6.843 6.84 6.848zm102.114 169.058v-47.406c0-4.939-4.01-8.949-8.949-8.949h-69.646c-2.911 6.291-6.629 11.653-10.481 17.746-5.594 8.848-11.37 19.508-14.47 38.609zm-405.082 14v234.623h405.082v-234.623h-96.396c2.305 3.111 3.671 6.954 3.671 11.102v25.281c0 10.271-8.42 18.701-18.72 18.701h-5.026v4.756c0 9.91-8.141 18.051-18.052 18.051h-32.124c-9.911 0-18.052-8.141-18.052-18.051v-4.756h-5.026c-10.3 0-18.72-8.43-18.72-18.701v-25.281c0-4.148 1.367-7.991 3.671-11.102zm249.163-78.894c-.947 1.175-1.515 2.669-1.515 4.294 0 3.78 3.069 6.849 6.849 6.849s6.849-3.069 6.849-6.849c0-1.625-.568-3.119-1.515-4.294-.014-.016-.028-.033-.042-.049-.024-.03-.048-.059-.072-.089-1.257-1.478-3.13-2.416-5.22-2.416s-3.963.938-5.22 2.416c-.024.03-.048.059-.072.089-.014.016-.028.033-.042.049zm-33.806 85.276c-2.596 0-4.72 2.124-4.72 4.72v25.281c0 2.585 2.127 4.701 4.72 4.701h12.026c3.866 0 7 3.134 7 7v11.756c0 2.224 1.827 4.051 4.052 4.051h32.124c2.225 0 4.052-1.827 4.052-4.051v-11.756c0-3.866 3.134-7 7-7h12.026c2.593 0 4.72-2.116 4.72-4.701v-25.281c0-2.596-2.124-4.72-4.72-4.72zm-179.44-58.189c5.315 0 9.63 4.315 9.63 9.63s-4.315 9.63-9.63 9.63-9.63-4.315-9.63-9.63 4.315-9.63 9.63-9.63zm71.369 0c5.315 0 9.63 4.315 9.63 9.63s-4.315 9.63-9.63 9.63-9.63-4.315-9.63-9.63 4.315-9.63 9.63-9.63zm-35.684 0c5.315 0 9.63 4.315 9.63 9.63s-4.315 9.63-9.63 9.63-9.63-4.315-9.63-9.63 4.315-9.63 9.63-9.63zm46.054 85.9c45.93 0 83.219 37.289 83.219 83.219 0 45.929-37.289 83.219-83.219 83.219s-83.219-37.29-83.219-83.219c0-45.93 37.289-83.219 83.219-83.219zm0 14c-38.203 0-69.219 31.016-69.219 69.219s31.016 69.219 69.219 69.219 69.219-31.016 69.219-69.219-31.016-69.219-69.219-69.219zm36.498 58.082c3.916 2.344 6.314 6.572 6.314 11.137 0 4.564-2.398 8.792-6.314 11.137l-51.292 30.702c-4.01 2.401-9.001 2.46-13.067.155s-6.579-6.618-6.579-11.292v-61.405c0-4.674 2.513-8.987 6.579-11.292s9.057-2.246 13.067.155zm-56.938-17.767v57.807l48.285-28.903zm129.885 30.61c-3.863 0-7-3.136-7-7 0-3.863 3.137-7 7-7h132.35c3.864 0 7 3.137 7 7 0 3.864-3.136 7-7 7zm0 32.866c-3.863 0-7-3.137-7-7 0-3.864 3.137-7 7-7h132.35c3.864 0 7 3.136 7 7 0 3.863-3.136 7-7 7zm0 32.865c-3.863 0-7-3.137-7-7s3.137-7 7-7h132.35c3.864 0 7 3.137 7 7s-3.136 7-7 7zm-106.563-359.843c0-3.863 3.136-7 7-7 3.863 0 7 3.137 7 7v16.344c0 3.864-3.137 7-7 7-3.864 0-7-3.136-7-7zm35.944 21.944c3.863 0 7 3.137 7 7 0 3.864-3.137 7-7 7h-16.344c-3.863 0-7-3.136-7-7 0-3.863 3.137-7 7-7zm-35.944 19.6c0-3.863 3.136-7 7-7 3.863 0 7 3.137 7 7v16.344c0 3.864-3.137 7-7 7-3.864 0-7-3.136-7-7zm-5.6-19.6c3.863 0 7 3.137 7 7 0 3.864-3.137 7-7 7h-16.344c-3.863 0-7-3.136-7-7 0-3.863 3.137-7 7-7zm261.2-12.962c0-3.863 3.136-7 7-7 3.863 0 7 3.137 7 7v16.344c0 3.863-3.137 7-7 7-3.864 0-7-3.137-7-7zm35.944 21.944c3.863 0 7 3.137 7 7s-3.137 7-7 7h-16.344c-3.864 0-7-3.137-7-7s3.136-7 7-7zm-35.944 19.6c0-3.863 3.136-7 7-7 3.863 0 7 3.137 7 7v16.344c0 3.863-3.137 7-7 7-3.864 0-7-3.137-7-7zm-5.6-19.6c3.863 0 7 3.137 7 7s-3.137 7-7 7h-16.344c-3.864 0-7-3.137-7-7s3.136-7 7-7z" fill="#ea1b29" fill-opacity="1" data-original-color="#000000ff" stroke="none" stroke-opacity="1"/></g></svg>