<svg xmlns="http://www.w3.org/2000/svg" viewBox="0 0 64 64" width="300" height="300" version="1.1" xmlns:xlink="http://www.w3.org/1999/xlink" xmlns:svgjs="http://svgjs.dev/svgjs"><g width="100%" height="100%" transform="matrix(1,0,0,1,0,0)"><g id="Setting"><path d="M32,1A30.8068,30.8068,0,0,0,10.3037,9.8721,29.645,29.645,0,0,0,8,12.397V8A1,1,0,0,0,6,8v7a1,1,0,0,0,1,1h7a1,1,0,0,0,0-2H9.2786A27.7337,27.7337,0,0,1,11.7,11.3037,28.99,28.99,0,0,1,61,32a28.6138,28.6138,0,0,1-2.86,12.5645,1,1,0,0,0,1.8008.871A30.6065,30.6065,0,0,0,63,32,31.0347,31.0347,0,0,0,32,1Z" fill="#ea1b29" fill-opacity="1" data-original-color="#000000ff" stroke="none" stroke-opacity="1"/><path d="M57,48H50a1,1,0,0,0,0,2h4.7214A27.7337,27.7337,0,0,1,52.3,52.6963,28.99,28.99,0,0,1,3,32,28.6138,28.6138,0,0,1,5.86,19.4355a1,1,0,1,0-1.8008-.871A30.6065,30.6065,0,0,0,1,32,30.99,30.99,0,0,0,53.6963,54.1279,29.645,29.645,0,0,0,56,51.603V56a1,1,0,0,0,2,0V49A1,1,0,0,0,57,48Z" fill="#ea1b29" fill-opacity="1" data-original-color="#000000ff" stroke="none" stroke-opacity="1"/><path d="M13.3252,26.668A2.9852,2.9852,0,0,0,11,29.5908v4.8184a2.9852,2.9852,0,0,0,2.3252,2.9228l1.8584.4287.8516,2.0577-1.01,1.6162a2.9833,2.9833,0,0,0,.4219,3.7109l3.4072,3.4072a2.9828,2.9828,0,0,0,3.7109.4219l1.6162-1.01,2.0577.8516.4287,1.8584A2.9852,2.9852,0,0,0,29.5908,53h4.8184a2.9852,2.9852,0,0,0,2.9228-2.3252l.4287-1.8584,2.0577-.8516,1.6162,1.01a2.9808,2.9808,0,0,0,3.7109-.4219l3.4072-3.4072a2.9833,2.9833,0,0,0,.4219-3.7109l-1.01-1.6162.8516-2.0577,1.8584-.4287A2.9852,2.9852,0,0,0,53,34.4092V29.5908a2.9852,2.9852,0,0,0-2.3252-2.9228l-1.8584-.4287-.8516-2.0577,1.01-1.6162a2.9833,2.9833,0,0,0-.4219-3.7109l-3.4072-3.4072a2.9818,2.9818,0,0,0-3.7109-.4219l-1.6162,1.01-2.0577-.8516-.4287-1.8584A2.9852,2.9852,0,0,0,34.4092,11H29.5908a2.9852,2.9852,0,0,0-2.9228,2.3252l-.4287,1.8584-2.0577.8516-1.6162-1.01a2.9837,2.9837,0,0,0-3.7109.4219l-3.4072,3.4072a2.9833,2.9833,0,0,0-.4219,3.7109l1.01,1.6162-.8516,2.0577Zm2.81,1.4043a1.0011,1.0011,0,0,0,.6992-.5918L18.08,24.4717a.9982.9982,0,0,0-.0762-.9131l-1.2832-2.0537a.9949.9949,0,0,1,.1406-1.2363l3.4073-3.4073a.9976.9976,0,0,1,1.2363-.1406l2.0537,1.2832a.996.996,0,0,0,.9131.0762l3.0088-1.2461a1.0011,1.0011,0,0,0,.5918-.6992l.5449-2.36A.9934.9934,0,0,1,29.5908,13h4.8184a.9934.9934,0,0,1,.9736.7744l.5449,2.36a1.0011,1.0011,0,0,0,.5918.6992L39.5283,18.08a.9985.9985,0,0,0,.9131-.0762l2.0537-1.2832a.9942.9942,0,0,1,1.2363.1406l3.4073,3.4073a.9949.9949,0,0,1,.1406,1.2363l-1.2832,2.0537a.9982.9982,0,0,0-.0762.9131l1.2461,3.0088a1.0011,1.0011,0,0,0,.6992.5918l2.36.5449A.9934.9934,0,0,1,51,29.5908v4.8184a.9934.9934,0,0,1-.7744.9736l-2.36.5449a1.0011,1.0011,0,0,0-.6992.5918L45.92,39.5283a.9982.9982,0,0,0,.0762.9131l1.2832,2.0537a.9949.9949,0,0,1-.1406,1.2363l-3.4073,3.4073a.9964.9964,0,0,1-1.2363.1406l-2.0537-1.2832a1.0015,1.0015,0,0,0-.9131-.0762L36.52,47.166a1.0011,1.0011,0,0,0-.5918.6992l-.5449,2.36A.9934.9934,0,0,1,34.4092,51H29.5908a.9934.9934,0,0,1-.9736-.7744l-.5449-2.36a1.0011,1.0011,0,0,0-.5918-.6992L24.4717,45.92a1,1,0,0,0-.9131.0762l-2.0537,1.2832a.992.992,0,0,1-1.2363-.1406l-3.4073-3.4073a.9949.9949,0,0,1-.1406-1.2363l1.2832-2.0537a.9982.9982,0,0,0,.0762-.9131L16.834,36.52a1.0011,1.0011,0,0,0-.6992-.5918l-2.36-.5449A.9934.9934,0,0,1,13,34.4092V29.5908a.9934.9934,0,0,1,.7744-.9736Z" fill="#ea1b29" fill-opacity="1" data-original-color="#000000ff" stroke="none" stroke-opacity="1"/><path d="M32,45A13,13,0,1,0,19,32,13.015,13.015,0,0,0,32,45Zm0-24A11,11,0,1,1,21,32,11.0125,11.0125,0,0,1,32,21Z" fill="#ea1b29" fill-opacity="1" data-original-color="#000000ff" stroke="none" stroke-opacity="1"/><path d="M28,31a3,3,0,1,0-3-3A3.0033,3.0033,0,0,0,28,31Zm0-4a1,1,0,1,1-1,1A1.0006,1.0006,0,0,1,28,27Z" fill="#ea1b29" fill-opacity="1" data-original-color="#000000ff" stroke="none" stroke-opacity="1"/><path d="M33,36a3,3,0,1,0,3-3A3.0033,3.0033,0,0,0,33,36Zm4,0a1,1,0,1,1-1-1A1.0006,1.0006,0,0,1,37,36Z" fill="#ea1b29" fill-opacity="1" data-original-color="#000000ff" stroke="none" stroke-opacity="1"/><path d="M26.293,37.707a.9995.9995,0,0,0,1.414,0l10-10a1,1,0,0,0-1.414-1.414l-10,10A.9994.9994,0,0,0,26.293,37.707Z" fill="#ea1b29" fill-opacity="1" data-original-color="#000000ff" stroke="none" stroke-opacity="1"/></g></g></svg>