<svg height="300" viewBox="0 -74 512.001 512" width="300" xmlns="http://www.w3.org/2000/svg" version="1.1" xmlns:xlink="http://www.w3.org/1999/xlink" xmlns:svgjs="http://svgjs.dev/svgjs"><g width="100%" height="100%" transform="matrix(1,0,0,1,0,0)"><path d="m500.960938 303.597656h-201.972657c-4.515625 0-8.175781 3.660156-8.175781 8.175782 0 4.484374-3.648438 8.132812-8.132812 8.132812h-53.359376c-4.484374 0-8.132812-3.648438-8.132812-8.132812 0-4.515626-3.664062-8.175782-8.179688-8.175782h-175.585937v-216.761718h44.101563c4.515624 0 8.179687-3.660157 8.179687-8.175782s-3.664063-8.175781-8.179687-8.175781h-44.101563v-17.15625h65.125c14.699219 0 26.664063-11.960937 26.664063-26.660156 0-5.6875 4.625-10.3125 10.308593-10.3125h68.476563c5.6875 0 10.3125 4.625 10.3125 10.3125 0 14.699219 11.960937 26.660156 26.664062 26.660156h229.605469v17.15625h-356.875c-4.515625 0-8.179687 3.660156-8.179687 8.175781s3.664062 8.175782 8.179687 8.175782h356.875v191.832031c0 4.515625 3.660156 8.179687 8.179687 8.179687 4.515626 0 8.175782-3.664062 8.175782-8.179687v-247.105469c0-17.402344-14.160156-31.5625-31.5625-31.5625h-406.742188c-17.402344 0-31.5625 14.160156-31.5625 31.5625v272.035156h-10.027344c-6.085937 0-11.039062 4.949219-11.039062 11.039063v19.804687c0 16.4375 13.371094 29.8125 29.8125 29.8125h452.375c16.441406 0 29.8125-13.375 29.8125-29.8125v-19.804687c0-6.089844-4.953125-11.039063-11.039062-11.039063zm-26.382813-272.035156v5.414062h-229.609375c-5.683594 0-10.308594-4.625-10.308594-10.308593 0-3.65625-.738281-7.140625-2.078125-10.316407h226.789063c8.386718.003907 15.207031 6.824219 15.207031 15.210938zm-421.949219-15.207031h62.304688c-1.335938 3.171875-2.078125 6.65625-2.078125 10.3125 0 5.683593-4.625 10.308593-10.308594 10.308593h-65.125v-5.414062c0-8.386719 6.820313-15.207031 15.207031-15.207031zm443.015625 318.085937c0 7.421875-6.035156 13.457032-13.457031 13.457032h-452.375c-7.421875 0-13.457031-6.035157-13.457031-13.457032v-14.492187h189.882812c3.371094 9.492187 12.445313 16.308593 23.082031 16.308593h53.359376c10.636718 0 19.710937-6.816406 23.082031-16.308593h189.886719v14.492187zm0 0" fill="#ea1b29" fill-opacity="1" data-original-color="#000000ff" stroke="none" stroke-opacity="1"/><path d="m278.015625 283.609375h164.113281c6.582032 0 11.9375-5.355469 11.9375-11.941406v-155.355469c0-6.582031-5.355468-11.9375-11.9375-11.9375h-164.113281c-6.582031 0-11.9375 5.351562-11.9375 11.9375v45.992188c0 .117187-.046875.226562-.128906.308593l-21.132813 21.132813c-5.652344 5.648437-5.652344 14.839844 0 20.488281l21.132813 21.136719c.082031.082031.128906.191406.128906.304687v45.996094c0 6.582031 5.355469 11.9375 11.9375 11.9375zm-20.320313-89.617187 19.816407-19.816407c3.171875-3.171875 4.917969-7.386719 4.917969-11.871093v-41.578126h155.28125v146.527344h-155.28125v-41.578125c0-4.484375-1.746094-8.699219-4.917969-11.871093zm0 0" fill="#ea1b29" fill-opacity="1" data-original-color="#000000ff" stroke="none" stroke-opacity="1"/><path d="m309.222656 252.488281c2.082032 1.21875 4.242188 1.828125 6.488282 1.828125 2.753906 0 4.386718-.929687 4.902343-2.789062l3.265625-12.015625h20.28125l3.269532 12.015625c.511718 1.859375 2.148437 2.789062 4.902343 2.789062 2.242188 0 4.40625-.609375 6.488281-1.828125 2.082032-1.214843 3.125-2.660156 3.125-4.324219 0-.195312-.066406-.542968-.191406-1.058593l-17.976562-58.636719c-.515625-1.597656-1.683594-2.832031-3.507813-3.699219-1.828125-.863281-3.925781-1.296875-6.296875-1.296875s-4.46875.433594-6.296875 1.296875c-1.824219.863281-2.996093 2.101563-3.507812 3.699219l-17.878907 58.636719c-.128906.515625-.191406.863281-.191406 1.058593 0 1.667969 1.042969 3.109376 3.125 4.324219zm24.75-50.273437 7.019532 25.761718h-14.035157zm0 0" fill="#ea1b29" fill-opacity="1" data-original-color="#000000ff" stroke="none" stroke-opacity="1"/><path d="m369.34375 252.96875c1.21875.898438 2.789062 1.347656 4.710938 1.347656h17.015624c7.175782 0 12.910157-1.828125 17.207032-5.480468 4.289062-3.652344 6.4375-9.386719 6.4375-17.207032v-24.894531c0-7.816406-2.148438-13.554687-6.4375-17.207031-4.296875-3.652344-10.03125-5.476563-17.207032-5.476563h-17.015624c-1.921876 0-3.492188.449219-4.710938 1.34375-1.214844.898438-1.824219 1.957031-1.824219 3.171875v61.230469c0 1.21875.609375 2.277344 1.824219 3.171875zm13.171875-55.847656h8.554687c5.765626 0 8.648438 3.207031 8.648438 9.613281v24.894531c0 6.410156-2.882812 9.613282-8.648438 9.613282h-8.554687zm0 0" fill="#ea1b29" fill-opacity="1" data-original-color="#000000ff" stroke="none" stroke-opacity="1"/><path d="m56.300781 192.941406c0 48.839844 39.734375 88.570313 88.570313 88.570313 48.839844 0 88.570312-39.730469 88.570312-88.570313 0-48.835937-39.730468-88.566406-88.570312-88.566406-48.835938 0-88.570313 39.730469-88.570313 88.566406zm160.789063 0c0 39.820313-32.398438 72.21875-72.21875 72.21875-39.820313 0-72.214844-32.398437-72.214844-72.21875 0-39.820312 32.394531-72.214844 72.214844-72.214844 39.820312 0 72.21875 32.394532 72.21875 72.214844zm0 0" fill="#ea1b29" fill-opacity="1" data-original-color="#000000ff" stroke="none" stroke-opacity="1"/><path d="m394.054688 161.867188c1.597656 1.597656 3.6875 2.394531 5.78125 2.394531s4.1875-.796875 5.78125-2.394531l2.972656-2.96875 2.96875 2.96875c1.597656 1.597656 3.6875 2.394531 5.78125 2.394531s4.1875-.796875 5.78125-2.394531c3.195312-3.191407 3.195312-8.371094 0-11.5625l-2.96875-2.96875 2.96875-2.972657c3.195312-3.191406 3.195312-8.367187 0-11.5625-3.191406-3.191406-8.371094-3.191406-11.5625 0l-2.96875 2.972657-2.972656-2.972657c-3.191407-3.191406-8.371094-3.191406-11.5625 0-3.195313 3.195313-3.195313 8.371094 0 11.5625l2.96875 2.972657-2.96875 2.96875c-3.191407 3.191406-3.191407 8.367187 0 11.5625zm0 0" fill="#ea1b29" fill-opacity="1" data-original-color="#000000ff" stroke="none" stroke-opacity="1"/><path d="m138.648438 135.8125v11.085938h-.980469c-7.207031 0-12.796875 1.988281-16.773438 5.964843-3.976562 3.980469-5.964843 9.664063-5.964843 17.054688v5.191406c0 9.824219 2.621093 16.421875 7.859374 19.789063 2.527344 1.683593 5.007813 2.878906 7.4375 3.578124 2.433594.703126 6.105469 1.289063 11.019532 1.753907 4.910156.472656 8.210937.890625 9.894531 1.265625 1.871094.46875 3.507813 1.355468 4.914063 2.664062 1.402343 1.3125 2.101562 3.136719 2.101562 5.472656v2.105469c0 3.839844-.722656 6.457031-2.175781 7.859375-1.449219 1.402344-4 2.105469-7.644531 2.105469h-5.617188c-3.742188 0-6.3125-.652344-7.71875-1.964844-1.402344-1.308593-2.105469-3.742187-2.105469-7.296875v-.984375c0-1.964843-.980469-2.945312-2.945312-2.945312h-11.929688c-1.964843 0-2.949219.980469-2.949219 2.945312v2.667969c0 7.207031 1.988282 12.84375 5.964844 16.914062 3.976563 4.070313 9.523438 6.105469 16.632813 6.105469h.980469v10.804688c0 1.964843.984374 2.949219 2.949218 2.949219h8.421875c1.964844 0 2.945313-.984376 2.945313-2.949219v-10.804688h.28125c7.019531 0 12.5625-2.011719 16.632812-6.035156 4.066406-4.023437 6.101563-9.683594 6.101563-16.984375v-5.332031c0-9.167969-2.476563-15.53125-7.4375-19.085938-2.433594-1.683593-4.890625-2.921875-7.367188-3.71875-2.480469-.792969-6.175781-1.402343-11.085937-1.824219-4.914063-.421874-8.398438-.820312-10.457032-1.195312-1.777343-.371094-3.367187-1.144531-4.773437-2.3125-1.402344-1.167969-2.101563-2.785156-2.101563-4.84375v-2.804688c0-4.210937.675782-7.042968 2.03125-8.492187 1.355469-1.449219 3.953126-2.175781 7.789063-2.175781h4.492187c3.835938 0 6.433594.65625 7.789063 1.964844 1.355469 1.3125 2.035156 3.742187 2.035156 7.296874v.984376c0 1.964843.984375 2.949218 2.949219 2.949218h11.929688c1.964843 0 2.945312-.984375 2.945312-2.949218v-2.667969c0-7.109375-1.917969-12.722657-5.753906-16.839844-3.835938-4.117187-9.074219-6.175781-15.71875-6.175781h-.28125v-11.085938c0-1.96875-.980469-2.949218-2.945313-2.949218h-8.421875c-1.964844 0-2.949218.980468-2.949218 2.945312zm0 0" fill="#ea1b29" fill-opacity="1" data-original-color="#000000ff" stroke="none" stroke-opacity="1"/></g></svg>