<svg clip-rule="evenodd" fill-rule="evenodd" height="300" image-rendering="optimizeQuality" shape-rendering="geometricPrecision" text-rendering="geometricPrecision" viewBox="0 0 1707 1707" width="300" xmlns="http://www.w3.org/2000/svg" version="1.1" xmlns:xlink="http://www.w3.org/1999/xlink" xmlns:svgjs="http://svgjs.dev/svgjs"><g width="100%" height="100%" transform="matrix(1,0,0,1,0,0)"><g id="Layer_x0020_1"><path d="m1555 1569h-466c-84 0-151-68-151-151v-466c0-84 67-152 151-152h466c84 0 152 68 152 152v466c0 83-68 151-152 151zm-466-729c-61 0-111 50-111 112v466c0 61 50 111 111 111h466c62 0 112-50 112-111v-466c0-62-50-112-112-112z" fill="#ea1b29" fill-opacity="1" data-original-color="#000000ff" stroke="none" stroke-opacity="1"/><path d="m958 1366c-6 0-11-2-15-6-7-7-7-20 0-28l230-229c7-8 20-8 28 0l218 218c8 8 8 21 0 29-8 7-20 7-28 0l-204-205-215 215c-4 4-9 6-14 6z" fill="#ea1b29" fill-opacity="1" data-original-color="#000000ff" stroke="none" stroke-opacity="1"/><path d="m1687 1327c-6 0-12-3-16-8l-145-176-157 157c-8 7-20 7-28 0-8-8-8-21 0-29l172-172c4-4 10-6 15-6 6 0 11 3 15 7l159 194c7 8 6 21-3 28-4 3-8 5-12 5z" fill="#ea1b29" fill-opacity="1" data-original-color="#000000ff" stroke="none" stroke-opacity="1"/><path d="m1490 1047c-43 0-78-35-78-78s35-77 78-77c42 0 77 34 77 77s-35 78-77 78zm0-115c-21 0-38 16-38 37s17 38 38 38c20 0 37-17 37-38 0-20-17-37-37-37z" fill="#ea1b29" fill-opacity="1" data-original-color="#000000ff" stroke="none" stroke-opacity="1"/><path d="m1582 492h-1562c-11 0-20-9-20-20 0-12 9-20 20-20h1562c11 0 20 8 20 20 0 11-9 20-20 20z" fill="#ea1b29" fill-opacity="1" data-original-color="#000000ff" stroke="none" stroke-opacity="1"/><path d="m1431 382c-37 0-67-30-67-68 0-37 30-67 67-67s67 30 67 67c0 38-30 68-67 68zm0-95c-15 0-27 12-27 27 0 16 12 28 27 28s27-12 27-28c0-15-12-27-27-27z" fill="#ea1b29" fill-opacity="1" data-original-color="#000000ff" stroke="none" stroke-opacity="1"/><path d="m1257 382c-37 0-67-30-67-68 0-37 30-67 67-67s68 30 68 67c0 38-31 68-68 68zm0-95c-15 0-27 12-27 27 0 16 12 28 27 28s28-12 28-28c0-15-13-27-28-27z" fill="#ea1b29" fill-opacity="1" data-original-color="#000000ff" stroke="none" stroke-opacity="1"/><path d="m1068 382c-37 0-67-30-67-68 0-37 30-67 67-67s67 30 67 67c0 38-30 68-67 68zm0-95c-15 0-27 12-27 27 0 16 12 28 27 28s27-12 27-28c0-15-12-27-27-27z" fill="#ea1b29" fill-opacity="1" data-original-color="#000000ff" stroke="none" stroke-opacity="1"/><path d="m687 492c-11 0-20-9-20-20v-149c0-11 9-20 20-20h97v-146c0-11 9-20 20-20s20 9 20 20v166c0 11-9 20-20 20h-97v128c0 12-9 21-20 21z" fill="#ea1b29" fill-opacity="1" data-original-color="#000000ff" stroke="none" stroke-opacity="1"/><path d="m177 1450c-98 0-177-79-177-177v-959c0-97 79-176 177-176h1248c98 0 177 79 177 176v509c0 11-9 20-20 20s-20-9-20-20v-509c0-75-61-137-137-137h-1248c-76 0-137 62-137 137v959c0 76 61 137 137 137h781c11 0 20 9 20 20s-9 20-20 20z" fill="#ea1b29" fill-opacity="1" data-original-color="#000000ff" stroke="none" stroke-opacity="1"/><path d="m730 997h-49c-21 0-38-17-38-38v-17c-3-1-6-2-9-3l-11 11c-14 15-40 15-54 0l-35-35c-7-7-11-16-11-27 0-10 4-19 11-26l12-12c-2-3-3-6-4-9h-16c-21 0-38-17-38-38v-49c0-21 17-38 38-38h16c1-3 2-6 4-9l-12-11c-7-7-11-17-11-27s4-20 11-27l35-35c14-14 40-14 54 0l11 12c3-2 6-3 9-4v-16c0-21 17-38 38-38h49c21 0 38 17 38 38v16l9 3 12-11c14-15 39-15 53 0l35 35c8 7 11 17 11 27s-4 19-11 27l-11 11 3 9h17c21 0 38 17 38 38v49c0 21-17 38-38 38h-17c-1 3-2 6-3 9l11 11c8 8 11 17 11 27s-4 20-11 27l-35 35c-14 14-39 15-53 0l-12-11c-3 1-6 2-9 3v16c0 22-17 39-38 39zm-47-40h45v-29c0-9 6-17 15-19 10-3 19-7 28-12 8-4 18-3 24 3l20 21 33-33-21-20c-6-6-7-16-3-24 5-9 9-18 12-28 2-9 10-15 19-15h29v-45h-29c-9 0-17-6-19-15-3-9-7-19-12-28-4-8-3-18 3-24l21-20-33-32-20 20c-6 6-16 7-24 3-9-5-18-9-28-12-9-2-14-10-14-19v-29h-46v29c0 9-6 17-14 19-10 3-20 7-29 12-8 4-17 3-24-3l-20-20-32 32 20 20c6 6 8 16 3 24-5 9-9 18-11 28-3 9-11 15-20 15h-28v45h28c9 0 17 6 20 15 2 10 6 19 11 28 5 8 3 18-3 24l-20 20 32 32 20-20c7-6 16-7 24-3 9 5 19 9 29 12 8 2 14 10 14 19z" fill="#ea1b29" fill-opacity="1" data-original-color="#000000ff" stroke="none" stroke-opacity="1"/><path d="m293 656h-192c-11 0-20-9-20-20s9-20 20-20h192c11 0 20 9 20 20s-9 20-20 20z" fill="#ea1b29" fill-opacity="1" data-original-color="#000000ff" stroke="none" stroke-opacity="1"/><path d="m293 755h-192c-11 0-20-9-20-20s9-20 20-20h192c11 0 20 9 20 20s-9 20-20 20z" fill="#ea1b29" fill-opacity="1" data-original-color="#000000ff" stroke="none" stroke-opacity="1"/><path d="m293 853h-192c-11 0-20-9-20-20s9-20 20-20h192c11 0 20 9 20 20s-9 20-20 20z" fill="#ea1b29" fill-opacity="1" data-original-color="#000000ff" stroke="none" stroke-opacity="1"/><path d="m293 952h-192c-11 0-20-9-20-20s9-20 20-20h192c11 0 20 9 20 20s-9 20-20 20z" fill="#ea1b29" fill-opacity="1" data-original-color="#000000ff" stroke="none" stroke-opacity="1"/><path d="m197 1285c-53 0-96-43-96-96 0-52 43-96 96-96s96 44 96 96c0 53-43 96-96 96zm0-151c-31 0-56 25-56 56 0 30 25 56 56 56s56-26 56-56c0-31-25-56-56-56z" fill="#ea1b29" fill-opacity="1" data-original-color="#000000ff" stroke="none" stroke-opacity="1"/><path d="m823 1098h-262c-11 0-20-9-20-20s9-20 20-20h262c12 0 20 9 20 20s-9 20-20 20z" fill="#ea1b29" fill-opacity="1" data-original-color="#000000ff" stroke="none" stroke-opacity="1"/><path d="m823 1098h-262c-11 0-20-9-20-20s9-20 20-20h262c12 0 20 9 20 20s-9 20-20 20z" fill="#ea1b29" fill-opacity="1" data-original-color="#000000ff" stroke="none" stroke-opacity="1"/><path d="m823 1348h-262c-11 0-20-9-20-20s9-20 20-20h262c12 0 20 9 20 20s-9 20-20 20z" fill="#ea1b29" fill-opacity="1" data-original-color="#000000ff" stroke="none" stroke-opacity="1"/><path d="m706 889c-61 0-110-50-110-110 0-61 49-110 110-110 60 0 109 49 109 110 0 60-49 110-109 110zm0-180c-39 0-70 31-70 70 0 38 31 69 70 69 38 0 69-31 69-69 0-39-31-70-69-70z" fill="#ea1b29" fill-opacity="1" data-original-color="#000000ff" stroke="none" stroke-opacity="1"/><path d="m823 1227h-262c-11 0-20-9-20-20s9-20 20-20h262c12 0 20 9 20 20s-9 20-20 20z" fill="#ea1b29" fill-opacity="1" data-original-color="#000000ff" stroke="none" stroke-opacity="1"/><path d="m398 1450c-11 0-20-9-20-20v-958c0-12 9-20 20-20s20 8 20 20v958c0 11-9 20-20 20z" fill="#ea1b29" fill-opacity="1" data-original-color="#000000ff" stroke="none" stroke-opacity="1"/></g></g></svg>