<svg xmlns="http://www.w3.org/2000/svg" viewBox="0 0 64 64" width="300" height="300" version="1.1" xmlns:xlink="http://www.w3.org/1999/xlink" xmlns:svgjs="http://svgjs.dev/svgjs"><g width="100%" height="100%" transform="matrix(1,0,0,1,0,0)"><title/><g data-name="Layer 10" id="Layer_10"><path d="M58,1H6A5,5,0,0,0,1,6V58a5,5,0,0,0,5,5H58a5,5,0,0,0,5-5V6A5,5,0,0,0,58,1ZM6,3H58a3,3,0,0,1,3,3v9H3V6A3,3,0,0,1,6,3ZM58,61H6a3,3,0,0,1-3-3V17H61V58A3,3,0,0,1,58,61Z" fill="#ea1b29" fill-opacity="1" data-original-color="#000000ff" stroke="none" stroke-opacity="1"/><path d="M56,12a3,3,0,1,0-3-3A3,3,0,0,0,56,12Zm0-4a1,1,0,1,1-1,1A1,1,0,0,1,56,8Z" fill="#ea1b29" fill-opacity="1" data-original-color="#000000ff" stroke="none" stroke-opacity="1"/><path d="M48,12a3,3,0,1,0-3-3A3,3,0,0,0,48,12Zm0-4a1,1,0,1,1-1,1A1,1,0,0,1,48,8Z" fill="#ea1b29" fill-opacity="1" data-original-color="#000000ff" stroke="none" stroke-opacity="1"/><path d="M40,12a3,3,0,1,0-3-3A3,3,0,0,0,40,12Zm0-4a1,1,0,1,1-1,1A1,1,0,0,1,40,8Z" fill="#ea1b29" fill-opacity="1" data-original-color="#000000ff" stroke="none" stroke-opacity="1"/><path d="M58,19H44a1,1,0,0,0-1,1v5H38a1,1,0,0,0-1,1v9H34.9A5,5,0,0,0,31,31.1V24a1,1,0,0,0-1.39-.92L15.8,29H12a7,7,0,0,0-1,13.92V51a4,4,0,0,0,8,0V44.37l10.61,4.55A1,1,0,0,0,30,49a1,1,0,0,0,.55-.17A1,1,0,0,0,31,48V40.9A5,5,0,0,0,34.9,37H37V50a1,1,0,0,0,1,1h3v1a1,1,0,0,0,1,1h.59l-.3.29a1,1,0,0,0,0,1.42l3,3a1,1,0,0,0,1.42,0l.29-.3V58a1,1,0,0,0,1,1h4a1,1,0,0,0,1-1v-.59l.29.3a1,1,0,0,0,1.42,0l3-3a1,1,0,0,0,0-1.42l-.3-.29H58a1,1,0,0,0,1-1V48a1,1,0,0,0-1-1h-.59l.3-.29a1,1,0,0,0,0-1.42l-3-3a1,1,0,0,0-1.42,0l-.29.3V42a1,1,0,0,0-1-1H48a1,1,0,0,0-1,1v.59l-.29-.3a1,1,0,0,0-1.42,0l-3,3a1,1,0,0,0,0,1.42l.3.29H42a1,1,0,0,0-1,1v1H39V27h4v3a1,1,0,0,0,1,1H58a1,1,0,0,0,1-1V20A1,1,0,0,0,58,19ZM17,30.66l8-3.43V44.77l-8-3.43ZM7,36a5,5,0,0,1,5-5h3V41H12A5,5,0,0,1,7,36ZM17,51a2,2,0,0,1-4,0V43h2.8l1.2.52Zm12-4.52-2-.85V26.37l2-.85Zm2-7.66V33.18a3,3,0,0,1,0,5.64ZM43,49h.29a1,1,0,0,0,1-.71,6.28,6.28,0,0,1,.42-1,1,1,0,0,0-.18-1.17L44.41,46,46,44.41l.08.08a1,1,0,0,0,1.17.18,6.28,6.28,0,0,1,1-.42,1,1,0,0,0,.71-1V43h2v.29a1,1,0,0,0,.71,1,6.28,6.28,0,0,1,1,.42,1,1,0,0,0,1.17-.18l.08-.08L55.59,46l-.08.08a1,1,0,0,0-.18,1.17,6.28,6.28,0,0,1,.42,1,1,1,0,0,0,1,.71H57v2h-.29a1,1,0,0,0-1,.71,6.28,6.28,0,0,1-.42,1,1,1,0,0,0,.18,1.17l.08.08L54,55.59l-.08-.08a1,1,0,0,0-1.17-.18,6.28,6.28,0,0,1-1,.42,1,1,0,0,0-.71,1V57H49v-.29a1,1,0,0,0-.71-1,6.28,6.28,0,0,1-1-.42,1,1,0,0,0-1.17.18l-.08.08L44.41,54l.08-.08a1,1,0,0,0,.18-1.17,6.28,6.28,0,0,1-.42-1,1,1,0,0,0-1-.71H43ZM55.3,21,51,24.68,46.7,21ZM45,29V22.17l5.35,4.59a1,1,0,0,0,1.3,0L57,22.17V29Z" fill="#ea1b29" fill-opacity="1" data-original-color="#000000ff" stroke="none" stroke-opacity="1"/><path d="M50,54a4,4,0,1,0-4-4A4,4,0,0,0,50,54Zm0-6a2,2,0,1,1-2,2A2,2,0,0,1,50,48Z" fill="#ea1b29" fill-opacity="1" data-original-color="#000000ff" stroke="none" stroke-opacity="1"/></g></g></svg>