<svg id="Layer_1" enable-background="new 0 0 450 450" height="300" viewBox="0 0 450 450" width="300" xmlns="http://www.w3.org/2000/svg" version="1.1" xmlns:xlink="http://www.w3.org/1999/xlink" xmlns:svgjs="http://svgjs.dev/svgjs"><g width="100%" height="100%" transform="matrix(1,0,0,1,0,0)"><g><g><path d="m409.1 446h-302.3c-12.7 0-23.1-10.4-23.1-23.1v-285.8c0-12.7 10.4-23.1 23.1-23.1h302.3c12.7 0 23.1 10.4 23.1 23.1v285.8c0 12.7-10.3 23.1-23.1 23.1zm-302.3-322.1c-7.2 0-13.1 5.9-13.1 13.1v285.8c0 7.2 5.9 13.1 13.1 13.1h302.3c7.2 0 13.1-5.9 13.1-13.1v-285.7c0-7.2-5.9-13.1-13.1-13.1z" fill="#ea1b29" fill-opacity="1" data-original-color="#000000ff" stroke="none" stroke-opacity="1"/></g><g><path d="m427.2 192.3h-338.5c-2.8 0-5-2.2-5-5s2.2-5 5-5h338.5c2.8 0 5 2.2 5 5s-2.2 5-5 5z" fill="#ea1b29" fill-opacity="1" data-original-color="#000000ff" stroke="none" stroke-opacity="1"/></g><g><g><path d="m129.1 171.1c-9.9 0-18-8.1-18-18s8.1-18 18-18 18 8.1 18 18-8.1 18-18 18zm0-26c-4.4 0-8 3.6-8 8s3.6 8 8 8 8-3.6 8-8-3.6-8-8-8z" fill="#ea1b29" fill-opacity="1" data-original-color="#000000ff" stroke="none" stroke-opacity="1"/></g><g><path d="m177.9 171.1c-9.9 0-18-8.1-18-18s8.1-18 18-18 18 8.1 18 18-8.1 18-18 18zm0-26c-4.4 0-8 3.6-8 8s3.6 8 8 8 8-3.6 8-8-3.6-8-8-8z" fill="#ea1b29" fill-opacity="1" data-original-color="#000000ff" stroke="none" stroke-opacity="1"/></g><g><path d="m226.7 171.1c-9.9 0-18-8.1-18-18s8.1-18 18-18 18 8.1 18 18-8.1 18-18 18zm0-26c-4.4 0-8 3.6-8 8s3.6 8 8 8 8-3.6 8-8-3.6-8-8-8z" fill="#ea1b29" fill-opacity="1" data-original-color="#000000ff" stroke="none" stroke-opacity="1"/></g><g><path d="m353.3 158.1h-92.3c-2.8 0-5-2.2-5-5s2.2-5 5-5h92.3c2.8 0 5 2.2 5 5s-2.2 5-5 5z" fill="#ea1b29" fill-opacity="1" data-original-color="#000000ff" stroke="none" stroke-opacity="1"/></g><g><path d="m399.8 158.1h-25.5c-2.8 0-5-2.2-5-5s2.2-5 5-5h25.5c2.8 0 5 2.2 5 5s-2.2 5-5 5z" fill="#ea1b29" fill-opacity="1" data-original-color="#000000ff" stroke="none" stroke-opacity="1"/></g><g><path d="m387.1 170.9c-2.8 0-5-2.2-5-5v-25.5c0-2.8 2.2-5 5-5s5 2.2 5 5v25.5c0 2.7-2.2 5-5 5z" fill="#ea1b29" fill-opacity="1" data-original-color="#000000ff" stroke="none" stroke-opacity="1"/></g></g><g><g><path d="m260.8 397.5h-5.7c-6.3 0-11.5-5-11.9-11.6l-.8-11.7c-5.6-1.4-11-3.7-16-6.6l-8.8 7.7c-5 4.4-12.1 4.3-16.6-.2l-4-4c-4.5-4.5-4.6-11.6-.2-16.6l7.7-8.8c-3-5-5.2-10.3-6.6-16l-11.7-.8c-6.6-.4-11.6-5.6-11.6-11.9v-5.7c0-6.3 5-11.5 11.6-11.9l11.7-.8c1.4-5.6 3.7-11 6.6-16l-7.7-8.8c-4.4-5-4.3-12.1.2-16.6l4-4c4.5-4.5 11.6-4.6 16.6-.2l8.8 7.7c5-3 10.3-5.2 16-6.6l.8-11.7c.4-6.6 5.6-11.6 11.9-11.6h5.7c6.3 0 11.5 5 11.9 11.6l.8 11.7c5.6 1.4 11 3.7 16 6.6l8.8-7.7c5-4.4 12.1-4.3 16.6.2l4 4c4.5 4.5 4.6 11.6.2 16.6l-7.7 8.8c3 5 5.2 10.3 6.6 16l11.7.8c6.6.4 11.6 5.6 11.6 11.9v5.7c0 6.3-5 11.5-11.6 11.9l-11.7.8c-1.4 5.6-3.7 11-6.6 16l7.7 8.8c4.4 5 4.3 12.1-.2 16.6l-4 4c-4.5 4.5-11.6 4.6-16.6.2l-8.8-7.7c-5 3-10.3 5.2-16 6.6l-.8 11.7c-.4 6.7-5.5 11.6-11.9 11.6zm-34.8-41.1c1 0 2 .3 2.8.9 5.9 4 12.4 6.7 19.3 8 2.2.4 3.9 2.3 4 4.6l1 15.4c.1 1.1.8 2.3 1.9 2.3h5.7c1.2 0 1.9-1.2 1.9-2.3l1-15.4c.2-2.3 1.8-4.1 4-4.6 6.9-1.3 13.4-4 19.3-8 1.9-1.3 4.4-1.1 6.1.4l11.7 10.2c.8.7 2.1 1 3 .2l4-4c.8-.8.5-2.1-.2-3l-10.2-11.7c-1.5-1.7-1.6-4.2-.4-6.1 4-5.9 6.7-12.4 8-19.3.4-2.2 2.3-3.9 4.6-4l15.4-1c1.1-.1 2.3-.8 2.3-1.9v-5.7c0-1.2-1.2-1.9-2.3-1.9l-15.4-1c-2.3-.2-4.1-1.8-4.6-4-1.3-6.9-4-13.4-8-19.3-1.3-1.9-1.1-4.4.4-6.1l10.2-11.7c.7-.8 1-2.1.2-3l-4-4c-.8-.8-2.1-.5-3 .2l-11.7 10.2c-1.7 1.5-4.2 1.6-6.1.4-5.9-4-12.4-6.7-19.3-8-2.2-.4-3.9-2.3-4-4.6l-1-15.4c-.1-1.1-.8-2.3-1.9-2.3h-5.7c-1.2 0-1.9 1.2-1.9 2.3l-1 15.4c-.2 2.3-1.8 4.1-4 4.6-6.9 1.3-13.4 4-19.3 8-1.9 1.3-4.4 1.1-6.1-.4l-11.7-10.2c-.8-.7-2.1-1-3-.2l-4 4c-.8.8-.5 2.1.2 3l10.2 11.7c1.5 1.7 1.6 4.2.4 6.1-4 5.9-6.7 12.4-8 19.3-.4 2.2-2.3 3.9-4.6 4l-15.4 1c-1.1.1-2.3.8-2.3 1.9v5.7c0 1.2 1.2 1.9 2.3 1.9l15.4 1c2.3.2 4.1 1.8 4.6 4 1.3 6.9 4 13.4 8 19.3 1.3 1.9 1.1 4.4-.4 6.1l-10.2 11.7c-.7.8-1 2.1-.2 3l4 4c.8.8 2.1.5 3-.2l11.7-10.2c1-.9 2.1-1.3 3.3-1.3z" fill="#ea1b29" fill-opacity="1" data-original-color="#000000ff" stroke="none" stroke-opacity="1"/></g><g><path d="m258 351.1c-20.4 0-37-16.6-37-37s16.6-37 37-37 37 16.6 37 37-16.6 37-37 37zm0-63.9c-14.9 0-27 12.1-27 27s12.1 27 27 27 27-12.1 27-27-12.1-27-27-27z" fill="#ea1b29" fill-opacity="1" data-original-color="#000000ff" stroke="none" stroke-opacity="1"/></g></g><g><path d="m88.7 336.1h-47.8c-12.7 0-23.1-10.4-23.1-23.1v-285.9c0-12.7 10.3-23.1 23.1-23.1h302.3c12.7 0 23.1 10.4 23.1 23.1v91.8c0 2.8-2.2 5-5 5s-5-2.2-5-5v-91.8c0-7.2-5.9-13.1-13.1-13.1h-302.3c-7.2 0-13.1 5.9-13.1 13.1v285.8c0 7.2 5.9 13.1 13.1 13.1h47.8c2.8 0 5 2.2 5 5s-2.2 5.1-5 5.1z" fill="#ea1b29" fill-opacity="1" data-original-color="#000000ff" stroke="none" stroke-opacity="1"/></g><g><path d="m361.3 82.4h-338.5c-2.8 0-5-2.2-5-5s2.2-5 5-5h338.5c2.8 0 5 2.2 5 5s-2.3 5-5 5z" fill="#ea1b29" fill-opacity="1" data-original-color="#000000ff" stroke="none" stroke-opacity="1"/></g><g><g><path d="m63.7 61.2c-9.9 0-18-8.1-18-18s8.1-18 18-18 18 8.1 18 18-8.1 18-18 18zm0-26c-4.4 0-8 3.6-8 8s3.6 8 8 8 8-3.6 8-8-3.6-8-8-8z" fill="#ea1b29" fill-opacity="1" data-original-color="#000000ff" stroke="none" stroke-opacity="1"/></g><g><path d="m112.4 61.2c-9.9 0-18-8.1-18-18s8.1-18 18-18 18 8.1 18 18-8 18-18 18zm0-26c-4.4 0-8 3.6-8 8s3.6 8 8 8 8-3.6 8-8-3.6-8-8-8z" fill="#ea1b29" fill-opacity="1" data-original-color="#000000ff" stroke="none" stroke-opacity="1"/></g><g><path d="m161.2 61.2c-9.9 0-18-8.1-18-18s8.1-18 18-18 18 8.1 18 18-8.1 18-18 18zm0-26c-4.4 0-8 3.6-8 8s3.6 8 8 8 8-3.6 8-8-3.6-8-8-8z" fill="#ea1b29" fill-opacity="1" data-original-color="#000000ff" stroke="none" stroke-opacity="1"/></g><g><path d="m287.9 48.2h-92.3c-2.8 0-5-2.2-5-5s2.2-5 5-5h92.3c2.8 0 5 2.2 5 5s-2.3 5-5 5z" fill="#ea1b29" fill-opacity="1" data-original-color="#000000ff" stroke="none" stroke-opacity="1"/></g><g><path d="m333.4 48.2h-25.5c-2.8 0-5-2.2-5-5s2.2-5 5-5h25.5c2.8 0 5 2.2 5 5s-2.3 5-5 5z" fill="#ea1b29" fill-opacity="1" data-original-color="#000000ff" stroke="none" stroke-opacity="1"/></g><g><path d="m320.6 60.9c-2.8 0-5-2.2-5-5v-25.5c0-2.8 2.2-5 5-5s5 2.2 5 5v25.5c0 2.8-2.2 5-5 5z" fill="#ea1b29" fill-opacity="1" data-original-color="#000000ff" stroke="none" stroke-opacity="1"/></g></g><g><g><g><path d="m161.5 224.8h-41.7c-2.8 0-5-2.2-5-5s2.2-5 5-5h41.7c2.8 0 5 2.2 5 5s-2.3 5-5 5z" fill="#ea1b29" fill-opacity="1" data-original-color="#000000ff" stroke="none" stroke-opacity="1"/></g><g><path d="m161.5 250h-41.7c-2.8 0-5-2.2-5-5s2.2-5 5-5h41.7c2.8 0 5 2.2 5 5s-2.3 5-5 5z" fill="#ea1b29" fill-opacity="1" data-original-color="#000000ff" stroke="none" stroke-opacity="1"/></g><g><path d="m161.5 275.2h-41.7c-2.8 0-5-2.2-5-5s2.2-5 5-5h41.7c2.8 0 5 2.2 5 5s-2.3 5-5 5z" fill="#ea1b29" fill-opacity="1" data-original-color="#000000ff" stroke="none" stroke-opacity="1"/></g><g><path d="m161.5 300.5h-41.7c-2.8 0-5-2.2-5-5s2.2-5 5-5h41.7c2.8 0 5 2.2 5 5s-2.3 5-5 5z" fill="#ea1b29" fill-opacity="1" data-original-color="#000000ff" stroke="none" stroke-opacity="1"/></g></g><g><g><path d="m396.2 224.8h-41.7c-2.8 0-5-2.2-5-5s2.2-5 5-5h41.7c2.8 0 5 2.2 5 5s-2.2 5-5 5z" fill="#ea1b29" fill-opacity="1" data-original-color="#000000ff" stroke="none" stroke-opacity="1"/></g><g><path d="m396.2 250h-41.7c-2.8 0-5-2.2-5-5s2.2-5 5-5h41.7c2.8 0 5 2.2 5 5s-2.2 5-5 5z" fill="#ea1b29" fill-opacity="1" data-original-color="#000000ff" stroke="none" stroke-opacity="1"/></g><g><path d="m396.2 275.2h-41.7c-2.8 0-5-2.2-5-5s2.2-5 5-5h41.7c2.8 0 5 2.2 5 5s-2.2 5-5 5z" fill="#ea1b29" fill-opacity="1" data-original-color="#000000ff" stroke="none" stroke-opacity="1"/></g><g><path d="m396.2 300.5h-41.7c-2.8 0-5-2.2-5-5s2.2-5 5-5h41.7c2.8 0 5 2.2 5 5s-2.2 5-5 5z" fill="#ea1b29" fill-opacity="1" data-original-color="#000000ff" stroke="none" stroke-opacity="1"/></g></g></g></g></g></svg>