<svg enable-background="new 0 0 512 512" viewBox="0 0 512 512" xmlns="http://www.w3.org/2000/svg" width="300" height="300" version="1.1" xmlns:xlink="http://www.w3.org/1999/xlink" xmlns:svgjs="http://svgjs.dev/svgjs"><g width="100%" height="100%" transform="matrix(1,0,0,1,0,0)"><g id="_x32_4_x2C__analytics_x2C__metrics_x2C__software_development_x2C__testing_x2C__browser_x2C__seo_and_web"><g><g><path d="m43.7 469.25c-23.269 0-42.2-18.931-42.2-42.2v-39.8c0-3.859 3.14-7 7-7h15.5v-213.95c0-39.177 31.873-71.05 71.05-71.05h41.45v-45.5c0-3.86 3.14-7 7-7h120c3.859 0 7 3.14 7 7s-3.141 7-7 7h-113v271h211v-271h-38c-3.859 0-7-3.14-7-7s3.141-7 7-7h45c3.859 0 7 3.14 7 7v45.5h41.45c39.177 0 71.05 31.873 71.05 71.05v213.95h15.5c3.859 0 7 3.141 7 7v39.8c0 23.27-18.931 42.2-42.2 42.2zm-28.2-42.2c0 15.55 12.65 28.2 28.2 28.2h424.6c15.55 0 28.2-12.65 28.2-28.2v-32.8h-188.5v6.5c0 17.094-13.906 31-31 31h-42c-17.093 0-31-13.906-31-31v-6.5h-38c-3.86 0-7-3.141-7-7s3.14-7 7-7h270.5v-211.15c0-12.324-10.026-22.35-22.35-22.35h-38.65v188c0 3.859-3.141 7-7 7h-225c-3.86 0-7-3.141-7-7v-188h-38.65c-12.324 0-22.35 10.026-22.35 22.35v211.15h30.5c3.86 0 7 3.141 7 7s-3.14 7-7 7h-90.5zm202.5-26.3c0 9.374 7.626 17 17 17h42c9.374 0 17-7.626 17-17v-6.5h-76zm157.5-268h38.65c20.043 0 36.35 16.306 36.35 36.35v211.15h23.5v-213.95c0-31.458-25.593-57.05-57.05-57.05h-41.45zm-280.45-23.5c-31.458 0-57.05 25.592-57.05 57.05v213.95h23.5v-211.15c0-20.043 16.306-36.35 36.35-36.35h38.65v-23.5z" fill="#ea1b29" fill-opacity="1" data-original-color="#000000ff" stroke="none" stroke-opacity="1"/><path d="m368.5 43.25c3.584 0 6.5 2.916 6.5 6.5v45 1h1 40.95c38.901 0 70.55 31.649 70.55 70.55v213.45 1h1 15c3.584 0 6.5 2.916 6.5 6.5v39.8c0 22.994-18.707 41.7-41.7 41.7h-424.6c-22.994 0-41.7-18.707-41.7-41.7v-39.8c0-3.584 2.916-6.5 6.5-6.5h15 1v-1-213.45c0-38.901 31.649-70.55 70.55-70.55h40.95 1v-1-45c0-3.584 2.916-6.5 6.5-6.5h120c3.584 0 6.5 2.916 6.5 6.5s-2.916 6.5-6.5 6.5h-112.5-1v1 270 1h1 210 1v-1-270-1h-1-37.5c-3.584 0-6.5-2.916-6.5-6.5s2.916-6.5 6.5-6.5zm6.5 90h1 38.15c19.768 0 35.85 16.082 35.85 35.85v210.65 1h1 22.5 1v-1-213.45c0-31.733-25.817-57.55-57.55-57.55h-40.95-1v1 22.5zm-337.5 247.5h1 22.5 1v-1-210.65c0-19.768 16.082-35.85 35.85-35.85h38.15 1v-1-22.5-1h-1-40.95c-31.733 0-57.55 25.817-57.55 57.55v213.45zm106-39.5c-3.584 0-6.5-2.916-6.5-6.5v-187.5-1h-1-38.15c-12.6 0-22.85 10.25-22.85 22.85v210.65 1h1 30c3.584 0 6.5 2.916 6.5 6.5s-2.916 6.5-6.5 6.5h-90-1v1 32.3c0 15.825 12.875 28.7 28.7 28.7h424.6c15.825 0 28.7-12.875 28.7-28.7v-32.3-1h-1-187.5-1v1 6c0 16.818-13.682 30.5-30.5 30.5h-42c-16.818 0-30.5-13.682-30.5-30.5v-6-1h-1-37.5c-3.584 0-6.5-2.916-6.5-6.5s2.916-6.5 6.5-6.5h270 1v-1-210.65c0-12.599-10.25-22.85-22.85-22.85h-38.15-1v1 187.5c0 3.584-2.916 6.5-6.5 6.5zm91.5 77h42c9.65 0 17.5-7.85 17.5-17.5v-6-1h-1-75-1v1 6c0 9.65 7.85 17.5 17.5 17.5m133.5-376h-45c-4.143 0-7.5 3.357-7.5 7.5s3.357 7.5 7.5 7.5h37.5v270h-210v-270h112.5c4.143 0 7.5-3.357 7.5-7.5s-3.357-7.5-7.5-7.5h-120c-4.143 0-7.5 3.357-7.5 7.5v45h-40.95c-39.453 0-71.55 32.097-71.55 71.55v213.45h-15c-4.143 0-7.5 3.357-7.5 7.5v39.8c0 23.545 19.155 42.7 42.7 42.7h424.6c23.545 0 42.7-19.155 42.7-42.7v-39.8c0-4.143-3.357-7.5-7.5-7.5h-15v-213.45c0-39.453-32.097-71.55-71.55-71.55h-40.95v-45c0-4.143-3.357-7.5-7.5-7.5zm7.5 90v-22.5h40.95c31.182 0 56.55 25.368 56.55 56.55v213.45h-22.5v-210.65c0-20.319-16.53-36.85-36.85-36.85zm-337.5 247.5v-213.45c0-31.182 25.368-56.55 56.55-56.55h40.95v22.5h-38.15c-20.32 0-36.85 16.53-36.85 36.85v210.65zm105-37.5h225c4.143 0 7.5-3.357 7.5-7.5v-187.5h38.15c12.048 0 21.85 9.802 21.85 21.85v210.65c-33.2 0-237.324 0-270 0-4.143 0-7.5 3.357-7.5 7.5s3.357 7.5 7.5 7.5h37.5v6c0 17.369 14.131 31.5 31.5 31.5h42c17.369 0 31.5-14.131 31.5-31.5v-6h187.5v32.3c0 15.274-12.426 27.7-27.7 27.7h-424.6c-15.274 0-27.7-12.426-27.7-27.7v-32.3h90c4.143 0 7.5-3.357 7.5-7.5s-3.357-7.5-7.5-7.5h-30v-210.65c0-12.048 9.802-21.85 21.85-21.85h38.15v187.5c0 4.143 3.357 7.5 7.5 7.5zm91.5 75c-9.098 0-16.5-7.402-16.5-16.5v-6h75v6c0 9.098-7.402 16.5-16.5 16.5z" fill="#ea1b29" fill-opacity="1" data-original-color="#000000ff" stroke="none" stroke-opacity="1"/></g><g><path d="m256 199.25c-32.809 0-59.5-26.691-59.5-59.5s26.691-59.5 59.5-59.5 59.5 26.691 59.5 59.5-26.691 59.5-59.5 59.5zm-44.856-51.917c3.703 21.971 22.567 37.917 44.856 37.917 25.089 0 45.5-20.411 45.5-45.5 0-22.289-15.946-41.153-37.917-44.856l-.583-.098v44.954c0 3.86-3.141 7-7 7h-44.954zm37.273-52.439c-19.079 3.216-34.057 18.194-37.273 37.273l-.098.583h37.954v-37.954z" fill="#ea1b29" fill-opacity="1" data-original-color="#000000ff" stroke="none" stroke-opacity="1"/><path d="m256 80.75c32.533 0 59 26.467 59 59s-26.467 59-59 59-59-26.467-59-59 26.467-59 59-59m0 105c25.365 0 46-20.636 46-46 0-22.533-16.122-41.605-38.334-45.349l-1.166-.197v1.183 44.363c0 3.584-2.916 6.5-6.5 6.5h-44.363-1.183l.197 1.166c3.744 22.212 22.816 38.334 45.349 38.334m-45.546-52.5h1.183 36.863 1v-1-36.863-1.183l-1.166.197c-19.288 3.251-34.432 18.395-37.683 37.683zm45.546-53.5c-33.084 0-60 26.916-60 60s26.916 60 60 60 60-26.916 60-60-26.916-60-60-60zm0 105c-22.257 0-40.781-16.246-44.363-37.5h44.363c4.143 0 7.5-3.357 7.5-7.5v-44.363c21.254 3.582 37.5 22.106 37.5 44.363 0 24.813-20.187 45-45 45zm-44.363-52.5c3.171-18.813 18.05-33.692 36.863-36.863v36.863z" fill="#ea1b29" fill-opacity="1" data-original-color="#000000ff" stroke="none" stroke-opacity="1"/></g><g><path d="m196 304.25c-3.86 0-7-3.141-7-7v-30c0-3.859 3.14-7 7-7h23v-8c0-3.86 3.14-7 7-7h23v-8c0-3.86 3.14-7 7-7h23v-8c0-3.86 3.141-7 7-7h30c3.859 0 7 3.14 7 7v75c0 3.859-3.141 7-7 7zm97-14h16v-61h-16zm-30 0h16v-46h-16zm-30 0h16v-31h-16zm-30 0h16v-16h-16z" fill="#ea1b29" fill-opacity="1" data-original-color="#000000ff" stroke="none" stroke-opacity="1"/><path d="m316 215.75c3.584 0 6.5 2.916 6.5 6.5v75c0 3.584-2.916 6.5-6.5 6.5h-120c-3.584 0-6.5-2.916-6.5-6.5v-30c0-3.584 2.916-6.5 6.5-6.5h22.5 1v-1-7.5c0-3.584 2.916-6.5 6.5-6.5h22.5 1v-1-7.5c0-3.584 2.916-6.5 6.5-6.5h22.5 1v-1-7.5c0-3.584 2.916-6.5 6.5-6.5zm-23.5 75h1 15 1v-1-60-1h-1-15-1v1 60zm-30 0h1 15 1v-1-45-1h-1-15-1v1 45zm-30 0h1 15 1v-1-30-1h-1-15-1v1 30zm-30 0h1 15 1v-1-15-1h-1-15-1v1 15zm113.5-76h-30c-4.143 0-7.5 3.357-7.5 7.5v7.5h-22.5c-4.143 0-7.5 3.357-7.5 7.5v7.5h-22.5c-4.143 0-7.5 3.357-7.5 7.5v7.5h-22.5c-4.143 0-7.5 3.357-7.5 7.5v30c0 4.143 3.357 7.5 7.5 7.5h120c4.143 0 7.5-3.357 7.5-7.5v-75c0-4.143-3.357-7.5-7.5-7.5zm-22.5 75c0-15.877 0-45.15 0-60h15v60zm-30 0c0-15.963 0-36.445 0-45h15v45zm-30 0c0-9.114 0-21.077 0-30h15v30zm-30 0v-15h15v15z" fill="#ea1b29" fill-opacity="1" data-original-color="#000000ff" stroke="none" stroke-opacity="1"/></g><g><circle cx="293.5" cy="49.75" r="7" fill="#ea1b29" fill-opacity="1" data-original-color="#000000ff" stroke="none" stroke-opacity="1"/><path d="m293.5 43.25c3.584 0 6.5 2.916 6.5 6.5s-2.916 6.5-6.5 6.5-6.5-2.916-6.5-6.5 2.916-6.5 6.5-6.5m0-1c-4.142 0-7.5 3.358-7.5 7.5s3.358 7.5 7.5 7.5 7.5-3.358 7.5-7.5-3.358-7.5-7.5-7.5z" fill="#ea1b29" fill-opacity="1" data-original-color="#000000ff" stroke="none" stroke-opacity="1"/></g><g><circle cx="136" cy="387.25" r="7" fill="#ea1b29" fill-opacity="1" data-original-color="#000000ff" stroke="none" stroke-opacity="1"/><path d="m136 380.75c3.584 0 6.5 2.916 6.5 6.5s-2.916 6.5-6.5 6.5-6.5-2.916-6.5-6.5 2.916-6.5 6.5-6.5m0-1c-4.142 0-7.5 3.358-7.5 7.5s3.358 7.5 7.5 7.5 7.5-3.358 7.5-7.5-3.358-7.5-7.5-7.5z" fill="#ea1b29" fill-opacity="1" data-original-color="#000000ff" stroke="none" stroke-opacity="1"/></g></g></g><g id="Layer_1"/></g></svg>