<svg version="1.1" id="svg2277" xml:space="preserve" width="300" height="300" viewBox="0 0 682.66669 682.66669" xmlns="http://www.w3.org/2000/svg" xmlns:svg="http://www.w3.org/2000/svg" xmlns:xlink="http://www.w3.org/1999/xlink" xmlns:svgjs="http://svgjs.dev/svgjs"><g width="100%" height="100%" transform="matrix(1,0,0,1,0,0)"><defs id="defs2281"><clipPath clipPathUnits="userSpaceOnUse" id="clipPath2291"><path d="M 0,512 H 512 V 0 H 0 Z" id="path2289" fill="#ea1b29" fill-opacity="1" data-original-color="#000000ff" stroke="none" stroke-opacity="1"/></clipPath></defs><g id="g2283" transform="matrix(1.3333333,0,0,-1.3333333,0,682.66667)"><g id="g2285"><g id="g2287" clip-path="url(#clipPath2291)"><g id="g2293" transform="translate(231.2002,158.3398)"><path d="m 0,0 v -24.6 c 0,-13.7 11.1,-24.8 24.8,-24.8 6.849,0 13.05,2.78 17.54,7.26 4.479,4.49 7.26,10.69 7.26,17.54 V 0" style="stroke-linecap: round; stroke-linejoin: round; stroke-miterlimit: 10; stroke-dasharray: none;" id="path2295" fill="none" fill-opacity="1" stroke="#ea1b29" stroke-opacity="1" data-original-stroke-color="#000000ff" stroke-width="15" data-original-stroke-width="15"/></g><g id="g2297" transform="translate(191.7598,79.2402)"><path d="M 0,0 V 79.1" style="stroke-linecap: round; stroke-linejoin: round; stroke-miterlimit: 10; stroke-dasharray: none;" id="path2299" fill="none" fill-opacity="1" stroke="#ea1b29" stroke-opacity="1" data-original-stroke-color="#000000ff" stroke-width="15" data-original-stroke-width="15"/></g><g id="g2301" transform="translate(320.2402,79.2402)"><path d="M 0,0 V 79.1" style="stroke-linecap: round; stroke-linejoin: round; stroke-miterlimit: 10; stroke-dasharray: none;" id="path2303" fill="none" fill-opacity="1" stroke="#ea1b29" stroke-opacity="1" data-original-stroke-color="#000000ff" stroke-width="15" data-original-stroke-width="15"/></g><g id="g2305" transform="translate(390.0391,466.5889)"><path d="m 0,0 h -362.539 c -11.046,0 -20,-8.954 -20,-20 v -154.928" style="stroke-linecap: round; stroke-linejoin: round; stroke-miterlimit: 10; stroke-dasharray: none;" id="path2307" fill="none" fill-opacity="1" stroke="#ea1b29" stroke-opacity="1" data-original-stroke-color="#000000ff" stroke-width="15" data-original-stroke-width="15"/></g><g id="g2309" transform="translate(7.5,254.6348)"><path d="m 0,0 v -76.298 c 0,-11.045 8.954,-20 20,-20 h 457 c 11.046,0 20,8.955 20,20 v 268.252 c 0,11.046 -8.954,20 -20,20 h -57.434" style="stroke-linecap: round; stroke-linejoin: round; stroke-miterlimit: 10; stroke-dasharray: none;" id="path2311" fill="none" fill-opacity="1" stroke="#ea1b29" stroke-opacity="1" data-original-stroke-color="#000000ff" stroke-width="15" data-original-stroke-width="15"/></g><g id="g2313" transform="translate(7.5,210.7368)"><path d="m 0,0 v -32.4 c 0,-11.045 8.954,-20 20,-20 h 457 c 11.046,0 20,8.955 20,20 V 0 Z" style="stroke-linecap: round; stroke-linejoin: round; stroke-miterlimit: 10; stroke-dasharray: none;" id="path2315" fill="none" fill-opacity="1" stroke="#ea1b29" stroke-opacity="1" data-original-stroke-color="#000000ff" stroke-width="15" data-original-stroke-width="15"/></g><g id="g2317" transform="translate(262.4687,79.2402)"><path d="m 0,0 h -95.548 c -5.523,0 -10,-4.477 -10,-10 v -13.825 c 0,-5.523 4.477,-10 10,-10 H 82.61 c 5.524,0 10,4.477 10,10 V -10 c 0,5.523 -4.476,10 -10,10 L 37.027,0" style="stroke-linecap: round; stroke-linejoin: round; stroke-miterlimit: 10; stroke-dasharray: none;" id="path2319" fill="none" fill-opacity="1" stroke="#ea1b29" stroke-opacity="1" data-original-stroke-color="#000000ff" stroke-width="15" data-original-stroke-width="15"/></g><g id="g2321" transform="translate(245.1084,405.499)"><path d="m 0,0 v -29.292 c 0,-22.252 18.039,-40.291 40.292,-40.291 4.072,0 8.004,0.604 11.709,1.727" style="stroke-linecap: round; stroke-linejoin: round; stroke-miterlimit: 10; stroke-dasharray: none;" id="path2323" fill="none" fill-opacity="1" stroke="#ea1b29" stroke-opacity="1" data-original-stroke-color="#000000ff" stroke-width="15" data-original-stroke-width="15"/></g><g id="g2325" transform="translate(200.9697,299.1001)"><path d="M 0,0 -3.58,-46.02 C -4.029,-51.83 0.561,-56.8 6.391,-56.8 H 97.86" style="stroke-linecap: round; stroke-linejoin: round; stroke-miterlimit: 10; stroke-dasharray: none;" id="path2327" fill="none" fill-opacity="1" stroke="#ea1b29" stroke-opacity="1" data-original-stroke-color="#000000ff" stroke-width="15" data-original-stroke-width="15"/></g><g id="g2329" transform="translate(204.6904,346.8599)"><path d="m 0,0 6.05,77.65 c 0.399,5.2 4.75,9.22 9.97,9.22 h 119.45 c 5.219,0 9.57,-4.02 9.969,-9.22 l 1.321,-16.89" style="stroke-linecap: round; stroke-linejoin: round; stroke-miterlimit: 10; stroke-dasharray: none;" id="path2331" fill="none" fill-opacity="1" stroke="#ea1b29" stroke-opacity="1" data-original-stroke-color="#000000ff" stroke-width="15" data-original-stroke-width="15"/></g><g id="g2333" transform="translate(414.7803,299.5303)"><path d="m 0,0 4.05,-47.19 c 0.46,-5.4 -3.8,-10.04 -9.22,-10.04 h -110.78 c -5.42,0 -9.68,4.64 -9.21,10.04 l 12.58,146.82 c 0.41,4.78 4.42,8.46 9.22,8.46 h 85.599 c 4.811,0 8.811,-3.68 9.221,-8.46 l 4.57,-53.24" style="stroke-linecap: round; stroke-linejoin: round; stroke-miterlimit: 10; stroke-dasharray: none;" id="path2335" fill="none" fill-opacity="1" stroke="#ea1b29" stroke-opacity="1" data-original-stroke-color="#000000ff" stroke-width="15" data-original-stroke-width="15"/></g><g id="g2337" transform="translate(375.1484,284.3188)"><path d="m 0,0 c -3.605,-7.282 -11.108,-12.291 -19.785,-12.291 -12.189,0 -22.069,9.881 -22.069,22.07 0,12.189 9.88,22.07 22.069,22.07 5.972,0 11.388,-2.371 15.36,-6.224 L -19.849,8.202" style="stroke-linecap: round; stroke-linejoin: round; stroke-miterlimit: 10; stroke-dasharray: none;" id="path2339" fill="none" fill-opacity="1" stroke="#ea1b29" stroke-opacity="1" data-original-stroke-color="#000000ff" stroke-width="15" data-original-stroke-width="15"/></g><g id="g2341" transform="translate(378.9863,381.4268)"><path d="m 0,0 v -12.765 c 0,-13.677 -11.088,-24.765 -24.765,-24.765 -13.677,0 -24.765,11.088 -24.765,24.765 V 0" style="stroke-linecap: round; stroke-linejoin: round; stroke-miterlimit: 10; stroke-dasharray: none;" id="path2343" fill="none" fill-opacity="1" stroke="#ea1b29" stroke-opacity="1" data-original-stroke-color="#000000ff" stroke-width="15" data-original-stroke-width="15"/></g><g id="g2345" transform="translate(473.8154,324.9604)"><path d="m 0,0 c 0,-19.326 -15.667,-34.994 -34.993,-34.994 -19.327,0 -34.994,15.668 -34.994,34.994 0,19.326 15.667,34.993 34.994,34.993 C -15.667,34.993 0,19.326 0,0 Z" style="stroke-linecap: round; stroke-linejoin: round; stroke-miterlimit: 10; stroke-dasharray: none;" id="path2347" fill="none" fill-opacity="1" stroke="#ea1b29" stroke-opacity="1" data-original-stroke-color="#000000ff" stroke-width="15" data-original-stroke-width="15"/></g><g id="g2349" transform="translate(436.0283,335.8672)"><path d="M 0,0 10.907,-10.907 0,-21.814" style="stroke-linecap: round; stroke-linejoin: round; stroke-miterlimit: 10; stroke-dasharray: none;" id="path2351" fill="none" fill-opacity="1" stroke="#ea1b29" stroke-opacity="1" data-original-stroke-color="#000000ff" stroke-width="15" data-original-stroke-width="15"/></g><g id="g2353" transform="translate(142.4062,324.9604)"><path d="m 0,0 c 0,-19.326 15.667,-34.994 34.993,-34.994 19.326,0 34.993,15.668 34.993,34.994 0,19.326 -15.667,34.993 -34.993,34.993 C 15.667,34.993 0,19.326 0,0 Z" style="stroke-linecap: round; stroke-linejoin: round; stroke-miterlimit: 10; stroke-dasharray: none;" id="path2355" fill="none" fill-opacity="1" stroke="#ea1b29" stroke-opacity="1" data-original-stroke-color="#000000ff" stroke-width="15" data-original-stroke-width="15"/></g><g id="g2357" transform="translate(180.1934,335.8672)"><path d="M 0,0 -10.907,-10.907 0,-21.814" style="stroke-linecap: round; stroke-linejoin: round; stroke-miterlimit: 10; stroke-dasharray: none;" id="path2359" fill="none" fill-opacity="1" stroke="#ea1b29" stroke-opacity="1" data-original-stroke-color="#000000ff" stroke-width="15" data-original-stroke-width="15"/></g><g id="g2361" transform="translate(96.3711,397.9404)"><path d="m 0,0 c -3.894,-7.862 -11.995,-13.27 -21.362,-13.27 -13.16,0 -23.829,10.668 -23.829,23.829 0,13.16 10.669,23.828 23.829,23.828 6.446,0 12.295,-2.56 16.584,-6.72 L -21.432,8.855" style="stroke-linecap: round; stroke-linejoin: round; stroke-miterlimit: 10; stroke-dasharray: none;" id="path2363" fill="none" fill-opacity="1" stroke="#ea1b29" stroke-opacity="1" data-original-stroke-color="#000000ff" stroke-width="15" data-original-stroke-width="15"/></g><g id="g2365" transform="translate(51.1797,344.8672)"><path d="M 0,0 H 19.36" style="stroke-linecap: round; stroke-linejoin: round; stroke-miterlimit: 10; stroke-dasharray: none;" id="path2367" fill="none" fill-opacity="1" stroke="#ea1b29" stroke-opacity="1" data-original-stroke-color="#000000ff" stroke-width="15" data-original-stroke-width="15"/></g><g id="g2369" transform="translate(51.1797,312.4609)"><path d="M 0,0 H 58.36" style="stroke-linecap: round; stroke-linejoin: round; stroke-miterlimit: 10; stroke-dasharray: none;" id="path2371" fill="none" fill-opacity="1" stroke="#ea1b29" stroke-opacity="1" data-original-stroke-color="#000000ff" stroke-width="15" data-original-stroke-width="15"/></g><g id="g2373" transform="translate(51.1797,289.0547)"><path d="M 0,0 H 58.36" style="stroke-linecap: round; stroke-linejoin: round; stroke-miterlimit: 10; stroke-dasharray: none;" id="path2375" fill="none" fill-opacity="1" stroke="#ea1b29" stroke-opacity="1" data-original-stroke-color="#000000ff" stroke-width="15" data-original-stroke-width="15"/></g><g id="g2377" transform="translate(51.1797,251.2969)"><path d="M 0,0 H 88.827" style="stroke-linecap: round; stroke-linejoin: round; stroke-miterlimit: 10; stroke-dasharray: none;" id="path2379" fill="none" fill-opacity="1" stroke="#ea1b29" stroke-opacity="1" data-original-stroke-color="#000000ff" stroke-width="15" data-original-stroke-width="15"/></g></g></g></g></g></svg>