<svg id="Layer_1" enable-background="new 0 0 512 512" height="300" viewBox="0 0 512 512" width="300" xmlns="http://www.w3.org/2000/svg" version="1.1" xmlns:xlink="http://www.w3.org/1999/xlink" xmlns:svgjs="http://svgjs.dev/svgjs"><g width="100%" height="100%" transform="matrix(1,0,0,1,0,0)"><path d="m470.12 28.27h-428.24c-23.09 0-41.88 18.77-41.88 41.83v289.66c0 10.7 4.16 20.98 11.5 28.71.11.93.26 1.86.48 2.79 1.45 5.97 5.14 11.02 10.39 14.22 3.7 2.23 7.78 3.3 11.83 3.3 6.22 0 12.34-2.53 16.75-7.18h158.38l-4.04 36.71c-1.55 14.17-11.17 29.42-28.64 29.42h-36.6c-4.42 0-8 3.58-8 8s3.58 8 8 8h231.91c4.42 0 8-3.58 8-8s-3.58-8-8-8h-36.6c-17.47 0-27.1-15.25-28.64-29.43l-4.04-36.71h167.45c23.09 0 41.88-18.77 41.88-41.83v-289.66c-.01-23.06-18.8-41.83-41.89-41.83zm-428.24 16h428.25c14.27 0 25.88 11.59 25.88 25.83v20.93h-480.01v-20.93c0-14.24 11.61-25.83 25.88-25.83zm56.95 235.18c-16.38-9.93-27.91-25.63-32.47-44.21s-1.6-37.83 8.32-54.19c13.47-22.2 37.18-34.48 61.45-34.48 12.66 0 25.48 3.34 37.07 10.36 16.39 9.92 27.94 25.62 32.5 44.21 4.56 18.58 1.6 37.81-8.32 54.16-20.49 33.8-64.7 44.63-98.55 24.15zm37.05 26.35c29.7 0 58.71-15.03 75.18-42.2 12.14-20.01 15.76-43.55 10.18-66.28-5.58-22.75-19.7-41.96-39.76-54.09-41.35-25.03-95.4-11.79-120.48 29.52-12.15 20.02-15.76 43.57-10.18 66.31 3.71 15.1 11.2 28.63 21.67 39.59l-34.25 56.44h-22.24v-228.05h480v228.05h-404.07l19.83-32.68c7.93 2.27 16.05 3.39 24.12 3.39zm-118.17 63.13c-1.11-2.9-1.71-6-1.71-9.17v-8.68h12.53zm12.96 22.87c-1.58-.96-2.7-2.49-3.14-4.31-.44-1.8-.16-3.65.8-5.23l56.42-92.97c.02.02.05.03.08.04 1.85 1.33 3.75 2.61 5.72 3.8 2 1.21 4.03 2.32 6.09 3.35l-56.4 92.94c-2.01 3.29-6.31 4.35-9.57 2.38zm260.14 48.25c1.18 10.78 5.26 20.3 11.34 27.68h-92.29c6.07-7.38 10.16-16.89 11.34-27.67l4.23-38.46h61.15zm179.31-54.45h-408.84l20.94-34.51h413.78v8.68c0 14.24-11.61 25.83-25.88 25.83zm-199.56-17.26c0 4.42-3.58 8-8 8h-13.12c-4.42 0-8-3.58-8-8s3.58-8 8-8h13.12c4.42 0 8 3.58 8 8zm-3.81-189.74c0-4.42 3.58-8 8-8h92.5c4.42 0 8 3.58 8 8s-3.58 8-8 8h-92.5c-4.42 0-8-3.59-8-8zm0 39.04c0-4.42 3.58-8 8-8h147.78c4.42 0 8 3.58 8 8s-3.58 8-8 8h-147.78c-4.42 0-8-3.58-8-8zm0 39.07c0-4.42 3.58-8 8-8h147.78c4.42 0 8 3.58 8 8s-3.58 8-8 8h-147.78c-4.42 0-8-3.58-8-8zm-93.11.56c0-4.42-3.58-8-8-8h-51.36c.08-.07.16-.14.25-.21l8.77-7.08h23.62 14.74c7.08 0 13.24-4.78 14.99-11.65l8.31-32.87c.6-2.39.07-4.93-1.44-6.88-1.52-1.95-3.85-3.08-6.31-3.08h-61.81c-1.52-5.13-6.14-8.58-11.52-8.58h-11.55c-4.42 0-8 3.58-8 8s3.58 8 8 8h8.55l10.44 36.17-6.83 5.52c-5.62 4.53-7.98 10.89-6.32 16.96 1.84 7.01 7.96 11.71 15.22 11.71h52.25c4.42-.01 8-3.59 8-8.01zm-12.38-31.3h-14.32-20.44l-6.49-22.48h46.92zm105.49-159.43c0-4.42 3.58-8 8-8h157.36c4.42 0 8 3.58 8 8s-3.58 8-8 8h-157.36c-4.42 0-8-3.58-8-8zm-181.31 0c0-4.42 3.58-8 8-8h3.49c4.42 0 8 3.58 8 8s-3.58 8-8 8h-3.49c-4.42 0-8-3.58-8-8zm28.63 0c0-4.42 3.58-8 8-8h3.49c4.42 0 8 3.58 8 8s-3.58 8-8 8h-3.49c-4.42 0-8-3.58-8-8z" fill="#ea1b29" fill-opacity="1" data-original-color="#000000ff" stroke="none" stroke-opacity="1"/></g></svg>