<svg height="300" viewBox="0 0 64 64" width="300" xmlns="http://www.w3.org/2000/svg" version="1.1" xmlns:xlink="http://www.w3.org/1999/xlink" xmlns:svgjs="http://svgjs.dev/svgjs"><g width="100%" height="100%" transform="matrix(1,0,0,1,0,0)"><g id="laptop"><path d="m18 40h8v2h-8z" fill="#ea1b29" fill-opacity="1" data-original-color="#000000ff" stroke="none" stroke-opacity="1"/><path d="m8 40h8v2h-8z" fill="#ea1b29" fill-opacity="1" data-original-color="#000000ff" stroke="none" stroke-opacity="1"/><path d="m8 44h4v2h-4z" fill="#ea1b29" fill-opacity="1" data-original-color="#000000ff" stroke="none" stroke-opacity="1"/><path d="m14 44h4v2h-4z" fill="#ea1b29" fill-opacity="1" data-original-color="#000000ff" stroke="none" stroke-opacity="1"/><path d="m20 44h6v2h-6z" fill="#ea1b29" fill-opacity="1" data-original-color="#000000ff" stroke="none" stroke-opacity="1"/><path d="m14 48h12v2h-12z" fill="#ea1b29" fill-opacity="1" data-original-color="#000000ff" stroke="none" stroke-opacity="1"/><path d="m8 48h4v2h-4z" fill="#ea1b29" fill-opacity="1" data-original-color="#000000ff" stroke="none" stroke-opacity="1"/><path d="m9 37h16a1 1 0 0 0 1-1v-13a1 1 0 0 0 -1-1h-16a1 1 0 0 0 -1 1v13a1 1 0 0 0 1 1zm1-13h14v11h-14z" fill="#ea1b29" fill-opacity="1" data-original-color="#000000ff" stroke="none" stroke-opacity="1"/><path d="m34.006 44.89a1 1 0 0 0 .994 1.11h2.184a2.982 2.982 0 0 0 5.632 0h4.368a2.982 2.982 0 0 0 5.632 0h2.184v-2h-2.184a2.982 2.982 0 0 0 -5.632 0h-4.368a2.982 2.982 0 0 0 -5.632 0h-1.067l1.877-16.89a1 1 0 0 0 -.994-1.11h-4v2h2.883zm15.994-.89a1 1 0 1 1 -1 1 1 1 0 0 1 1-1zm-10 0a1 1 0 1 1 -1 1 1 1 0 0 1 1-1z" fill="#ea1b29" fill-opacity="1" data-original-color="#000000ff" stroke="none" stroke-opacity="1"/><path d="m39 40h14a1 1 0 0 0 .97-.757l2-8a1 1 0 0 0 -.97-1.243h-2a6 6 0 0 0 -12 0h-1a1 1 0 0 0 -.992.876l-1 8a1 1 0 0 0 .992 1.124zm8-14a4 4 0 1 1 -4 4 4 4 0 0 1 4-4zm-6.117 6h.467a5.99 5.99 0 0 0 11.3 0h1.069l-1.5 6h-12.086z" fill="#ea1b29" fill-opacity="1" data-original-color="#000000ff" stroke="none" stroke-opacity="1"/><path d="m46.45 32.825c.027.018.049.041.078.057a1 1 0 0 0 1.027-.05l3-2-1.11-1.664-1.445.963v-2.131h-2v2.132l-1.445-.964-1.11 1.664 3 2z" fill="#ea1b29" fill-opacity="1" data-original-color="#000000ff" stroke="none" stroke-opacity="1"/><path d="m61.788 56.385a1 1 0 0 0 -.788-.385h-25a1 1 0 0 0 -1 1v1h-6v-1a1 1 0 0 0 -1-1h-25a1 1 0 0 0 -.97 1.243l.621 2.485a3 3 0 0 0 2.911 2.272h52.876a3 3 0 0 0 2.911-2.272l.621-2.485a1 1 0 0 0 -.182-.858zm-56.226 3.615a1 1 0 0 1 -.971-.758l-.31-1.242h22.719v1a1 1 0 0 0 1 1zm53.847-.758a1 1 0 0 1 -.971.758h-22.438a1 1 0 0 0 1-1v-1h22.719z" fill="#ea1b29" fill-opacity="1" data-original-color="#000000ff" stroke="none" stroke-opacity="1"/><path d="m7 54h50a3 3 0 0 0 3-3v-30a3 3 0 0 0 -3-3h-7.089a2.98 2.98 0 0 0 -2.411-2.266l-1.736-.291a.931.931 0 0 1 -.736-.58l-.178-.434a.96.96 0 0 1 .106-.946l1.023-1.423a2.982 2.982 0 0 0 -.328-3.867l-1.838-1.835a2.984 2.984 0 0 0 -3.876-.33l-1.418 1.018a.98.98 0 0 1 -.991.09l-.389-.159a.935.935 0 0 1 -.583-.743l-.29-1.728a2.987 2.987 0 0 0 -2.956-2.506h-2.62a2.988 2.988 0 0 0 -2.956 2.5l-.291 1.74a.931.931 0 0 1 -.58.736l-.434.178a.962.962 0 0 1 -.946-.106l-1.423-1.023a2.981 2.981 0 0 0 -3.867.328l-1.835 1.835a2.984 2.984 0 0 0 -.33 3.875l1.018 1.418a.982.982 0 0 1 .09.991l-.159.389a.935.935 0 0 1 -.743.583l-1.728.29a2.98 2.98 0 0 0 -2.417 2.266h-7.089a3 3 0 0 0 -3 3v30a3 3 0 0 0 3 3zm9.835-36.293 1.725-.29a2.952 2.952 0 0 0 2.284-1.84l.142-.346a2.982 2.982 0 0 0 -.314-2.915l-1.018-1.416a1 1 0 0 1 .113-1.293l1.845-1.845a.99.99 0 0 1 1.284-.11l1.423 1.022a2.957 2.957 0 0 0 2.869.326l.391-.16a2.951 2.951 0 0 0 1.838-2.278l.29-1.731a1 1 0 0 1 .983-.831h2.62a1 1 0 0 1 .983.835l.29 1.725a2.952 2.952 0 0 0 1.84 2.284l.346.142a2.983 2.983 0 0 0 2.915-.314l1.416-1.018a1 1 0 0 1 1.293.113l1.845 1.845a.99.99 0 0 1 .11 1.284l-1.022 1.423a2.958 2.958 0 0 0 -.326 2.869l.16.391a2.951 2.951 0 0 0 2.278 1.838l1.731.29a.983.983 0 0 1 .539.293h-6.931a9 9 0 0 0 -17.554 0h-6.923a.986.986 0 0 1 .535-.293zm21.873.293h-13.416a7 7 0 0 1 13.416 0zm-32.708 3a1 1 0 0 1 1-1h50a1 1 0 0 1 1 1v30a1 1 0 0 1 -1 1h-50a1 1 0 0 1 -1-1z" fill="#ea1b29" fill-opacity="1" data-original-color="#000000ff" stroke="none" stroke-opacity="1"/></g></g></svg>