<svg xmlns="http://www.w3.org/2000/svg" data-name="Layer 1" id="Layer_1" viewBox="0 0 128 128" width="300" height="300" version="1.1" xmlns:xlink="http://www.w3.org/1999/xlink" xmlns:svgjs="http://svgjs.dev/svgjs"><g width="100%" height="100%" transform="matrix(1,0,0,1,0,0)"><title/><path d="M117,40H97V53.5l4-4V44h11.16L69.34,86.83a7.55,7.55,0,0,1-10.67,0L15.83,44H31v9.52l4,4V4H97v8.17h4V2a2,2,0,0,0-2-2H33a2,2,0,0,0-2,2V40H11A11,11,0,0,0,0,51v66a11,11,0,0,0,11,11H117a11,11,0,0,0,11-11V51A11,11,0,0,0,117,40Zm7,77a7,7,0,0,1-7,7H11a7,7,0,0,1-7-7V51a7,7,0,0,1,6.21-7L55.84,89.66a11.55,11.55,0,0,0,16.33,0L117.79,44A7,7,0,0,1,124,51Z" fill="#ea1b29" fill-opacity="1" data-original-color="#000000ff" stroke="none" stroke-opacity="1"/><path d="M92.41,88.58c-1.82-1.82-4.66,1-2.83,2.83l22,22c1.8,1.8,4.66-1,2.83-2.83Z" fill="#ea1b29" fill-opacity="1" data-original-color="#000000ff" stroke="none" stroke-opacity="1"/><path d="M34.59,88.58l-22,22c-1.82,1.82,1,4.65,2.83,2.83l22-22C39.22,89.6,36.41,86.75,34.59,88.58Z" fill="#ea1b29" fill-opacity="1" data-original-color="#000000ff" stroke="none" stroke-opacity="1"/><path d="M59.91,52.63a7.22,7.22,0,0,0,7.21-7.21V33.78h.41a2,2,0,0,0,1.26-.46L87.15,45.26a2,2,0,0,0,3.09-1.68V8.76a2,2,0,0,0-3.09-1.68L69.24,18.73a2,2,0,0,0-1.71-1H51.89a2,2,0,0,0-2,2v12a2,2,0,0,0,2,2h.81V45.42A7.22,7.22,0,0,0,59.91,52.63Zm9.62-29.31L86.24,12.45V39.9L69.53,29Zm-6.41,22.1a3.21,3.21,0,0,1-6.43,0V33.78h6.43ZM53.89,21.75H65.53v7.67a2,2,0,0,0-.41,0H54.7a2,2,0,0,0-.81.17Z" fill="#ea1b29" fill-opacity="1" data-original-color="#000000ff" stroke="none" stroke-opacity="1"/><path d="M94.84,26.17a2,2,0,0,0,2,2h26.67a2,2,0,0,0,0-4H96.84A2,2,0,0,0,94.84,26.17Z" fill="#ea1b29" fill-opacity="1" data-original-color="#000000ff" stroke="none" stroke-opacity="1"/><path d="M96.84,32.17a2,2,0,0,0,0,4h16.67a2,2,0,0,0,0-4Z" fill="#ea1b29" fill-opacity="1" data-original-color="#000000ff" stroke="none" stroke-opacity="1"/><path d="M97,16.17h-.17a2,2,0,0,0,0,4h16.67a2,2,0,0,0,0-4H97Z" fill="#ea1b29" fill-opacity="1" data-original-color="#000000ff" stroke="none" stroke-opacity="1"/></g></svg>