<svg id="Layer_1" height="300" viewBox="0 0 512 512" width="300" xmlns="http://www.w3.org/2000/svg" data-name="Layer 1" version="1.1" xmlns:xlink="http://www.w3.org/1999/xlink" xmlns:svgjs="http://svgjs.dev/svgjs"><g width="100%" height="100%" transform="matrix(1,0,0,1,0,0)"><path d="m457 373.93h-402a8 8 0 1 1 0-16h402a8 8 0 0 1 0 16z" fill="#ea1b29" fill-opacity="1" data-original-color="#000000ff" stroke="none" stroke-opacity="1"/><path d="m337.38 397.79h-11.27a8 8 0 0 1 0-16h11.27a8 8 0 0 1 0 16z" fill="#ea1b29" fill-opacity="1" data-original-color="#000000ff" stroke="none" stroke-opacity="1"/><path d="m378.28 397.79h-11.28a8 8 0 0 1 0-16h11.27a8 8 0 0 1 0 16z" fill="#ea1b29" fill-opacity="1" data-original-color="#000000ff" stroke="none" stroke-opacity="1"/><path d="m419.18 397.79h-12.06a8 8 0 0 1 0-16h12.06a8 8 0 0 1 0 16z" fill="#ea1b29" fill-opacity="1" data-original-color="#000000ff" stroke="none" stroke-opacity="1"/><path d="m207.28 478.18a8 8 0 0 1 -5.92-9.64l13.58-56.73a8 8 0 0 1 15.56 3.73l-13.58 56.72a8 8 0 0 1 -9.64 5.92z" fill="#ea1b29" fill-opacity="1" data-original-color="#000000ff" stroke="none" stroke-opacity="1"/><path d="m295 472-11.55-56.73a8 8 0 0 1 15.68-3.19l11.57 56.72a8 8 0 0 1 -15.7 3.2z" fill="#ea1b29" fill-opacity="1" data-original-color="#000000ff" stroke="none" stroke-opacity="1"/><path d="m335.19 478.4h-158.91a8 8 0 1 1 0-16h158.91a8 8 0 0 1 0 16z" fill="#ea1b29" fill-opacity="1" data-original-color="#000000ff" stroke="none" stroke-opacity="1"/><path d="m443 421.68h-374a21.58 21.58 0 0 1 -22-22.07v-228.86c0-12.61 9.68-22.49 22.05-22.49h43.88a8 8 0 0 1 0 16h-43.93c-4.78 0-6.05 4.08-6.05 6.49v228.86c0 1.82.59 6.07 6.05 6.07h374a5.86 5.86 0 0 0 6.05-6.07v-228.86c0-3.14-2.43-6.49-6.05-6.49h-43.89a8 8 0 0 1 0-16h43.89a22.3 22.3 0 0 1 22 22.49v228.86a21.83 21.83 0 0 1 -22 22.07z" fill="#ea1b29" fill-opacity="1" data-original-color="#000000ff" stroke="none" stroke-opacity="1"/><path d="m375.3 314.42h-238.6a31.86 31.86 0 0 1 -31.81-31.83v-180.19a8 8 0 0 1 8-8h286.22a8 8 0 0 1 8 8v180.19a31.86 31.86 0 0 1 -31.81 31.83zm-254.41-204v172.17a15.84 15.84 0 0 0 15.81 15.83h238.6a15.84 15.84 0 0 0 15.81-15.83v-172.19z" fill="#ea1b29" fill-opacity="1" data-original-color="#000000ff" stroke="none" stroke-opacity="1"/><path d="m399.11 110.4a8 8 0 0 1 -8-8v-37a15.84 15.84 0 0 0 -15.81-15.8h-238.6a15.84 15.84 0 0 0 -15.81 15.83v37a8 8 0 0 1 -16 0v-37a31.86 31.86 0 0 1 31.81-31.83h238.6a31.86 31.86 0 0 1 31.81 31.83v37a8 8 0 0 1 -8 7.97z" fill="#ea1b29" fill-opacity="1" data-original-color="#000000ff" stroke="none" stroke-opacity="1"/><path d="m370.89 80h-20.27a8 8 0 0 1 0-16h20.27a8 8 0 1 1 0 16z" fill="#ea1b29" fill-opacity="1" data-original-color="#000000ff" stroke="none" stroke-opacity="1"/><path d="m325.43 80h-20.26a8 8 0 0 1 0-16h20.26a8 8 0 1 1 0 16z" fill="#ea1b29" fill-opacity="1" data-original-color="#000000ff" stroke="none" stroke-opacity="1"/><path d="m265.89 80h-124.78a8 8 0 0 1 0-16h124.78a8 8 0 1 1 0 16z" fill="#ea1b29" fill-opacity="1" data-original-color="#000000ff" stroke="none" stroke-opacity="1"/><path d="m340.67 245.1h-195.94a8 8 0 0 1 -8-8v-65.38a8 8 0 0 1 8-8h195.94a8 8 0 0 1 6.34 3.12l26.61 34.6a8 8 0 0 1 -.29 10.1l-26.61 30.8a8 8 0 0 1 -6.05 2.76zm-187.94-16h184.27l20-23.1-20.23-26.3h-184z" fill="#ea1b29" fill-opacity="1" data-original-color="#000000ff" stroke="none" stroke-opacity="1"/><path d="m170.1 245.1a8 8 0 0 1 -5.93-13.37l24.83-27.32-24.78-27.32a8 8 0 0 1 11.78-10.75l29.67 32.66a8 8 0 0 1 0 10.75l-29.67 32.73a8 8 0 0 1 -5.9 2.62z" fill="#ea1b29" fill-opacity="1" data-original-color="#000000ff" stroke="none" stroke-opacity="1"/><path d="m222.63 243a8 8 0 0 1 -.55-11.3l24.78-27.32-24.78-27.32a8 8 0 0 1 11.85-10.75l29.65 32.69a8 8 0 0 1 0 10.75l-29.65 32.69a8 8 0 0 1 -11.3.56z" fill="#ea1b29" fill-opacity="1" data-original-color="#000000ff" stroke="none" stroke-opacity="1"/><path d="m280.54 243a8 8 0 0 1 -.55-11.3l24.78-27.32-24.77-27.29a8 8 0 0 1 11.85-10.75l29.64 32.66a8 8 0 0 1 0 10.75l-29.64 32.69a8 8 0 0 1 -11.31.56z" fill="#ea1b29" fill-opacity="1" data-original-color="#000000ff" stroke="none" stroke-opacity="1"/></g></svg>