<svg clip-rule="evenodd" fill-rule="evenodd" height="300" image-rendering="optimizeQuality" shape-rendering="geometricPrecision" text-rendering="geometricPrecision" viewBox="0 0 512 512" width="300" xmlns="http://www.w3.org/2000/svg" version="1.1" xmlns:xlink="http://www.w3.org/1999/xlink" xmlns:svgjs="http://svgjs.dev/svgjs"><g width="100%" height="100%" transform="matrix(1,0,0,1,0,0)"><g id="Layer_x0020_1"><g id="_289164248"><g id="_289217256"><path d="m174 509h-61c-3 0-6-2-6-6v-98c0-3 3-6 6-6h61c3 0 6 3 6 6v98c0 4-3 6-6 6zm-55-12h49v-86h-49z" fill="#ea1b29" fill-opacity="1" data-original-color="#000000ff" stroke="none" stroke-opacity="1"/></g><g id="_289219608"><path d="m273 509h-61c-3 0-6-2-6-6v-138c0-3 3-6 6-6h61c4 0 6 3 6 6v138c0 4-2 6-6 6zm-55-12h49v-126h-49z" fill="#ea1b29" fill-opacity="1" data-original-color="#000000ff" stroke="none" stroke-opacity="1"/></g><g id="_289219992"><path d="m373 509h-62c-3 0-6-2-6-6v-196c0-3 3-6 6-6h62c3 0 6 3 6 6v196c0 4-3 6-6 6zm-56-12h50v-184h-50z" fill="#ea1b29" fill-opacity="1" data-original-color="#000000ff" stroke="none" stroke-opacity="1"/></g><g id="_289220136"><path d="m472 509h-61c-3 0-6-2-6-6v-282h-28c-2 0-4-1-5-3s-1-4 0-6l63-96c1-2 3-3 5-3s3 1 5 3l65 95c1 1 2 3 2 4 0 3-3 6-6 6h-28v282c0 4-3 6-6 6zm-55-12h49v-282c0-3 3-6 6-6h22l-54-79-52 79h23c3 0 6 3 6 6z" fill="#ea1b29" fill-opacity="1" data-original-color="#000000ff" stroke="none" stroke-opacity="1"/></g><g id="_289219776"><path d="m495 509h-418c-3 0-6-2-6-6 0-3 3-6 6-6h418c4 0 6 3 6 6 0 4-2 6-6 6z" fill="#ea1b29" fill-opacity="1" data-original-color="#000000ff" stroke="none" stroke-opacity="1"/></g><g id="_289219944"><path d="m72 374c-13 0-24-9-26-21-1-11 5-24 21-29 11-3 23-8 31-12 3-1 6-2 9-4 22-10 44-24 64-38 62-45 107-102 134-169 4-12 9-25 12-37l1-3-33-14c-2-1-4-3-4-6 0-2 2-4 4-5l79-33c3-1 7 0 8 3l33 80c1 2 0 5-1 6-2 2-5 3-7 2l-32-14c-14 47-35 90-62 129-28 38-63 73-103 102-26 19-54 35-82 47-10 5-23 11-36 14-4 1-7 2-10 2zm231-333 25 11c2 1 4 4 3 7l-2 8c-4 13-8 26-13 39-28 69-74 127-137 173-22 16-44 29-67 40-3 1-6 3-9 4-9 4-21 10-32 13s-14 10-13 15c1 6 5 11 14 11 2 0 4 0 6-1 12-4 25-9 35-14 28-12 54-28 80-46 79-57 135-135 161-227l1-4c0-1 2-3 3-3 2-1 3-1 5 0l25 10-25-61z" fill="#ea1b29" fill-opacity="1" data-original-color="#000000ff" stroke="none" stroke-opacity="1"/></g><g id="_289219560"><path d="m110 233c-60 0-110-49-110-109 0-61 50-110 110-110 61 0 110 49 110 110 0 60-49 109-110 109zm0-207c-54 0-98 44-98 98s44 97 98 97 98-43 98-97-44-98-98-98z" fill="#ea1b29" fill-opacity="1" data-original-color="#000000ff" stroke="none" stroke-opacity="1"/></g><g id="_289219872"><path d="m110 189c-19 0-35-16-35-36 0-3 2-6 6-6 3 0 6 3 6 6 0 13 10 24 23 24s24-11 24-24-11-23-24-23c-19 0-35-16-35-36 0-19 16-35 35-35 20 0 36 16 36 35 0 3-3 6-6 6-4 0-6-3-6-6 0-13-11-23-24-23s-23 10-23 23 10 24 23 24c20 0 36 16 36 35 0 20-16 36-36 36z" fill="#ea1b29" fill-opacity="1" data-original-color="#000000ff" stroke="none" stroke-opacity="1"/></g><g id="_289220040"><path d="m110 198c-3 0-6-3-6-6v-136c0-4 3-6 6-6s6 2 6 6v136c0 3-3 6-6 6z" fill="#ea1b29" fill-opacity="1" data-original-color="#000000ff" stroke="none" stroke-opacity="1"/></g></g></g></g></svg>