<svg id="Layer_2" viewBox="0 0 64 64" xmlns="http://www.w3.org/2000/svg" data-name="Layer 2" width="300" height="300" version="1.1" xmlns:xlink="http://www.w3.org/1999/xlink" xmlns:svgjs="http://svgjs.dev/svgjs"><g width="100%" height="100%" transform="matrix(1,0,0,1,0,0)"><path d="m12 31c-6.617 0-12-5.383-12-12s5.383-12 12-12 12 5.383 12 12-5.383 12-12 12zm0-22c-5.514 0-10 4.486-10 10s4.486 10 10 10 10-4.486 10-10-4.486-10-10-10z" fill="#ea1b29" fill-opacity="1" data-original-color="#000000ff" stroke="none" stroke-opacity="1"/><path d="m12 57c-6.617 0-12-5.383-12-12s5.383-12 12-12 12 5.383 12 12-5.383 12-12 12zm0-22c-5.514 0-10 4.486-10 10s4.486 10 10 10 10-4.486 10-10-4.486-10-10-10z" fill="#ea1b29" fill-opacity="1" data-original-color="#000000ff" stroke="none" stroke-opacity="1"/><path d="m52 31c-6.617 0-12-5.383-12-12s5.383-12 12-12 12 5.383 12 12-5.383 12-12 12zm0-22c-5.514 0-10 4.486-10 10s4.486 10 10 10 10-4.486 10-10-4.486-10-10-10z" fill="#ea1b29" fill-opacity="1" data-original-color="#000000ff" stroke="none" stroke-opacity="1"/><path d="m52 57c-6.617 0-12-5.383-12-12s5.383-12 12-12 12 5.383 12 12-5.383 12-12 12zm0-22c-5.514 0-10 4.486-10 10s4.486 10 10 10 10-4.486 10-10-4.486-10-10-10z" fill="#ea1b29" fill-opacity="1" data-original-color="#000000ff" stroke="none" stroke-opacity="1"/><path d="m49 35.42c-.552 0-1-.447-1-1v-4.84c0-.552.448-1 1-1s1 .448 1 1v4.84c0 .553-.448 1-1 1z" fill="#ea1b29" fill-opacity="1" data-original-color="#000000ff" stroke="none" stroke-opacity="1"/><path d="m15 35.42c-.552 0-1-.447-1-1v-4.84c0-.552.448-1 1-1s1 .448 1 1v4.84c0 .553-.448 1-1 1z" fill="#ea1b29" fill-opacity="1" data-original-color="#000000ff" stroke="none" stroke-opacity="1"/><path d="m49 9.42c-.552 0-1-.448-1-1v-2.42c0-2.206-1.794-4-4-4h-24c-2.206 0-4 1.794-4 4v2.42c0 .552-.448 1-1 1s-1-.448-1-1v-2.42c0-3.309 2.691-6 6-6h24c3.309 0 6 2.691 6 6v2.42c0 .552-.448 1-1 1z" fill="#ea1b29" fill-opacity="1" data-original-color="#000000ff" stroke="none" stroke-opacity="1"/><path d="m44 64h-24c-3.309 0-6-2.691-6-6v-2.42c0-.553.448-1 1-1s1 .447 1 1v2.42c0 2.206 1.794 4 4 4h24c2.206 0 4-1.794 4-4v-2.42c0-.553.448-1 1-1s1 .447 1 1v2.42c0 3.309-2.691 6-6 6z" fill="#ea1b29" fill-opacity="1" data-original-color="#000000ff" stroke="none" stroke-opacity="1"/><path d="m27 8h-2c-.552 0-1-.448-1-1s.448-1 1-1h2c.552 0 1 .448 1 1s-.448 1-1 1z" fill="#ea1b29" fill-opacity="1" data-original-color="#000000ff" stroke="none" stroke-opacity="1"/><path d="m40 8h-10c-.552 0-1-.448-1-1s.448-1 1-1h10c.552 0 1 .448 1 1s-.448 1-1 1z" fill="#ea1b29" fill-opacity="1" data-original-color="#000000ff" stroke="none" stroke-opacity="1"/><g><g><path d="m27.458 36c-.142 0-.284-.03-.417-.091-.246-.112-.436-.32-.526-.575l-1.458-4.118c-.18-.509.077-1.07.58-1.266l2.944-1.147c.251-.099.532-.09.779.022.246.113.436.32.526.575l1.458 4.117c.18.51-.077 1.069-.58 1.266l-2.944 1.147c-.117.046-.24.068-.363.068zm-.192-4.538.79 2.231 1.08-.421-.79-2.231z" fill="#ea1b29" fill-opacity="1" data-original-color="#000000ff" stroke="none" stroke-opacity="1"/><path d="m30.401 34.853c-.42 0-.8-.265-.942-.666l-1.458-4.117c-.144-.408-.01-.862.332-1.126l6.14-4.735c.254-.195.587-.258.894-.167.308.09.553.323.66.625l2.916 8.235c.104.293.065.617-.104.878-.169.26-.449.428-.758.453l-7.598.617c-.027.002-.055.003-.082.003zm-.273-4.768.959 2.709 5.536-.45-2.021-5.709z" fill="#ea1b29" fill-opacity="1" data-original-color="#000000ff" stroke="none" stroke-opacity="1"/></g><path d="m31.001 39.384c-.367 0-.72-.202-.896-.553l-2-4c-.247-.494-.047-1.095.447-1.342.495-.247 1.095-.047 1.342.447l2 4c.247.494.047 1.095-.447 1.342-.144.071-.296.105-.446.105z" fill="#ea1b29" fill-opacity="1" data-original-color="#000000ff" stroke="none" stroke-opacity="1"/><path d="m33.001 37.384c-.367 0-.72-.202-.896-.553l-1-2c-.247-.494-.047-1.095.447-1.342.495-.247 1.095-.047 1.342.447l1 2c.247.494.047 1.095-.447 1.342-.144.071-.296.105-.446.105z" fill="#ea1b29" fill-opacity="1" data-original-color="#000000ff" stroke="none" stroke-opacity="1"/><path d="m31 39.384c-.256 0-.512-.098-.707-.293-.391-.391-.391-1.023 0-1.414l2-2c.391-.391 1.023-.391 1.414 0s.391 1.023 0 1.414l-2 2c-.195.195-.451.293-.707.293z" fill="#ea1b29" fill-opacity="1" data-original-color="#000000ff" stroke="none" stroke-opacity="1"/></g><path d="m41 57h-18c-.552 0-1-.447-1-1s.448-1 1-1h18c.552 0 1 .447 1 1s-.448 1-1 1z" fill="#ea1b29" fill-opacity="1" data-original-color="#000000ff" stroke="none" stroke-opacity="1"/><path d="m12 21c-2.757 0-5-2.243-5-5s2.243-5 5-5 5 2.243 5 5-2.243 5-5 5zm0-8c-1.654 0-3 1.346-3 3s1.346 3 3 3 3-1.346 3-3-1.346-3-3-3z" fill="#ea1b29" fill-opacity="1" data-original-color="#000000ff" stroke="none" stroke-opacity="1"/><path d="m5.199 28.65c-.449 0-.858-.305-.97-.761-.152-.618-.229-1.253-.229-1.889 0-3.476 2.215-6.53 5.511-7.601.526-.171 1.09.118 1.26.642.17.525-.117 1.089-.642 1.26-2.47.802-4.129 3.092-4.129 5.699 0 .475.058.949.171 1.411.132.536-.196 1.078-.732 1.21-.08.02-.161.029-.24.029z" fill="#ea1b29" fill-opacity="1" data-original-color="#000000ff" stroke="none" stroke-opacity="1"/><path d="m18.801 28.65c-.079 0-.16-.009-.24-.029-.537-.132-.864-.674-.732-1.21.114-.462.171-.937.171-1.411 0-2.606-1.659-4.896-4.129-5.699-.525-.171-.812-.735-.642-1.26.171-.524.733-.813 1.26-.642 3.296 1.071 5.511 4.125 5.511 7.601 0 .635-.077 1.271-.229 1.889-.112.456-.521.761-.97.761z" fill="#ea1b29" fill-opacity="1" data-original-color="#000000ff" stroke="none" stroke-opacity="1"/><path d="m52 21c-2.757 0-5-2.243-5-5s2.243-5 5-5 5 2.243 5 5-2.243 5-5 5zm0-8c-1.654 0-3 1.346-3 3s1.346 3 3 3 3-1.346 3-3-1.346-3-3-3z" fill="#ea1b29" fill-opacity="1" data-original-color="#000000ff" stroke="none" stroke-opacity="1"/><path d="m45.199 28.65c-.449 0-.858-.305-.97-.761-.152-.618-.229-1.253-.229-1.889 0-3.476 2.215-6.53 5.511-7.601.527-.171 1.09.118 1.26.642.17.525-.117 1.089-.642 1.26-2.47.802-4.129 3.092-4.129 5.699 0 .475.058.949.171 1.411.132.536-.196 1.078-.732 1.21-.08.02-.161.029-.24.029z" fill="#ea1b29" fill-opacity="1" data-original-color="#000000ff" stroke="none" stroke-opacity="1"/><path d="m58.801 28.65c-.079 0-.16-.009-.24-.029-.537-.132-.864-.674-.732-1.21.114-.462.171-.937.171-1.411 0-2.606-1.659-4.896-4.129-5.699-.525-.171-.812-.735-.642-1.26.17-.524.735-.813 1.26-.642 3.296 1.071 5.511 4.125 5.511 7.601 0 .635-.077 1.271-.229 1.889-.112.456-.521.761-.97.761z" fill="#ea1b29" fill-opacity="1" data-original-color="#000000ff" stroke="none" stroke-opacity="1"/><path d="m12 47c-2.757 0-5-2.243-5-5s2.243-5 5-5 5 2.243 5 5-2.243 5-5 5zm0-8c-1.654 0-3 1.346-3 3s1.346 3 3 3 3-1.346 3-3-1.346-3-3-3z" fill="#ea1b29" fill-opacity="1" data-original-color="#000000ff" stroke="none" stroke-opacity="1"/><path d="m5.199 54.65c-.449 0-.858-.305-.97-.762-.152-.618-.229-1.254-.229-1.889 0-3.476 2.214-6.53 5.511-7.602.526-.17 1.089.117 1.26.642.17.525-.117 1.09-.642 1.261-2.47.803-4.129 3.093-4.129 5.699 0 .475.058.949.171 1.412.132.536-.196 1.077-.732 1.209-.08.021-.161.029-.24.029z" fill="#ea1b29" fill-opacity="1" data-original-color="#000000ff" stroke="none" stroke-opacity="1"/><path d="m18.801 54.65c-.079 0-.16-.009-.24-.029-.536-.132-.864-.673-.732-1.209.114-.463.171-.938.171-1.412 0-2.606-1.659-4.896-4.129-5.699-.525-.171-.812-.735-.642-1.261.171-.524.733-.812 1.26-.642 3.296 1.071 5.511 4.126 5.511 7.602 0 .635-.077 1.271-.229 1.889-.112.457-.521.762-.97.762z" fill="#ea1b29" fill-opacity="1" data-original-color="#000000ff" stroke="none" stroke-opacity="1"/><path d="m52 47c-2.757 0-5-2.243-5-5s2.243-5 5-5 5 2.243 5 5-2.243 5-5 5zm0-8c-1.654 0-3 1.346-3 3s1.346 3 3 3 3-1.346 3-3-1.346-3-3-3z" fill="#ea1b29" fill-opacity="1" data-original-color="#000000ff" stroke="none" stroke-opacity="1"/><path d="m45.199 54.65c-.449 0-.858-.305-.97-.762-.152-.618-.229-1.254-.229-1.889 0-3.476 2.214-6.53 5.511-7.602.527-.17 1.089.117 1.26.642.17.525-.117 1.09-.642 1.261-2.47.803-4.129 3.093-4.129 5.699 0 .475.058.949.171 1.412.132.536-.196 1.077-.732 1.209-.08.021-.161.029-.24.029z" fill="#ea1b29" fill-opacity="1" data-original-color="#000000ff" stroke="none" stroke-opacity="1"/><path d="m58.801 54.65c-.079 0-.16-.009-.24-.029-.536-.132-.864-.673-.732-1.209.114-.463.171-.938.171-1.412 0-2.606-1.659-4.896-4.129-5.699-.525-.171-.812-.735-.642-1.261.171-.524.735-.812 1.26-.642 3.296 1.071 5.511 4.126 5.511 7.602 0 .635-.077 1.271-.229 1.889-.112.457-.521.762-.97.762z" fill="#ea1b29" fill-opacity="1" data-original-color="#000000ff" stroke="none" stroke-opacity="1"/></g></svg>