<svg version="1.1" id="Capa_1" xmlns="http://www.w3.org/2000/svg" xmlns:xlink="http://www.w3.org/1999/xlink" x="0px" y="0px" viewBox="0 0 512 512" style="enable-background:new 0 0 512 512;" xml:space="preserve" width="300" height="300" xmlns:svgjs="http://svgjs.dev/svgjs"><g width="100%" height="100%" transform="matrix(1,0,0,1,0,0)"><g>
	<g>
		
			<polyline style="stroke-linecap: round; stroke-linejoin: round; stroke-miterlimit: 10;" points="&#10;&#9;&#9;&#9;7.5,398.54 7.5,366.88 260.04,366.88 &#9;&#9;" fill="none" fill-opacity="1" stroke="#ea1b29" stroke-opacity="1" data-original-stroke-color="#000000ff" stroke-width="15" data-original-stroke-width="15"/>
		<path style="stroke-linecap: round; stroke-linejoin: round; stroke-miterlimit: 10;" d="&#10;&#9;&#9;&#9;M421.67,366.88h82.83v90.92c0,11.15-9.05,20.2-20.2,20.2H27.7c-11.15,0-20.2-9.05-20.2-20.2v-24.16" fill="none" fill-opacity="1" stroke="#ea1b29" stroke-opacity="1" data-original-stroke-color="#000000ff" stroke-width="15" data-original-stroke-width="15"/>
		<path style="stroke-linecap: round; stroke-linejoin: round; stroke-miterlimit: 10;" d="&#10;&#9;&#9;&#9;M39.825,439.128v-33.378c0-4.685,5.089-7.599,9.129-5.227l28.433,16.689c3.991,2.342,3.991,8.112,0,10.454l-28.433,16.689&#10;&#9;&#9;&#9;C44.914,446.727,39.825,443.814,39.825,439.128z" fill="none" fill-opacity="1" stroke="#ea1b29" stroke-opacity="1" data-original-stroke-color="#000000ff" stroke-width="15" data-original-stroke-width="15"/>
		
			<line style="stroke-linecap: round; stroke-linejoin: round; stroke-miterlimit: 10;" x1="472.17" y1="422.44" x2="404.95" y2="422.44" fill="none" fill-opacity="1" stroke="#ea1b29" stroke-opacity="1" data-original-stroke-color="#000000ff" stroke-width="15" data-original-stroke-width="15"/>
		
			<line style="stroke-linecap: round; stroke-linejoin: round; stroke-miterlimit: 10;" x1="279.21" y1="422.44" x2="114.58" y2="422.44" fill="none" fill-opacity="1" stroke="#ea1b29" stroke-opacity="1" data-original-stroke-color="#000000ff" stroke-width="15" data-original-stroke-width="15"/>
		<path style="stroke-linecap: round; stroke-linejoin: round; stroke-miterlimit: 10;" d="&#10;&#9;&#9;&#9;M7.5,367.36V54.2C7.5,43.05,16.55,34,27.7,34h456.6c11.15,0,20.2,9.05,20.2,20.2v36.77" fill="none" fill-opacity="1" stroke="#ea1b29" stroke-opacity="1" data-original-stroke-color="#000000ff" stroke-width="15" data-original-stroke-width="15"/>
		
			<line style="stroke-linecap: round; stroke-linejoin: round; stroke-miterlimit: 10;" x1="504.5" y1="367.36" x2="504.5" y2="126.07" fill="none" fill-opacity="1" stroke="#ea1b29" stroke-opacity="1" data-original-stroke-color="#000000ff" stroke-width="15" data-original-stroke-width="15"/>
		
			<line style="stroke-linecap: round; stroke-linejoin: round; stroke-miterlimit: 10;" x1="173.924" y1="408.297" x2="173.924" y2="436.582" fill="none" fill-opacity="1" stroke="#ea1b29" stroke-opacity="1" data-original-stroke-color="#000000ff" stroke-width="15" data-original-stroke-width="15"/>
		
			<circle style="stroke-linecap: round; stroke-linejoin: round; stroke-miterlimit: 10;" cx="429.748" cy="221.892" r="24.244" fill="none" fill-opacity="1" stroke="#ea1b29" stroke-opacity="1" data-original-stroke-color="#000000ff" stroke-width="15" data-original-stroke-width="15"/>
		<path style="stroke-linecap: round; stroke-linejoin: round; stroke-miterlimit: 10;" d="&#10;&#9;&#9;&#9;M324.691,267.622c18.829-6.657,32.325-24.618,32.325-45.73c0-26.779-21.708-48.488-48.488-48.488&#10;&#9;&#9;&#9;c-26.779,0-48.488,21.708-48.488,48.488c0,21.112,13.496,39.073,32.325,45.73" fill="none" fill-opacity="1" stroke="#ea1b29" stroke-opacity="1" data-original-stroke-color="#000000ff" stroke-width="15" data-original-stroke-width="15"/>
		<path style="stroke-linecap: round; stroke-linejoin: round; stroke-miterlimit: 10;" d="&#10;&#9;&#9;&#9;M406.285,310.805c-9.282-0.437-16.944,6.959-16.944,16.144v-13.686c0-8.703-6.688-16.191-15.381-16.601&#10;&#9;&#9;&#9;c-9.282-0.437-16.944,6.959-16.944,16.144v-9.645c0-8.703-6.688-16.191-15.381-16.601c-9.282-0.437-16.944,6.959-16.944,16.144&#10;&#9;&#9;&#9;l0-64.194c0-8.703-6.688-16.191-15.381-16.601c-9.282-0.437-16.944,6.959-16.944,16.144v80.813h-8.081&#10;&#9;&#9;&#9;c-13.39,0-24.244,10.854-24.244,24.244v40.874c0,7.579,2.368,14.97,6.774,21.137l11.741,16.438&#10;&#9;&#9;&#9;c7.399,10.358,19.344,16.506,32.073,16.506h55.844c30.483,0,55.194-24.711,55.194-55.194v-55.468&#10;&#9;&#9;&#9;C421.667,318.702,414.979,311.214,406.285,310.805z" fill="none" fill-opacity="1" stroke="#ea1b29" stroke-opacity="1" data-original-stroke-color="#000000ff" stroke-width="15" data-original-stroke-width="15"/>
		
			<line style="stroke-linecap: round; stroke-linejoin: round; stroke-miterlimit: 10;" x1="292.366" y1="318.867" x2="292.366" y2="337.05" fill="none" fill-opacity="1" stroke="#ea1b29" stroke-opacity="1" data-original-stroke-color="#000000ff" stroke-width="15" data-original-stroke-width="15"/>
		
			<line style="stroke-linecap: round; stroke-linejoin: round; stroke-miterlimit: 10;" x1="357.016" y1="221.892" x2="405.504" y2="221.892" fill="none" fill-opacity="1" stroke="#ea1b29" stroke-opacity="1" data-original-stroke-color="#000000ff" stroke-width="15" data-original-stroke-width="15"/>
		
			<circle style="stroke-linecap: round; stroke-linejoin: round; stroke-miterlimit: 10;" cx="308.528" cy="100.672" r="24.244" fill="none" fill-opacity="1" stroke="#ea1b29" stroke-opacity="1" data-original-stroke-color="#000000ff" stroke-width="15" data-original-stroke-width="15"/>
		
			<line style="stroke-linecap: round; stroke-linejoin: round; stroke-miterlimit: 10;" x1="308.528" y1="173.404" x2="308.528" y2="124.916" fill="none" fill-opacity="1" stroke="#ea1b29" stroke-opacity="1" data-original-stroke-color="#000000ff" stroke-width="15" data-original-stroke-width="15"/>
		
			<circle style="stroke-linecap: round; stroke-linejoin: round; stroke-miterlimit: 10;" cx="187.309" cy="221.892" r="24.244" fill="none" fill-opacity="1" stroke="#ea1b29" stroke-opacity="1" data-original-stroke-color="#000000ff" stroke-width="15" data-original-stroke-width="15"/>
		
			<line style="stroke-linecap: round; stroke-linejoin: round; stroke-miterlimit: 10;" x1="211.553" y1="221.892" x2="260.041" y2="221.892" fill="none" fill-opacity="1" stroke="#ea1b29" stroke-opacity="1" data-original-stroke-color="#000000ff" stroke-width="15" data-original-stroke-width="15"/>
		<path style="stroke-linecap: round; stroke-linejoin: round; stroke-miterlimit: 10;" d="&#10;&#9;&#9;&#9;M58.01,132.34v20.86c0,6.7,5.43,12.12,12.12,12.12H97.4l33.51,33.51c2.55,2.55,6.9,0.74,6.9-2.86v-30.65h37.38&#10;&#9;&#9;&#9;c6.69,0,12.12-5.42,12.12-12.12V80.47c0-6.7-5.43-12.12-12.12-12.12H70.13c-6.69,0-12.12,5.42-12.12,12.12v16.77" fill="none" fill-opacity="1" stroke="#ea1b29" stroke-opacity="1" data-original-stroke-color="#000000ff" stroke-width="15" data-original-stroke-width="15"/>
		
			<line style="stroke-linecap: round; stroke-linejoin: round; stroke-miterlimit: 10;" x1="88.313" y1="100.672" x2="157.004" y2="100.672" fill="none" fill-opacity="1" stroke="#ea1b29" stroke-opacity="1" data-original-stroke-color="#000000ff" stroke-width="15" data-original-stroke-width="15"/>
		
			<line style="stroke-linecap: round; stroke-linejoin: round; stroke-miterlimit: 10;" x1="136.801" y1="132.997" x2="88.313" y2="132.997" fill="none" fill-opacity="1" stroke="#ea1b29" stroke-opacity="1" data-original-stroke-color="#000000ff" stroke-width="15" data-original-stroke-width="15"/>
	</g>
</g><g>
</g><g>
</g><g>
</g><g>
</g><g>
</g><g>
</g><g>
</g><g>
</g><g>
</g><g>
</g><g>
</g><g>
</g><g>
</g><g>
</g><g>
</g></g></svg>