<svg id="Layer_1" enable-background="new 0 0 512 512" viewBox="0 0 512 512" xmlns="http://www.w3.org/2000/svg" width="300" height="300" version="1.1" xmlns:xlink="http://www.w3.org/1999/xlink" xmlns:svgjs="http://svgjs.dev/svgjs"><g width="100%" height="100%" transform="matrix(1,0,0,1,0,0)"><path d="m245.156 42.021c0-4.143 3.357-7.5 7.5-7.5h150.753c4.143 0 7.5 3.357 7.5 7.5s-3.357 7.5-7.5 7.5h-150.753c-4.142 0-7.5-3.358-7.5-7.5zm-177.236 7.5h13.331c4.143 0 7.5-3.357 7.5-7.5s-3.357-7.5-7.5-7.5h-13.331c-4.143 0-7.5 3.357-7.5 7.5s3.357 7.5 7.5 7.5zm44.823 0h13.331c4.143 0 7.5-3.357 7.5-7.5s-3.357-7.5-7.5-7.5h-13.331c-4.143 0-7.5 3.357-7.5 7.5s3.358 7.5 7.5 7.5zm44.823 0h13.331c4.143 0 7.5-3.357 7.5-7.5s-3.357-7.5-7.5-7.5h-13.331c-4.143 0-7.5 3.357-7.5 7.5s3.358 7.5 7.5 7.5zm323.988 401.39c6.354 6.354 9.854 14.83 9.854 23.865s-3.5 17.51-9.854 23.863c-6.579 6.578-15.223 9.868-23.864 9.868-8.643 0-17.283-3.289-23.863-9.869l-53.537-53.536h-330.935c-17.602 0-31.921-14.319-31.921-31.921v-377.768c0-17.602 14.319-31.921 31.921-31.921h375.315c17.602 0 31.921 14.319 31.921 31.921v194.879h12.939c13.804 0 25.034 11.229 25.034 25.033s-11.23 25.034-25.034 25.034h-4.974v46.273c0 4.263-2.51 8.146-6.395 9.895-.513.231-1.039.417-1.571.563v76.091c0 3.714-.662 7.382-1.92 10.847zm-61.772 12.471 26.514-26.513-86.296-86.298c-7.747 9.883-16.666 18.779-26.533 26.495zm-44.239-233.09c-11.892-65.851-69.481-114.516-137.304-114.516-76.948 0-139.55 62.602-139.55 139.549 0 76.948 62.602 139.55 139.55 139.55 67.822 0 125.411-48.665 137.304-114.516h-18.477c-5.433 25.857-19.273 49.4-39.437 66.839-22.032 19.055-50.228 29.549-79.392 29.549-66.952 0-121.421-54.47-121.421-121.422s54.469-121.421 121.421-121.421c29.164 0 57.359 10.494 79.392 29.549 20.163 17.438 34.004 40.982 39.437 66.839zm-137.305-81.388c-58.681 0-106.421 47.74-106.421 106.421 0 58.682 47.74 106.422 106.421 106.422 49.061 0 92.046-34.424 103.439-81.388h-35.239c-10.39 28.297-37.654 47.601-68.199 47.601-40.052 0-72.636-32.584-72.636-72.635s32.584-72.635 72.636-72.635c30.544 0 57.81 19.307 68.199 47.602h35.239c-11.392-46.964-54.378-81.388-103.439-81.388zm203.354 262.045v-80.558l-8.333-7.384-13.253 11.745c-2.021 1.792-4.598 2.729-7.205 2.729-1.504 0-3.018-.312-4.44-.951-3.888-1.748-6.399-5.633-6.399-9.896v-46.273h-11.196c-3.426 21.07-11.064 40.603-21.981 57.781zm7.966-130.59h-32.597v37.048l11.323-10.035c2.84-2.516 7.109-2.516 9.949 0l11.324 10.035v-37.048zm19.973-35.067h-168.549c-3.366 0-6.32-2.243-7.225-5.485-6.914-24.798-29.744-42.116-55.519-42.116-31.78 0-57.636 25.854-57.636 57.635s25.855 57.635 57.636 57.635c25.773 0 48.604-17.318 55.519-42.115.904-3.242 3.858-5.485 7.225-5.485h168.549c5.533 0 10.034-4.501 10.034-10.033 0-5.535-4.501-10.036-10.034-10.036zm-437.096-209.879v30.136h409.157v-30.136c0-9.33-7.591-16.921-16.921-16.921h-375.316c-9.33 0-16.92 7.591-16.92 16.921zm332.854 394.69-44.259-44.259c-24.036 15.254-52.49 24.031-82.79 24.031-85.219 0-154.55-69.331-154.55-154.55s69.331-154.549 154.55-154.549c76.027 0 140.448 55.223 152.526 129.516h50.827v-149.743h-409.158v332.633c0 9.33 7.591 16.921 16.921 16.921zm111.117 44.673c0-5.028-1.938-9.737-5.46-13.258l-14.043-14.043-26.513 26.514 14.043 14.043c3.521 3.521 8.229 5.46 13.256 5.46 5.029 0 9.737-1.939 13.259-5.46 3.52-3.52 5.458-8.227 5.458-13.256zm-204.436-219.451c0 18.6-15.132 33.731-33.731 33.731s-33.731-15.132-33.731-33.731 15.132-33.731 33.731-33.731 33.731 15.132 33.731 33.731zm-15 0c0-10.328-8.403-18.731-18.731-18.731s-18.731 8.403-18.731 18.731 8.403 18.731 18.731 18.731 18.731-8.403 18.731-18.731z" fill="#ea1b29" fill-opacity="1" data-original-color="#000000ff" stroke="none" stroke-opacity="1"/></g></svg>