<svg xmlns="http://www.w3.org/2000/svg" viewBox="0 0 96 96" width="300" height="300" version="1.1" xmlns:xlink="http://www.w3.org/1999/xlink" xmlns:svgjs="http://svgjs.dev/svgjs"><g width="100%" height="100%" transform="matrix(1,0,0,1,0,0)"><g id="Landing_Page" data-name="Landing Page"><path d="M75.82,0H20.18a5.67,5.67,0,0,0-5.67,5.67V90.33A5.67,5.67,0,0,0,20.18,96H75.82a5.67,5.67,0,0,0,5.67-5.67V5.67A5.67,5.67,0,0,0,75.82,0Zm3.67,39H76L60.57,23.61a1,1,0,0,0-1.41,0l-5.85,5.86-9.66-9.66a1,1,0,0,0-1.41,0L23,39H16.51V13.83h63ZM62.84,39l-8.12-8.12,5.14-5.15L73.13,39Zm-6,0a3.6,3.6,0,0,0-3.44-2.58H42.58A3.6,3.6,0,0,0,39.14,39H25.87L42.94,21.93,60,39ZM55,40a1.58,1.58,0,0,1-1.58,1.58H42.58A1.58,1.58,0,0,1,41.37,39a1.52,1.52,0,0,1,1.21-.58H53.42A1.58,1.58,0,0,1,55,40ZM16.51,41H39.14a3.6,3.6,0,0,0,3.44,2.58H53.42A3.6,3.6,0,0,0,56.86,41H79.49V66.5h-63Zm0-35.33A3.68,3.68,0,0,1,20.18,2H75.82a3.68,3.68,0,0,1,3.67,3.67v6.16h-63Zm63,84.66A3.68,3.68,0,0,1,75.82,94H20.18a3.68,3.68,0,0,1-3.67-3.67V68.5h63Z" fill="#ea1b29" fill-opacity="1" data-original-color="#000000ff" stroke="none" stroke-opacity="1"/><path d="M65.91,5.92H65.5a1,1,0,0,0,0,2h.41a1,1,0,0,0,0-2Z" fill="#ea1b29" fill-opacity="1" data-original-color="#000000ff" stroke="none" stroke-opacity="1"/><path d="M70.27,5.92h-.41a1,1,0,0,0,0,2h.41a1,1,0,0,0,0-2Z" fill="#ea1b29" fill-opacity="1" data-original-color="#000000ff" stroke="none" stroke-opacity="1"/><path d="M74.63,5.92h-.41a1,1,0,0,0,0,2h.41a1,1,0,0,0,0-2Z" fill="#ea1b29" fill-opacity="1" data-original-color="#000000ff" stroke="none" stroke-opacity="1"/><path d="M21,19h5.67a1,1,0,0,0,0-2H21a1,1,0,0,0,0,2Z" fill="#ea1b29" fill-opacity="1" data-original-color="#000000ff" stroke="none" stroke-opacity="1"/><path d="M21,22.79h5.67a1,1,0,0,0,0-2H21a1,1,0,0,0,0,2Z" fill="#ea1b29" fill-opacity="1" data-original-color="#000000ff" stroke="none" stroke-opacity="1"/><path d="M21,26.54h2.17a1,1,0,0,0,0-2H21a1,1,0,0,0,0,2Z" fill="#ea1b29" fill-opacity="1" data-original-color="#000000ff" stroke="none" stroke-opacity="1"/><path d="M37.69,47H24a1,1,0,0,0,0,2H37.69a1,1,0,0,0,0-2Z" fill="#ea1b29" fill-opacity="1" data-original-color="#000000ff" stroke="none" stroke-opacity="1"/><path d="M37.69,51.44H24a1,1,0,0,0,0,2H37.69a1,1,0,0,0,0-2Z" fill="#ea1b29" fill-opacity="1" data-original-color="#000000ff" stroke="none" stroke-opacity="1"/><path d="M37.69,55.88H24a1,1,0,1,0,0,2H37.69a1,1,0,0,0,0-2Z" fill="#ea1b29" fill-opacity="1" data-original-color="#000000ff" stroke="none" stroke-opacity="1"/><path d="M37.69,60.31H24a1,1,0,0,0,0,2H37.69a1,1,0,0,0,0-2Z" fill="#ea1b29" fill-opacity="1" data-original-color="#000000ff" stroke="none" stroke-opacity="1"/><path d="M72,47H58.3a1,1,0,0,0,0,2H72a1,1,0,0,0,0-2Z" fill="#ea1b29" fill-opacity="1" data-original-color="#000000ff" stroke="none" stroke-opacity="1"/><path d="M72,51.44H58.3a1,1,0,0,0,0,2H72a1,1,0,0,0,0-2Z" fill="#ea1b29" fill-opacity="1" data-original-color="#000000ff" stroke="none" stroke-opacity="1"/><path d="M72,55.88H58.3a1,1,0,0,0,0,2H72a1,1,0,0,0,0-2Z" fill="#ea1b29" fill-opacity="1" data-original-color="#000000ff" stroke="none" stroke-opacity="1"/><path d="M72,60.31H58.3a1,1,0,0,0,0,2H72a1,1,0,0,0,0-2Z" fill="#ea1b29" fill-opacity="1" data-original-color="#000000ff" stroke="none" stroke-opacity="1"/><path d="M53.86,47H42.14a1,1,0,0,0-1,1V61.31a1,1,0,0,0,1,1H53.86a1,1,0,0,0,1-1V48A1,1,0,0,0,53.86,47Zm-1,13.31H43.14V49h9.72Z" fill="#ea1b29" fill-opacity="1" data-original-color="#000000ff" stroke="none" stroke-opacity="1"/><path d="M30.84,83a6.23,6.23,0,1,0-6.23-6.23A6.24,6.24,0,0,0,30.84,83Zm0-10.46a4.23,4.23,0,1,1-4.23,4.23A4.23,4.23,0,0,1,30.84,72.57Z" fill="#ea1b29" fill-opacity="1" data-original-color="#000000ff" stroke="none" stroke-opacity="1"/><path d="M48,83a6.23,6.23,0,1,0-6.23-6.23A6.24,6.24,0,0,0,48,83Zm0-10.46a4.23,4.23,0,1,1-4.23,4.23A4.24,4.24,0,0,1,48,72.57Z" fill="#ea1b29" fill-opacity="1" data-original-color="#000000ff" stroke="none" stroke-opacity="1"/><path d="M65.16,83a6.23,6.23,0,1,0-6.22-6.23A6.24,6.24,0,0,0,65.16,83Zm0-10.46a4.23,4.23,0,1,1-4.22,4.23A4.24,4.24,0,0,1,65.16,72.57Z" fill="#ea1b29" fill-opacity="1" data-original-color="#000000ff" stroke="none" stroke-opacity="1"/><path d="M34.21,85.07H27.46a1,1,0,0,0,0,2h6.75a1,1,0,1,0,0-2Z" fill="#ea1b29" fill-opacity="1" data-original-color="#000000ff" stroke="none" stroke-opacity="1"/><path d="M34.21,88.7H27.46a1,1,0,1,0,0,2h6.75a1,1,0,0,0,0-2Z" fill="#ea1b29" fill-opacity="1" data-original-color="#000000ff" stroke="none" stroke-opacity="1"/><path d="M51.37,85.07H44.63a1,1,0,1,0,0,2h6.74a1,1,0,1,0,0-2Z" fill="#ea1b29" fill-opacity="1" data-original-color="#000000ff" stroke="none" stroke-opacity="1"/><path d="M51.37,88.7H44.63a1,1,0,0,0,0,2h6.74a1,1,0,0,0,0-2Z" fill="#ea1b29" fill-opacity="1" data-original-color="#000000ff" stroke="none" stroke-opacity="1"/><path d="M68.54,85.07H61.79a1,1,0,1,0,0,2h6.75a1,1,0,1,0,0-2Z" fill="#ea1b29" fill-opacity="1" data-original-color="#000000ff" stroke="none" stroke-opacity="1"/><path d="M68.54,88.7H61.79a1,1,0,0,0,0,2h6.75a1,1,0,0,0,0-2Z" fill="#ea1b29" fill-opacity="1" data-original-color="#000000ff" stroke="none" stroke-opacity="1"/></g></g></svg>