<svg id="Layer_1" enable-background="new 0 0 75 75" viewBox="0 0 75 75" xmlns="http://www.w3.org/2000/svg" width="300" height="300" version="1.1" xmlns:xlink="http://www.w3.org/1999/xlink" xmlns:svgjs="http://svgjs.dev/svgjs"><g width="100%" height="100%" transform="matrix(1,0,0,1,0,0)"><g id="Backlinks" fill="rgb(0,0,0)"><path d="m8.0449734 50.3808441h4.0976563c.4140625 0 .75-.3359375.75-.75s-.3359375-.75-.75-.75h-4.0976563c-.9892578 0-1.7949219-.8051758-1.7949219-1.7949219v-31.9545888c0-.9897461.8056641-1.7949219 1.7949219-1.7949219h36.4804688c.4140625 0 .75-.3359375.75-.75s-.3359375-.75-.75-.75h-36.4804688c-1.8164063 0-3.2949219 1.4780273-3.2949219 3.2949219v31.9545898c0 1.8168936 1.4785156 3.2949209 3.2949219 3.2949209z" fill="#ea1b29" fill-opacity="1" data-original-color="#000000ff" stroke="none" stroke-opacity="1"/><path d="m8.6084499 22.8456898c0 .4140625.3359375.75.75.75h32.2753906c.4140625 0 .75-.3359375.75-.75s-.3359375-.75-.75-.75h-32.2753906c-.4140625 0-.75.3359375-.75.75z" fill="#ea1b29" fill-opacity="1" data-original-color="#000000ff" stroke="none" stroke-opacity="1"/><path d="m13.9257717 18.3153553c.1813354-1.0054932-.4868774-1.9676514-1.4924316-2.1489868-1.0054932-.1813364-1.9676514.4868164-2.1489868 1.4923706s.4868164 1.9677124 1.4923706 2.1490479 1.9677124-.4868775 2.1490478-1.4924317z" fill="#ea1b29" fill-opacity="1" data-original-color="#000000ff" stroke="none" stroke-opacity="1"/><path d="m20.0986233 18.3153553c.1813354-1.0054932-.4868164-1.9676514-1.4923706-2.1489868-1.0055542-.1813364-1.9677124.4868164-2.1490479 1.4923706-.1812744 1.0055542.4868774 1.9677124 1.4924316 2.1490479s1.9677125-.4868775 2.1489869-1.4924317z" fill="#ea1b29" fill-opacity="1" data-original-color="#000000ff" stroke="none" stroke-opacity="1"/><path d="m26.2715359 18.3153553c.1813354-1.0054932-.4868774-1.9676514-1.4924316-2.1489868-1.0054932-.1813364-1.9676514.4868164-2.1489868 1.4923706s.4868164 1.9677124 1.4923706 2.1490479 1.9677123-.4868775 2.1490478-1.4924317z" fill="#ea1b29" fill-opacity="1" data-original-color="#000000ff" stroke="none" stroke-opacity="1"/><path d="m66.5107956 37.781723c-.4140625 0-.75.3359375-.75.75v25.1459961c0 .9897461-.8056641 1.7949219-1.7959023 1.7949219h-46.3632793c-.9892578 0-1.7949219-.8051758-1.7949219-1.7949219v-31.9540996c0-.9897461.8056641-1.7949219 1.7949219-1.7949219h30.7910137c.4140625 0 .75-.3359375.75-.75s-.3359375-.75-.75-.75h-30.7910137c-1.8164063 0-3.2949219 1.4780273-3.2949219 3.2949219v31.9540997c0 1.8168945 1.4785156 3.2949219 3.2949219 3.2949219h46.3632813c1.8173866 0 3.2959023-1.4780273 3.2959023-3.2949219v-25.1459962c-.000002-.4140625-.3359395-.75-.750002-.75z" fill="#ea1b29" fill-opacity="1" data-original-color="#000000ff" stroke="none" stroke-opacity="1"/><path d="m61.8828621 38.6874847h-42.9677715c-.4140625 0-.75.3359375-.75.75s.3359375.75.75.75h42.9677734c.4140625 0 .75-.3359375.75-.75s-.3359394-.75-.7500019-.75z" fill="#ea1b29" fill-opacity="1" data-original-color="#000000ff" stroke="none" stroke-opacity="1"/><path d="m56.9043465 23.8505726c-.3779297-.1660156-.8212891.003418-.9892578.3823242s.0029297.8217773.3818359.9897461c3.6465302 1.6125984 7.7745552-1.092783 7.7158241-5.1015625-.0214882-1.4667969-.6123085-2.8369141-1.6650581-3.8588867l-6.8827972-6.6860361c-2.171875-2.1079097-5.6533203-2.0585933-7.7646484.1137695-2.1041374 2.166501-2.0759163 5.6363125.1171875 7.7685556l3.1445313 3.0043945c.2988281.2851563.7734375.2758789 1.0605469-.0244141.2861328-.2993164.2753906-.7744141-.0234375-1.0605469l-3.140625-3c-1.578125-1.5332041-1.6152344-4.0649424-.0820313-5.6435556 1.5322266-1.5776367 4.0634766-1.6166992 5.6435547-.0820313l6.8828125 6.6860361c1.5816612 1.5362091 1.6198997 4.0607395.0820313 5.6430664-1.1582033 1.1933595-2.9589846 1.5434572-4.4804689.8691408z" fill="#ea1b29" fill-opacity="1" data-original-color="#000000ff" stroke="none" stroke-opacity="1"/><path d="m65.9551315 23.9091663c-.3027344-.2827148-.7763672-.2705078-1.0605469.03125s-.2695313.7763672.03125 1.0605469l2.6142578 2.4638672c1.578125 1.5332031 1.6152344 4.0649414.0820313 5.6435528-1.5332031 1.5776367-4.0634804 1.6157227-5.6435585.0820313l-6.8828125-6.6860332c-1.5816574-1.536211-1.6198959-4.0607395-.0820313-5.6430664 1.2246094-1.2597656 3.1630859-1.5708008 4.7177734-.7543945.3691406.1938477.8212891.050293 1.0126953-.3154297.1923828-.3666992.0517578-.8198242-.3154297-1.0126953-3.6536255-1.9177799-8.1041374.7680836-8.0429688 4.9428711.0214844 1.4667969.6123047 2.8369141 1.6650391 3.8588867l6.8828125 6.6860332c1.0654297 1.0341797 2.4453125 1.5493164 3.8251991 1.5493164 4.917572-.0016747 7.3494568-6.0044155 3.8183594-9.4350567z" fill="#ea1b29" fill-opacity="1" data-original-color="#000000ff" stroke="none" stroke-opacity="1"/><path d="m56.1025887 33.8559418h-6.6376953c-.4140625 0-.75.3359375-.75.75s.3359375.75.75.75h6.6376953c.4140625 0 .75-.3359375.75-.75s-.3359375-.75-.75-.75z" fill="#ea1b29" fill-opacity="1" data-original-color="#000000ff" stroke="none" stroke-opacity="1"/><path d="m40.7953377 51.4316864-3.2669678.2525024c-.1340942.0079346-.2603149-.0394287-.3471069-.1262207l-2.421875-2.421814c-.1983643-.1983643-.5328979-.0749512-.567749.2033081-.4580002 3.6543999 2.696167 6.8549919 6.4595337 6.2976685.1749268-.0258789.3510742.0258179.4760742.1508789l5.7800293 5.7800293 4.4335327-4.4335327-5.8027344-5.8027344c-.1255493-.1256104-.1769409-.3025513-.1503296-.4781494.2579956-1.7034302-.2712402-3.5092773-1.5877075-4.8257446-1.2796021-1.279541-3.0258179-1.8236694-4.7001343-1.616394-.2822876.0349121-.4078369.3739624-.2067261.5750732l2.4297485 2.4298096c.086792.086731.1340942.2129517.1262207.3471069l-.2445679 3.2580566c-.0164184.2189942-.1902465.3932496-.4092406.4101563z" fill="#ea1b29" fill-opacity="1" data-original-color="#000000ff" stroke="none" stroke-opacity="1"/><path d="m20.5461941 34.2773895c-.1813354 1.0055542.4868774 1.9677124 1.4924316 2.1489868 1.0055542.1813354 1.9676514-.4868164 2.1489868-1.4923706s-.4868164-1.9677124-1.4923706-2.1490479c-1.0055542-.1812743-1.9677124.4868775-2.1490478 1.4924317z" fill="#ea1b29" fill-opacity="1" data-original-color="#000000ff" stroke="none" stroke-opacity="1"/><path d="m26.7191067 34.2773895c-.1813354 1.0055542.4868164 1.9677124 1.4923706 2.1489868 1.0055542.1813354 1.9677124-.4868164 2.1490479-1.4923706.1812744-1.0055542-.4868774-1.9677124-1.4924316-2.1490479-1.0055543-.1812743-1.9676515.4868775-2.1489869 1.4924317z" fill="#ea1b29" fill-opacity="1" data-original-color="#000000ff" stroke="none" stroke-opacity="1"/><path d="m32.8919563 34.2773895c-.1813354 1.0055542.4868774 1.9677124 1.4924316 2.1489868 1.0055542.1813354 1.9676514-.4868164 2.1489868-1.4923706s-.4868164-1.9677124-1.4923706-2.1490479c-1.0055541-.1812743-1.9677123.4868775-2.1490478 1.4924317z" fill="#ea1b29" fill-opacity="1" data-original-color="#000000ff" stroke="none" stroke-opacity="1"/></g></g></svg>