<svg id="Layer_1" enable-background="new 0 0 70 70" viewBox="0 0 70 70" xmlns="http://www.w3.org/2000/svg" width="300" height="300" version="1.1" xmlns:xlink="http://www.w3.org/1999/xlink" xmlns:svgjs="http://svgjs.dev/svgjs"><g width="100%" height="100%" transform="matrix(1,0,0,1,0,0)"><g><g><g><g><path d="m60.86 67.5h-51.72c-2.64 0-5.03-1.56-6.09-3.98l-.74-1.68c-.43-.98-.34-2.09.24-2.99.58-.89 1.57-1.43 2.64-1.43h59.62c1.07 0 2.06.53 2.64 1.43.58.89.67 2.01.24 2.99l-.73 1.68c-1.06 2.42-3.46 3.98-6.1 3.98zm-55.67-9.08c-.73 0-1.4.36-1.8.98s-.46 1.36-.17 2.04l.74 1.68c.9 2.06 2.93 3.38 5.17 3.38h51.73c2.24 0 4.28-1.33 5.18-3.38l.73-1.68c.3-.68.24-1.42-.16-2.04s-1.06-.97-1.8-.97h-59.62z" fill="#ea1b29" fill-opacity="1" data-original-color="#000000ff" stroke="none" stroke-opacity="1"/></g><g><path d="m63.54 58.42h-57.08c-.28 0-.5-.22-.5-.5v-30.46c0-3.81 3.1-6.91 6.92-6.91h1.99c.28 0 .5.22.5.5s-.22.5-.5.5h-1.99c-3.26 0-5.92 2.65-5.92 5.91v29.96h56.08v-29.96c0-3.26-2.66-5.91-5.92-5.91h-2.31c-.28 0-.5-.22-.5-.5s.22-.5.5-.5h2.31c3.82 0 6.92 3.1 6.92 6.91v30.46c0 .28-.22.5-.5.5z" fill="#ea1b29" fill-opacity="1" data-original-color="#000000ff" stroke="none" stroke-opacity="1"/></g><g><path d="m44.19 64.56h-18.37c-1.16 0-2.1-.94-2.1-2.1 0-1.15.94-2.09 2.1-2.09h18.37c1.16 0 2.1.94 2.1 2.09-.01 1.15-.95 2.1-2.1 2.1zm-18.37-3.19c-.61 0-1.1.49-1.1 1.09 0 .61.49 1.1 1.1 1.1h18.37c.61 0 1.1-.49 1.1-1.1 0-.6-.49-1.09-1.1-1.09z" fill="#ea1b29" fill-opacity="1" data-original-color="#000000ff" stroke="none" stroke-opacity="1"/></g></g></g><g><g><path d="m31.86 49.06c-.09 0-.18-.02-.26-.07-.37-.21-.68-.45-.95-.75-6.08-6.52-16.29-18.64-16.29-26.53 0-10.6 8.63-19.22 19.23-19.22 5.85 0 11.3 2.61 14.96 7.17.17.21.14.53-.08.7s-.53.14-.7-.08c-3.47-4.3-8.63-6.78-14.18-6.78-10.05 0-18.23 8.17-18.23 18.22 0 7.83 11.21 20.69 16.03 25.85.2.21.42.39.69.55.16.08.28.25.28.45-.01.27-.22.49-.5.49z" fill="#ea1b29" fill-opacity="1" data-original-color="#000000ff" stroke="none" stroke-opacity="1"/></g><g><path d="m36.3 52.3h-.01c-1.07 0-2.06-.44-2.8-1.22-4.9-5.24-16.29-18.31-16.29-26.53 0-10.6 8.62-19.22 19.22-19.22s19.22 8.62 19.22 19.22c0 8.22-11.57 21.3-16.54 26.55-.75.77-1.74 1.2-2.8 1.2zm.11-45.97c-10.05 0-18.22 8.17-18.22 18.22 0 7.86 11.21 20.69 16.02 25.84.54.58 1.28.9 2.07.9h.01c.79 0 1.52-.32 2.07-.89 4.89-5.16 16.27-18 16.27-25.86.01-10.04-8.17-18.21-18.22-18.21z" fill="#ea1b29" fill-opacity="1" data-original-color="#000000ff" stroke="none" stroke-opacity="1"/></g><g><path d="m36.41 37.17c-6.96 0-12.62-5.66-12.62-12.62s5.66-12.62 12.62-12.62 12.62 5.66 12.62 12.62-5.66 12.62-12.62 12.62zm0-24.24c-6.41 0-11.62 5.21-11.62 11.62s5.21 11.62 11.62 11.62 11.62-5.21 11.62-11.62-5.21-11.62-11.62-11.62z" fill="#ea1b29" fill-opacity="1" data-original-color="#000000ff" stroke="none" stroke-opacity="1"/></g><g><g><path d="m32 24.53c-.25-.18-.61-.33-1.05-.43l-.89-.2c-.73-.17-1.01-.27-1.12-.33-.21-.12-.31-.3-.31-.56 0-.24.09-.45.29-.64.19-.19.53-.28 1-.28.58 0 .99.15 1.22.44.12.16.21.4.25.71l.02.13h1.09v-.15c0-.76-.26-1.32-.77-1.67-.49-.34-1.09-.51-1.79-.51-.76 0-1.36.2-1.79.59-.43.4-.64.91-.64 1.52 0 .58.23 1.03.68 1.32.25.17.66.31 1.25.44l.86.2c.45.1.78.22.98.36.18.12.26.32.26.62 0 .4-.22.67-.67.82-.25.09-.53.13-.84.13-.68 0-1.13-.19-1.39-.57-.14-.2-.21-.47-.23-.81l-.01-.14h-1.1v.15c-.01.73.23 1.32.71 1.75s1.14.65 1.96.65c.7 0 1.33-.16 1.87-.48.56-.33.85-.89.85-1.65-.02-.61-.24-1.08-.69-1.41z" fill="#ea1b29" fill-opacity="1" data-original-color="#000000ff" stroke="none" stroke-opacity="1"/></g><g><path d="m34.69 24.96h3.53v-1.04h-3.53v-1.64h3.81v-1.08h-4.95v6.68h5.02v-1.06h-3.88z" fill="#ea1b29" fill-opacity="1" data-original-color="#000000ff" stroke="none" stroke-opacity="1"/></g><g><path d="m44.93 22.17c-.57-.76-1.45-1.15-2.62-1.15-1.12 0-1.99.42-2.56 1.25-.44.64-.67 1.41-.67 2.3 0 .99.26 1.82.79 2.47.59.68 1.41 1.02 2.43 1.02 1.1 0 1.95-.39 2.55-1.17.5-.65.76-1.49.76-2.47-.02-.9-.24-1.66-.68-2.25zm-.52 2.27c0 .68-.16 1.29-.49 1.8-.31.5-.81.75-1.53.75-.76 0-1.29-.22-1.62-.67-.34-.46-.51-1.03-.51-1.7 0-.84.2-1.48.59-1.9s.88-.63 1.51-.63c.64 0 1.13.21 1.5.63.36.44.55 1.01.55 1.72z" fill="#ea1b29" fill-opacity="1" data-original-color="#000000ff" stroke="none" stroke-opacity="1"/></g></g></g></g></g></svg>