<svg id="Layer_1" enable-background="new 0 0 512 512" viewBox="0 0 512 512" xmlns="http://www.w3.org/2000/svg" width="300" height="300" version="1.1" xmlns:xlink="http://www.w3.org/1999/xlink" xmlns:svgjs="http://svgjs.dev/svgjs"><g width="100%" height="100%" transform="matrix(1,0,0,1,0,0)"><path clip-rule="evenodd" d="m489.87 316.437c-4.574-7.639-23.341-30.323-72.754-1.544l-2.03 1.182-7.017-15.799c7.962-13.657 14.015-28.256 18.037-43.506l28.573-10.999c3.089-1.188 5.126-4.156 5.126-7.466v-52.998c0-3.31-2.038-6.277-5.126-7.466l-28.565-10.995c-4.022-15.258-10.077-29.862-18.041-43.52l12.432-27.991c1.344-3.024.686-6.564-1.654-8.904l-37.476-37.475c-2.341-2.341-5.88-2.997-8.904-1.655l-28.001 12.436c-13.657-7.962-28.256-14.015-43.507-18.038l-10.998-28.573c-1.189-3.088-4.156-5.126-7.466-5.126h-52.998c-3.309 0-6.277 2.038-7.466 5.126l-10.998 28.574c-15.251 4.022-29.851 10.075-43.507 18.038l-28.001-12.437c-3.025-1.343-6.564-.685-8.904 1.655l-37.476 37.476c-2.34 2.34-2.998 5.879-1.654 8.904l12.435 27.998c-7.963 13.656-14.017 28.257-18.04 43.51l-28.57 10.998c-3.088 1.188-5.126 4.156-5.126 7.466v52.998c0 3.31 2.038 6.277 5.126 7.466l28.565 10.995c4.025 15.262 10.08 29.866 18.041 43.52l-12.432 27.99c-1.344 3.025-.686 6.564 1.654 8.904l1.395 1.394-8.264 4.785-5.929-10.476c-5.64-9.964-18.333-13.482-28.299-7.844l-24.325 13.767c-4.815 2.725-8.284 7.174-9.769 12.529-1.484 5.354-.801 10.955 1.924 15.77l71.517 126.366c3.816 6.742 10.862 10.533 18.107 10.533 3.462 0 6.971-.866 10.193-2.689l24.325-13.768c4.815-2.725 8.284-7.174 9.769-12.529s.801-10.956-1.924-15.771l-7.224-12.764 14.33-8.273 110.921 29.721c6.3 1.689 12.482 2.532 18.534 2.531 12.063 0 23.598-3.352 34.453-10.034l157.338-96.882c14.479-8.913 19.078-31.368 9.65-47.11zm-381.523 13.313 11.888-26.766c1.071-2.412.884-5.196-.5-7.443-8.897-14.446-15.397-30.125-19.318-46.603-.611-2.566-2.447-4.666-4.909-5.613l-27.313-10.513v-42.012l27.319-10.516c2.461-.947 4.298-3.048 4.909-5.614 3.918-16.466 10.417-32.143 19.317-46.593 1.383-2.247 1.57-5.031.5-7.442l-11.892-26.774 29.708-29.708 26.777 11.893c2.412 1.07 5.195.884 7.442-.5 14.451-8.899 30.126-15.397 46.589-19.315 2.566-.611 4.666-2.447 5.614-4.909l10.516-27.322h42.012l10.517 27.322c.947 2.462 3.047 4.298 5.614 4.909 16.463 3.918 32.138 10.417 46.59 19.315 2.247 1.383 5.031 1.569 7.442.5l26.777-11.893 29.708 29.707-11.888 26.767c-1.071 2.411-.884 5.195.499 7.442 8.901 14.453 15.4 30.131 19.318 46.602.61 2.566 2.447 4.667 4.909 5.614l27.314 10.514v42.012l-27.322 10.517c-2.461.947-4.298 3.047-4.909 5.614-3.917 16.462-10.416 32.137-19.315 46.59-1.383 2.247-1.57 5.03-.499 7.441l9.416 21.202-70.761 41.215c-4.092 2.383-8.251 4.104-12.578 5.179 1.54-2.607 2.759-5.523 3.617-8.724 4.474-16.699-5.446-34.133-22.585-39.689-.343-.111-.693-.199-1.047-.263-3.717-.67-7.424-1.448-11.111-2.294v-8.056c19.923-6.147 37.834-18.301 50.926-34.721 14.864-18.642 22.721-41.124 22.721-65.017 0-33.065-15.757-64.224-42.271-83.881-5.854-14.956-17.036-27.516-31.97-35.089-2.481-1.257-5.436-1.138-7.805.318-2.37 1.455-3.813 4.036-3.813 6.817v9.119c-6.082-1.088-12.271-1.643-18.5-1.643s-12.417.555-18.5 1.643v-9.119c0-2.781-1.444-5.362-3.813-6.817-2.369-1.456-5.323-1.576-7.805-.318-14.934 7.573-26.117 20.133-31.97 35.089-26.513 19.657-42.27 50.815-42.27 83.881 0 23.893 7.857 46.375 22.721 65.017 4.522 5.671 9.618 10.834 15.173 15.419-14.345.93-27.485 7.248-39.021 13.927l-41.64 24.109zm81.002-175.938c.536 24.517 14.358 46.54 35.94 57.72v83.149c-34.4-12.659-57.647-45.397-57.647-82.876 0-21.509 7.875-42.07 21.707-57.993zm47.039 45.264c-18.871-7.929-31.064-26.276-31.064-46.742 0-14.383 5.974-27.715 16.176-37.155v43.787c0 2.858 1.525 5.499 4 6.928l26.5 15.3c2.476 1.429 5.525 1.429 8 0l26.5-15.301c2.475-1.429 4-4.07 4-6.928v-43.786c10.202 9.44 16.176 22.771 16.176 37.154 0 20.466-12.193 38.814-31.064 46.743-2.97 1.248-4.901 4.155-4.901 7.375v109.007c-10.289-2.949-20.209-6.284-29.422-9.534v-99.472c0-3.221-1.932-6.128-4.901-7.376zm1.112-73.685c12.129-2.568 24.873-2.568 37 0v28.955l-18.5 10.682-18.5-10.681zm85.151 28.422c13.832 15.923 21.708 36.484 21.708 57.994 0 37.478-23.248 70.216-57.647 82.876v-83.149c21.581-11.182 35.403-33.204 35.939-57.721zm-186.507 319.811-24.325 13.768c-2.25 1.272-5.223.447-6.495-1.8l-71.517-126.367c-.62-1.095-.773-2.379-.43-3.615s1.135-2.258 2.23-2.878l24.325-13.767c.713-.404 1.506-.609 2.313-.609.434 0 .871.06 1.303.179 1.236.342 2.258 1.134 2.878 2.23l71.518 126.365c1.272 2.247.448 5.222-1.8 6.494zm335.688-123.701-157.338 96.882c-12.403 7.635-26.014 9.544-40.457 5.673l-114.123-30.579c-2.05-.548-4.232-.261-6.07.799l-17.081 9.861-42.603-75.275 64.37-37.269c14.398-8.336 29.967-15.322 46.259-10.037 5.265 1.708 11.335 3.902 18.365 6.444 20.167 7.291 45.23 16.352 71.247 21.111 8.893 3.119 13.866 11.707 11.598 20.171-2.983 11.134-12.277 12.522-19.677 11.677-12.756-2.624-24.882-6.084-37.712-9.748-6.092-1.74-12.391-3.539-18.866-5.274-4.268-1.141-8.654 1.389-9.798 5.657-1.143 4.268 1.39 8.654 5.657 9.798 6.349 1.701 12.583 3.481 18.613 5.204 13.238 3.78 25.742 7.352 39.212 10.105.052.011.104.014.157.024.055.01.107.026.162.035l10.781 1.752c16.2 2.591 30.571.066 43.939-7.719l86.7-50.498c24.795-14.44 43.852-15.958 50.976-4.061 4.901 8.184 2.726 20.935-4.311 25.267zm-404.992 13.18c.694 4.746-2.591 9.156-7.337 9.85s-9.156-2.591-9.85-7.338c-.694-4.746 2.591-9.156 7.337-9.85 4.746-.693 9.156 2.592 9.85 7.338z" fill-rule="evenodd" fill="#ea1b29" fill-opacity="1" data-original-color="#000000ff" stroke="none" stroke-opacity="1"/></g></svg>