<svg id="Layer_1" enable-background="new 0 0 512 512" height="300" viewBox="0 0 512 512" width="300" xmlns="http://www.w3.org/2000/svg" version="1.1" xmlns:xlink="http://www.w3.org/1999/xlink" xmlns:svgjs="http://svgjs.dev/svgjs"><g width="100%" height="100%" transform="matrix(1,0,0,1,0,0)"><path d="m215.683 444.379h-.776l-.884-3.524c-4.375-17.43-8.898-35.453-13.082-53.217-6.456-27.415-13.073-44.91-49.832-55.337l-35.534-25.524c-5.896-4.235-13.103-5.932-20.304-4.778l-23.667-55.865c-16.024-37.827-36.85-33.409-42.852-31.153-14.776 5.554-23.45 25.13-18.197 41.073l30.166 91.561c.318.965.64 1.953.968 2.961 4.927 15.121 11.058 33.939 25.168 43.637l41.132 28.269c4.589 3.153 7.326 7.145 8.614 12.562l2.219 9.33h-4.637-.001c-4.517 0-8.751 1.748-11.922 4.923-3.172 3.175-4.917 7.411-4.912 11.928l.024 24.95c.008 9.273 7.56 16.818 16.833 16.819l101.498.006c4.517 0 8.751-1.748 11.923-4.923 3.172-3.174 4.917-7.411 4.913-11.928l-.024-24.95c-.009-9.275-7.561-16.82-16.834-16.82zm-85.46-12.576c-2.081-8.749-6.894-15.767-14.305-20.86l-41.132-28.269c-10.199-7.008-15.515-23.325-19.786-36.435-.333-1.022-.66-2.025-.982-3.004l-30.166-91.561c-3.141-9.534 2.777-20.938 9.826-23.587 8.143-3.061 17.503 5.727 25.036 23.509l23.744 56.048c-1.921 1.54-3.643 3.35-5.116 5.4-4.256 5.925-5.947 13.174-4.76 20.411s5.103 13.566 11.027 17.822l48.562 34.883c3.141 2.256 7.515 1.538 9.769-1.601 2.256-3.14 1.539-7.514-1.601-9.769l-48.562-34.884c-2.888-2.074-4.798-5.169-5.38-8.716s.24-7.09 2.314-9.978c4.309-5.999 12.697-7.374 18.695-3.064l36.542 26.248c.675.484 1.43.845 2.231 1.065 31.167 8.554 35.337 20.768 41.134 45.387 4.208 17.863 8.743 35.937 13.13 53.415l.029.116-67.26-.004zm87.501 56.378c-.373.374-1.026.818-2.031.818l-101.486-.006c-1.562 0-2.833-1.271-2.834-2.833l-.024-24.951c-.001-.993.443-1.646.816-2.02.373-.373 1.025-.818 2.019-.818l101.498.006c1.561 0 2.833 1.271 2.834 2.833l.024 24.95c.002.995-.443 1.648-.816 2.021zm265.524-273.2c-6.001-2.254-26.827-6.673-42.852 31.153l-23.663 55.854c-6.891-1.103-14.204.404-20.309 4.789l-35.534 25.524c-36.759 10.427-43.376 27.922-49.832 55.336-4.18 17.748-8.699 35.754-13.07 53.167l-.896 3.574h-.775c-9.274 0-16.826 7.545-16.834 16.819l-.024 24.951c-.004 4.517 1.741 8.753 4.913 11.928s7.406 4.923 11.936 4.923l101.486-.006c9.274-.001 16.825-7.546 16.833-16.819l.024-24.951c.004-4.517-1.74-8.753-4.912-11.928s-7.407-4.923-11.924-4.923h-4.637l2.219-9.33c1.289-5.417 4.026-9.409 8.615-12.562l41.132-28.269c14.11-9.697 20.241-28.516 25.168-43.637.328-1.008.65-1.996.968-2.961l30.166-91.561c5.252-15.94-3.422-35.517-18.198-41.071zm-85.433 243.392c.993 0 1.646.445 2.019.818s.817 1.026.816 2.02l-.024 24.951c-.001 1.562-1.273 2.832-2.834 2.832l-101.497.006c-.994 0-1.647-.445-2.02-.818s-.817-1.026-.816-2.019l.024-24.951c.001-1.562 1.273-2.832 2.834-2.832zm90.333-206.699-30.166 91.561c-.323.979-.649 1.982-.982 3.004-4.271 13.111-9.588 29.427-19.787 36.436l-41.132 28.269c-7.411 5.093-12.224 12.111-14.305 20.86l-2.99 12.57-67.26.004.042-.165c4.383-17.462 8.915-35.519 13.118-53.366 5.797-24.619 9.967-36.833 41.134-45.387.801-.22 1.557-.581 2.231-1.065l36.542-26.249c2.887-2.074 6.433-2.896 9.978-2.315 3.547.582 6.643 2.492 8.717 5.379 4.309 6 2.935 14.386-3.065 18.695l-48.563 34.885c-3.14 2.255-3.857 6.629-1.601 9.769 2.254 3.14 6.628 3.856 9.769 1.601l48.562-34.883c12.269-8.813 15.081-25.964 6.268-38.233-1.489-2.073-3.216-3.876-5.117-5.398l23.746-56.05c7.533-17.782 16.896-26.566 25.036-23.509 7.048 2.648 12.967 14.053 9.825 23.587zm7.852-148.624h-56.193l-14.11-24.44 14.11-24.439h56.193c2.505 0 4.819-1.339 6.068-3.51s1.242-4.845-.018-7.01c-12.436-21.374-35.504-34.651-60.203-34.651-27.42 0-52.339 16.3-63.492 41.038h-244.71c-11.154-24.737-36.073-41.038-63.493-41.038-24.699 0-47.767 13.278-60.202 34.651-1.26 2.165-1.267 4.838-.018 7.01 1.249 2.171 3.563 3.51 6.068 3.51h56.192l14.11 24.439-14.11 24.44h-56.192c-2.505 0-4.819 1.339-6.068 3.51s-1.242 4.845.018 7.01c12.436 21.373 35.504 34.65 60.203 34.65 27.42 0 52.339-16.3 63.492-41.039h244.711c11.153 24.738 36.072 41.039 63.492 41.039 24.699 0 47.767-13.277 60.203-34.65 1.26-2.165 1.267-4.839.018-7.01-1.25-2.171-3.564-3.51-6.069-3.51zm-54.153 31.17c-23.234 0-44.221-14.648-52.223-36.45-1.011-2.756-3.635-4.588-6.571-4.588h-254.107c-2.936 0-5.56 1.832-6.571 4.588-8.001 21.802-28.988 36.45-52.223 36.45-15.282 0-29.785-6.365-40.166-17.17h46.247c2.501 0 4.812-1.334 6.062-3.5l18.152-31.44c1.25-2.166 1.25-4.834 0-7l-18.151-31.439c-1.25-2.166-3.561-3.5-6.062-3.5h-46.248c10.381-10.806 24.884-17.171 40.166-17.171 23.234 0 44.221 14.648 52.223 36.45 1.011 2.756 3.635 4.588 6.571 4.588h254.107c2.936 0 5.56-1.832 6.571-4.588 8.002-21.802 28.989-36.45 52.223-36.45 15.282 0 29.785 6.365 40.166 17.17h-46.248c-2.501 0-4.812 1.334-6.062 3.5l-18.151 31.44c-1.25 2.166-1.25 4.834 0 7l18.151 31.44c1.25 2.166 3.561 3.5 6.062 3.5h46.248c-10.381 10.805-24.884 17.17-40.166 17.17zm-153.613 181.762c4.37-1.809 10.853-1.931 15.94 3.156 2.535 2.535 5.905 3.931 9.49 3.931s6.956-1.396 9.49-3.931l13.824-13.824c5.232-5.232 5.232-13.747 0-18.98-5.088-5.088-4.966-11.57-3.156-15.94s6.308-9.04 13.503-9.04c7.4 0 13.42-6.021 13.42-13.421v-19.548c0-7.4-6.021-13.421-13.42-13.421-7.195 0-11.693-4.669-13.503-9.04s-1.932-10.853 3.157-15.941c5.231-5.232 5.231-13.747 0-18.979l-13.823-13.823c-2.535-2.535-5.905-3.931-9.49-3.931s-6.956 1.396-9.49 3.931c-5.089 5.088-11.571 4.966-15.94 3.156-4.37-1.81-9.04-6.308-9.04-13.503 0-7.4-6.021-13.42-13.421-13.42h-19.548c-7.4 0-13.421 6.021-13.421 13.42 0 7.195-4.669 11.693-9.04 13.503-4.37 1.811-10.854 1.932-15.94-3.156-2.535-2.535-5.905-3.931-9.49-3.931s-6.956 1.396-9.49 3.931l-13.824 13.824c-5.231 5.232-5.231 13.747 0 18.979 5.088 5.088 4.967 11.57 3.156 15.94-1.81 4.37-6.308 9.04-13.503 9.04-7.4 0-13.42 6.021-13.42 13.421v19.548c0 7.4 6.021 13.421 13.42 13.421 7.196 0 11.693 4.669 13.503 9.04s1.932 10.853-3.157 15.941c-5.232 5.232-5.232 13.747 0 18.98l13.823 13.823c2.535 2.535 5.905 3.931 9.49 3.931s6.956-1.396 9.49-3.931c4.328-4.33 10.291-5.515 15.947-3.171 5.656 2.343 9.033 7.396 9.033 13.519 0 7.4 6.021 13.42 13.421 13.42h19.548c7.4 0 13.421-6.021 13.421-13.42.001-7.196 4.67-11.693 9.04-13.504zm-23.034 12.924h-18.401c-.218-11.552-6.947-21.432-17.67-25.874-10.724-4.441-22.467-2.214-30.791 5.801l-13.013-13.012c8.007-8.315 10.229-20.056 5.786-30.784s-14.317-17.458-25.858-17.677v-18.401c11.542-.218 21.415-6.949 25.858-17.676 4.443-10.728 2.221-22.47-5.786-30.785l13.012-13.012c8.316 8.007 20.056 10.229 30.784 5.786 10.728-4.444 17.458-14.317 17.677-25.858h18.402c.218 11.542 6.949 21.415 17.677 25.858 10.728 4.444 22.469 2.221 30.784-5.786l13.012 13.012c-8.007 8.315-10.229 20.057-5.785 30.784 4.443 10.728 14.316 17.458 25.858 17.677v18.401c-11.542.218-21.415 6.949-25.858 17.677-4.443 10.729-2.222 22.47 5.786 30.784l-13.013 13.012c-8.315-8.006-20.057-10.229-30.784-5.785-10.728 4.443-17.459 14.317-17.677 25.858zm44.765-90.747c0-29.756-24.209-53.965-53.965-53.965s-53.965 24.208-53.965 53.965 24.208 53.965 53.965 53.965 53.965-24.208 53.965-53.965zm-53.965 39.966c-22.037 0-39.965-17.928-39.965-39.965s17.928-39.965 39.965-39.965 39.965 17.928 39.965 39.965-17.928 39.965-39.965 39.965z" fill="#ea1b29" fill-opacity="1" data-original-color="#000000ff" stroke="none" stroke-opacity="1"/></g></svg>