<svg clip-rule="evenodd" fill-rule="evenodd" height="300" image-rendering="optimizeQuality" shape-rendering="geometricPrecision" text-rendering="geometricPrecision" viewBox="0 0 700 700" width="300" xmlns="http://www.w3.org/2000/svg" version="1.1" xmlns:xlink="http://www.w3.org/1999/xlink" xmlns:svgjs="http://svgjs.dev/svgjs"><g width="100%" height="100%" transform="matrix(1,0,0,1,0,0)"><g id="Layer_x0020_1" fill="#000002"><path d="m417.37 315.798h-14.3563c-3.31181 0-6.00001-2.68819-6.00001-5.99883 0-3.31181 2.69055-6.00001 6.00001-6.00001h14.3563c4.60749 0 8.36103-3.74882 8.36103-8.36221v-2.45788c0-4.60749-3.74882-8.36103-8.36103-8.36103-11.2252 0-20.361-9.13347-20.361-20.361v-2.45788c0-11.2299 9.13347-20.361 20.361-20.361l14.3622-.0011811c3.31181 0 6.00001 2.68701 6.00001 5.99883 0 3.31181-2.69174 6.00001-6.00001 6.00001h-14.3622c-4.60749 0-8.35867 3.74882-8.35867 8.36103v2.45906c0 4.60749 3.74646 8.36103 8.35867 8.36103 11.2288 0 20.3658 9.13347 20.3658 20.361v2.45788c0 11.2288-9.13229 20.3622-20.3658 20.3622z" fill="#ea1b29" fill-opacity="1" data-original-color="#000002ff" stroke="none" stroke-opacity="1"/><path d="m481.745 315.798h-28.7221c-3.31181 0-6.00001-2.68819-6.00001-5.99883v-62.3635c0-3.31181 2.69174-5.99883 6.00001-5.99883h28.7221c3.31181 0 6.00001 2.68701 6.00001 5.99883 0 3.31181-2.69174 6.00001-6.00001 6.00001h-22.7197v50.3634h22.7197c3.31181 0 6.00001 2.68819 6.00001 6.00001 0 3.31063-2.69174 5.99883-6.00001 5.99883z" fill="#ea1b29" fill-opacity="1" data-original-color="#000002ff" stroke="none" stroke-opacity="1"/><path d="m481.745 284.713h-28.7221c-3.31181 0-6.00001-2.68819-6.00001-6.00001 0-3.31063 2.69174-5.99883 6.00001-5.99883h28.7221c3.31181 0 6.00001 2.68819 6.00001 5.99883 0 3.31181-2.69174 6.00001-6.00001 6.00001z" fill="#ea1b29" fill-opacity="1" data-original-color="#000002ff" stroke="none" stroke-opacity="1"/><path d="m517.398 315.798c-11.2288 0-20.3658-9.13347-20.3658-20.361v-33.6402c0-11.2288 9.13347-20.3599 20.3658-20.3599 11.224 0 20.361 9.13229 20.361 20.3599v33.639c0 11.2288-9.13347 20.3622-20.361 20.3622zm0-62.3623c-4.60749 0-8.36221 3.74882-8.36221 8.36103v33.639c0 4.60749 3.75 8.36221 8.36221 8.36221s8.35867-3.75 8.35867-8.36221l-.00236221-33.639c0-4.60749-3.74528-8.36103-8.35631-8.36103z" fill="#ea1b29" fill-opacity="1" data-original-color="#000002ff" stroke="none" stroke-opacity="1"/><path d="m419.478 478.008c-3.31181 0-6.00001-2.69174-6.00001-6.00001v-48.9414c0-3.31181 2.69174-6.00001 6.00001-6.00001s6.00001 2.69174 6.00001 6.00001v48.9426c.00472441 3.31181-2.68701 5.99883-6.00001 5.99883z" fill="#ea1b29" fill-opacity="1" data-original-color="#000002ff" stroke="none" stroke-opacity="1"/><path d="m452.38 478.008c-3.31181 0-6.00001-2.69174-6.00001-6.00001v-80.2406c0-3.31181 2.69174-5.99883 6.00001-5.99883s5.99883 2.69055 5.99883 5.99883v80.2406c0 3.313-2.68583 6.00001-5.99883 6.00001z" fill="#ea1b29" fill-opacity="1" data-original-color="#000002ff" stroke="none" stroke-opacity="1"/><path d="m485.279 478.008c-3.31181 0-6.00001-2.69174-6.00001-6.00001v-63.3957c0-3.31181 2.69174-6.00001 6.00001-6.00001s5.99883 2.69174 5.99883 6.00001v63.3957c.00354331 3.313-2.68701 6.00001-5.99883 6.00001z" fill="#ea1b29" fill-opacity="1" data-original-color="#000002ff" stroke="none" stroke-opacity="1"/><path d="m518.186 478.008c-3.31181 0-6.00001-2.69174-6.00001-6.00001v-98.7001c0-3.31181 2.69055-6.00001 6.00001-6.00001 3.30827 0 5.99883 2.69174 5.99883 6.00001v98.6966c0 3.31654-2.68819 6.00355-5.99883 6.00355z" fill="#ea1b29" fill-opacity="1" data-original-color="#000002ff" stroke="none" stroke-opacity="1"/><path d="m416.582 399.384c-1.53307 0-3.07087-.587009-4.24489-1.75866-2.34685-2.34685-2.34685-6.14646 0-8.48741l30.489-30.4902c1.74921-1.74567 4.38662-2.24528 6.6378-1.25788l30.0355 13.0748 25.6028-29.9268c2.15906-2.51693 5.94095-2.81693 8.46261-.657875 2.51575 2.15315 2.81221 5.94095.657875 8.4567l-28.4859 33.3024c-1.72087 2.00788-4.5626 2.65276-6.95434 1.59921l-30.3603-13.2106-27.5977 27.6024c-1.17165 1.16693-2.70827 1.75394-4.24252 1.75394z" fill="#ea1b29" fill-opacity="1" data-original-color="#000002ff" stroke="none" stroke-opacity="1"/><path d="m562.668 538.034h-271.115c-3.31181 0-6.00001-2.69174-6.00001-6.00001s2.68819-6.00001 6.00001-6.00001h271.12c9.06615 0 16.4374-7.37835 16.4374-16.4398v-387.137c0-9.06615-7.37481-16.4398-16.4374-16.4398h-403.597c-9.06615 0-16.4398 7.37835-16.4398 16.4398v376.071c0 3.31181-2.68819 6.00001-6.00001 6.00001-3.31181 0-6.00001-2.69174-6.00001-6.00001l-.0011811-376.071c0-15.6827 12.7583-28.4398 28.4386-28.4398h403.6c15.6827 0 28.4398 12.7583 28.4398 28.4398v387.133c0 15.6862-12.7618 28.4445-28.4445 28.4445z" fill="#ea1b29" fill-opacity="1" data-original-color="#000002ff" stroke="none" stroke-opacity="1"/><path d="m585.109 195.968h-448.478c-3.31181 0-6.00001-2.68701-6.00001-5.99883 0-3.31181 2.68819-6.00001 6.00001-6.00001h448.478c3.31181 0 6.00001 2.68819 6.00001 6.00001 0 3.31181-2.68819 5.99883-6.00001 5.99883z" fill="#ea1b29" fill-opacity="1" data-original-color="#000002ff" stroke="none" stroke-opacity="1"/><path d="m194.881 166.512c-11.8654 0-21.5197-9.65316-21.5197-21.5197 0-11.8654 9.65316-21.5197 21.5197-21.5197 11.8665 0 21.5197 9.65198 21.5197 21.5197 0 11.8665-9.65316 21.5197-21.5197 21.5197zm0-31.0394c-5.25001 0-9.52088 4.27087-9.52088 9.52088s4.27087 9.52088 9.52088 9.52088 9.52088-4.27087 9.52088-9.52088-4.27087-9.52088-9.52088-9.52088z" fill="#ea1b29" fill-opacity="1" data-original-color="#000002ff" stroke="none" stroke-opacity="1"/><path d="m252.839 166.512c-11.8654 0-21.5197-9.65316-21.5197-21.5197 0-11.8654 9.65316-21.5197 21.5197-21.5197 11.8654 0 21.5197 9.65198 21.5197 21.5197 0 11.8665-9.65198 21.5197-21.5197 21.5197zm0-31.0394c-5.25001 0-9.5197 4.27087-9.5197 9.52088s4.26969 9.52088 9.5197 9.52088 9.52088-4.27087 9.52088-9.52088-4.27087-9.52088-9.52088-9.52088z" fill="#ea1b29" fill-opacity="1" data-original-color="#000002ff" stroke="none" stroke-opacity="1"/><path d="m310.803 166.512c-11.8654 0-21.5197-9.65316-21.5197-21.5197 0-11.8654 9.65198-21.5197 21.5197-21.5197 11.8665 0 21.5197 9.65198 21.5197 21.5197 0 11.8665-9.65316 21.5197-21.5197 21.5197zm0-31.0394c-5.25001 0-9.52088 4.27087-9.52088 9.52088s4.27087 9.52088 9.52088 9.52088 9.5197-4.27087 9.5197-9.52088-4.26969-9.52088-9.5197-9.52088z" fill="#ea1b29" fill-opacity="1" data-original-color="#000002ff" stroke="none" stroke-opacity="1"/><path d="m536.62 150.993h-124.158c-3.31063 0-5.99883-2.68819-5.99883-6.00001 0-3.31181 2.69055-6.00001 5.99883-6.00001h124.158c3.31181 0 6.00001 2.68819 6.00001 6.00001 0 3.31181-2.68701 6.00001-6.00001 6.00001z" fill="#ea1b29" fill-opacity="1" data-original-color="#000002ff" stroke="none" stroke-opacity="1"/><path d="m348.762 263.797h-131.033c-3.31063 0-5.99883-2.68819-5.99883-6.00001 0-3.31181 2.68819-6.00001 5.99883-6.00001h131.033c3.31181 0 5.99883 2.68819 5.99883 6.00001 0 3.31181-2.68583 6.00001-5.99883 6.00001z" fill="#ea1b29" fill-opacity="1" data-original-color="#000002ff" stroke="none" stroke-opacity="1"/><path d="m348.762 323.618h-131.033c-3.31063 0-5.99883-2.68819-5.99883-5.99883 0-3.31181 2.68819-6.00001 5.99883-6.00001h131.033c3.31181 0 5.99883 2.68819 5.99883 6.00001 0 3.31063-2.68583 5.99883-5.99883 5.99883z" fill="#ea1b29" fill-opacity="1" data-original-color="#000002ff" stroke="none" stroke-opacity="1"/><path d="m348.762 383.436h-131.033c-3.31063 0-5.99883-2.69055-5.99883-6.00001 0-3.30827 2.68819-5.99883 5.99883-5.99883h131.033c3.31181 0 5.99883 2.69055 5.99883 5.99883 0 3.30945-2.68583 6.00001-5.99883 6.00001z" fill="#ea1b29" fill-opacity="1" data-original-color="#000002ff" stroke="none" stroke-opacity="1"/><path d="m256.264 605.983h-73.5072c-.761812 0-1.51181-.146457-2.22047-.429922l-30.189-12.0189c-3.07914-1.22599-4.58032-4.71615-3.35433-7.79174 1.2248-3.07914 4.71142-4.58741 7.7941-3.35906l29.1201 11.5914h72.3568c3.72402 0 6.75355-3.02953 6.75355-6.74883s-3.02953-6.75001-6.75355-6.75001h-26.7733c-3.31063 0-5.99883-2.69055-5.99883-5.99883 0-3.30827 2.68819-6.00001 5.99883-6.00001h43.6524c3.72402 0 6.75355-3.02953 6.75355-6.74528 0-3.7252-3.02953-6.75001-6.75355-6.75001h-33.5646c-3.31181 0-6.00001-2.69055-6.00001-5.99883 0-3.30945 2.68819-6.00001 6.00001-6.00001h39.939c3.72402 0 6.75355-3.02953 6.75355-6.74883s-3.02953-6.75001-6.75355-6.75001h-26.628c-3.31181 0-6.00001-2.69055-6.00001-5.99883 0-3.30827 2.68819-6.00001 6.00001-6.00001h27.9272c3.72048 0 6.74883-3.02953 6.74883-6.74883s-3.02953-6.74883-6.74883-6.74883l-62.9835-.00236221c-2.13662 0-4.10788-1.13622-5.1815-2.98229-1.07599-1.84607-1.08898-4.12441-.0330709-5.98229.146457-.263386 14.5099-25.7811 15.5197-45.8504-.237402-.949607-.637796-1.90866-1.28386-2.13425-2.91615-1.02992-11.1201 2.72481-16.8815 7.69135-5.22993 4.50827-9.90828 11.341-14.8654 18.5788-10.4067 15.1902-22.2284 32.4804-43.056 31.2178-3.30827-.187795-5.83229-3.02481-5.64449-6.33308.186614-3.30827 3.00473-5.87835 6.33308-5.64568 13.9736.817324 23.0162-12.2291 32.4685-26.0233 5.16969-7.55434 10.5165-15.3614 16.9335-20.8866 6.10749-5.27127 18.9981-13.2874 28.6512-9.93663 3.41693 1.18701 7.7941 4.2 9.26576 11.8075.0874017.437008.120473.890552.103937 1.33701-.52441 15.391-7.62048 32.83-12.5114 43.1339l53.1697.0011811c10.3358 0 18.7488 8.41654 18.7488 18.7536 0 5.27008-2.18268 10.037-5.69646 13.4492 2.74607 3.26339 4.39961 7.47048 4.39961 12.0579 0 6.75828-3.5941 12.6945-8.9693 15.9933 1.65 2.7874 2.59488 6.04135 2.59488 9.50907 0 10.1327-8.07757 18.411-18.1358 18.7347.817324 2.10118 1.26378 4.37953 1.26378 6.76182-.0129921 10.3288-8.42481 18.7453-18.763 18.7453z" fill="#ea1b29" fill-opacity="1" data-original-color="#000002ff" stroke="none" stroke-opacity="1"/><path d="m152.392 593.964h-37.5059c-3.31181 0-5.99883-2.69174-5.99883-6.00001v-89.4367c0-3.31181 2.68701-5.99883 5.99883-5.99883h37.5059c3.31181 0 6.00001 2.69055 6.00001 5.99883v89.4355c0 3.313-2.68347 6.00119-6.00001 6.00119zm-31.5059-12.0047h25.5071v-77.432h-25.5071z" fill="#ea1b29" fill-opacity="1" data-original-color="#000002ff" stroke="none" stroke-opacity="1"/></g></g></svg>