<svg height="300" viewBox="0 -37 472 472" width="300" xmlns="http://www.w3.org/2000/svg" version="1.1" xmlns:xlink="http://www.w3.org/1999/xlink" xmlns:svgjs="http://svgjs.dev/svgjs"><g width="100%" height="100%" transform="matrix(1,0,0,1,0,0)"><path d="m472 105.199219v-64.65625c0-22.601563-17.699219-40.542969-39.453125-40.542969h-393.097656c-21.75 0-39.449219 17.941406-39.449219 40.542969v316.914062c0 22.601563 17.699219 40.542969 39.449219 40.542969h393.097656c21.753906 0 39.453125-17.941406 39.453125-40.542969v-252.105469c0-.027343 0-.050781 0-.078124 0-.027344 0-.050782 0-.074219zm-432.550781-89.199219h393.097656c12.929687 0 23.453125 10.761719 23.453125 24.542969v56.457031h-440v-56.457031c0-13.78125 10.519531-24.542969 23.449219-24.542969zm393.097656 366h-393.097656c-12.929688 0-23.449219-10.761719-23.449219-24.542969v-244.457031h440v244.457031c0 13.78125-10.523438 24.542969-23.453125 24.542969zm0 0" fill="#ea1b29" fill-opacity="1" data-original-color="#000000ff" stroke="none" stroke-opacity="1"/><path d="m123.308594 87.03125c15.972656 0 28.96875-13.453125 28.96875-29.992188 0-16.539062-12.996094-29.996093-28.96875-29.996093-15.96875 0-28.964844 13.457031-28.964844 29.996093 0 16.535157 12.996094 29.992188 28.964844 29.992188zm0-43.988281c7.152344 0 12.96875 6.277343 12.96875 13.996093 0 7.714844-5.816406 13.992188-12.96875 13.992188-7.148438 0-12.964844-6.277344-12.964844-13.992188 0-7.71875 5.816406-13.996093 12.964844-13.996093zm0 0" fill="#ea1b29" fill-opacity="1" data-original-color="#000000ff" stroke="none" stroke-opacity="1"/><path d="m191.449219 87.03125c15.972656 0 28.964843-13.453125 28.964843-29.992188 0-16.539062-12.992187-29.996093-28.964843-29.996093-15.972657 0-28.96875 13.457031-28.96875 29.996093 0 16.535157 12.996093 29.992188 28.96875 29.992188zm0-43.988281c7.148437 0 12.964843 6.277343 12.964843 13.996093 0 7.714844-5.816406 13.992188-12.964843 13.992188-7.152344 0-12.96875-6.277344-12.96875-13.992188 0-7.71875 5.820312-13.996093 12.96875-13.996093zm0 0" fill="#ea1b29" fill-opacity="1" data-original-color="#000000ff" stroke="none" stroke-opacity="1"/><path d="m55.171875 87.03125c15.972656 0 28.964844-13.453125 28.964844-29.992188 0-16.539062-12.992188-29.996093-28.964844-29.996093s-28.964844 13.457031-28.964844 29.996093c0 16.535157 12.992188 29.992188 28.964844 29.992188zm0-43.988281c7.148437 0 12.964844 6.277343 12.964844 13.996093 0 7.714844-5.816407 13.992188-12.964844 13.992188s-12.964844-6.277344-12.964844-13.992188c0-7.71875 5.816407-13.996093 12.964844-13.996093zm0 0" fill="#ea1b29" fill-opacity="1" data-original-color="#000000ff" stroke="none" stroke-opacity="1"/><path d="m326 177c0-4.417969-3.582031-8-8-8h-164c-4.417969 0-8 3.582031-8 8v164c0 4.417969 3.582031 8 8 8h164c4.417969 0 8-3.582031 8-8zm-108 8h36v21.316406l-15.246094-5.316406c-1.769531-.601562-3.6875-.601562-5.453125 0l-15.300781 5.316406zm92 148h-148v-148h40v32.601562c.050781 2.605469 1.34375 5.03125 3.480469 6.523438 2.136719 1.496094 4.859375 1.875 7.324219 1.023438l23.167968-8.121094 23.15625 8.121094c.851563.300781 1.75.453124 2.652344.453124 1.695312 0 3.34375-.515624 4.738281-1.476562 2.144531-1.488281 3.4375-3.917969 3.480469-6.523438v-32.601562h40zm0 0" fill="#ea1b29" fill-opacity="1" data-original-color="#000000ff" stroke="none" stroke-opacity="1"/><path d="m196.636719 265h51.578125c4.417968 0 8-3.582031 8-8s-3.582032-8-8-8h-51.578125c-4.421875 0-8 3.582031-8 8s3.578125 8 8 8zm0 0" fill="#ea1b29" fill-opacity="1" data-original-color="#000000ff" stroke="none" stroke-opacity="1"/><path d="m196.636719 277c-4.421875 0-8 3.582031-8 8s3.578125 8 8 8h78.726562c4.417969 0 8-3.582031 8-8s-3.582031-8-8-8zm0 0" fill="#ea1b29" fill-opacity="1" data-original-color="#000000ff" stroke="none" stroke-opacity="1"/></g></svg>