<svg clip-rule="evenodd" fill-rule="evenodd" height="300" image-rendering="optimizeQuality" shape-rendering="geometricPrecision" text-rendering="geometricPrecision" viewBox="0 0 5.12 5.12" width="300" xmlns="http://www.w3.org/2000/svg" version="1.1" xmlns:xlink="http://www.w3.org/1999/xlink" xmlns:svgjs="http://svgjs.dev/svgjs"><g width="100%" height="100%" transform="matrix(1,0,0,1,0,0)"><g id="Layer_x0020_1"><g id="_558352808"><g><path id="_558355568" d="m4.8158 3.51697c-.0294567 0-.0533307-.023874-.0533307-.0533307v-2.34612h-.595264c-.0294606 0-.0533346-.023874-.0533346-.0533307 0-.0294606.023874-.0533346.0533346-.0533346h.648594c.0294606 0 .0533346.023874.0533346.0533346v2.39945c0 .0294567-.023874.0533307-.0533346.0533307zm-4.51159 0c-.0294606 0-.0533346-.023874-.0533346-.0533307v-2.39945c0-.0294606.023874-.0533346.0533346-.0533346h.648594c.0294606 0 .0533346.023874.0533346.0533346 0 .0294567-.023874.0533307-.0533346.0533307h-.595264v2.34612c0 .0294567-.0238898.0533307-.0533307.0533307z" fill="#ea1b29" fill-opacity="1" data-original-color="#000000ff" stroke="none" stroke-opacity="1"/></g><g><path id="_558354800" d="m4.8158 3.98604h-4.51159c-.0294606 0-.0533346-.023874-.0533346-.0533346v-.469067c0-.0294606.023874-.0533346.0533346-.0533346h4.51159c.0294606 0 .0533346.023874.0533346.0533346v.469067c0 .0294606-.023874.0533346-.0533346.0533346zm-4.45826-.106665h4.40493v-.362413h-4.40493z" fill="#ea1b29" fill-opacity="1" data-original-color="#000000ff" stroke="none" stroke-opacity="1"/></g><g><path id="_558354848" d="m3.4405 4.52019c-.0199606 0-.0390827-.011248-.0482205-.0304567l-.253669-.534134c-.0126417-.0266102-.00130709-.0584134.0252913-.0710551.0266496-.0126496.0584134-.00130709.0710551.0252913l.253669.534134c.0126378.0266102.00130709.0584134-.0252913.0710551-.00737795.00351181-.0151654.00516535-.0228346.00516535zm-1.76099 0c-.00766929 0-.0154567-.00165354-.0228425-.00516535-.0266102-.0126417-.0379331-.0444449-.0252913-.0710551l.253665-.534134c.0126417-.0266102.0444567-.0379331.0710551-.0252913.0265984.0126417.0379331.0444449.0252913.0710551l-.253665.534134c-.00912992.0192087-.0282677.0304567-.0482126.0304567z" fill="#ea1b29" fill-opacity="1" data-original-color="#000000ff" stroke="none" stroke-opacity="1"/></g><g><path id="_558354680" d="m3.72859 4.8403h-2.33716c-.0294567 0-.0533307-.023874-.0533307-.0533346v-.320126c0-.0294567.023874-.0533307.0533307-.0533307h2.33717c.0294567 0 .0533307.023874.0533307.0533307v.320126c-.00001575.0294606-.023874.0533346-.0533465.0533346zm-2.28384-.106669h2.2305v-.213457h-2.2305z" fill="#ea1b29" fill-opacity="1" data-original-color="#000000ff" stroke="none" stroke-opacity="1"/></g><g><path id="_558354728" d="m4.16721 2.88226h-3.2144c-.0294606 0-.0533346-.023874-.0533346-.0533307v-1.91994c0-.0294606.023874-.0533346.0533346-.0533346s.0533346.023874.0533346.0533346v1.8666l3.10773.00000394v-1.86661c0-.0294606.023874-.0533346.0533346-.0533346s.0533346.023874.0533346.0533346v1.91993c-.00001181.0294764-.023874.0533386-.0533346.0533386z" fill="#ea1b29" fill-opacity="1" data-original-color="#000000ff" stroke="none" stroke-opacity="1"/></g><g><path id="_558354776" d="m4.16721.962319h-3.2144c-.0294606 0-.0533346-.023874-.0533346-.0533346v-.575957c0-.0294567.023874-.0533307.0533346-.0533307h3.2144c.0294606 0 .0533346.023874.0533346.0533307v.575941c-.00001181.0294606-.023874.0533504-.0533346.0533504zm-3.16107-.106669h3.10773v-.469287h-3.10773z" fill="#ea1b29" fill-opacity="1" data-original-color="#000000ff" stroke="none" stroke-opacity="1"/></g><g><path id="_558355088" d="m1.42042.674346h-.159602c-.0294567 0-.0533307-.023874-.0533307-.0533346s.023874-.0533346.0533307-.0533346h.159602c.0294567 0 .0533307.023874.0533307.0533346s-.023874.0533346-.0533307.0533346z" fill="#ea1b29" fill-opacity="1" data-original-color="#000000ff" stroke="none" stroke-opacity="1"/></g><g><path id="_558354944" d="m1.86422.674346h-.159598c-.0294606 0-.0533346-.023874-.0533346-.0533346s.023874-.0533346.0533346-.0533346h.159598c.0294606 0 .0533346.023874.0533346.0533346s-.0238898.0533346-.0533346.0533346z" fill="#ea1b29" fill-opacity="1" data-original-color="#000000ff" stroke="none" stroke-opacity="1"/></g><g><path id="_558355064" d="m2.30801.674346h-.159594c-.0294606 0-.0533346-.023874-.0533346-.0533346s.023874-.0533346.0533346-.0533346h.159594c.0294606 0 .0533346.023874.0533346.0533346s-.023874.0533346-.0533346.0533346z" fill="#ea1b29" fill-opacity="1" data-original-color="#000000ff" stroke="none" stroke-opacity="1"/></g><g><path id="_558354032" d="m2.35193 3.22167h-1.18904c-.0294606 0-.0533307-.023874-.0533307-.0533346 0-.0294567.0238701-.0533307.0533307-.0533307h1.18904c.0294606 0 .0533307.023874.0533307.0533307 0 .0294606-.0238858.0533346-.0533307.0533346z" fill="#ea1b29" fill-opacity="1" data-original-color="#000000ff" stroke="none" stroke-opacity="1"/></g><g><path id="_558353888" d="m3.95714 3.22167h-1.18904c-.0294606 0-.0533307-.023874-.0533307-.0533346 0-.0294567.0238701-.0533307.0533307-.0533307h1.18904c.0294606 0 .0533307.023874.0533307.0533307 0 .0294606-.0238701.0533346-.0533307.0533346z" fill="#ea1b29" fill-opacity="1" data-original-color="#000000ff" stroke="none" stroke-opacity="1"/></g><g><path id="_558354248" d="m2.6577 3.7515h-.195394c-.0294567 0-.0533307-.023874-.0533307-.0533346 0-.0294567.023874-.0533307.0533307-.0533307h.195394c.0294567 0 .0533307.023874.0533307.0533307 0 .0294606-.023874.0533346-.0533307.0533346z" fill="#ea1b29" fill-opacity="1" data-original-color="#000000ff" stroke="none" stroke-opacity="1"/></g><g><path id="_558354224" d="m5.06665 2.04744c-.0294606 0-.0533346-.023874-.0533346-.0533307v-.929929c0-.0294606.023874-.0533346.0533346-.0533346.0294567 0 .0533307.023874.0533307.0533346v.929929c0 .0294528-.023874.0533307-.0533307.0533307z" fill="#ea1b29" fill-opacity="1" data-original-color="#000000ff" stroke="none" stroke-opacity="1"/></g><g><path id="_558353696" d="m.0533504 3.98604c-.0294567 0-.0533307-.023874-.0533307-.0533346v-.929909c0-.0294606.023874-.0533346.0533307-.0533346.0294606 0 .0533346.023874.0533346.0533346v.929909c0 .0294606-.023874.0533346-.0533346.0533346z" fill="#ea1b29" fill-opacity="1" data-original-color="#000000ff" stroke="none" stroke-opacity="1"/></g><g><path id="_558354392" d="m3.10506 1.8522c-.0294567 0-.0533307-.023874-.0533307-.0533346 0-.317433-.258264-.575693-.575693-.575693-.0294606 0-.0533346-.023874-.0533346-.0533346 0-.0294567.023874-.0533307.0533346-.0533307.376248 0 .682343.306098.682343.682343.00001575.0294764-.0238583.0533504-.0533189.0533504z" fill="#ea1b29" fill-opacity="1" data-original-color="#000000ff" stroke="none" stroke-opacity="1"/></g><g><path id="_558354200" d="m3.10507 1.8522c-.0142087 0-.0283858-.0056378-.0388858-.0168031-.0201693-.0214724-.0191142-.0552244.0023622-.0753937l.168043-.157862c.0214685-.0201654.0552205-.0190945.0753898.00234646.0201693.0214724.0191142.0552244-.0023622.0753937l-.168043.157862c-.0102992.00966142-.0234213.0144567-.0365039.0144567z" fill="#ea1b29" fill-opacity="1" data-original-color="#000000ff" stroke="none" stroke-opacity="1"/></g><g><path id="_558354344" d="m3.10501 1.85161c-.00984646 0-.0198071-.00272441-.0287087-.00843307l-.209276-.134039c-.0247913-.0158898-.0320236-.048878-.0161339-.0736693.015874-.0248031.048874-.0320433.0736772-.0161535l.209276.134043c.0247913.0158898.0320276.048874.0161378.0736693-.010185.0159055-.0273937.0245827-.0449724.0245827z" fill="#ea1b29" fill-opacity="1" data-original-color="#000000ff" stroke="none" stroke-opacity="1"/></g><g><path id="_558353096" d="m2.47489 2.48109c-.115693 0-.232831-.0293898-.340024-.0912717-.0255118-.0147362-.034252-.0473504-.0195276-.0728622.0147362-.0255118.0473898-.0342362.0728622-.0195276.274917.158724.627665.0641929.786409-.210709.0147244-.0255118.0473504-.0342598.0728465-.0195276.0255118.0147362.034252.0473504.0195118.0728622-.126232.21865-.356087.341035-.592079.341035z" fill="#ea1b29" fill-opacity="1" data-original-color="#000000ff" stroke="none" stroke-opacity="1"/></g><g><path id="_558353288" d="m2.21418 2.62141c-.0241929 0-.0460984-.0165669-.051874-.0411575l-.0526811-.224453c-.00673622-.0286693.0110551-.057378.0397362-.0641102.0286929-.00673622.057374.0110551.0641102.0397362l.0526811.224445c.00673622.0286811-.0110551.057374-.0397362.0641102-.00409843.00097244-.00820866.00142913-.0122362.00142913z" fill="#ea1b29" fill-opacity="1" data-original-color="#000000ff" stroke="none" stroke-opacity="1"/></g><g><path id="_558353360" d="m2.16211 2.39727c-.0193071 0-.0379331-.0104961-.0474173-.0288346-.0135433-.0261496-.00330709-.0583465.0228425-.071874l.220724-.114236c.0261693-.0135433.0583465-.00330709.071874.0228465.0135433.0261535.00330709.0583465-.0228465.071874l-.22072.114236c-.00783465.00405906-.0162126.00598819-.0244567.00598819z" fill="#ea1b29" fill-opacity="1" data-original-color="#000000ff" stroke="none" stroke-opacity="1"/></g><g><path id="_558353504" d="m1.93134 2.16673c-.0184291 0-.0363622-.00957087-.0462362-.0266811-.0911378-.157846-.115346-.34172-.0681654-.517787.0471811-.176059.160083-.323209.317929-.414335.0254843-.014752.058126-.006.0728622.0195276.0147244.0255.00598425.058126-.0195276.0728583-.133165.0768898-.228429.201028-.268236.349555-.0398071.148539-.019374.303677.0575118.436843.0147244.0255.00598425.058126-.0195276.0728583-.00838976.00485039-.0175709.00716142-.0266102.00716142z" fill="#ea1b29" fill-opacity="1" data-original-color="#000000ff" stroke="none" stroke-opacity="1"/></g><g><path id="_558353072" d="m2.16155 1.30747c-.00511024 0-.0102913-.00073622-.0154331-.00229528l-.220732-.0665984c-.0281929-.00851575-.0441693-.0382638-.0356535-.0664724.00851575-.0281929.0382953-.0441772.0664724-.0356535l.220732.0665984c.0281969.00851575.0441693.0382638.0356535.0664724-.00695276.0230551-.028126.0379488-.0510394.0379488z" fill="#ea1b29" fill-opacity="1" data-original-color="#000000ff" stroke="none" stroke-opacity="1"/></g><g><path id="_558353600" d="m2.14962 1.55603c-.00083465 0-.00165354-.00001575-.0025-.00005906-.0294173-.00135827-.0521772-.0263031-.0508189-.0557362l.0114331-.248264c.00135039-.0294173.026126-.0522087.0557362-.0508189.0294173.0013622.0521811.0263071.0508189.0557402l-.0114331.24826c-.00132283.0285827-.0249173.050878-.0532362.050878z" fill="#ea1b29" fill-opacity="1" data-original-color="#000000ff" stroke="none" stroke-opacity="1"/></g><g><path id="_558353408" d="m1.61861 1.45007h-.404512c-.0294606 0-.0533346-.0238701-.0533346-.0533307v-.256945c0-.0294567.023874-.0533307.0533346-.0533307h.404512c.0294606 0 .0533346.023874.0533346.0533307v.256945c-.00001575.0294528-.0238898.0533307-.0533346.0533307zm-.351181-.106654h.297846v-.15028h-.297846z" fill="#ea1b29" fill-opacity="1" data-original-color="#000000ff" stroke="none" stroke-opacity="1"/></g><g><path id="_558353120" d="m3.90592 1.45007h-.404512c-.0294606 0-.0533346-.0238701-.0533346-.0533307v-.256945c0-.0294567.023874-.0533307.0533346-.0533307h.404512c.0294606 0 .0533346.023874.0533346.0533307v.256945c0 .0294528-.023874.0533307-.0533346.0533307zm-.351177-.106654h.297846v-.15028h-.297846z" fill="#ea1b29" fill-opacity="1" data-original-color="#000000ff" stroke="none" stroke-opacity="1"/></g><g><path id="_558352304" d="m1.61861 2.65145h-.404512c-.0294606 0-.0533346-.023874-.0533346-.0533307v-.256945c0-.0294606.023874-.0533346.0533346-.0533346h.404512c.0294606 0 .0533346.023874.0533346.0533346v.256945c-.00001575.0294567-.0238898.0533307-.0533346.0533307zm-.351181-.10665h.297846v-.150276h-.297846z" fill="#ea1b29" fill-opacity="1" data-original-color="#000000ff" stroke="none" stroke-opacity="1"/></g><g><path id="_558352640" d="m3.90592 2.65145h-.404512c-.0294606 0-.0533346-.023874-.0533346-.0533307v-.256945c0-.0294606.023874-.0533346.0533346-.0533346h.404512c.0294606 0 .0533346.023874.0533346.0533346v.256945c0 .0294567-.023874.0533307-.0533346.0533307zm-.351177-.10665h.297846v-.150276h-.297846z" fill="#ea1b29" fill-opacity="1" data-original-color="#000000ff" stroke="none" stroke-opacity="1"/></g></g></g></g></svg>