<svg id="Layer_1" enable-background="new 0 0 66 66" height="300" viewBox="0 0 66 66" width="300" xmlns="http://www.w3.org/2000/svg" version="1.1" xmlns:xlink="http://www.w3.org/1999/xlink" xmlns:svgjs="http://svgjs.dev/svgjs"><g width="100%" height="100%" transform="matrix(1,0,0,1,0,0)"><g><path d="m49.63 6.98c0-.46-.37-.83-.83-.83h-41.49c-.46 0-.83.37-.83.83v3.42c0 .46.37.83.83.83h41.49c.46 0 .83-.37.83-.83zm-1.65 2.6h-39.84v-1.77h39.84z" fill="#ea1b29" fill-opacity="1" data-original-color="#000000ff" stroke="none" stroke-opacity="1"/><path d="m7.31 13.98c-.46 0-.83.37-.83.83s.37.83.83.83h11.64c.46 0 .83-.37.83-.83s-.37-.83-.83-.83z" fill="#ea1b29" fill-opacity="1" data-original-color="#000000ff" stroke="none" stroke-opacity="1"/><path d="m48.8 13.98h-11.64c-.46 0-.83.37-.83.83s.37.83.83.83h11.64c.46 0 .83-.37.83-.83s-.37-.83-.83-.83z" fill="#ea1b29" fill-opacity="1" data-original-color="#000000ff" stroke="none" stroke-opacity="1"/><path d="m61.24 31.2h-24.16c-1.73 0-3.14 1.41-3.14 3.14v26.64c0 1.73 1.41 3.14 3.14 3.14h24.16c1.73 0 3.14-1.41 3.14-3.14v-26.64c.01-1.73-1.4-3.14-3.14-3.14zm1.49 29.78c0 .82-.67 1.49-1.49 1.49h-24.16c-.82 0-1.49-.67-1.49-1.49v-26.64c0-.82.67-1.49 1.49-1.49h24.16c.82 0 1.49.67 1.49 1.49z" fill="#ea1b29" fill-opacity="1" data-original-color="#000000ff" stroke="none" stroke-opacity="1"/><path d="m59.52 39.64h-20.72c-.46 0-.83.37-.83.83v7.35c0 .46.37.83.83.83h20.72c.46 0 .83-.37.83-.83v-7.35c0-.47-.37-.83-.83-.83zm-.82 7.35h-19.07v-5.7h19.07z" fill="#ea1b29" fill-opacity="1" data-original-color="#000000ff" stroke="none" stroke-opacity="1"/><path d="m59.52 50.62h-20.72c-.46 0-.83.37-.83.83v7.35c0 .46.37.83.83.83h20.72c.46 0 .83-.37.83-.83v-7.35c0-.46-.37-.83-.83-.83zm-.82 7.35h-19.07v-5.7h19.07z" fill="#ea1b29" fill-opacity="1" data-original-color="#000000ff" stroke="none" stroke-opacity="1"/><path d="m59.52 35.67h-2.51c-.46 0-.83.37-.83.83s.37.83.83.83h2.51c.46 0 .83-.37.83-.83s-.37-.83-.83-.83z" fill="#ea1b29" fill-opacity="1" data-original-color="#000000ff" stroke="none" stroke-opacity="1"/><path d="m51.77 37.33h2.51c.46 0 .83-.37.83-.83s-.37-.83-.83-.83h-2.51c-.46 0-.83.37-.83.83s.37.83.83.83z" fill="#ea1b29" fill-opacity="1" data-original-color="#000000ff" stroke="none" stroke-opacity="1"/><path d="m28.18 27.12c-4.46 0-8.15 3.41-8.56 7.77h-3.31c.01-.15.02-.3.03-.46.01-.23-.07-.46-.23-.63l-4.3-4.4 2.72-4.73 5.98 1.53c.24.06.49.01.69-.13.68-.49 1.39-.89 2.15-1.24.22-.1.39-.3.45-.53l1.65-5.95h5.46l1.65 5.95c.06.23.23.43.45.53.78.36 1.5.78 2.14 1.24.2.14.45.19.69.13l5.97-1.53 2.3 3.98c.23.39.73.53 1.13.3s.53-.73.3-1.13l-2.62-4.53c-.19-.32-.56-.48-.92-.39l-6.21 1.6c-.54-.37-1.13-.71-1.75-1.01l-1.72-6.19c-.1-.36-.42-.6-.8-.6h-6.72c-.37 0-.7.25-.8.6l-1.7 6.2c-.61.3-1.2.63-1.76 1.01l-6.22-1.6c-.36-.09-.74.07-.92.39l-3.34 5.81c-.18.32-.13.72.13.99l4.48 4.58c0 .07 0 .13-.01.2h-11.39v-29.77c0-.87.71-1.58 1.59-1.58h46.64c.88 0 1.59.71 1.59 1.58v23.14c0 .46.37.83.83.83s.83-.37.83-.83v-23.14c0-1.78-1.45-3.23-3.24-3.23h-46.65c-1.79 0-3.24 1.45-3.24 3.23v34c0 1.79 1.45 3.24 3.24 3.24h15.91v4.52h-1.07c-2.02 0-3.66 1.64-3.66 3.66v2.08c0 .46.37.83.83.83h14.12c.46 0 .83-.37.83-.83s-.37-.83-.83-.83h-13.29v-1.25c0-1.11.9-2.01 2.01-2.01h11.29c.46 0 .83-.37.83-.83s-.37-.83-.83-.83h-8.57v-4.52h8.57c.46 0 .83-.37.83-.83s-.37-.83-.83-.83h-26.14c-.88 0-1.59-.71-1.59-1.59v-2.56h27.72c.46 0 .83-.37.83-.83s-.37-.83-.83-.83h-9.71c.41-3.44 3.34-6.12 6.9-6.12 1.61 0 3.14.55 4.41 1.6.35.29.87.24 1.16-.11s.24-.87-.11-1.16c-1.57-1.27-3.46-1.96-5.46-1.96z" fill="#ea1b29" fill-opacity="1" data-original-color="#000000ff" stroke="none" stroke-opacity="1"/></g></g></svg>