<svg id="Layer_1" height="300" viewBox="0 0 512 512" width="300" xmlns="http://www.w3.org/2000/svg" version="1.1" xmlns:xlink="http://www.w3.org/1999/xlink" xmlns:svgjs="http://svgjs.dev/svgjs"><g width="100%" height="100%" transform="matrix(1,0,0,1,0,0)"><g id="_x37_0_x2C__Computer_x2C__Interface_x2C__Mobile_x2C__Gear"><g><g><path d="m317.913 188.363 11.901 2.659c.813 2.679 1.883 5.265 3.203 7.733l-6.535 10.324c-1.251 1.977-.966 4.556.688 6.21l7.039 7.04c1.655 1.654 4.234 1.94 6.211.689l10.328-6.54c2.479 1.324 5.063 2.396 7.729 3.206l2.658 11.903c.513 2.285 2.539 3.91 4.881 3.91h9.966c2.342 0 4.368-1.625 4.881-3.91l2.658-11.902c2.68-.812 5.265-1.883 7.731-3.204l10.324 6.536c1.977 1.251 4.556.965 6.211-.689l7.039-7.04c1.654-1.654 1.939-4.234.688-6.21l-6.539-10.329c1.323-2.478 2.396-5.061 3.205-7.728l11.903-2.659c2.285-.511 3.91-2.539 3.91-4.88v-9.966c0-2.341-1.625-4.369-3.91-4.88l-11.903-2.659c-.811-2.667-1.882-5.25-3.205-7.728l6.539-10.329c1.251-1.977.965-4.556-.688-6.21l-7.039-7.04c-1.656-1.656-4.24-1.941-6.216-.686l-10.319 6.551c-2.456-1.315-5.04-2.389-7.729-3.211l-2.66-11.913c-.513-2.285-2.539-3.91-4.881-3.91h-9.966c-2.342 0-4.368 1.625-4.881 3.91l-2.66 11.913c-2.688.822-5.273 1.896-7.729 3.211l-10.319-6.551c-1.976-1.255-4.56-.97-6.216.686l-7.039 7.04c-1.654 1.654-1.94 4.234-.689 6.21l6.539 10.329c-1.322 2.478-2.395 5.061-3.204 7.728l-11.903 2.659c-2.284.511-3.909 2.539-3.909 4.88v9.966c-.002 2.342 1.623 4.37 3.907 4.881zm17.052-13.289c1.894-.423 3.37-1.902 3.791-3.795.82-3.692 2.28-7.214 4.339-10.468 1.032-1.633 1.032-3.715-.001-5.348l-6.021-9.511 1.377-1.377 9.51 6.037c1.639 1.041 3.733 1.038 5.371-.007 3.185-2.034 6.709-3.499 10.474-4.354 1.882-.428 3.352-1.901 3.771-3.786l2.448-10.961h1.952l2.449 10.962c.42 1.884 1.89 3.357 3.771 3.785 3.764.856 7.288 2.321 10.473 4.354 1.637 1.045 3.73 1.048 5.371.007l9.51-6.037 1.377 1.377-6.021 9.511c-1.033 1.633-1.033 3.715-.001 5.348 2.059 3.254 3.519 6.776 4.339 10.468.421 1.893 1.897 3.372 3.791 3.795l10.962 2.449v1.953l-10.962 2.449c-1.894.423-3.37 1.902-3.791 3.795-.82 3.692-2.28 7.214-4.339 10.468-1.032 1.633-1.032 3.715.001 5.348l6.021 9.511-1.381 1.381-9.512-6.022c-1.637-1.036-3.726-1.034-5.359.006-3.216 2.047-6.733 3.504-10.455 4.332-1.894.421-3.373 1.898-3.795 3.791l-2.449 10.962h-1.952l-2.448-10.961c-.423-1.893-1.901-3.37-3.795-3.791-3.692-.821-7.214-2.28-10.469-4.339-1.633-1.032-3.715-1.032-5.348.001l-9.512 6.022-1.381-1.381 6.021-9.511c1.036-1.637 1.033-3.725-.006-5.359-2.047-3.216-3.505-6.734-4.332-10.456-.421-1.893-1.897-3.372-3.791-3.795l-10.961-2.449v-1.955c16.92-3.779 8.54-1.908 10.963-2.449z" fill="#ea1b29" fill-opacity="1" data-original-color="#000000ff" stroke="none" stroke-opacity="1"/><path d="m371.017 198.477c11.008 0 19.96-8.954 19.96-19.96 0-11.024-8.952-19.994-19.96-19.994-11.023 0-19.992 8.969-19.992 19.994-.002 11.006 8.967 19.96 19.992 19.96zm0-29.954c5.492 0 9.96 4.483 9.96 9.994 0 5.492-4.468 9.96-9.96 9.96-5.511 0-9.992-4.468-9.992-9.96-.002-5.511 4.481-9.994 9.992-9.994z" fill="#ea1b29" fill-opacity="1" data-original-color="#000000ff" stroke="none" stroke-opacity="1"/><path d="m483.5 366h-35c0-7.146 0-276.896 0-290.667 0-13.417-10.916-24.333-24.334-24.333h-106.332c-13.418 0-24.334 10.916-24.334 24.333v30.667h-185c-24.813 0-45 20.187-45 45v215h-35c-2.761 0-5 2.238-5 5 0 27.57 22.43 50 50 50h365c27.57 0 50-22.43 50-50 0-2.762-2.238-5-5-5zm-45-105h-135c0-8.321 0-156.139 0-165h135zm-135 10h135v10.667c0 7.903-6.43 14.333-14.334 14.333h-106.332c-7.904 0-14.334-6.43-14.334-14.333zm14.334-210h106.332c7.904 0 14.334 6.43 14.334 14.333v10.667h-135v-10.667c0-7.903 6.43-14.333 14.334-14.333zm-209.334 55h185v165.667c0 13.417 10.916 24.333 24.334 24.333h106.332c5.355 0 10.311-1.743 14.334-4.688v34.688h-365v-185c0-19.299 15.701-35 35-35zm-35 230h365v20h-365zm365 65h-365c-20.363 0-37.22-15.296-39.689-35h444.378c-2.468 19.704-19.326 35-39.689 35z" fill="#ea1b29" fill-opacity="1" data-original-color="#000000ff" stroke="none" stroke-opacity="1"/><path d="m185.676 218.93 32.347-32.348-1.961 17.653c-.731 6.575 9.208 7.68 9.939 1.104l3.535-31.82c.355-3.194-2.378-5.873-5.521-5.521l-31.82 3.536c-6.598.732-5.439 10.687 1.104 9.938l17.653-1.961-32.347 32.348c-4.682 4.682 2.397 11.743 7.071 7.071z" fill="#ea1b29" fill-opacity="1" data-original-color="#000000ff" stroke="none" stroke-opacity="1"/><path d="m119.052 284.003 31.82-3.536c6.578-.732 5.466-10.657-1.104-9.939l-17.652 1.963 32.347-32.347c4.672-4.672-2.387-11.752-7.071-7.071l-32.347 32.348 1.961-17.653c.73-6.565-9.207-7.685-9.938-1.104l-3.536 31.819c-.351 3.146 2.328 5.874 5.52 5.52z" fill="#ea1b29" fill-opacity="1" data-original-color="#000000ff" stroke="none" stroke-opacity="1"/><path d="m108.5 86c16.542 0 30-13.458 30-30s-13.458-30-30-30-30 13.458-30 30 13.458 30 30 30zm0-50c11.028 0 20 8.972 20 20s-8.972 20-20 20-20-8.972-20-20 8.972-20 20-20z" fill="#ea1b29" fill-opacity="1" data-original-color="#000000ff" stroke="none" stroke-opacity="1"/><path d="m378.5 436c-13.785 0-25 11.215-25 25s11.215 25 25 25 25-11.215 25-25-11.215-25-25-25zm0 40c-8.271 0-15-6.729-15-15s6.729-15 15-15 15 6.729 15 15-6.729 15-15 15z" fill="#ea1b29" fill-opacity="1" data-original-color="#000000ff" stroke="none" stroke-opacity="1"/><circle cx="461" cy="438.5" r="7.5" fill="#ea1b29" fill-opacity="1" data-original-color="#000000ff" stroke="none" stroke-opacity="1"/><circle cx="471" cy="218.5" r="7.5" fill="#ea1b29" fill-opacity="1" data-original-color="#000000ff" stroke="none" stroke-opacity="1"/><circle cx="256" cy="41" r="7.5" fill="#ea1b29" fill-opacity="1" data-original-color="#000000ff" stroke="none" stroke-opacity="1"/><circle cx="171" cy="73.5" r="7.5" fill="#ea1b29" fill-opacity="1" data-original-color="#000000ff" stroke="none" stroke-opacity="1"/><circle cx="36" cy="128.5" r="7.5" fill="#ea1b29" fill-opacity="1" data-original-color="#000000ff" stroke="none" stroke-opacity="1"/><circle cx="81" cy="448.5" r="7.5" fill="#ea1b29" fill-opacity="1" data-original-color="#000000ff" stroke="none" stroke-opacity="1"/><circle cx="276" cy="448.5" r="7.5" fill="#ea1b29" fill-opacity="1" data-original-color="#000000ff" stroke="none" stroke-opacity="1"/></g></g></g></g></svg>