<svg version="1.1" id="Capa_1" xmlns="http://www.w3.org/2000/svg" xmlns:xlink="http://www.w3.org/1999/xlink" x="0px" y="0px" viewBox="0 0 512 512" style="enable-background:new 0 0 512 512;" xml:space="preserve" width="300" height="300" xmlns:svgjs="http://svgjs.dev/svgjs"><g width="100%" height="100%" transform="matrix(1,0,0,1,0,0)"><g>
	
		<line style="stroke-linecap: round; stroke-linejoin: round; stroke-miterlimit: 10;" x1="76.51" y1="252.295" x2="193.772" y2="252.295" fill="none" fill-opacity="1" stroke="#ea1b29" stroke-opacity="1" data-original-stroke-color="#000000ff" stroke-width="15" data-original-stroke-width="15"/>
	<path style="stroke-linecap: round; stroke-linejoin: round; stroke-miterlimit: 10;" d="&#10;&#9;&#9;M207.796,395.007v50.967c0,1.984-1.609,3.592-3.592,3.592H11.092c-1.984,0-3.592-1.609-3.592-3.592V255.888&#10;&#9;&#9;c0-1.984,1.609-3.593,3.592-3.593h29.663" fill="none" fill-opacity="1" stroke="#ea1b29" stroke-opacity="1" data-original-stroke-color="#000000ff" stroke-width="15" data-original-stroke-width="15"/>
	
		<line style="stroke-linecap: round; stroke-linejoin: round; stroke-miterlimit: 10;" x1="207.796" y1="270.598" x2="207.796" y2="357.222" fill="none" fill-opacity="1" stroke="#ea1b29" stroke-opacity="1" data-original-stroke-color="#000000ff" stroke-width="15" data-original-stroke-width="15"/>
	
		<line style="stroke-linecap: round; stroke-linejoin: round; stroke-miterlimit: 10;" x1="399.719" y1="326.394" x2="364.763" y2="291.438" fill="none" fill-opacity="1" stroke="#ea1b29" stroke-opacity="1" data-original-stroke-color="#000000ff" stroke-width="15" data-original-stroke-width="15"/>
	<path style="stroke-linecap: round; stroke-linejoin: round; stroke-miterlimit: 10;" d="&#10;&#9;&#9;M402.178,254.932l94.668,94.668c10.206,10.206,10.206,26.754,0,36.96l0,0c-10.206,10.206-26.754,10.206-36.96,0l-34.263-34.263" fill="none" fill-opacity="1" stroke="#ea1b29" stroke-opacity="1" data-original-stroke-color="#000000ff" stroke-width="15" data-original-stroke-width="15"/>
	<path style="stroke-linecap: round; stroke-linejoin: round; stroke-miterlimit: 10;" d="&#10;&#9;&#9;M235.874,79.581c-36.53,21.571-61.032,61.342-61.032,106.841c0,55.136,35.992,101.872,85.768,117.986 M292.451,310.25&#10;&#9;&#9;c2.113,0.107,4.241,0.161,6.381,0.161c68.482,0,123.989-55.518,123.989-123.989c0-68.482-55.507-123.989-123.989-123.989&#10;&#9;&#9;c-12.547,0-24.658,1.863-36.072,5.328" fill="none" fill-opacity="1" stroke="#ea1b29" stroke-opacity="1" data-original-stroke-color="#000000ff" stroke-width="15" data-original-stroke-width="15"/>
	<path style="stroke-linecap: round; stroke-linejoin: round; stroke-miterlimit: 10;" d="&#10;&#9;&#9;M315.791,275.194c41.8-7.937,73.401-44.667,73.401-88.771c0-49.908-40.452-90.36-90.36-90.36s-90.36,40.452-90.36,90.36&#10;&#9;&#9;c0,46.506,35.136,84.812,80.317,89.808" fill="none" fill-opacity="1" stroke="#ea1b29" stroke-opacity="1" data-original-stroke-color="#000000ff" stroke-width="15" data-original-stroke-width="15"/>
	<g>
		<g>
			
				<polyline style="stroke-linecap: round; stroke-linejoin: round; stroke-miterlimit: 10;" points="&#10;&#9;&#9;&#9;&#9;300.905,164.033 282.037,164.033 282.037,208.812 300.905,208.812 &#9;&#9;&#9;" fill="none" fill-opacity="1" stroke="#ea1b29" stroke-opacity="1" data-original-stroke-color="#000000ff" stroke-width="15" data-original-stroke-width="15"/>
			
				<line style="stroke-linecap: round; stroke-linejoin: round; stroke-miterlimit: 10;" x1="299.514" y1="186.422" x2="282.037" y2="186.422" fill="none" fill-opacity="1" stroke="#ea1b29" stroke-opacity="1" data-original-stroke-color="#000000ff" stroke-width="15" data-original-stroke-width="15"/>
		</g>
		<g>
			<path style="stroke-linecap: round; stroke-linejoin: round; stroke-miterlimit: 10;" d="&#10;&#9;&#9;&#9;&#9;M262.872,168.472c0,0-8.109-6.816-17.672-3.936c-8.78,2.645-10.009,12.77-3.656,16.911c0,0,6.233,2.781,13.147,5.331&#10;&#9;&#9;&#9;&#9;c16.643,6.139,9.474,22.24-3.924,22.24c-6.709,0-12.34-2.938-15.748-6.699" fill="none" fill-opacity="1" stroke="#ea1b29" stroke-opacity="1" data-original-stroke-color="#000000ff" stroke-width="15" data-original-stroke-width="15"/>
		</g>
		
			<circle style="stroke-linecap: round; stroke-linejoin: round; stroke-miterlimit: 10;" cx="340.048" cy="186.422" r="22.596" fill="none" fill-opacity="1" stroke="#ea1b29" stroke-opacity="1" data-original-stroke-color="#000000ff" stroke-width="15" data-original-stroke-width="15"/>
	</g>
	<path style="stroke-linecap: round; stroke-linejoin: round; stroke-miterlimit: 10;" d="&#10;&#9;&#9;M182.825,142.565V90.65c0-4.085-3.311-7.396-7.396-7.396H39.868c-4.085,0-7.396,3.312-7.396,7.396v95.661&#10;&#9;&#9;c0,4.085,3.311,7.396,7.396,7.396h40.908c3.886,0,7.501,1.992,9.578,5.276l14.167,22.412c1.452,2.297,4.803,2.297,6.255,0&#10;&#9;&#9;l14.167-22.412c2.076-3.285,5.691-5.277,9.578-5.277h40.504" fill="none" fill-opacity="1" stroke="#ea1b29" stroke-opacity="1" data-original-stroke-color="#000000ff" stroke-width="15" data-original-stroke-width="15"/>
	<path style="stroke-linecap: round; stroke-linejoin: round; stroke-miterlimit: 10;" d="&#10;&#9;&#9;M133.994,119.679c-7.1-7.624-19.042-7.784-26.346-0.481c-7.304-7.304-19.245-7.144-26.346,0.48&#10;&#9;&#9;c-6.763,7.262-6.243,18.695,0.774,25.712l18.678,18.678c3.808,3.808,9.981,3.808,13.789,0l18.677-18.677&#10;&#9;&#9;C140.237,138.373,140.757,126.941,133.994,119.679z" fill="none" fill-opacity="1" stroke="#ea1b29" stroke-opacity="1" data-original-stroke-color="#000000ff" stroke-width="15" data-original-stroke-width="15"/>
	<g>
		
			<line style="stroke-linecap: round; stroke-linejoin: round; stroke-miterlimit: 10;" x1="48.797" y1="290.872" x2="166.273" y2="290.872" fill="none" fill-opacity="1" stroke="#ea1b29" stroke-opacity="1" data-original-stroke-color="#000000ff" stroke-width="15" data-original-stroke-width="15"/>
		
			<line style="stroke-linecap: round; stroke-linejoin: round; stroke-miterlimit: 10;" x1="48.797" y1="331.591" x2="166.273" y2="331.591" fill="none" fill-opacity="1" stroke="#ea1b29" stroke-opacity="1" data-original-stroke-color="#000000ff" stroke-width="15" data-original-stroke-width="15"/>
		
			<line style="stroke-linecap: round; stroke-linejoin: round; stroke-miterlimit: 10;" x1="48.797" y1="372.309" x2="150.026" y2="372.309" fill="none" fill-opacity="1" stroke="#ea1b29" stroke-opacity="1" data-original-stroke-color="#000000ff" stroke-width="15" data-original-stroke-width="15"/>
		
			<line style="stroke-linecap: round; stroke-linejoin: round; stroke-miterlimit: 10;" x1="48.797" y1="413.028" x2="170.883" y2="413.028" fill="none" fill-opacity="1" stroke="#ea1b29" stroke-opacity="1" data-original-stroke-color="#000000ff" stroke-width="15" data-original-stroke-width="15"/>
	</g>
	<g>
		<path style="stroke-linecap: round; stroke-linejoin: round; stroke-miterlimit: 10;" d="&#10;&#9;&#9;&#9;M189.442,407.985l-18.559,5.042l5.042-18.559c1.314-4.837,3.87-9.246,7.414-12.79l110.708-110.708&#10;&#9;&#9;&#9;c5.217-5.217,13.675-5.217,18.892,0l0,0c5.217,5.217,5.217,13.675,0,18.892L202.232,400.571&#10;&#9;&#9;&#9;C198.688,404.115,194.278,406.671,189.442,407.985z" fill="none" fill-opacity="1" stroke="#ea1b29" stroke-opacity="1" data-original-stroke-color="#000000ff" stroke-width="15" data-original-stroke-width="15"/>
	</g>
</g><g>
</g><g>
</g><g>
</g><g>
</g><g>
</g><g>
</g><g>
</g><g>
</g><g>
</g><g>
</g><g>
</g><g>
</g><g>
</g><g>
</g><g>
</g></g></svg>