<svg xmlns="http://www.w3.org/2000/svg" id="Layer_1" data-name="Layer 1" viewBox="0 0 64 64" width="300" height="300" version="1.1" xmlns:xlink="http://www.w3.org/1999/xlink" xmlns:svgjs="http://svgjs.dev/svgjs"><g width="100%" height="100%" transform="matrix(1,0,0,1,0,0)"><path d="M41.479,51.3a8.37,8.37,0,1,0-7.231,4.129,8.582,8.582,0,0,0,1.128-.075,8.32,8.32,0,0,0,4.889-2.464l5.557,4.244a.99.99,0,0,0,.606.205,1,1,0,0,0,.608-1.8Zm-6.368,2.071a6.379,6.379,0,1,1-1.693-12.646,6.4,6.4,0,0,1,.86-.058,6.38,6.38,0,0,1,.833,12.7Z" fill="#ea1b29" fill-opacity="1" data-original-color="#000000ff" stroke="none" stroke-opacity="1"/><path d="M9.545,19.388H33.1a1,1,0,0,0,0-2H9.545a1,1,0,1,0,0,2Z" fill="#ea1b29" fill-opacity="1" data-original-color="#000000ff" stroke="none" stroke-opacity="1"/><path d="M9.545,24.359h9.469a1,1,0,1,0,0-2H9.545a1,1,0,0,0,0,2Z" fill="#ea1b29" fill-opacity="1" data-original-color="#000000ff" stroke="none" stroke-opacity="1"/><path d="M23.749,22.359a1,1,0,0,0,0,2h3.669a1,1,0,0,0,0-2Z" fill="#ea1b29" fill-opacity="1" data-original-color="#000000ff" stroke="none" stroke-opacity="1"/><path d="M9.545,29.449H24.282a1,1,0,0,0,0-2H9.545a1,1,0,1,0,0,2Z" fill="#ea1b29" fill-opacity="1" data-original-color="#000000ff" stroke="none" stroke-opacity="1"/><path d="M9.545,34.657H30.082a1,1,0,0,0,0-2H9.545a1,1,0,0,0,0,2Z" fill="#ea1b29" fill-opacity="1" data-original-color="#000000ff" stroke="none" stroke-opacity="1"/><path d="M9.545,42.064h8.6a1,1,0,0,0,0-2h-8.6a1,1,0,0,0,0,2Z" fill="#ea1b29" fill-opacity="1" data-original-color="#000000ff" stroke="none" stroke-opacity="1"/><path d="M15.37,44.274H9.545a1,1,0,0,0,0,2H15.37a1,1,0,1,0,0-2Z" fill="#ea1b29" fill-opacity="1" data-original-color="#000000ff" stroke="none" stroke-opacity="1"/><path d="M12.966,49.161H9.545a1,1,0,0,0,0,2h3.421a1,1,0,1,0,0-2Z" fill="#ea1b29" fill-opacity="1" data-original-color="#000000ff" stroke="none" stroke-opacity="1"/><path d="M21.821,49.161H17.3a1,1,0,0,0,0,2h4.517a1,1,0,0,0,0-2Z" fill="#ea1b29" fill-opacity="1" data-original-color="#000000ff" stroke="none" stroke-opacity="1"/><path d="M19.85,8.24a.984.984,0,0,0,.7-.29,1,1,0,0,0,.3-.71.975.975,0,0,0-.3-.7.877.877,0,0,0-.32-.221.986.986,0,0,0-1.09.221.965.965,0,0,0-.29.7.99.99,0,0,0,.29.71A.973.973,0,0,0,19.85,8.24Z" fill="#ea1b29" fill-opacity="1" data-original-color="#000000ff" stroke="none" stroke-opacity="1"/><path d="M24.54,8.24a.986.986,0,0,0,.38-.07,1.19,1.19,0,0,0,.33-.22,1.033,1.033,0,0,0,.29-.71,1.007,1.007,0,0,0-.29-.7,1.027,1.027,0,0,0-1.42,0,1.007,1.007,0,0,0-.29.7.99.99,0,0,0,1,1Z" fill="#ea1b29" fill-opacity="1" data-original-color="#000000ff" stroke="none" stroke-opacity="1"/><path d="M29.23,8.24a1.036,1.036,0,0,0,.39-.07,1.016,1.016,0,0,0,.32-.22.99.99,0,0,0,.29-.71.965.965,0,0,0-.29-.7,1.027,1.027,0,0,0-1.42,0,1.007,1.007,0,0,0-.29.7,1.033,1.033,0,0,0,.29.71A.99.99,0,0,0,29.23,8.24Z" fill="#ea1b29" fill-opacity="1" data-original-color="#000000ff" stroke="none" stroke-opacity="1"/><path d="M33.93,8.24a.986.986,0,0,0,.38-.07,1.016,1.016,0,0,0,.32-.22,1,1,0,0,0,.3-.71.975.975,0,0,0-.3-.7,1.014,1.014,0,0,0-1.41,0,.965.965,0,0,0-.29.7.99.99,0,0,0,1,1Z" fill="#ea1b29" fill-opacity="1" data-original-color="#000000ff" stroke="none" stroke-opacity="1"/><path d="M51.5,7.59V6.26A4.26,4.26,0,0,0,47.246,2H6.526a4.26,4.26,0,0,0-4.25,4.26V57.74A4.26,4.26,0,0,0,6.526,62h40.72a4.26,4.26,0,0,0,4.25-4.26V32.153a12.488,12.488,0,0,0,0-24.563ZM6.526,4h40.72A2.258,2.258,0,0,1,49.5,6.26V7.387c-.091,0-.179-.014-.269-.014a12.43,12.43,0,0,0-8.264,3.147H4.276V6.26A2.257,2.257,0,0,1,6.526,4ZM49.5,57.74A2.258,2.258,0,0,1,47.246,60H6.526a2.257,2.257,0,0,1-2.25-2.26V12.52H39.142a12.382,12.382,0,0,0-1.536,11.921.589.589,0,0,0,.021.059,12.51,12.51,0,0,0,11.6,7.869c.09,0,.178-.012.269-.013Zm-.269-27.371A10.5,10.5,0,0,1,39.72,24.3l2.05-2.129a2.263,2.263,0,0,0,1.417.074l1.8,2.3a2.424,2.424,0,0,0-.292,1.136,2.451,2.451,0,1,0,4.721-.911l5.3-5.493a2.448,2.448,0,1,0-1.445-1.382l-5.3,5.49a2.441,2.441,0,0,0-.831-.154,2.414,2.414,0,0,0-.586.079L44.757,21a2.418,2.418,0,0,0,.29-1.132,2.45,2.45,0,1,0-4.9,0,2.422,2.422,0,0,0,.181.914l-1.337,1.387a10.494,10.494,0,1,1,10.236,8.2Z" fill="#ea1b29" fill-opacity="1" data-original-color="#000000ff" stroke="none" stroke-opacity="1"/></g></svg>