<svg id="Layer_1" enable-background="new 0 0 512 512" viewBox="0 0 512 512" xmlns="http://www.w3.org/2000/svg" width="300" height="300" version="1.1" xmlns:xlink="http://www.w3.org/1999/xlink" xmlns:svgjs="http://svgjs.dev/svgjs"><g width="100%" height="100%" transform="matrix(1,0,0,1,0,0)"><path d="m194.186 174.326 54.078-72.872-25.554 5.88c-3.839.88-7.677-1.514-8.561-5.358-.885-3.844 1.515-7.677 5.359-8.562l42.477-9.773c1.846-.424 3.787-.098 5.393.908 1.606 1.007 2.746 2.61 3.17 4.458l9.427 41.146c.881 3.845-1.522 7.675-5.367 8.557-.536.123-1.073.181-1.601.181-3.255 0-6.197-2.24-6.955-5.549l-5.582-24.363-59.388 80.027c-1.182 1.593-2.974 2.622-4.945 2.842s-3.946-.391-5.449-1.686l-49.162-42.32-51.661 66.448c-1.408 1.81-3.514 2.758-5.643 2.758-1.532 0-3.076-.491-4.379-1.504-3.114-2.421-3.676-6.908-1.255-10.022l56.269-72.375c1.2-1.544 2.982-2.528 4.928-2.722 1.944-.195 3.887.417 5.37 1.693zm21.457 137.158h-30.65-22.467-30.65-22.467-30.65-32.067c-3.944 0-7.142-3.198-7.142-7.142 0-3.945 3.198-7.142 7.142-7.142h24.925v-45.657c0-3.945 3.198-7.142 7.142-7.142h30.65c3.944 0 7.142 3.198 7.142 7.142v45.657h8.183v-103.806c0-3.945 3.198-7.142 7.142-7.142h30.65c3.944 0 7.142 3.198 7.142 7.142v103.805h8.183v-74.948c0-3.945 3.198-7.142 7.142-7.142h30.65c3.944 0 7.142 3.198 7.142 7.142v74.948h8.183v-138.215c0-3.945 3.198-7.142 7.142-7.142h30.65c3.944 0 7.142 3.198 7.142 7.142v138.215h24.925c3.944 0 7.142 3.198 7.142 7.142 0 3.945-3.198 7.142-7.142 7.142h-32.067-30.65-22.467zm29.61-14.285h16.366v-131.072h-16.366zm-142.986 0v-38.514h-16.366v38.514zm53.117 0v-96.663h-16.366v96.663zm53.117 0v-67.805h-16.366v67.805zm73.937 128.991c0 3.945-3.198 7.142-7.142 7.142h-230.773c-19.324 0-35.045-15.721-35.045-35.046v-362.74c0-19.325 15.721-35.046 35.045-35.046h396.601c19.324 0 35.045 15.721 35.045 35.046v267.408c0 3.945-3.198 7.142-7.142 7.142s-7.142-3.198-7.142-7.142v-230.223h-438.123v325.556c0 11.448 9.314 20.761 20.761 20.761h230.772c3.945 0 7.143 3.197 7.143 7.142zm-258.676-390.644v22.901h438.123v-22.901c0-11.448-9.314-20.761-20.761-20.761h-396.601c-11.447 0-20.761 9.313-20.761 20.761zm43.286 12.26c6.17 0 11.19-5.021 11.19-11.191s-5.02-11.191-11.19-11.191-11.19 5.021-11.19 11.191 5.02 11.191 11.19 11.191zm36.925 0c6.17 0 11.19-5.021 11.19-11.191s-5.02-11.191-11.19-11.191-11.19 5.021-11.19 11.191 5.02 11.191 11.19 11.191zm36.925 0c6.17 0 11.19-5.021 11.19-11.191s-5.02-11.191-11.19-11.191c-6.154 0-11.161 5.021-11.161 11.191s5.006 11.191 11.161 11.191zm290.395 156.46c0 3.945-3.198 7.142-7.142 7.142h-105.917c-3.944 0-7.142-3.198-7.142-7.142v-45.281c0-3.945 3.198-7.142 7.142-7.142h105.917c3.944 0 7.142 3.198 7.142 7.142zm-14.284-38.139h-91.633v30.996h91.633zm-98.775-59.015h65.493c3.944 0 7.142-3.198 7.142-7.142s-3.198-7.142-7.142-7.142h-65.493c-3.944 0-7.142 3.198-7.142 7.142s3.198 7.142 7.142 7.142zm0 29.956h65.493c3.944 0 7.142-3.198 7.142-7.142s-3.198-7.142-7.142-7.142h-65.493c-3.944 0-7.142 3.198-7.142 7.142s3.198 7.142 7.142 7.142zm105.917 119.968h-105.917c-3.944 0-7.142 3.198-7.142 7.142 0 3.945 3.198 7.142 7.142 7.142h105.917c3.944 0 7.142-3.198 7.142-7.142s-3.198-7.142-7.142-7.142zm0-29.956h-105.917c-3.944 0-7.142 3.198-7.142 7.142s3.198 7.142 7.142 7.142h105.917c3.944 0 7.142-3.198 7.142-7.142s-3.198-7.142-7.142-7.142zm47.44 253.49c-20.62 20.62-47.707 30.93-74.793 30.93s-54.173-10.309-74.793-30.93c-19.99-19.975-31-46.538-31-74.794 0-28.254 11.01-54.817 31-74.794 41.241-41.241 108.346-41.241 149.587 0 41.24 41.241 41.24 108.347-.001 149.588zm-10.1-139.487c-17.834-17.834-41.268-26.754-64.693-26.754-23.432 0-46.855 8.916-64.693 26.754-.001 0-.001.001-.001.002-17.292 17.278-26.815 40.253-26.815 64.691s9.523 47.413 26.815 64.691c35.673 35.674 93.716 35.674 129.388.002 35.67-35.672 35.67-93.714-.001-129.386zm-9.184 14.083c-.424-1.847-1.564-3.449-3.169-4.455-1.606-1.005-3.544-1.333-5.391-.908l-27.817 6.39c-3.844.884-6.244 4.716-5.361 8.56.883 3.843 4.71 6.245 8.56 5.362l10.177-2.338-29.826 40.239-30.119-25.928c-1.483-1.276-3.425-1.89-5.369-1.693-1.946.194-3.727 1.177-4.928 2.721l-36.867 47.392c-2.422 3.113-1.861 7.601 1.252 10.022 1.303 1.014 2.847 1.505 4.38 1.505 2.128 0 4.234-.947 5.642-2.757l32.259-41.468 30.253 26.044c1.504 1.294 3.481 1.912 5.451 1.684 1.972-.219 3.764-1.25 4.946-2.845l35.712-48.181 2.479 10.799c.76 3.307 3.7 5.546 6.955 5.546.529 0 1.067-.059 1.605-.182 3.844-.883 6.245-4.715 5.363-8.559zm-305.048-28.068h-71.507c-3.944 0-7.142 3.198-7.142 7.142 0 3.945 3.198 7.142 7.142 7.142h71.508c3.944 0 7.142-3.198 7.142-7.142-.001-3.945-3.199-7.142-7.143-7.142zm0 24.288h-71.507c-3.944 0-7.142 3.198-7.142 7.142 0 3.945 3.198 7.142 7.142 7.142h71.508c3.944 0 7.142-3.198 7.142-7.142-.001-3.944-3.199-7.142-7.143-7.142zm-99.526-24.288h-1.041c-3.944 0-7.142 3.198-7.142 7.142 0 3.945 3.198 7.142 7.142 7.142h1.041c3.944 0 7.142-3.198 7.142-7.142 0-3.945-3.198-7.142-7.142-7.142zm0 24.288h-1.041c-3.944 0-7.142 3.198-7.142 7.142 0 3.945 3.198 7.142 7.142 7.142h1.041c3.944 0 7.142-3.198 7.142-7.142s-3.198-7.142-7.142-7.142zm229.962-24.288h-71.507c-3.944 0-7.142 3.198-7.142 7.142 0 3.945 3.198 7.142 7.142 7.142h71.507c3.944 0 7.142-3.198 7.142-7.142 0-3.945-3.197-7.142-7.142-7.142zm0 24.288h-71.507c-3.944 0-7.142 3.198-7.142 7.142 0 3.945 3.198 7.142 7.142 7.142h71.507c3.944 0 7.142-3.198 7.142-7.142s-3.197-7.142-7.142-7.142zm-99.526-24.288h-1.041c-3.944 0-7.142 3.198-7.142 7.142 0 3.945 3.198 7.142 7.142 7.142h1.041c3.944 0 7.142-3.198 7.142-7.142 0-3.945-3.197-7.142-7.142-7.142zm0 24.288h-1.041c-3.944 0-7.142 3.198-7.142 7.142 0 3.945 3.198 7.142 7.142 7.142h1.041c3.944 0 7.142-3.198 7.142-7.142s-3.197-7.142-7.142-7.142z" fill="#ea1b29" fill-opacity="1" data-original-color="#000000ff" stroke="none" stroke-opacity="1"/></g></svg>