<svg id="Layer_1" enable-background="new 0 0 66 66" height="300" viewBox="0 0 66 66" width="300" xmlns="http://www.w3.org/2000/svg" version="1.1" xmlns:xlink="http://www.w3.org/1999/xlink" xmlns:svgjs="http://svgjs.dev/svgjs"><g width="100%" height="100%" transform="matrix(1,0,0,1,0,0)"><g><g><path d="m62.3 12.7h-25.2c-1.5 0-2.7 1.2-2.7 2.7v35.1c0 1.5 1.2 2.7 2.7 2.7h25.2c1.5 0 2.7-1.2 2.7-2.7v-35.1c0-1.5-1.2-2.7-2.7-2.7zm.7 37.9c0 .4-.3.7-.7.7h-25.2c-.4 0-.7-.3-.7-.7v-35.2c0-.4.3-.7.7-.7h25.2c.4 0 .7.3.7.7z" fill="#ea1b29" fill-opacity="1" data-original-color="#000000ff" stroke="none" stroke-opacity="1"/></g><g><path d="m49.7 22c-6.1 0-11 4.9-11 11 0 3.1 1.2 5.9 3.4 8l-4 3.9c-.6.6-1 1.5-.9 2.4s.6 1.7 1.3 2.2c.5.3 1.1.5 1.7.5 1 0 1.9-.5 2.5-1.3.2-.3.1-.1 2.5-5.6 1.4.6 3 1 4.5 1 6.1 0 11-4.9 11-11 0-6.2-5-11.1-11-11.1zm-8.7 25.5c-.1.2-.4.4-.6.4-.3 0-.5 0-.7-.2-.5-.3-.6-1.1-.1-1.5l3.5-3.5c-1.6 3.8-2 4.6-2.1 4.8zm8.7-5.5c-1.3 0-2.6-.3-3.8-.8.3-.7.6-1.4.9-2.2.2-.4 0-.9-.4-1.2s-.9-.2-1.3.1l-1.7 1.7c-1.8-1.7-2.8-4-2.8-6.6 0-5 4-9 9-9s9 4 9 9c.1 5-4 9-8.9 9z" fill="#ea1b29" fill-opacity="1" data-original-color="#000000ff" stroke="none" stroke-opacity="1"/></g><g><path d="m49.7 27.6c-3 0-5.4 2.4-5.4 5.3 0 3 2.4 5.4 5.3 5.4h.1c2.9 0 5.3-2.4 5.4-5.3 0-2.9-2.4-5.3-5.4-5.4zm0 8.8c-1.9 0-3.4-1.5-3.4-3.4 0-1.8 1.5-3.3 3.4-3.3 1.9 0 3.4 1.5 3.3 3.4 0 1.8-1.5 3.3-3.3 3.3z" fill="#ea1b29" fill-opacity="1" data-original-color="#000000ff" stroke="none" stroke-opacity="1"/></g><g><path d="m59 45.8c-.7 0-1.3.6-1.3 1.3s.6 1.3 1.3 1.3 1.3-.6 1.3-1.3-.5-1.3-1.3-1.3z" fill="#ea1b29" fill-opacity="1" data-original-color="#000000ff" stroke="none" stroke-opacity="1"/></g><g><path d="m59 20.2c.7 0 1.3-.6 1.3-1.3s-.6-1.3-1.3-1.3-1.3.6-1.3 1.3.6 1.3 1.3 1.3z" fill="#ea1b29" fill-opacity="1" data-original-color="#000000ff" stroke="none" stroke-opacity="1"/></g><g><path d="m40.3 20.2c.7 0 1.3-.6 1.3-1.3s-.6-1.3-1.3-1.3-1.3.6-1.3 1.3.6 1.3 1.3 1.3z" fill="#ea1b29" fill-opacity="1" data-original-color="#000000ff" stroke="none" stroke-opacity="1"/></g><g><path d="m31.6 50.6v-35.2c0-1.5-1.2-2.7-2.7-2.7h-25.2c-1.5 0-2.7 1.2-2.7 2.7v35.1c0 1.5 1.2 2.7 2.7 2.7h25.2c1.5.1 2.7-1.1 2.7-2.6zm-27.9-35.9h25.2c.4 0 .7.3.7.7v4.3h-26.6v-4.3c0-.4.3-.7.7-.7zm-.7 35.9v-28.9h26.6v28.8c0 .4-.3.7-.7.7h-25.2c-.4.1-.7-.2-.7-.6z" fill="#ea1b29" fill-opacity="1" data-original-color="#000000ff" stroke="none" stroke-opacity="1"/></g><g><path d="m5.8 18.2h.5c.6 0 1-.4 1-1s-.4-1-1-1h-.5c-.6 0-1 .4-1 1s.5 1 1 1z" fill="#ea1b29" fill-opacity="1" data-original-color="#000000ff" stroke="none" stroke-opacity="1"/></g><g><path d="m10.3 18.2h.5c.6 0 1-.4 1-1s-.4-1-1-1h-.5c-.6 0-1 .4-1 1s.5 1 1 1z" fill="#ea1b29" fill-opacity="1" data-original-color="#000000ff" stroke="none" stroke-opacity="1"/></g><g><path d="m17.1 18.2h10.7c.6 0 1-.4 1-1s-.4-1-1-1h-10.7c-.6 0-1 .4-1 1s.4 1 1 1z" fill="#ea1b29" fill-opacity="1" data-original-color="#000000ff" stroke="none" stroke-opacity="1"/></g><g><path d="m13.5 37.8c.6 0 1-.4 1-1v-11.1c0-.6-.4-1-1-1h-7.7c-.6 0-1 .4-1 1v11.1c0 .6.4 1 1 1zm-6.7-11.1h5.7v9.1h-5.7z" fill="#ea1b29" fill-opacity="1" data-original-color="#000000ff" stroke="none" stroke-opacity="1"/></g><g><path d="m26.3 24.7h-9.2c-.6 0-1 .4-1 1s.4 1 1 1h9.2c.6 0 1-.4 1-1s-.4-1-1-1z" fill="#ea1b29" fill-opacity="1" data-original-color="#000000ff" stroke="none" stroke-opacity="1"/></g><g><path d="m26.3 30.2h-9.2c-.6 0-1 .4-1 1s.4 1 1 1h9.2c.6 0 1-.4 1-1 0-.5-.4-1-1-1z" fill="#ea1b29" fill-opacity="1" data-original-color="#000000ff" stroke="none" stroke-opacity="1"/></g><g><path d="m26.3 35.8h-9.2c-.6 0-1 .4-1 1s.4 1 1 1h9.2c.6 0 1-.4 1-1 0-.5-.4-1-1-1z" fill="#ea1b29" fill-opacity="1" data-original-color="#000000ff" stroke="none" stroke-opacity="1"/></g><g><path d="m26.2 41.4h-19.8c-.6 0-1 .4-1 1s.4 1 1 1h19.8c.6 0 1-.4 1-1s-.4-1-1-1z" fill="#ea1b29" fill-opacity="1" data-original-color="#000000ff" stroke="none" stroke-opacity="1"/></g><g><path d="m26.2 47h-19.8c-.6 0-1 .4-1 1s.4 1 1 1h19.8c.6 0 1-.4 1-1s-.4-1-1-1z" fill="#ea1b29" fill-opacity="1" data-original-color="#000000ff" stroke="none" stroke-opacity="1"/></g><g><path d="m15.7 10.1c.2-.1 15.3-13.3 32.9-2.2l-3.3.8c-.5.1-.9.7-.7 1.2.1.5.7.9 1.2.7l5.4-1.4c.5-.1.9-.7.7-1.2l-1.4-5.4c-.1-.5-.7-.9-1.2-.7-.5.1-.9.7-.7 1.2l.8 2.9c-18.7-11.7-34.8 2.4-35 2.5-.4.5-.5 1.1-.1 1.5s1 .5 1.4.1z" fill="#ea1b29" fill-opacity="1" data-original-color="#000000ff" stroke="none" stroke-opacity="1"/></g><g><path d="m50.3 55.9c-.2.1-15.3 13.3-32.9 2.1l3.3-.8c.5-.1.9-.7.7-1.2-.1-.5-.7-.9-1.2-.7l-5.4 1.4c-.5.1-.9.7-.7 1.2l1.4 5.4c.1.5.7.9 1.2.7.5-.1.9-.7.7-1.2l-.8-2.9c5.5 3.4 10.7 4.6 15.4 4.6 11.3 0 19.4-7.1 19.6-7.2.4-.4.4-1 .1-1.4-.4-.3-1-.4-1.4 0z" fill="#ea1b29" fill-opacity="1" data-original-color="#000000ff" stroke="none" stroke-opacity="1"/></g></g></g></svg>