<svg id="Layer_1" enable-background="new 0 0 512 512" viewBox="0 0 512 512" xmlns="http://www.w3.org/2000/svg" width="300" height="300" version="1.1" xmlns:xlink="http://www.w3.org/1999/xlink" xmlns:svgjs="http://svgjs.dev/svgjs"><g width="100%" height="100%" transform="matrix(1,0,0,1,0,0)"><path d="m505.72 441.27h-24.85v-253.08c0-12.61-10.24-22.9-22.85-22.9h-36.78v-123.05c0-9.76-7.97-17.73-17.78-17.73h-294.92c-9.76 0-17.78 7.97-17.78 17.73v123.05h-36.78c-12.61 0-22.85 10.29-22.85 22.9v253.07h-24.85c-2.9 0-5.28 2.37-5.28 5.28v3.17c0 20.79 16.94 37.78 37.78 37.78h434.44c20.84 0 37.78-16.99 37.78-37.78v-3.17c0-2.9-2.37-5.27-5.28-5.27zm-404.41-399.03c0-3.96 3.27-7.18 7.23-7.18h294.92c3.96 0 7.23 3.22 7.23 7.18v16.99h-309.38zm0 27.54h309.38v267.43c0 3.96-3.27 7.18-7.23 7.18h-294.92c-2.32 0-4.38-1.11-5.7-2.85-.9-1.21-1.48-2.69-1.48-4.33v-166.64l-.05-.05zm-6.81 278.14c3.22 4.22 8.28 7.02 14.04 7.02h294.92c9.81 0 17.78-7.97 17.78-17.73v-142.21h29.97v227.11h-390.42v-227.11h29.97v142.21c0 4.01 1.42 7.7 3.74 10.71zm-52.82-159.73c0-6.81 5.49-12.35 12.29-12.35h36.78v8.6h-35.24c-2.9 0-5.28 2.37-5.28 5.28v237.67c0 2.95 2.37 5.28 5.28 5.28h400.98c2.9 0 5.28-2.32 5.28-5.28v-237.67c0-2.9-2.37-5.28-5.28-5.28h-35.25v-8.6h36.78c6.75 0 12.3 5.54 12.3 12.35v253.07h-428.64zm431.54 288.75h-434.44c-14.3 0-26.07-11.08-27.18-25.12h488.79c-1.1 14.04-12.87 25.12-27.17 25.12zm-174.47-306.9h77.67c10.33 0 18.73-8.4 18.73-18.73v-42.76c0-10.33-8.4-18.73-18.73-18.73h-77.67c-10.33 0-18.73 8.4-18.73 18.73v42.76c0 10.33 8.4 18.73 18.73 18.73zm-8.18-61.49c0-4.51 3.67-8.18 8.18-8.18h77.67c4.51 0 8.17 3.67 8.17 8.18v42.76c0 4.51-3.66 8.18-8.17 8.18h-77.67c-4.51 0-8.18-3.67-8.18-8.18zm31.83 44.66c1.58.91 3.3 1.36 5.03 1.36s3.46-.45 5.03-1.36l25.21-14.55c3.15-1.82 5.03-5.08 5.03-8.72s-1.89-6.9-5.03-8.72l-25.21-14.56c-3.15-1.82-6.92-1.82-10.07 0s-5.03 5.08-5.03 8.72v29.11c0 3.64 1.89 6.9 5.04 8.72zm5.52-37 24 13.59-24 13.86zm-202.46 159.27h7.27c.97 3.17 2.24 6.23 3.79 9.15l-5.15 5.15c-2.68 2.68-2.7 7.06 0 9.81l12.01 11.99c2.7 2.7 7.09 2.7 9.8 0l5.15-5.15c2.92 1.55 5.98 2.82 9.15 3.8v7.27c0 3.82 3.11 6.94 6.94 6.94h16.95c3.83 0 6.94-3.11 6.94-6.94v-7.27c3.17-.97 6.23-2.24 9.15-3.79l5.15 5.15c2.7 2.7 7.1 2.71 9.8 0l12.06-12.05c2.63-2.7 2.61-7.07-.05-9.76l-5.16-5.15c1.56-2.93 2.83-5.99 3.8-9.15h7.27c3.82 0 6.94-3.1 6.94-6.92v-16.97c0-3.82-3.11-6.94-6.94-6.94h-7.27c-.97-3.16-2.24-6.21-3.8-9.14l5.2-5.19c2.63-2.71 2.61-7.08-.05-9.76l-12.01-12.01c-2.71-2.71-7.1-2.7-9.8 0l-5.15 5.15c-2.93-1.56-5.99-2.82-9.15-3.79v-7.28c0-3.82-3.11-6.94-6.94-6.94h-16.95c-3.82 0-6.94 3.11-6.94 6.94v7.28c-3.16.97-6.21 2.23-9.15 3.79l-5.15-5.15c-2.71-2.71-7.1-2.7-9.8 0l-12 12c-2.68 2.68-2.71 7.06 0 9.82l5.14 5.13c-1.55 2.92-2.82 5.98-3.79 9.15h-7.27c-3.82 0-6.94 3.11-6.94 6.94v16.97c.01 3.82 3.12 6.92 6.95 6.92zm3.62-20.27h7.72c2.48 0 4.62-1.72 5.15-4.15 1.06-4.84 2.96-9.4 5.63-13.56 1.34-2.09 1.04-4.83-.72-6.59l-5.46-5.45 6.88-6.88 5.47 5.46c1.76 1.76 4.49 2.05 6.58.71 4.19-2.68 8.75-4.57 13.55-5.61 2.43-.53 4.16-2.67 4.16-5.16v-7.73h9.72v7.73c0 2.48 1.73 4.63 4.16 5.16 4.8 1.04 9.36 2.93 13.55 5.62 2.08 1.32 4.82 1.04 6.58-.72l5.46-5.46 6.88 6.88-5.47 5.45c-1.76 1.75-2.06 4.49-.72 6.58 2.68 4.19 4.58 8.76 5.64 13.57.53 2.42 2.67 4.15 5.15 4.15h7.71v9.72h-7.71c-2.48 0-4.62 1.72-5.15 4.15-1.06 4.82-2.95 9.38-5.63 13.57-1.34 2.09-1.04 4.82.71 6.58l5.47 5.47-6.88 6.87-5.47-5.46c-1.75-1.75-4.5-2.04-6.59-.71-4.15 2.67-8.71 4.56-13.56 5.63-2.42.53-4.14 2.68-4.14 5.15v7.71h-9.72v-7.71c0-2.48-1.73-4.62-4.14-5.15-4.85-1.07-9.41-2.96-13.56-5.62-2.08-1.34-4.82-1.06-6.59.71l-5.47 5.46-6.88-6.87 5.47-5.47c1.76-1.75 2.05-4.5.71-6.58-2.67-4.15-4.56-8.72-5.63-13.56-.53-2.42-2.67-4.15-5.15-4.15h-7.72v-9.74zm53.81 38.66c18.64 0 33.8-15.17 33.8-33.8s-15.17-33.79-33.8-33.79-33.8 15.16-33.8 33.79c0 18.64 15.16 33.8 33.8 33.8zm0-57.04c12.82 0 23.25 10.42 23.25 23.24s-10.43 23.25-23.25 23.25-23.25-10.43-23.25-23.25c0-12.81 10.43-23.24 23.25-23.24zm165.43-189.68c0 3.9-3.17 7.07-7.02 7.07-3.9 0-7.02-3.17-7.02-7.07 0-3.85 3.11-7.02 7.02-7.02 3.85 0 7.02 3.16 7.02 7.02zm25.17 0c0 3.9-3.17 7.07-7.02 7.07-3.9 0-7.02-3.17-7.02-7.07 0-3.85 3.11-7.02 7.02-7.02 3.85 0 7.02 3.16 7.02 7.02zm25.17 0c0 3.9-3.17 7.07-7.02 7.07-3.91 0-7.07-3.17-7.07-7.07 0-3.85 3.17-7.02 7.07-7.02 3.85 0 7.02 3.16 7.02 7.02zm-139.39 265.25c0-2.91 2.36-5.28 5.28-5.28h125.31c2.92 0 5.28 2.36 5.28 5.28 0 2.91-2.36 5.28-5.28 5.28h-125.31c-2.92-.01-5.28-2.37-5.28-5.28zm130.59-66.76c2.92 0 5.28 2.36 5.28 5.28 0 2.91-2.36 5.28-5.28 5.28h-59.23c-2.92 0-5.28-2.36-5.28-5.28 0-2.91 2.36-5.28 5.28-5.28zm-109.84 35.86c0-2.91 2.36-5.28 5.28-5.28h104.57c2.92 0 5.28 2.36 5.28 5.28 0 2.91-2.36 5.28-5.28 5.28h-104.58c-2.91-.01-5.27-2.37-5.27-5.28zm-156.22-159.45h62.66c2.92 0 5.28-2.36 5.28-5.28v-21.67c0-2.91-2.36-5.28-5.28-5.28h-62.66c-2.92 0-5.28 2.36-5.28 5.28v21.67c0 2.92 2.36 5.28 5.28 5.28zm5.28-21.67h52.1v11.12h-52.1zm-5.28 74.61h105.35c2.92 0 5.28-2.36 5.28-5.28v-21.67c0-2.91-2.36-5.28-5.28-5.28h-105.35c-2.92 0-5.28 2.36-5.28 5.28v21.67c0 2.92 2.36 5.28 5.28 5.28zm5.28-21.67h94.8v11.12h-94.8zm199.84 40.08c-2.92 0-5.28 2.36-5.28 5.28v21.67c0 2.91 2.36 5.28 5.28 5.28h62.66c2.92 0 5.28-2.36 5.28-5.28v-21.67c0-2.91-2.36-5.28-5.28-5.28zm57.38 21.67h-52.1v-11.12h52.1z" fill="#ea1b29" fill-opacity="1" data-original-color="#000000ff" stroke="none" stroke-opacity="1"/></g></svg>