<svg id="Layer_1" enable-background="new 0 0 53 53" viewBox="0 0 53 53" xmlns="http://www.w3.org/2000/svg" width="300" height="300" version="1.1" xmlns:xlink="http://www.w3.org/1999/xlink" xmlns:svgjs="http://svgjs.dev/svgjs"><g width="100%" height="100%" transform="matrix(1,0,0,1,0,0)"><g><g><g><g><path d="m41.0399437 26.4983177.2200928.1300049c-.5300293.2199707-1.0900879.4000244-1.670166.539978l-.5698242 2.1400146c-.0600586.2200317-.25.3699951-.4801025.3699951h-2.9799805c.2299805 0 .4200439-.1499634.4799805-.3699951l.5599365-2.1400146c1.1800537-.2799683 2.2800293-.7399902 3.2800293-1.3499756z" fill="#ea1b29" fill-opacity="1" data-original-color="#000000ff" stroke="none" stroke-opacity="1"/><path d="m38.5395508 30.1782227h-2.9794922c-.2763672 0-.5-.2236328-.5-.5s.2236328-.5.5-.5l.5566406-2.1367188c.046875-.1787109.1884766-.3164063.3681641-.359375 1.1083984-.2636719 2.1630859-.6982422 3.1347656-1.2910156.1582031-.0966797.3554688-.0976563.5136719-.0048828l1.1591797.6806641c0 .0009766.0009766.0009766.0009766.0009766l.2207031.1298828c.1630859.0957031.2578125.2763672.2451172.4658203-.0136719.1884766-.1328125.3544922-.3076172.4267578-.4628906.1914063-.9511719.3564453-1.4541016.4902344l-.4941406 1.8564453c-.1201172.4443359-.506836.7412109-.9638672.7412109zm-1.9492188-1h1.9492188l.5673828-2.1386719c.0478516-.1767578.1884766-.3144531.3662109-.3574219.2060547-.0498047.4101563-.1044922.6103516-.1650391l-.2021484-.1191406c-.9013672.5205078-1.8652344.9169922-2.8720703 1.1835938z" fill="#ea1b29" fill-opacity="1" data-original-color="#000000ff" stroke="none" stroke-opacity="1"/></g><g><path d="m39.5898705 4.9983182c.5900879.1400146 1.1501465.3200073 1.6900635.5499878l-.2399902.1300049-1.1600342.6799927c-1-.6199951-2.0999756-1.0799561-3.2800293-1.3499756l-.5599365-2.1400144c-.0599365-.2199707-.25-.3699951-.4799805-.3699951h2.9799805c.2301025 0 .4200439.1500244.4801025.3699951z" fill="#ea1b29" fill-opacity="1" data-original-color="#000000ff" stroke="none" stroke-opacity="1"/><path d="m39.8803711 6.8579102c-.0917969 0-.1826172-.0253906-.2636719-.0751953-.9697266-.6005859-2.0224609-1.0332031-3.1279297-1.2871094-.1816406-.0419922-.3251953-.1806641-.3720703-.3603516l-.5595703-2.1367188c-.1132813-.0009766-.2167969-.0390625-.2998047-.1025391-.1210938-.0908203-.1992188-.2353516-.1992188-.3994141 0-.2753906.2255859-.4980469.5019531-.4980469h2.9794922c.4570313 0 .84375.296875.9628906.7402344l.4951172 1.8457031c.5214844.1376953 1.0078125.3027344 1.4785156.5039063.1767578.0751953.2939453.2451172.3027344.4365234.0097656.1923828-.0927734.3720703-.2607422.4628906l-1.3847656.8017578c-.0781249.0458986-.1660155.0683596-.2529296.0683596zm-2.8720703-2.2646485c1.0078125.2597656 1.9726563.65625 2.875 1.1835938l.2128906-.125c-.2001953-.0605469-.4072266-.1162109-.6210938-.1669922-.1787109-.0419922-.3203125-.1796875-.3681641-.3574219l-.5703125-2.1298828-1.946289.0009766z" fill="#ea1b29" fill-opacity="1" data-original-color="#000000ff" stroke="none" stroke-opacity="1"/></g><g><path d="m50.5000267 14.4682894v3.249999c0 .2200317-.1501465.4200439-.3701172.4700317l-2.1298828.5800171c-.2800293 1.1699829-.7399902 2.2699585-1.3500977 3.2699585l1.1000977 1.9100342c.1098633.1900024.0799561.4299927-.0800781.5899658l-1.6699219 1.6799927-.630127.6300049c-.1599121.1600342-.4099121.1800537-.6098633.0800171l-.7301025-.4299927-.8199463-.4799805 1.4799805-1.4800415c.1599121-.1599731.1799316-.3999634.0800781-.5899658l-1.1000977-1.9100342c.6000977-1 1.0600586-2.0999756 1.3400879-3.2699585l2.1398926-.5800171c.2199707-.0499878.3601074-.25.3601074-.4700317v-3.249999c0-.2399902-.1401367-.4299927-.3601074-.4899902l-2.1398926-.5599976c-.2800293-1.1900024-.7399902-2.2799683-1.3400879-3.2799683l1.1000977-1.9000244c.0998535-.2000122.079834-.4500127-.0800781-.5999761l-1.4799805-1.4800415.8199463-.4799805.7301025-.4199829c.1999512-.1199951.4499512-.0900269.6098633.0800171l.630127.6199951 1.6699219 1.6799927c.1600342.1499634.1899414.3999639.0800781.5999761l-1.1000977 1.9000244c.6101074 1 1.0700684 2.0899658 1.3500977 3.2799683l2.1298828.5599976c.2199707.0599975.3701172.2499999.3701172.4899902z" fill="#ea1b29" fill-opacity="1" data-original-color="#000000ff" stroke="none" stroke-opacity="1"/><path d="m45.0180664 27.4907227c-.1621094 0-.328125-.0380859-.4824219-.1162109l-1.578125-.9248047c-.1337891-.0791016-.2236328-.2148438-.2431641-.3681641s.0332031-.3076172.1425781-.4169922l1.4794922-1.4794922-1.0996094-1.8974609c-.0898438-.1572266-.0888672-.3505859.0048828-.5058594.5888672-.9814453 1.0195313-2.0351563 1.2822266-3.1298828.0429688-.1777344.1787109-.3183594.3554688-.3662109l2.1396484-.5800781-.0087891-3.2373047-2.1269531-.5664063c-.1787109-.046875-.3173828-.1884766-.359375-.3691406-.2578125-1.0917969-.6884766-2.1474609-1.2822266-3.1376953-.09375-.1552734-.0947266-.3496094-.0039063-.5078125l1.0996094-1.8994141-1.4804686-1.475586c-.109375-.109375-.1621094-.2636719-.1425781-.4169922s.109375-.2890625.2431641-.3681641l1.5537109-.9023438c.3955078-.2392578.9023438-.1699219 1.2236328.171875l2.2900391 2.2890625c.3125.2949219.3847656.7900391.1640625 1.1923828l-.9599609 1.6572266c.5234375.9072266.9208984 1.8720703 1.1845703 2.875l1.84375.484375c.4472656.1230469.7431641.5136719.7431641.9736328v3.25c0 .4550781-.3193359.8574219-.7597656.9570313l-1.8271484.4980469c-.2675781 1.0048828-.6650391 1.9677734-1.1845703 2.8691406l.9550781 1.65625c.2216797.3847656.15625.875-.1591797 1.1923828l-2.3017578 2.3105469c-.1884767.1894532-.4433595.2890626-.7050783.2890626zm-.9960937-1.5761719.9921875.5830078 2.3017578-2.3115234-1.0996094-1.8974609c-.0908203-.1591797-.0888672-.3544922.0068359-.5107422.5917969-.9697266 1.0263672-2.0214844 1.2910156-3.1259766.0078125-.0322266.0185547-.0625.03125-.0917969-.0859375.0527344-.1816406.0917969-.2851563.1152344l-1.8369141.4990234c-.265625.9960938-.6591797 1.9580078-1.1748047 2.8662109l.9550781 1.6591797c.2167969.4111328.1484375.8837891-.1601563 1.1923828zm3.8134765-12.0244141c.1113281.1640625.1748047.3632813.1748047.578125v3.25c0 .2167969-.0673828.4179688-.1835938.5810547.0136719-.0048828.0283203-.0097656.0419922-.0136719l2.1298828-.5800781.0019531-3.2373047c0-.0078125-.0009766-.0107422-.0009766-.0107422l-2.1259766-.5556641c-.0126952-.0029296-.026367-.0068359-.0380858-.0117187zm-2.4121094-.8808594 1.8535156.4853516c.09375.0253906.1816406.0634766.2607422.1123047-.0097656-.0234375-.0175781-.0488281-.0234375-.0742188-.2597656-1.1015625-.6943359-2.15625-1.2910156-3.1337891-.0957031-.15625-.0976563-.3525391-.0058594-.5117188l1.1005859-1.8994141-2.298828-2.2929686-.9970703.5673828 1.0214843 1.022461c.3007813.28125.3769531.7705078.1738281 1.1767578l-.96875 1.6757813c.5195313.9140624.913086 1.8779296 1.1748047 2.8720702z" fill="#ea1b29" fill-opacity="1" data-original-color="#000000ff" stroke="none" stroke-opacity="1"/></g></g></g><g><g><g><path d="m35.5600586 30.1782227h-3.2587891c-.4550781 0-.8417969-.2998047-.9609375-.7451172l-.4892578-1.8525391c-.9980469-.2626953-1.9638672-.6582031-2.8779297-1.1806641l-1.6503906.9570313c-.4111328.2226563-.8896484.15625-1.203125-.1572266l-2.3027344-2.3027344c-.3125-.3300781-.375-.8056641-.1630859-1.1923828l.9628906-1.6601563c-.5205078-.90625-.9169922-1.8691406-1.1816406-2.8720703l-1.8535156-.4980469c-.4277344-.1015625-.7353516-.4980469-.7353516-.9599609v-3.2490234c0-.4550781.2929688-.8447266.7285156-.96875l1.8603516-.4912109c.2626953-1 .6591797-1.9628906 1.1816406-2.8710938l-.9492188-1.6494141c-.2246094-.3974609-.1621094-.890625.1494141-1.2021484l2.3027344-2.3027344c.3212891-.3222656.8193359-.3857422 1.2080078-.1542969l1.6445313.953125c.9082031-.5253906 1.8740234-.9248047 2.8789063-1.1884766l.4892577-1.8525389c.1240234-.4433594.5087891-.7363281.9609375-.7363281h3.2587891c.4521484 0 .8369141.2929688.9589844.7294922l.4912109 1.859375c1.0068359.2646484 1.9707031.6630859 2.8720703 1.1875l1.6484375-.9560547c.4042969-.2255859.8896484-.1640625 1.2119141.1582031l2.3017578 2.3027344c.3085938.3085938.3759766.7851563.1679688 1.1845703l-.9667969 1.6679688c.5214844.9082031.9179688 1.8710938 1.1806641 2.8701172l1.8515625.4892578c.4443359.125.7373047.5146484.7373047.9707031v3.2490234c0 .4628906-.3085938.859375-.75.9638672l-1.8388672.4941406c-.2646484 1.0029297-.6611328 1.9658203-1.1806641 2.8710938l.9560547 1.6494141c.2177734.3984375.1552734.8740234-.1474609 1.1943359l-2.3115234 2.3125c-.3076172.3085938-.7861328.3769531-1.1914063.1689453l-1.6708984-.9677734c-.90625.5205078-1.8701172.9169922-2.8701172 1.1806641l-.4892578 1.8505859c-.1191407.446289-.5058595.7460937-.9609376.7460937zm-7.5849609-4.8574219c.0898438 0 .1787109.0244141.2587891.0722656.9882813.5966797 2.0449219 1.0292969 3.1396484 1.2880859.1806641.0419922.3222656.1796875.3691406.3583984l.5644531 2.1367188 3.2529297.0019531.5585938-2.1386719c.046875-.1787109.1884766-.3164063.3691406-.3583984 1.0986328-.2597656 2.1523438-.6923828 3.1308594-1.2871094.1582031-.0957031.3535156-.0976563.5117188-.0048828l1.9003906 1.1015625 2.3066406-2.3007813-1.1035156-1.8974609c-.0917969-.1582031-.0898438-.3544922.0048828-.5107422.59375-.9755859 1.0263672-2.0292969 1.2880859-3.1308594.0419922-.1787109.1787109-.3203125.3564453-.3671875l2.1367188-.5742188-.0048828-3.2441406c0-.0068359-.0009766-.0097656-.0009766-.0097656l-2.1289063-.5585938c-.1787109-.046875-.3164063-.1894531-.3583984-.3691406-.2587891-1.0966797-.6923828-2.1503906-1.2871094-3.1298828-.0957031-.15625-.0976563-.3525391-.0058594-.5107422l1.1025391-1.9023438-2.3007813-2.2978516-1.9052734 1.1035156c-.1591797.09375-.3574219.0908203-.5146484-.0058594-.96875-.5986328-2.0214844-1.0341797-3.1279297-1.2949219-.1806641-.0419922-.3222656-.1796875-.3691406-.3583984l-.5644531-2.1376953-3.2529297.0078125-.5585938 2.1298828c-.046875.1787109-.1884766.3164063-.3691406.3583984-1.1025391.2597656-2.1582031.6962891-3.1376953 1.2958984-.15625.0957031-.3515625.0976563-.5117188.0058594l-1.9033203-1.1035156-2.296875 2.3017578 1.1054688 1.8994141c.0908203.1582031.0888672.3535156-.0068359.5087891-.5957031.9794922-1.0292969 2.0322266-1.2871094 3.1298828-.0419922.1796875-.1796875.3222656-.3583984.3691406l-2.1376953.5644531.0068359 3.2529297 2.1328125.5693359c.1777344.046875.3144531.1884766.3564453.3671875.2607422 1.1015625.6933594 2.1552734 1.2871094 3.1308594.0957031.15625.0976563.3525391.0058594.5107422l-1.1035156 1.9023438 2.3017578 2.2978516 1.8974609-1.1044922c.0781249-.0449217.1640624-.0673826.2509765-.0673826z" fill="#ea1b29" fill-opacity="1" data-original-color="#000000ff" stroke="none" stroke-opacity="1"/></g></g></g><g><path d="m33.9291992 24.8012695c-2.8183594 0-5.4755859-1.3759766-7.1083984-3.6816406-1.0478516-1.4785156-1.6025391-3.2177734-1.6025391-5.0292969 0-4.8037109 3.9072266-8.7109375 8.7109375-8.7109375 4.8027344 0 8.7099609 3.9072266 8.7099609 8.7109375 0 1.8125-.5546875 3.5517578-1.6025391 5.0292969-1.6318358 2.3056641-4.2880858 3.6816406-7.1074218 3.6816406zm0-16.421875c-4.2519531 0-7.7109375 3.4589844-7.7109375 7.7109375 0 1.6025391.4902344 3.1416016 1.4189453 4.4511719 1.4453125 2.0410156 3.796875 3.2597656 6.2919922 3.2597656s4.8466797-1.21875 6.2910156-3.2597656c.9287109-1.3076172 1.4189453-2.8466797 1.4189453-4.4511719.0000001-4.2519531-3.4589843-7.7109375-7.7099609-7.7109375z" fill="#ea1b29" fill-opacity="1" data-original-color="#000000ff" stroke="none" stroke-opacity="1"/></g><g><g><path d="m30.749218 16.1093407c-.1705151-.1240387-.4136677-.2228394-.7220726-.2933226l-.6260433-.1428146c-.4136677-.0954142-.6814442-.1751318-.7953262-.2366896-.1625137-.0904894-.2413063-.2296104-.2413063-.4253645 0-.1822109.0701752-.3385677.2148361-.4773808.1434288-.1375818.3878136-.2074499.7251511-.2074499.4198246 0 .718996.1095734.8895111.3253336.0917206.1175747.1532784.2923994.1822109.5195475l.0073872.0550947h.6863689v-.063097c0-.5161629-.1742096-.8981285-.5183163-1.1354342-.3361073-.2326889-.7497749-.3505716-1.2286949-.3505716-.522625 0-.9338322.1357346-1.222538.403204-.289938.2686996-.4364452.6165009-.4364452 1.0341711 0 .3915071.1526642.6903706.4542961.888588.1711311.1123428.4524498.2117577.8593483.3037872l.6051121.1369667c.3194866.0726376.5558681.1585102.7017593.2548485.1348114.0917206.2006798.2446918.2006798.4678402 0 .2970161-.1631279.4983101-.4992352.6152687-.1791325.0624828-.3810425.0938759-.5989571.0938759-.4819984 0-.8217964-.1400433-1.0089321-.415514-.0984936-.1480465-.1551266-.3453407-.1686687-.5857239l-.0030785-.0597095h-.6906776l-.0006161.0624809c-.006155.4992332.1563568.9005909.4826126 1.1932983.3244095.2933216.7774754.4419842 1.3468857.4419842.485075 0 .9178276-.1104965 1.2859421-.3281021.378582-.2237625.5700264-.598959.5700264-1.1151199-.0000001-.4167481-.1514321-.7396184-.4512196-.9599953z" fill="#ea1b29" fill-opacity="1" data-original-color="#000000ff" stroke="none" stroke-opacity="1"/></g><g><path d="m32.6418877 16.3358746h2.465393v-.642972h-2.465393v-1.2296181h2.666069v-.6734419h-3.3813705v4.5919056h3.4269256v-.6580524h-2.7116241z" fill="#ea1b29" fill-opacity="1" data-original-color="#000000ff" stroke="none" stroke-opacity="1"/></g><g><path d="m39.9210739 14.4534359c-.3902779-.5207796-.996006-.7851706-1.8017998-.7851706-.7725487 0-1.3647346.2871675-1.7599373.8538074-.3059425.4376764-.4610672.9716902-.4610672 1.5866518 0 .68083.1809807 1.2523956.5410919 1.7011509.40382.466301.9646111.7026825 1.6676025.7026825.7534676 0 1.3419609-.2702389 1.7494736-.8030205.3459549-.4509125.5207787-1.0233994.5207787-1.7011509 0-.6266593-.1532783-1.1499003-.4561424-1.5549506zm-.2899361 1.5638771c0 .4826126-.1169624.9147491-.347805 1.2847099-.2277641.365654-.5891075.5432491-1.1031151.5432491-.5380135 0-.9307518-.1628208-1.1671371-.4838448-.2406883-.3262558-.3631897-.7343845-.3631897-1.2133045 0-.598958.1421967-1.0566406.4210548-1.3601208.2782402-.302248.64328-.4555273 1.0846481-.4555273.4549141 0 .8181038.1542025 1.078495.4582977.263466.3068658.397049.7196113.397049 1.2265407z" fill="#ea1b29" fill-opacity="1" data-original-color="#000000ff" stroke="none" stroke-opacity="1"/></g></g><g><g><g><path d="m24.1323242 50.6508789c-1.390625 0-2.7871094-.1337891-4.1767578-.4013672l-6.625-1.8613281h-3.2402344c-.2763672 0-.5-.2236328-.5-.5s.2236328-.5.5-.5h3.3095703c.0458984 0 .0908203.0058594.1357422.0185547l6.6503906 1.8701172c2.3701172.4550781 4.8017578.4980469 7.1845703.1171875l3.4912109-.5498047c2.9511719-.4648438 5.8320313-1.5888672 8.3310547-3.2519531l9.8398438-6.5498047c.6064453-.3964844.9667969-1.0625.9667969-1.7841797 0-.5400391-.2070313-1.0576172-.5839844-1.4570313-.7167969-.7568359-1.8759766-.8935547-2.7529297-.3232422l-6.4462891 4.2675781c-1.8359375 1.2060547-3.9609375 1.8427734-6.1464844 1.8427734h-10.7900389c-.5478516 0-1.0517578-.2109375-1.4199219-.59375-.4892578-.4892578-.6884766-1.1884766-.5263672-1.8632813.1914063-.8886719 1.0400391-1.5429688 2.0166016-1.5429688h2.7802734c2.6767578 0 4.9599609-1.9082031 5.4277344-4.5380859.0283203-.1601563-.0439453-.2763672-.0908203-.3320313-.0800781-.0957031-.1953125-.1503906-.3173828-.1503906h-11.3203126c-3.1630859 0-6.1142578 1.6171875-7.703125 4.2216797-.0908203.1484375-.2519531.2392578-.4267578.2392578h-1.609375c-.2763672 0-.5-.2236328-.5-.5s.2236328-.5.5-.5h1.3339844c1.7998047-2.7587891 4.9941406-4.4609375 8.4052734-4.4609375h11.3203125c.4179688 0 .8134766.1855469 1.0839844.5087891.2695313.3203125.3818359.7392578.3085938 1.1494141-.5527344 3.1074219-3.2490234 5.3623047-6.4121094 5.3623047h-2.7802734c-.5078125 0-.9462891.3222656-1.0410156.765625-.0830078.3447266.0166016.6923828.2646484.9404297.1845703.1923828.4335938.2939453.7060547.2939453h10.7900391c1.9892578 0 3.9248047-.5800781 5.5957031-1.6777344l6.4482422-4.2695313c1.2900391-.8359375 2.9814453-.6337891 4.0292969.4736328.5527344.5859375.8564453 1.3476563.8564453 2.1435547 0 1.0605469-.5292969 2.0390625-1.4160156 2.6191406l-9.8359375 6.546875c-2.6191406 1.7421875-5.6376953 2.9208984-8.7294922 3.4082031l-3.4902344.5498047c-1.1240235.1787112-2.2578126.2685549-3.3955079.2685549z" fill="#ea1b29" fill-opacity="1" data-original-color="#000000ff" stroke="none" stroke-opacity="1"/></g><g><path d="m8.3500977 51.0014648h-4.1103516c-1.2353516 0-2.2402344-1.0048828-2.2402344-2.2402344v-13.1601562c0-1.2353516 1.0048828-2.2402344 2.2402344-2.2402344h4.1103516c1.234375 0 2.2392578 1.0048828 2.2392578 2.2402344v13.1601563c0 1.2353515-1.0048828 2.2402343-2.2392578 2.2402343zm-4.1103516-16.640625c-.6835938 0-1.2402344.5566406-1.2402344 1.2402344v13.1601563c0 .6835938.5566406 1.2402344 1.2402344 1.2402344h4.1103516c.6835938 0 1.2392578-.5566406 1.2392578-1.2402344v-13.1601563c0-.6835938-.5556641-1.2402344-1.2392578-1.2402344z" fill="#ea1b29" fill-opacity="1" data-original-color="#000000ff" stroke="none" stroke-opacity="1"/></g><g><circle cx="6.777" cy="46.879" r="1.218" fill="#ea1b29" fill-opacity="1" data-original-color="#000000ff" stroke="none" stroke-opacity="1"/></g></g></g></g></g></svg>