<svg clip-rule="evenodd" fill-rule="evenodd" stroke-linejoin="round" stroke-miterlimit="2" viewBox="0 0 510 510" xmlns="http://www.w3.org/2000/svg" width="300" height="300" version="1.1" xmlns:xlink="http://www.w3.org/1999/xlink" xmlns:svgjs="http://svgjs.dev/svgjs"><g width="100%" height="100%" transform="matrix(1,0,0,1,0,0)"><path d="m277.058 319.386c-27.751 19.413-61.526 30.805-97.961 30.805-94.487 0-171.094-76.606-171.094-171.093s76.607-171.094 171.094-171.094c69.604 0 129.505 41.572 156.227 101.239h112.665c23.266 0 42.127 18.861 42.127 42.127v48.075c0 23.266-18.861 42.127-42.127 42.127h-109.567c-4.956 12.63-11.371 24.528-19.037 35.487l31.728 31.728c9.784-3.283 21.066-1.044 28.831 6.721l113.865 113.865c10.917 10.917 10.917 28.746 0 39.663l-24.774 24.774c-10.919 10.919-28.79 10.91-39.663 0l-113.864-113.865c-7.77-7.77-10.01-19.041-6.72-28.829zm47.149-200.575c-23.645-56.84-79.713-96.807-145.11-96.807-86.756 0-157.094 70.338-157.094 157.094 0 86.755 70.338 157.093 157.094 157.093 35.46 0 68.179-11.75 94.471-31.571 11.74-8.851 22.2-19.311 31.051-31.052 9.403-12.472 16.991-26.391 22.369-41.363 2.25-6.264 4.113-12.713 5.561-19.317-7.504 0-18.752 0-30.832 0-2.409 8.717-5.725 17.062-9.84 24.928-21.263 40.643-63.866 68.468-112.78 68.468-70.042 0-127.186-57.114-127.186-127.186 0-70.043 57.144-127.186 127.186-127.186 45.707 0 85.905 24.307 108.328 60.656 5.306 8.603 9.618 17.88 12.772 27.667l6.103-7.047c1.25-1.443 3.036-2.314 4.943-2.409s3.771.594 5.158 1.906l13.348 12.622h2.799c-1.989-9.077-4.764-17.86-8.249-26.274-.032-.074-.063-.148-.092-.222zm23.134 91.539c-1.08 5.85-2.458 11.596-4.117 17.222h104.765c15.534 0 28.127-12.593 28.127-28.127v-48.075c0-15.534-12.593-28.127-28.127-28.127h-107.126c2.745 7.952 4.921 16.169 6.478 24.602l26.793 26.253c1.344 1.316 2.101 3.118 2.101 5 0 1.881-.757 3.683-2.101 5zm-36.523 77.941c-6.795 8.188-14.34 15.733-22.528 22.528l28.341 28.34c4.125-4.125 18.416-18.416 22.528-22.528zm-23.696-75.403c-23.895 0-46.565 0-46.564 0-12.061 22.491-35.796 37.775-63.095 37.775-39.526 0-71.565-32.04-71.565-71.565 0-39.526 32.039-71.565 71.565-71.565 27.299 0 51.034 15.283 63.094 37.774h18.51l14.638-14.506c1.39-1.378 3.293-2.111 5.249-2.021.554.026 1.098.117 1.622.268-1.551-3.127-3.243-6.173-5.067-9.13-19.958-32.354-55.728-54.006-96.412-54.006-62.332 0-113.186 50.853-113.186 113.186 0 62.359 50.854 113.186 113.186 113.186 43.538 0 81.449-24.781 100.375-60.957 3.069-5.866 5.638-12.031 7.65-18.439zm38.285 137.294c-5.467 5.467-5.467 14.396 0 19.863l113.869 113.87.004.004c5.446 5.465 14.391 5.456 19.855-.009l24.775-24.774c5.467-5.467 5.467-14.396 0-19.863l-113.865-113.865c-5.465-5.465-14.409-5.474-19.86-.005zm-147.944-113.519c23.268 0 43.317-13.803 52.387-33.681 1.138-2.494 3.627-4.094 6.368-4.094h102.817l20.198-19.79-20.198-19.791h-12.071c-1.789 0-3.51-.685-4.81-1.914l-10.058-9.512-11.103 12.82c-1.343 1.55-3.297 2.434-5.347 2.418-2.05-.017-3.99-.931-5.308-2.501l-12.181-14.52-11.282 11.181c-1.311 1.299-3.082 2.028-4.928 2.028h-25.729c-2.741 0-5.23-1.6-6.368-4.094-9.07-19.877-29.119-33.68-52.387-33.68-31.793 0-57.565 25.771-57.565 57.565 0 31.793 25.772 57.565 57.565 57.565zm-25.42-37.049c-12.713 0-22.564-9.473-22.556-20.516-.008-11.043 9.843-20.517 22.556-20.517 12.714 0 22.564 9.474 22.556 20.517.008 11.043-9.842 20.516-22.556 20.516zm0-14c4.483 0 8.561-2.615 8.556-6.516v-.008c.005-3.894-4.073-6.509-8.556-6.509-4.482 0-8.56 2.615-8.556 6.517v.008c-.004 3.893 4.074 6.508 8.556 6.508z" fill="#ea1b29" fill-opacity="1" data-original-color="#000000ff" stroke="none" stroke-opacity="1"/></g></svg>