<svg id="Layer_1" enable-background="new 0 0 512 512" viewBox="0 0 512 512" xmlns="http://www.w3.org/2000/svg" width="300" height="300" version="1.1" xmlns:xlink="http://www.w3.org/1999/xlink" xmlns:svgjs="http://svgjs.dev/svgjs"><g width="100%" height="100%" transform="matrix(1,0,0,1,0,0)"><path d="m456.24 32.27h-40.81c-3.31 0-6 2.69-6 6s2.69 6 6 6h40.81c15.86 0 28.76 12.9 28.76 28.76v285.51c0 15.86-12.9 28.76-28.76 28.76h-400.48c-15.86 0-28.76-12.9-28.76-28.76v-285.51c0-15.86 12.9-28.76 28.76-28.76h326.8c3.31 0 6-2.69 6-6s-2.69-6-6-6h-326.8c-22.47 0-40.76 18.29-40.76 40.76v285.51c0 22.47 18.29 40.76 40.76 40.76h136.03l-17.09 27.64h-29.03c-14.55 0-26.39 11.84-26.39 26.39s11.84 26.39 26.39 26.39h220.64c14.55 0 26.39-11.84 26.39-26.39s-11.84-26.39-26.39-26.39h-29.03l-17.09-27.64h136.03c22.48 0 40.76-18.28 40.76-40.76v-285.51c.02-22.47-18.27-40.76-40.74-40.76zm-75.52 421.06c0 7.94-6.46 14.39-14.39 14.39h-220.65c-7.94 0-14.39-6.46-14.39-14.39s6.46-14.39 14.39-14.39h220.64c7.94 0 14.4 6.46 14.4 14.39zm-57.54-26.39h-134.36l17.09-27.64h100.2zm-141.64-63.8c0-3.31 2.69-6 6-6h261.38c3.26 0 5.92-2.65 5.92-5.91v-270.88c0-3.26-2.65-5.91-5.92-5.91h-385.84c-3.26 0-5.92 2.65-5.92 5.91v270.88c0 3.26 2.65 5.91 5.92 5.91h87.21c3.31 0 6 2.69 6 6s-2.69 6-6 6h-87.21c-9.88 0-17.92-8.04-17.92-17.91v-270.88c0-9.88 8.04-17.91 17.92-17.91h385.84c9.88 0 17.92 8.04 17.92 17.91v270.88c0 9.88-8.04 17.91-17.92 17.91h-261.38c-3.31 0-6-2.69-6-6zm-5.8-157.07c-.02 21.42 8.3 41.56 23.43 56.72s35.26 23.52 56.68 23.54h.09c10.26 0 20.15-1.89 29.51-5.61l10.03 41.35c.49 2.03 2 3.65 3.99 4.29s4.16.2 5.75-1.15l11.84-10.14 23.29 27.19c1.19 1.39 2.87 2.1 4.56 2.1 1.38 0 2.77-.47 3.9-1.44l25.97-22.24c1.21-1.04 1.96-2.51 2.08-4.09.12-1.59-.39-3.16-1.43-4.37l-23.29-27.18 13.82-11.83c1.58-1.36 2.35-3.44 2.02-5.5s-1.7-3.8-3.63-4.6l-39.32-16.27c7.25-12.27 11.07-26.15 11.08-40.59.02-21.42-8.3-41.56-23.43-56.72s-35.26-23.52-56.67-23.54c-21.42.02-41.56 8.3-56.72 23.42s-23.53 35.25-23.55 56.66zm163.38 82.22 23.29 27.18-16.86 14.44-23.29-27.19c-1.19-1.39-2.87-2.1-4.56-2.1-1.38 0-2.77.47-3.9 1.44l-8.97 7.68-15.72-64.78 61.61 25.48-10.95 9.38c-1.21 1.04-1.96 2.51-2.08 4.1s.4 3.16 1.43 4.37zm-83.2-150.31h.08c18.21.02 35.33 7.13 48.19 20.02s19.94 30.02 19.92 48.23c-.01 12.85-3.57 25.19-10.3 35.97l-31.02-12.83c-.94-.39-1.94-.51-2.91-.41.53-1.84.8-3.76.8-5.72.01-8.54-3.92-15.21-10.51-17.84l-12.03-4.81c-.09-.04-.18-.07-.28-.1l-9.82-3.38c-3.61-1.24-4.89-4.95-4.89-8.01.01-5.86 6.08-10.8 13.26-10.8h.02c5.75.01 10.97 3.18 12.68 7.71 1.17 3.1 4.64 4.66 7.73 3.49 3.1-1.17 4.66-4.63 3.49-7.73-2.88-7.63-9.93-13.19-18.38-14.9l.01-7.74c0-3.31-2.68-6-5.99-6.01 0 0 0 0-.01 0-3.31 0-6 2.68-6 5.99l-.01 7.94c-10.8 2.58-18.79 11.47-18.8 22.03-.01 9.05 5.09 16.65 12.99 19.37l9.69 3.33 11.89 4.75c2.83 1.13 2.96 5.77 2.96 6.69 0 2.71-1.29 5.32-3.61 7.35-2.55 2.22-5.98 3.45-9.65 3.45-.01 0-.01 0-.02 0-5.75-.01-10.97-3.18-12.68-7.71-1.17-3.1-4.63-4.66-7.73-3.49s-4.66 4.63-3.49 7.73c2.88 7.63 9.93 13.19 18.38 14.9l-.01 7.74c0 3.31 2.68 6 5.99 6.01h.01c3.31 0 6-2.68 6-5.99l.01-7.96c4.12-.98 7.93-2.88 11.07-5.62.73-.63 1.4-1.3 2.03-1.99l7.59 31.29c-8.41 3.59-17.35 5.41-26.65 5.41-.02 0-.05 0-.08 0-18.21-.02-35.33-7.13-48.19-20.02s-19.94-30.02-19.92-48.23 7.13-35.32 20.02-48.19c12.89-12.84 29.99-19.92 48.17-19.92zm32.39-19.63c-3.01-1.38-4.34-4.94-2.96-7.95l9-19.69c1.38-3.01 4.94-4.34 7.95-2.96s4.34 4.94 2.96 7.95l-9 19.69c-1.01 2.2-3.19 3.51-5.46 3.51-.84 0-1.69-.18-2.49-.55zm78.89 26.22c1.44 2.98.19 6.57-2.79 8.01l-19.5 9.42c-.84.41-1.73.6-2.61.6-2.23 0-4.37-1.25-5.41-3.39-1.44-2.98-.19-6.57 2.79-8.01l19.5-9.42c2.99-1.45 6.58-.2 8.02 2.79zm-11.7 72.7 21.03 5.19c3.22.79 5.18 4.05 4.39 7.26-.67 2.73-3.12 4.56-5.82 4.56-.48 0-.96-.06-1.44-.18l-21.03-5.19c-3.22-.79-5.18-4.05-4.39-7.26s4.04-5.17 7.26-4.38zm-97.66 82.45c3.31.18 5.84 3.01 5.66 6.32l-1.19 21.62c-.18 3.2-2.82 5.67-5.99 5.67-.11 0-.22 0-.34-.01-3.31-.18-5.84-3.01-5.66-6.32l1.19-21.62c.19-3.31 3.01-5.84 6.33-5.66zm-83.02 4.39c-2.43-2.25-2.58-6.05-.32-8.48l14.72-15.89c2.25-2.43 6.05-2.58 8.48-.32 2.43 2.25 2.58 6.05.32 8.48l-14.72 15.89c-1.18 1.28-2.79 1.92-4.4 1.92-1.46 0-2.93-.53-4.08-1.6zm-10.49-78.7c.43 3.28-1.88 6.3-5.16 6.74l-21.47 2.84c-.27.04-.53.05-.8.05-2.96 0-5.54-2.19-5.94-5.21-.43-3.28 1.88-6.3 5.16-6.74l21.47-2.84c3.29-.44 6.31 1.88 6.74 5.16zm.51-60.97-18.34-11.51c-2.81-1.76-3.66-5.46-1.89-8.27 1.76-2.81 5.46-3.66 8.27-1.89l18.34 11.51c2.81 1.76 3.66 5.46 1.89 8.27-1.14 1.82-3.09 2.81-5.09 2.81-1.08 0-2.19-.29-3.18-.92zm47.58-48.51-6.78-20.56c-1.04-3.15.67-6.54 3.82-7.58s6.54.67 7.58 3.82l6.78 20.56c1.04 3.15-.67 6.54-3.82 7.58-.62.21-1.26.3-1.88.3-2.53 0-4.87-1.6-5.7-4.12z" fill="#ea1b29" fill-opacity="1" data-original-color="#000000ff" stroke="none" stroke-opacity="1"/></g></svg>