<svg id="Layer_1" enable-background="new 0 0 512 512" height="300" viewBox="0 0 512 512" width="300" xmlns="http://www.w3.org/2000/svg" version="1.1" xmlns:xlink="http://www.w3.org/1999/xlink" xmlns:svgjs="http://svgjs.dev/svgjs"><g width="100%" height="100%" transform="matrix(1,0,0,1,0,0)"><path d="m427.883 93.84h-8.432c-8.49 0-15.424 6.704-15.836 15.093l-66.712 26.349h-26.774c-13.648 0-24.751 11.104-24.751 24.752v15.146c0 13.648 11.104 24.752 24.751 24.752h21.107v42.184c0 3.866 3.134 7 7 7h23.521c2.446 0 4.715-1.277 5.984-3.368l16.467-27.131 19.407 7.665c.412 8.389 7.347 15.093 15.836 15.093h8.432c8.754 0 15.876-7.122 15.876-15.876v-115.783c0-8.754-7.122-15.876-15.876-15.876zm-82.647 53.204 58.339-23.043v87.212l-58.339-23.043zm-35.107 38.888c-5.928 0-10.751-4.823-10.751-10.752v-15.146c0-5.929 4.823-10.752 10.751-10.752h21.107v36.649h-21.107zm47.688 49.183h-12.581v-31.892l25.762 10.175zm71.942-9.617c0 1.017-.859 1.876-1.876 1.876h-8.432c-1.017 0-1.876-.859-1.876-1.876v-115.782c0-1.017.859-1.876 1.876-1.876h8.432c1.017 0 1.876.859 1.876 1.876zm-232.549-16.61-26.648-18.208c-4.272-2.92-8.53-4.4-12.654-4.4-8.021 0-16.115 6.057-16.115 19.586v41.954c0 13.53 8.094 19.586 16.116 19.586 4.124 0 8.38-1.479 12.653-4.399l26.648-18.208c6.61-4.517 10.401-11.062 10.401-17.956s-3.791-13.44-10.401-17.955zm-7.898 24.351-26.648 18.208c-2.587 1.768-4.188 1.958-4.755 1.958-2.092 0-2.116-5.357-2.116-5.586v-41.954c0-.229.024-5.586 2.115-5.586.568 0 2.168.191 4.755 1.959l26.649 18.208c2.772 1.895 4.299 4.166 4.299 6.396.001 2.23-1.526 4.502-4.299 6.397zm255.525-172.376h-116.743c-6.323-19.694-24.756-33.459-45.852-33.459h-215.079c-26.557 0-48.163 21.606-48.163 48.163v360.865c0 26.558 21.606 48.163 48.163 48.163h215.079c26.557 0 48.163-21.605 48.163-48.163v-154.34h114.432c26.557 0 48.163-21.605 48.163-48.163v-124.903c0-26.557-21.606-48.163-48.163-48.163zm-377.674-19.459h215.079c13.383 0 25.256 7.813 30.825 19.459h-28.767c-21.431 0-39.63 14.073-45.86 33.46h-205.44v-18.756c0-18.838 15.326-34.163 34.163-34.163zm203.296 238.651c-4.034 7.719-12.09 12.852-21.148 12.852h-149.217c-13.163 0-23.872-10.709-23.872-23.872v-84.385c0-13.164 10.709-23.873 23.872-23.873h136.042v73.151c0 21.748 14.492 40.166 34.323 46.127zm11.783 190.541h-215.079c-18.837 0-34.163-15.325-34.163-34.163v-18.756h283.405v18.756c0 18.838-15.326 34.163-34.163 34.163zm34.163-66.919h-283.405v-295.354h203.154c-.003.235-.018.467-.018.703v37.751h-136.042c-20.883 0-37.872 16.99-37.872 37.873v84.385c0 20.883 16.989 37.872 37.872 37.872h149.217c16.049 0 30.137-10.133 35.539-24.815h31.554v121.585zm162.595-169.748c0 18.838-15.326 34.163-34.163 34.163h-160.537c-18.838 0-34.164-15.325-34.164-34.163v-124.903c0-18.838 15.326-34.163 34.164-34.163h160.537c18.837 0 34.163 15.325 34.163 34.163zm-407.517-166.066c0-3.866 3.134-7 7-7h26.07c3.866 0 7 3.134 7 7s-3.134 7-7 7h-26.07c-3.866 0-7-3.134-7-7zm54.199 0c0-3.866 3.134-7 7-7h95.362c3.866 0 7 3.134 7 7s-3.134 7-7 7h-95.362c-3.867 0-7-3.134-7-7zm155.53 278.557h-137.712c-3.051-10.68-12.893-18.523-24.54-18.523s-21.488 7.844-24.54 18.523h-25.198c-3.866 0-7 3.134-7 7s3.134 7 7 7h25.199c3.051 10.68 12.893 18.523 24.54 18.523s21.488-7.844 24.54-18.523h137.712c3.866 0 7-3.134 7-7s-3.134-7-7.001-7zm-162.252 18.523c-6.354 0-11.523-5.169-11.523-11.523s5.169-11.523 11.523-11.523 11.523 5.169 11.523 11.523-5.169 11.523-11.523 11.523zm83.153 79.194c0 3.866-3.134 7-7 7h-40.82c-3.866 0-7-3.134-7-7s3.134-7 7-7h40.82c3.866 0 7 3.134 7 7z" fill="#ea1b29" fill-opacity="1" data-original-color="#000000ff" stroke="none" stroke-opacity="1"/></g></svg>