<svg id="Layer_1" enable-background="new 0 0 512 512" height="300" viewBox="0 0 512 512" width="300" xmlns="http://www.w3.org/2000/svg" version="1.1" xmlns:xlink="http://www.w3.org/1999/xlink" xmlns:svgjs="http://svgjs.dev/svgjs"><g width="100%" height="100%" transform="matrix(1,0,0,1,0,0)"><path d="m250.578 367.064c1.142.643 2.41.963 3.677.963 1.309 0 2.618-.342 3.786-1.026 2.3-1.345 3.714-3.81 3.714-6.474v-209.132c0-2.665-1.414-5.129-3.714-6.474-2.3-1.346-5.141-1.369-7.463-.063l-103.511 58.225h-61.828c-9.721 0-18.264 5.124-23.082 12.81-20.612 1.711-36.865 19.022-36.865 40.068s16.253 38.357 36.865 40.068c4.819 7.686 13.361 12.81 23.082 12.81h.221l41.689 86.511c1.25 2.595 3.876 4.244 6.756 4.244h34.198c2.432 0 4.713-1.18 6.12-3.164 1.406-1.985 1.763-4.528.956-6.823l-28.386-80.769h.274zm-210.287-111.103c0-11.295 7.464-20.879 17.718-24.079v48.159c-10.254-3.201-17.718-12.785-17.718-24.08zm32.718 25.648v-51.297c0-6.743 5.486-12.229 12.229-12.229h56.292v22.917c0 4.142 3.358 7.5 7.5 7.5s7.5-3.358 7.5-7.5v-26.031l90.224-50.751v183.485l-90.224-50.751v-25.952c0-4.142-3.358-7.5-7.5-7.5s-7.5 3.358-7.5 7.5v22.839h-56.291c-6.743 0-12.23-5.486-12.23-12.23zm84.508 102.985h-18.901l-36.506-75.755h28.782zm180.448-121.133h-38.801c-4.142 0-7.5-3.358-7.5-7.5s3.358-7.5 7.5-7.5h38.801c4.142 0 7.5 3.358 7.5 7.5s-3.358 7.5-7.5 7.5zm-57.636-34.865c-2.929-2.929-2.929-7.678 0-10.606l27.437-27.437c2.929-2.929 7.678-2.929 10.606 0 2.929 2.929 2.929 7.678 0 10.606l-27.437 27.437c-1.464 1.464-3.384 2.197-5.303 2.197s-3.839-.733-5.303-2.197zm0 54.73c2.929-2.929 7.678-2.929 10.606 0l27.437 27.437c2.929 2.929 2.929 7.678 0 10.606-1.464 1.464-3.384 2.197-5.303 2.197s-3.839-.732-5.303-2.197l-27.437-27.437c-2.929-2.928-2.929-7.677 0-10.606zm77.607-97.898c0 35.503 28.884 64.387 64.387 64.387s64.387-28.884 64.387-64.387-28.884-64.387-64.387-64.387-64.387 28.884-64.387 64.387zm64.386-49.386c27.232 0 49.387 22.155 49.387 49.387s-22.155 49.387-49.387 49.387-49.387-22.155-49.387-49.387 22.155-49.387 49.387-49.387zm0 126.143c-35.503 0-64.387 28.884-64.387 64.387s28.884 64.387 64.387 64.387 64.387-28.884 64.387-64.387-28.884-64.387-64.387-64.387zm0 113.773c-27.232 0-49.387-22.155-49.387-49.387s22.155-49.387 49.387-49.387 49.387 22.155 49.387 49.387-22.155 49.387-49.387 49.387zm-22.294-200.284c0-4.142 3.358-7.5 7.5-7.5h6.197v-10.914c0-4.142 3.358-7.5 7.5-7.5s7.5 3.358 7.5 7.5v10.914h6.198c4.142 0 7.5 3.358 7.5 7.5s-3.358 7.5-7.5 7.5h-6.198v14.531c0 4.627 3.765 8.391 8.392 8.391 4.142 0 7.5 3.358 7.5 7.5s-3.358 7.5-7.5 7.5c-12.898 0-23.392-10.493-23.392-23.391v-14.531h-6.197c-4.142 0-7.5-3.358-7.5-7.5zm55.786 150.898c0 18.468-15.024 33.492-33.492 33.492-18.467 0-33.492-15.024-33.492-33.492 0-18.467 15.024-33.492 33.492-33.492 7.214 0 14.087 2.259 19.877 6.534 3.332 2.46 4.04 7.156 1.579 10.488-2.459 3.332-7.156 4.04-10.488 1.579-3.191-2.356-6.984-3.601-10.968-3.601-10.196 0-18.492 8.295-18.492 18.492s8.295 18.492 18.492 18.492c7.528 0 14.02-4.522 16.902-10.992h-16.902c-4.142 0-7.5-3.358-7.5-7.5s3.358-7.5 7.5-7.5h25.992c4.143 0 7.5 3.358 7.5 7.5zm-138.847-179.299c35.503 0 64.387-28.884 64.387-64.387s-28.884-64.386-64.387-64.386-64.386 28.884-64.386 64.387 28.883 64.386 64.386 64.386zm0-113.773c27.232 0 49.387 22.155 49.387 49.387s-22.155 49.387-49.387 49.387c-27.231 0-49.386-22.155-49.386-49.387s22.155-49.387 49.386-49.387zm-22.294 45.654c0-4.142 3.358-7.5 7.5-7.5h6.197v-1.044c0-12.898 10.493-23.392 23.391-23.392 4.142 0 7.5 3.358 7.5 7.5s-3.358 7.5-7.5 7.5c-4.627 0-8.391 3.765-8.391 8.392v1.044h6.197c4.142 0 7.5 3.358 7.5 7.5s-3.358 7.5-7.5 7.5h-6.197v24.401c0 4.142-3.358 7.5-7.5 7.5s-7.5-3.358-7.5-7.5v-24.401h-6.197c-4.142 0-7.5-3.358-7.5-7.5zm22.294 285.573c-35.503 0-64.386 28.884-64.386 64.387s28.883 64.387 64.386 64.387 64.387-28.884 64.387-64.387-28.884-64.387-64.387-64.387zm0 113.773c-27.231 0-49.386-22.155-49.386-49.387s22.155-49.387 49.386-49.387c27.232 0 49.387 22.155 49.387 49.387s-22.155 49.387-49.387 49.387zm19.978-66.878-21.841-15.381c-4.133-2.911-8.279-4.387-12.321-4.387-7.779 0-15.628 5.84-15.628 18.889v36.743c0 13.048 7.849 18.889 15.628 18.889 4.042 0 8.188-1.476 12.321-4.387l21.841-15.381c6.251-4.402 9.835-10.777 9.835-17.492s-3.584-13.092-9.835-17.493zm-8.637 22.719-21.841 15.381c-2.024 1.425-3.223 1.624-3.596 1.648-.261-.424-.717-1.63-.717-3.886v-36.743c0-2.255.456-3.461.717-3.886.373.025 1.572.223 3.595 1.648l21.841 15.381c2.239 1.577 3.472 3.434 3.472 5.228s-1.232 3.652-3.471 5.229z" fill="#ea1b29" fill-opacity="1" data-original-color="#000000ff" stroke="none" stroke-opacity="1"/></g></svg>