<svg height="300" viewBox="0 0 480 480" width="300" xmlns="http://www.w3.org/2000/svg" version="1.1" xmlns:xlink="http://www.w3.org/1999/xlink" xmlns:svgjs="http://svgjs.dev/svgjs"><g width="100%" height="100%" transform="matrix(1,0,0,1,0,0)"><path d="m128 200c39.703125 0 72-32.296875 72-72s-32.296875-72-72-72-72 32.296875-72 72 32.296875 72 72 72zm0-128c30.871094 0 56 25.128906 56 56s-25.128906 56-56 56-56-25.128906-56-56 25.128906-56 56-56zm0 0" fill="#ea1b29" fill-opacity="1" data-original-color="#000000ff" stroke="none" stroke-opacity="1"/><path d="m5.488281 155.640625 22.632813 7.496094 4.4375 10.703125-9.558594 20.136718c-1.238281 2.617188-.976562 5.703126.703125 8.0625 8.34375 11.730469 18.511719 21.90625 30.242187 30.25 2.367188 1.6875 5.460938 1.949219 8.070313.710938l20.144531-9.558594 10.710938 4.445313 7.496094 22.632812c1.082031 3.273438 4.128906 5.480469 7.585937 5.480469h40.09375c3.457031 0 6.503906-2.207031 7.59375-5.488281l7.375-22.273438c3.792969-1.328125 7.519531-2.871093 11.167969-4.636719l19.808594 9.398438c2.609374 1.238281 5.703124.976562 8.070312-.710938 11.722656-8.335937 21.898438-18.511718 30.234375-30.234374 1.6875-2.367188 1.949219-5.453126.710937-8.070313l-9.398437-19.808594c1.765625-3.640625 3.3125-7.375 4.636719-11.167969l22.273437-7.375c3.273438-1.082031 5.480469-4.128906 5.480469-7.585937v-40.09375c0-3.457031-2.207031-6.503906-5.488281-7.59375l-22.273438-7.375c-1.328125-3.792969-2.871093-7.519531-4.636719-11.167969l9.398438-19.808594c1.238281-2.617187.976562-5.703124-.710938-8.070312-8.335937-11.722656-18.511718-21.898438-30.234374-30.234375-2.367188-1.6875-5.460938-1.949219-8.070313-.710937l-19.808594 9.40625c-3.640625-1.765626-7.375-3.308594-11.167969-4.636719l-7.375-22.273438c-1.082031-3.28125-4.136718-5.488281-7.585937-5.488281h-40.09375c-3.457031 0-6.503906 2.207031-7.59375 5.488281l-7.496094 22.632813-10.703125 4.4375-20.144531-9.558594c-2.609375-1.238281-5.703125-.976562-8.070313.710938-11.722656 8.335937-21.898437 18.511718-30.234374 30.234374-1.6875 2.367188-1.949219 5.453126-.710938 8.070313l9.558594 20.144531-4.445313 10.710938-22.632812 7.496094c-3.273438 1.082031-5.480469 4.128906-5.480469 7.585937v40.09375c0 3.457031 2.207031 6.503906 5.488281 7.59375zm10.511719-41.90625 20.617188-6.832031c2.199218-.726563 3.984374-2.382813 4.871093-4.519532l7.207031-17.375c.863282-2.097656.808594-4.457031-.167968-6.496093l-9.015625-19.015625c5.800781-7.488282 12.496093-14.175782 19.976562-19.976563l19.015625 9.023438c2.054688.984375 4.40625 1.03125 6.496094.167969l17.375-7.207032c2.144531-.886718 3.800781-2.671875 4.519531-4.871094l6.839844-20.632812h28.53125l6.832031 20.617188c.8125 2.460937 2.773438 4.375 5.253906 5.136718 5.472657 1.671875 10.832032 3.894532 15.953126 6.621094 2.222656 1.175781 4.886718 1.25 7.183593.167969l19.015625-9.023438c7.488282 5.800781 14.175782 12.496094 19.976563 19.976563l-9.023438 19.015625c-1.089843 2.289062-1.023437 4.953125.167969 7.183593 2.726562 5.121094 4.949219 10.488282 6.621094 15.953126.761718 2.488281 2.675781 4.449218 5.136718 5.253906l20.617188 6.832031v28.53125l-20.617188 6.832031c-2.460937.8125-4.375 2.773438-5.136718 5.253906-1.671875 5.472657-3.894532 10.832032-6.621094 15.953126-1.183594 2.230468-1.25 4.894531-.167969 7.183593l9.023438 19.015625c-5.800781 7.488282-12.496094 14.175782-19.976563 19.976563l-19.015625-9.023438c-2.296875-1.097656-4.960937-1.03125-7.183593.167969-5.121094 2.726562-10.488282 4.949219-15.953126 6.621094-2.488281.761718-4.449218 2.675781-5.253906 5.136718l-6.832031 20.617188h-28.53125l-6.832031-20.617188c-.726563-2.199218-2.382813-3.984374-4.519532-4.871093l-17.375-7.207031c-2.097656-.863282-4.449218-.800782-6.496093.167968l-19.015625 9.023438c-7.488282-5.808594-14.175782-12.496094-19.976563-19.984375l9.023438-19.007813c.96875-2.046875 1.03125-4.40625.167969-6.496094l-7.207032-17.375c-.886718-2.144531-2.671875-3.800781-4.871094-4.519531l-20.632812-6.847656zm0 0" fill="#ea1b29" fill-opacity="1" data-original-color="#000000ff" stroke="none" stroke-opacity="1"/><path d="m472 0h-296v16h288v448h-392v-216h-16v224c0 4.425781 3.574219 8 8 8h408c4.425781 0 8-3.574219 8-8v-464c0-4.425781-3.574219-8-8-8zm0 0" fill="#ea1b29" fill-opacity="1" data-original-color="#000000ff" stroke="none" stroke-opacity="1"/><path d="m96 384c-4.425781 0-8 3.574219-8 8v48c0 4.425781 3.574219 8 8 8h32c4.425781 0 8-3.574219 8-8v-48c0-4.425781-3.574219-8-8-8zm24 48h-16v-32h16zm0 0" fill="#ea1b29" fill-opacity="1" data-original-color="#000000ff" stroke="none" stroke-opacity="1"/><path d="m192 328h-32c-4.425781 0-8 3.574219-8 8v104c0 4.425781 3.574219 8 8 8h32c4.425781 0 8-3.574219 8-8v-104c0-4.425781-3.574219-8-8-8zm-8 104h-16v-88h16zm0 0" fill="#ea1b29" fill-opacity="1" data-original-color="#000000ff" stroke="none" stroke-opacity="1"/><path d="m224 264c-4.425781 0-8 3.574219-8 8v168c0 4.425781 3.574219 8 8 8h32c4.425781 0 8-3.574219 8-8v-168c0-4.425781-3.574219-8-8-8zm24 168h-16v-152h16zm0 0" fill="#ea1b29" fill-opacity="1" data-original-color="#000000ff" stroke="none" stroke-opacity="1"/><path d="m368 344c.609375 0 1.222656-.070312 1.832031-.207031 2.703125-.640625 4.871094-2.625 5.753907-5.257813l6.183593-18.535156h9.832031c22.269532 0 40.398438-18.128906 40.398438-40.398438v-39.203124c0-22.269532-18.128906-40.398438-40.398438-40.398438h-63.203124c-22.269532 0-40.398438 18.128906-40.398438 40.398438v39.203124c0 22.269532 18.128906 40.398438 40.398438 40.398438h12.289062l21.65625 21.65625c1.511719 1.511719 3.558594 2.34375 5.65625 2.34375zm-24-40h-15.601562c-13.453126 0-24.398438-10.945312-24.398438-24.398438v-39.203124c0-13.453126 10.945312-24.398438 24.398438-24.398438h63.203124c13.453126 0 24.398438 10.945312 24.398438 24.398438v39.203124c0 13.453126-10.945312 24.398438-24.398438 24.398438h-15.601562c-3.449219 0-6.503906 2.199219-7.585938 5.472656l-3.910156 11.71875-14.839844-14.839844c-1.503906-1.511718-3.535156-2.351562-5.664062-2.351562zm0 0" fill="#ea1b29" fill-opacity="1" data-original-color="#000000ff" stroke="none" stroke-opacity="1"/><path d="m320 232h48v16h-48zm0 0" fill="#ea1b29" fill-opacity="1" data-original-color="#000000ff" stroke="none" stroke-opacity="1"/><path d="m320 264h40v16h-40zm0 0" fill="#ea1b29" fill-opacity="1" data-original-color="#000000ff" stroke="none" stroke-opacity="1"/><path d="m384 232h16v16h-16zm0 0" fill="#ea1b29" fill-opacity="1" data-original-color="#000000ff" stroke="none" stroke-opacity="1"/><path d="m376 264h24v16h-24zm0 0" fill="#ea1b29" fill-opacity="1" data-original-color="#000000ff" stroke="none" stroke-opacity="1"/><path d="m285.65625 189.65625 45.65625-45.65625h44.6875c2.28125 0 4.464844-.976562 5.976562-2.6875l50.023438-56.273438v18.960938h16v-40c0-4.425781-3.574219-8-8-8h-40v16h22.191406l-49.785156 56h-44.40625c-2.128906 0-4.160156.839844-5.65625 2.34375l-48 48zm0 0" fill="#ea1b29" fill-opacity="1" data-original-color="#000000ff" stroke="none" stroke-opacity="1"/><path d="m108.222656 167.054688c1.183594.632812 2.480469.945312 3.777344.945312 1.550781 0 3.105469-.457031 4.441406-1.34375l48-32c2.222656-1.488281 3.558594-3.984375 3.558594-6.65625s-1.335938-5.167969-3.558594-6.65625l-48-32c-2.457031-1.632812-5.617187-1.792969-8.210937-.398438-2.605469 1.390626-4.230469 4.101563-4.230469 7.054688v64c0 2.953125 1.625 5.664062 4.222656 7.054688zm11.777344-56.109376 25.574219 17.054688-25.574219 17.054688zm0 0" fill="#ea1b29" fill-opacity="1" data-original-color="#000000ff" stroke="none" stroke-opacity="1"/><path d="m368 448h72c4.425781 0 8-3.574219 8-8v-33.214844c0-11.929687-6.832031-22.371094-17-27.433594.664062-2.375 1-4.847656 1-7.351562 0-15.441406-12.558594-28-28-28s-28 12.558594-28 28c0 2.503906.335938 4.976562 1 7.351562-10.167969 5.0625-17 15.496094-17 27.433594v33.214844c0 4.425781 3.574219 8 8 8zm8-41.214844c0-7.488281 5.664062-13.761718 13.167969-14.578125 2.878906-.320312 5.367187-2.167969 6.496093-4.839843 1.136719-2.671876.726563-5.75-1.0625-8.03125-1.1875-1.527344-2.601562-4.03125-2.601562-7.335938 0-6.617188 5.382812-12 12-12s12 5.382812 12 12c0 3.304688-1.414062 5.808594-2.601562 7.328125-1.789063 2.28125-2.191407 5.359375-1.0625 8.03125 1.128906 2.671875 3.609374 4.519531 6.496093 4.839844 7.503907.824219 13.167969 7.097656 13.167969 14.585937v25.214844h-56zm0 0" fill="#ea1b29" fill-opacity="1" data-original-color="#000000ff" stroke="none" stroke-opacity="1"/><path d="m312 64h16v16h-16zm0 0" fill="#ea1b29" fill-opacity="1" data-original-color="#000000ff" stroke="none" stroke-opacity="1"/><path d="m280 32h16v16h-16zm0 0" fill="#ea1b29" fill-opacity="1" data-original-color="#000000ff" stroke="none" stroke-opacity="1"/><path d="m280 64h16v16h-16zm0 0" fill="#ea1b29" fill-opacity="1" data-original-color="#000000ff" stroke="none" stroke-opacity="1"/><path d="m344 64h16v16h-16zm0 0" fill="#ea1b29" fill-opacity="1" data-original-color="#000000ff" stroke="none" stroke-opacity="1"/><path d="m312 32h16v16h-16zm0 0" fill="#ea1b29" fill-opacity="1" data-original-color="#000000ff" stroke="none" stroke-opacity="1"/></g></svg>