<svg id="Layer_1" enable-background="new 0 0 468 468" height="300" viewBox="0 0 468 468" width="300" xmlns="http://www.w3.org/2000/svg" version="1.1" xmlns:xlink="http://www.w3.org/1999/xlink" xmlns:svgjs="http://svgjs.dev/svgjs"><g width="100%" height="100%" transform="matrix(1,0,0,1,0,0)"><g><g id="XMLID_32_"><path d="m204.731 362.962c-2.761 0-5-2.239-5-5v-5.095c0-2.761 2.239-5 5-5s5 2.239 5 5v5.095c0 2.761-2.239 5-5 5z" fill="#ea1b29" fill-opacity="1" data-original-color="#000000ff" stroke="none" stroke-opacity="1"/><path d="m264.733 362.962c-2.761 0-5-2.239-5-5v-5.095c0-2.761 2.239-5 5-5s5 2.239 5 5v5.095c0 2.761-2.239 5-5 5z" fill="#ea1b29" fill-opacity="1" data-original-color="#000000ff" stroke="none" stroke-opacity="1"/><g><path d="m296.734 367.233c-2.761 0-5-2.239-5-5v-34.271c0-2.761 2.239-5 5-5s5 2.239 5 5v34.271c0 2.762-2.239 5-5 5z" fill="#ea1b29" fill-opacity="1" data-original-color="#000000ff" stroke="none" stroke-opacity="1"/><path d="m296.734 312.962c-2.761 0-5-2.239-5-5v-5.095c0-2.761 2.239-5 5-5s5 2.239 5 5v5.095c0 2.761-2.239 5-5 5z" fill="#ea1b29" fill-opacity="1" data-original-color="#000000ff" stroke="none" stroke-opacity="1"/></g><g><path d="m172.73 367.233c-2.761 0-5-2.239-5-5v-34.271c0-2.761 2.239-5 5-5s5 2.239 5 5v34.271c0 2.762-2.239 5-5 5z" fill="#ea1b29" fill-opacity="1" data-original-color="#000000ff" stroke="none" stroke-opacity="1"/><path d="m172.73 312.962c-2.761 0-5-2.239-5-5v-5.095c0-2.761 2.239-5 5-5s5 2.239 5 5v5.095c0 2.761-2.239 5-5 5z" fill="#ea1b29" fill-opacity="1" data-original-color="#000000ff" stroke="none" stroke-opacity="1"/></g></g><path d="m117.003 326.833h-82.002c-2.761 0-5-2.239-5-5s2.239-5 5-5h82.002c2.761 0 5 2.239 5 5s-2.239 5-5 5z" fill="#ea1b29" fill-opacity="1" data-original-color="#000000ff" stroke="none" stroke-opacity="1"/><path d="m106.905 196.618h-72.001c-2.761 0-5-2.239-5-5s2.239-5 5-5h72.001c6.258 0 6.542 10 0 10z" fill="#ea1b29" fill-opacity="1" data-original-color="#000000ff" stroke="none" stroke-opacity="1"/><g id="XMLID_64_"><g id="XMLID_329_"><path d="m177.337 130.847c-2.761 0-5-2.239-5-5 0-33.423 27.538-60.615 61.388-60.615 2.761 0 5 2.239 5 5s-2.239 5-5 5c-28.335 0-51.388 22.706-51.388 50.615 0 2.761-2.239 5-5 5z" fill="#ea1b29" fill-opacity="1" data-original-color="#000000ff" stroke="none" stroke-opacity="1"/><path d="m458.764 205.138c-12.315-12.313-32.352-12.313-44.666 0l-9.014 9.014-23.859 23.858v-17.019c0-2.101-1.314-3.978-3.288-4.698-23.77-8.663-48.824-12.953-74.464-12.722-2.761.024-4.981 2.282-4.957 5.043.024 2.747 2.258 4.957 4.999 4.957h.044c23.253-.214 46.005 3.481 67.665 10.952v23.487l-40.031 40.03c-.686.686-1.157 1.556-1.357 2.504l-10.106 47.95c-.726 3.444 2.435 6.682 5.956 5.917l45.538-9.914v79.116c-32.807-10.721-67.702-13.202-101.492-7.466v-28.184c0-2.761-2.239-5-5-5s-5 2.239-5 5v30.122c-6.733 1.478-13.408 3.286-20.001 5.427v-123.512h14.806c9.374 0 17.001-7.626 17.001-17v-15.656c10.317-2.556 17.989-11.89 17.989-22.986 0-9.411-5.518-17.555-13.489-21.372 3.723-8.195 9.24-15.639 16.161-21.737 18.831-16.593 29.63-40.431 29.63-65.402 0-48.22-39.524-87.45-88.105-87.45s-88.105 39.23-88.105 87.45c0 24.972 10.8 48.81 29.63 65.402 6.99 6.159 12.544 13.684 16.268 21.969-7.721 3.906-13.03 11.913-13.03 21.141 0 11.095 7.672 20.429 17.989 22.985v15.656c0 9.374 7.626 17 17.001 17h16.254v123.619c-6.592-2.154-13.268-3.974-20.001-5.464v-30.193c0-2.761-2.239-5-5-5s-5 2.239-5 5v28.237c-33.898-5.813-68.919-3.349-101.847 7.413v-47.618l17.307 16.815c3.178 3.087 8.462.709 8.485-3.56l.131-25.248c15.767-1.887 28.093-15.311 28.197-31.581.111-17.446-14.419-32.138-31.871-32.215l-22.249-.102v-44.393l7.307 7.099c3.178 3.087 8.462.709 8.485-3.56l.131-25.248c6.59-.789 12.573-3.598 17.32-7.782 11.562-1.872 23.354-2.761 35.072-2.63h.058c2.735 0 4.967-2.201 4.999-4.943.032-2.761-2.181-5.025-4.943-5.057-9-.104-18.032.379-26.983 1.409 1.69-3.859 2.646-8.111 2.674-12.579.111-17.445-14.418-32.138-31.869-32.215l-77.969-.392c-.055 0-.108 0-.163 0-17.549 0-31.89 14.232-32.002 31.8-.11 17.431 14.398 32.115 31.835 32.207l43.754.23 12.293 11.943v9.366c-7.807 2.703-24.201 8.627-25.034 8.928-1.981.716-3.3 2.596-3.3 4.702v30.938l-27.4-.126c-.05 0-.099 0-.149 0-17.545 0-31.887 14.234-31.999 31.797-.11 17.438 14.41 32.122 31.853 32.204l27.695.128v106.096c0 3.421 3.508 5.87 6.72 4.695 11.945-4.375 23.84-8.887 35.835-13.124 29.97-10.585 60.276-12.562 95.045-6.156v17.56c0 2.761 2.239 5 5 5h64.813c2.761 0 5-2.239 5-5v-18.774c45.225-8.761 86.1 4.097 130.88 20.496 3.212 1.177 6.719-1.275 6.719-4.695v-161.021l49.205-49.203c12.314-12.315 12.314-32.351-.001-44.665zm-127.655 127.857 6.622-31.417 24.621 24.615zm-149.247-149.249c-16.677-14.694-26.242-35.798-26.242-57.899 0-42.706 35.038-77.45 78.105-77.45s78.105 34.744 78.105 77.45c0 22.101-9.565 43.204-26.242 57.899-8.492 7.482-15.159 16.736-19.457 26.938-.096-.001-.191-.007-.287-.007h-26.836v-43.925c12.653-2.364 22.264-13.52 22.264-26.893 0-15.087-12.23-27.362-27.264-27.362s-27.264 12.275-27.264 27.362c0 13.373 9.611 24.529 22.264 26.893v43.925h-26.836c-.283 0-.563.012-.844.021-4.298-10.206-10.967-19.463-19.466-26.952zm52.146-26.525c-9.519 0-17.264-7.789-17.264-17.362s7.744-17.362 17.264-17.362c9.519 0 17.264 7.789 17.264 17.362s-7.745 17.362-17.264 17.362zm-45.519 77.137c0-7.544 6.138-13.682 13.683-13.682h63.673c7.545 0 13.683 6.138 13.683 13.682s-6.138 13.682-13.683 13.682h-63.673c-7.546.001-13.683-6.137-13.683-13.682zm24.989 45.642c-3.86 0-7-3.14-7-7v-14.959h55.06v14.959c0 3.86-3.14 7-7 7zm-132.363-64.525c-.927-.9-2.166-1.407-3.458-1.414l-45.768-.241c-12.005-.063-21.964-10.139-21.887-22.143.077-12.079 9.936-21.864 22.002-21.864h.112l77.972.392c12.017.053 21.992 10.135 21.915 22.151-.077 12.076-9.943 21.872-22.01 21.871-.026 0-.053 0-.078 0l-1.065-.004c-.007 0-.013 0-.019 0-2.75 0-4.986 2.222-5 4.974l-.095 18.255zm-11.566 47.026c5.619-2.025 13.003-4.673 18.334-6.55v34.106l-18.334-.084zm-37.649 81.302c-12.009-.056-21.976-10.132-21.899-22.141.077-12.075 9.936-21.861 21.999-21.861h.103l87.985.403c12.017.053 21.992 10.135 21.915 22.151-.077 12.076-9.943 21.872-22.01 21.871-.026 0-.053 0-.078 0l-1.065-.004c-.007 0-.013 0-.019 0-2.75 0-4.986 2.222-5 4.974l-.095 18.255-22.621-21.978c-.928-.901-2.168-1.408-3.462-1.414zm367.659 109.086c-44.965-16.201-86.585-27.996-133.675-17.616-2.292.505-3.924 2.536-3.924 4.883v17.844h-54.812v-16.688c0-2.382-1.681-4.434-4.016-4.902-38.306-7.688-71.468-5.858-104.359 5.759-9.781 3.454-19.496 7.09-29.224 10.688v-98.88l16.043.074 2.291 2.226v64.351c0 3.417 3.502 5.867 6.713 4.698 44.171-16.1 92.803-16.262 137.078-.484 1.638 1.048 4.104 1.053 5.746.01 44.284-15.785 92.925-15.624 137.093.475 3.199 1.166 6.713-1.29 6.713-4.698v-93.289l18.334-18.333v143.882zm-27.197-130.829-30.527-30.52 66.785-66.782 30.524 30.522zm79.331-79.329-5.478 5.478-30.524-30.522 5.478-5.478c8.415-8.415 22.108-8.415 30.523 0s8.416 22.107.001 30.522z" fill="#ea1b29" fill-opacity="1" data-original-color="#000000ff" stroke="none" stroke-opacity="1"/></g><g id="XMLID_315_"><path d="m233.802 20.159c-2.761 0-5-2.239-5-5v-10.159c0-2.761 2.239-5 5-5s5 2.239 5 5v10.159c0 2.761-2.239 5-5 5z" fill="#ea1b29" fill-opacity="1" data-original-color="#000000ff" stroke="none" stroke-opacity="1"/><path d="m147.134 58.452c-1.288 0-2.574-.494-3.552-1.481l-7.116-7.183c-1.943-1.962-1.928-5.128.033-7.071 1.962-1.943 5.127-1.929 7.072.033l7.116 7.183c2.948 2.976.631 8.519-3.553 8.519z" fill="#ea1b29" fill-opacity="1" data-original-color="#000000ff" stroke="none" stroke-opacity="1"/><path d="m122.028 119.185h-10.063c-2.761 0-5-2.239-5-5s2.239-5 5-5h10.063c2.761 0 5 2.239 5 5s-2.239 5-5 5z" fill="#ea1b29" fill-opacity="1" data-original-color="#000000ff" stroke="none" stroke-opacity="1"/><path d="m356.051 118.77h-10.063c-2.761 0-5-2.239-5-5s2.239-5 5-5h10.063c2.761 0 5 2.239 5 5s-2.239 5-5 5z" fill="#ea1b29" fill-opacity="1" data-original-color="#000000ff" stroke="none" stroke-opacity="1"/><path d="m320.59 58.158c-4.184 0-6.5-5.543-3.552-8.519l7.116-7.183c1.944-1.962 5.11-1.976 7.072-.033 1.961 1.943 1.977 5.109.033 7.071l-7.116 7.183c-.978.987-2.266 1.481-3.553 1.481z" fill="#ea1b29" fill-opacity="1" data-original-color="#000000ff" stroke="none" stroke-opacity="1"/></g></g><g><path d="m425.014 62.29c-2.761 0-5-2.239-5-5v-7.72c0-2.761 2.239-5 5-5s5 2.239 5 5v7.72c0 2.761-2.239 5-5 5z" fill="#ea1b29" fill-opacity="1" data-original-color="#000000ff" stroke="none" stroke-opacity="1"/><path d="m425.014 94.588c-2.761 0-5-2.239-5-5v-7.721c0-2.761 2.239-5 5-5s5 2.239 5 5v7.721c0 2.762-2.239 5-5 5z" fill="#ea1b29" fill-opacity="1" data-original-color="#000000ff" stroke="none" stroke-opacity="1"/><path d="m445.014 74.579h-7.717c-2.761 0-5-2.239-5-5s2.239-5 5-5h7.717c2.761 0 5 2.239 5 5s-2.238 5-5 5z" fill="#ea1b29" fill-opacity="1" data-original-color="#000000ff" stroke="none" stroke-opacity="1"/><path d="m412.73 74.579h-7.717c-2.761 0-5-2.239-5-5s2.239-5 5-5h7.717c2.761 0 5 2.239 5 5s-2.239 5-5 5z" fill="#ea1b29" fill-opacity="1" data-original-color="#000000ff" stroke="none" stroke-opacity="1"/></g><g><path d="m43.002 62.29c-2.761 0-5-2.239-5-5v-7.72c0-2.761 2.239-5 5-5s5 2.239 5 5v7.72c0 2.761-2.239 5-5 5z" fill="#ea1b29" fill-opacity="1" data-original-color="#000000ff" stroke="none" stroke-opacity="1"/><path d="m43.002 94.588c-2.761 0-5-2.239-5-5v-7.721c0-2.761 2.239-5 5-5s5 2.239 5 5v7.721c0 2.762-2.239 5-5 5z" fill="#ea1b29" fill-opacity="1" data-original-color="#000000ff" stroke="none" stroke-opacity="1"/><path d="m63.002 74.579h-7.717c-2.761 0-5-2.239-5-5s2.239-5 5-5h7.717c2.761 0 5 2.239 5 5s-2.239 5-5 5z" fill="#ea1b29" fill-opacity="1" data-original-color="#000000ff" stroke="none" stroke-opacity="1"/><path d="m30.718 74.579h-7.717c-2.761 0-5-2.239-5-5s2.239-5 5-5h7.717c2.761 0 5 2.239 5 5s-2.239 5-5 5z" fill="#ea1b29" fill-opacity="1" data-original-color="#000000ff" stroke="none" stroke-opacity="1"/></g></g></g></svg>