<svg id="Layer_1" enable-background="new 0 0 64 64" height="300" viewBox="0 0 64 64" width="300" xmlns="http://www.w3.org/2000/svg" version="1.1" xmlns:xlink="http://www.w3.org/1999/xlink" xmlns:svgjs="http://svgjs.dev/svgjs"><g width="100%" height="100%" transform="matrix(1,0,0,1,0,0)"><g><g><path d="m42.1 62h-37c-.6 0-1-.4-1-1v-54c0-.6.4-1 1-1h9.6c.6 0 1 .4 1 1s-.4 1-1 1h-8.6v52h35v-6c0-.6.4-1 1-1s1 .4 1 1v7c0 .6-.5 1-1 1z" fill="#ea1b29" fill-opacity="1" data-original-color="#000000ff" stroke="none" stroke-opacity="1"/></g></g><g><g><path d="m42.1 49c-.6 0-1-.4-1-1v-26.7c0-.6.4-1 1-1s1 .4 1 1v26.7c0 .6-.5 1-1 1z" fill="#ea1b29" fill-opacity="1" data-original-color="#000000ff" stroke="none" stroke-opacity="1"/></g></g><g><g><path d="m39.1 59h-31c-.6 0-1-.4-1-1v-48c0-.6.4-1 1-1h5.7c.6 0 1 .4 1 1s-.4 1-1 1h-4.7v46h29v-3c0-.6.4-1 1-1s1 .4 1 1v4c0 .6-.5 1-1 1z" fill="#ea1b29" fill-opacity="1" data-original-color="#000000ff" stroke="none" stroke-opacity="1"/></g></g><g><g><path d="m39.1 49c-.6 0-1-.4-1-1v-26c0-.6.4-1 1-1s1 .4 1 1v26c0 .6-.5 1-1 1z" fill="#ea1b29" fill-opacity="1" data-original-color="#000000ff" stroke="none" stroke-opacity="1"/></g></g><g><g><path d="m29 14.2h-11.5c-2.3 0-4.4-1.7-4.7-4.1-.1-.2-.1-.5-.1-.7 0-1.1.4-2.2 1.2-3.1.9-1.1 2.2-1.7 3.6-1.7h1.5c.5-2.1 2.4-3.8 4.6-3.8s4.2 1.6 4.6 3.8h1.5c.8 0 1.5.2 2.2.6.5.3.7.9.4 1.4-.2.5-.8.7-1.3.4-.4-.2-.8-.3-1.3-.3h-2.3c-.6 0-1-.4-1-1 0-1.5-1.2-2.8-2.8-2.8s-2.8 1.2-2.8 2.8c0 .6-.4 1-1 1h-2.3c-.8 0-1.6.4-2.1 1-.4.5-.7 1.1-.7 1.8v.3c.2 1.4 1.4 2.4 2.7 2.4h11.6c.6 0 1 .4 1 1s-.4 1-1 1z" fill="#ea1b29" fill-opacity="1" data-original-color="#000000ff" stroke="none" stroke-opacity="1"/></g></g><g><g><path d="m22.2 42.4c-4.8 0-8.6-3.9-8.6-8.6 0-4.8 3.9-8.6 8.6-8.6.7 0 1.4.1 2 .2.5.1.9.7.7 1.2-.1.5-.7.9-1.2.7-.5-.1-1-.2-1.5-.2-3.7 0-6.6 3-6.6 6.6 0 3.7 3 6.6 6.6 6.6 3.7 0 6.7-3 6.7-6.6 0-.5-.1-1-.2-1.5s.2-1.1.7-1.2 1.1.2 1.2.7c.2.6.2 1.3.2 2 .1 4.8-3.8 8.7-8.6 8.7z" fill="#ea1b29" fill-opacity="1" data-original-color="#000000ff" stroke="none" stroke-opacity="1"/></g></g><g><g><path d="m32.2 33h-8.2c-.6 0-1-.4-1-1v-8.2c0-.6.4-1 1-1 5.1 0 9.2 4.1 9.2 9.2 0 .6-.4 1-1 1zm-7.2-2h6.2c-.4-3.2-3-5.7-6.2-6.2z" fill="#ea1b29" fill-opacity="1" data-original-color="#000000ff" stroke="none" stroke-opacity="1"/></g></g><g><g><g><path d="m20.8 51h-9c-.6 0-1-.4-1-1s.4-1 1-1h9c.6 0 1 .4 1 1s-.4 1-1 1z" fill="#ea1b29" fill-opacity="1" data-original-color="#000000ff" stroke="none" stroke-opacity="1"/></g></g><g><g><path d="m20.8 54h-9c-.6 0-1-.4-1-1s.4-1 1-1h9c.6 0 1 .4 1 1s-.4 1-1 1z" fill="#ea1b29" fill-opacity="1" data-original-color="#000000ff" stroke="none" stroke-opacity="1"/></g></g></g><g><g><g><path d="m20.8 18h-9c-.6 0-1-.4-1-1s.4-1 1-1h9c.6 0 1 .4 1 1s-.4 1-1 1z" fill="#ea1b29" fill-opacity="1" data-original-color="#000000ff" stroke="none" stroke-opacity="1"/></g></g><g><g><path d="m20.8 21h-9c-.6 0-1-.4-1-1s.4-1 1-1h9c.6 0 1 .4 1 1s-.4 1-1 1z" fill="#ea1b29" fill-opacity="1" data-original-color="#000000ff" stroke="none" stroke-opacity="1"/></g></g></g><g><g><path d="m55 55h-25c-.6 0-1-.4-1-1v-6c0-.6.4-1 1-1h25c2.2 0 4 1.8 4 4s-1.8 4-4 4zm-24-2h24c1.1 0 2-.9 2-2s-.9-2-2-2h-24z" fill="#ea1b29" fill-opacity="1" data-original-color="#000000ff" stroke="none" stroke-opacity="1"/></g></g><g><g><path d="m30 55c-.2 0-.3 0-.4-.1l-6-3c-.4-.2-.6-.5-.6-.9s.2-.7.6-.9l6-3c.5-.2 1.1 0 1.3.4.2.5 0 1.1-.4 1.3l-4.3 2.2 4.2 2.1c.5.2.7.8.4 1.3-.1.4-.4.6-.8.6z" fill="#ea1b29" fill-opacity="1" data-original-color="#000000ff" stroke="none" stroke-opacity="1"/></g></g><g><g><path d="m54 55c-.6 0-1-.4-1-1v-6c0-.6.4-1 1-1s1 .4 1 1v6c0 .6-.4 1-1 1z" fill="#ea1b29" fill-opacity="1" data-original-color="#000000ff" stroke="none" stroke-opacity="1"/></g></g><g><g><path d="m53 52h-23c-.6 0-1-.4-1-1s.4-1 1-1h23c.6 0 1 .4 1 1s-.4 1-1 1z" fill="#ea1b29" fill-opacity="1" data-original-color="#000000ff" stroke="none" stroke-opacity="1"/></g></g><g><g><path d="m38.5 23c-5.8 0-10.5-4.7-10.5-10.5s4.7-10.5 10.5-10.5 10.5 4.7 10.5 10.5-4.7 10.5-10.5 10.5zm0-19c-4.7 0-8.5 3.8-8.5 8.5s3.8 8.5 8.5 8.5 8.5-3.8 8.5-8.5-3.8-8.5-8.5-8.5z" fill="#ea1b29" fill-opacity="1" data-original-color="#000000ff" stroke="none" stroke-opacity="1"/></g></g><g><g><g><path d="m39 17c-2.8 0-5-2.2-5-5s2.2-5 5-5 5 2.2 5 5-2.2 5-5 5zm0-8c-1.7 0-3 1.3-3 3s1.3 3 3 3 3-1.3 3-3-1.3-3-3-3z" fill="#ea1b29" fill-opacity="1" data-original-color="#000000ff" stroke="none" stroke-opacity="1"/></g></g><g><g><path d="m58.9 13h-20.7c-.6 0-1-.4-1-1s.4-1 1-1h20.7c.6 0 1 .4 1 1s-.5 1-1 1z" fill="#ea1b29" fill-opacity="1" data-original-color="#000000ff" stroke="none" stroke-opacity="1"/></g></g><g><g><path d="m62.1 16.4h-6.9c-.3 0-.5-.1-.7-.3l-3.4-3.4c-.4-.4-.4-.9-.1-1.3l2.6-3.4c.2-.2.5-.4.8-.4h7.7c.4 0 .7.2.9.6s.1.7-.1 1l-2.1 2.8 2.1 2.8c.2.3.3.7.1 1s-.5.6-.9.6zm-6.4-2h4.4l-1.4-1.8c-.3-.4-.3-.9 0-1.2l1.4-1.8h-5.2l-1.7 2.3z" fill="#ea1b29" fill-opacity="1" data-original-color="#000000ff" stroke="none" stroke-opacity="1"/></g></g></g><g><g><path d="m47.6 27.6c-.3 0-.5-.1-.7-.3l-5-5c-.4-.4-.4-1 0-1.4s1-.4 1.4 0l5 5c.4.4.4 1 0 1.4-.2.2-.5.3-.7.3z" fill="#ea1b29" fill-opacity="1" data-original-color="#000000ff" stroke="none" stroke-opacity="1"/></g></g><g><g><path d="m53 41c-4.4 0-8-3.6-8-8s3.6-8 8-8 8 3.6 8 8-3.6 8-8 8zm0-14c-3.3 0-6 2.7-6 6s2.7 6 6 6 6-2.7 6-6-2.7-6-6-6z" fill="#ea1b29" fill-opacity="1" data-original-color="#000000ff" stroke="none" stroke-opacity="1"/></g></g><g><g><path d="m51 37.6c-.2 0-.3 0-.5-.1-.3-.2-.5-.5-.5-.9v-7.5c0-.4.2-.7.5-.9s.7-.2 1 0l6.5 3.8c.3.2.5.5.5.9s-.2.7-.5.9l-6.5 3.7c-.1.1-.3.1-.5.1zm1-6.7v4l3.5-2z" fill="#ea1b29" fill-opacity="1" data-original-color="#000000ff" stroke="none" stroke-opacity="1"/></g></g><g><g><path d="m19.3 48h-6c-.6 0-1-.4-1-1s.4-1 1-1h6c.6 0 1 .4 1 1s-.4 1-1 1z" fill="#ea1b29" fill-opacity="1" data-original-color="#000000ff" stroke="none" stroke-opacity="1"/></g></g><g><g><path d="m43 48c-.2 0-.4-.1-.6-.2-.4-.3-.5-1-.2-1.4l6.3-8.1c.3-.4 1-.5 1.4-.2s.5 1 .2 1.4l-6.3 8.1c-.2.3-.5.4-.8.4z" fill="#ea1b29" fill-opacity="1" data-original-color="#000000ff" stroke="none" stroke-opacity="1"/></g></g></g></svg>