<svg xmlns="http://www.w3.org/2000/svg" viewBox="0 0 64 64" width="300" height="300" version="1.1" xmlns:xlink="http://www.w3.org/1999/xlink" xmlns:svgjs="http://svgjs.dev/svgjs"><g width="100%" height="100%" transform="matrix(1,0,0,1,0,0)"><g id="Like"><path d="M57,2H7A5.006,5.006,0,0,0,2,7V33a5.006,5.006,0,0,0,5,5H18.126l1.9,1.9a3.668,3.668,0,0,0-.014.393,3.906,3.906,0,0,0,1.374,2.684c-.073.063-.144.128-.212.2a4.006,4.006,0,0,0-1.162,3.119,3.906,3.906,0,0,0,1.374,2.684c-.073.063-.144.128-.212.2a4.006,4.006,0,0,0-1.162,3.119A4.106,4.106,0,0,0,24.169,56h.369a4,4,0,0,0-.527,2.292A4.106,4.106,0,0,0,28.169,62H39a.969.969,0,0,0,.142-.01l13.08-1.869A3,3,0,0,0,55,62h4a3,3,0,0,0,3-3V7A5.006,5.006,0,0,0,57,2ZM4,33V7A3,3,0,0,1,7,4H57a3,3,0,0,1,3,3V34.184A2.966,2.966,0,0,0,59,34H55a3,3,0,0,0-2.816,2H47.767a1,1,0,0,0-.128-1l-2.365-3.039a15.1,15.1,0,0,0,1.033-2.486l3.817-.479A1,1,0,0,0,51,28V22a1,1,0,0,0-.876-.992l-3.817-.479a15.1,15.1,0,0,0-1.033-2.486L47.639,15a1,1,0,0,0-.082-1.321l-4.24-4.24A1,1,0,0,0,42,9.361l-3.04,2.365a15.172,15.172,0,0,0-2.486-1.033l-.478-3.817A1,1,0,0,0,35,6H29a1,1,0,0,0-.992.876l-.478,3.817a15.172,15.172,0,0,0-2.486,1.033L22,9.361a1,1,0,0,0-1.321.082l-4.24,4.24A1,1,0,0,0,16.361,15l2.365,3.039a15.1,15.1,0,0,0-1.033,2.486l-3.817.479A1,1,0,0,0,13,22v6a1,1,0,0,0,.876.992l3.817.479a15.1,15.1,0,0,0,1.033,2.486L16.361,35a1,1,0,0,0-.128,1H7A3,3,0,0,1,4,33Zm41.476,2.57a2.993,2.993,0,0,1-1.389-1.883l1.432,1.84Zm-26.995-.043,2.228-2.863a1,1,0,0,0,.074-1.118A13.1,13.1,0,0,1,19.437,28.3a1,1,0,0,0-.843-.735L15,27.118V22.882l3.594-.45a1,1,0,0,0,.843-.735,13.1,13.1,0,0,1,1.346-3.243,1,1,0,0,0-.074-1.118l-2.228-2.863,2.992-2.992,2.863,2.228a1,1,0,0,0,1.118.075A13.108,13.108,0,0,1,28.7,12.437a1,1,0,0,0,.736-.843L29.883,8h4.234l.45,3.594a1,1,0,0,0,.736.843,13.108,13.108,0,0,1,3.243,1.347,1,1,0,0,0,1.118-.075l2.863-2.228,2.992,2.992-2.228,2.863a1,1,0,0,0-.074,1.118A13.1,13.1,0,0,1,44.563,21.7a1,1,0,0,0,.843.735l3.594.45v4.236l-3.594.45a1,1,0,0,0-.843.735A13.063,13.063,0,0,1,44,29.966V25a5,5,0,0,0-4.761-5,4.855,4.855,0,0,0-.774.045l-1.758-1.757-1.414,1.414L36.386,20.8a5.137,5.137,0,0,0-.731.574A5.351,5.351,0,0,0,34,25.226V35a1,1,0,0,1-1,1H24a3.892,3.892,0,0,0-3.293,1.752ZM38.929,60H28.169a2.13,2.13,0,0,1-2.164-1.852,2.009,2.009,0,0,1,.582-1.561A1.986,1.986,0,0,1,28,56h7a1,1,0,0,0,0-2H24.169a2.13,2.13,0,0,1-2.164-1.852,2.009,2.009,0,0,1,.582-1.561A1.986,1.986,0,0,1,24,50H35a1,1,0,0,0,0-2H24.169a2.13,2.13,0,0,1-2.164-1.852,2.009,2.009,0,0,1,.582-1.561A1.986,1.986,0,0,1,24,44H35a1,1,0,0,0,0-2H24.169a2.13,2.13,0,0,1-2.164-1.852,2.009,2.009,0,0,1,.582-1.561A1.986,1.986,0,0,1,24,38h9a3,3,0,0,0,3-3V25.226a3.341,3.341,0,0,1,1.035-2.4A2.826,2.826,0,0,1,39.144,22,2.995,2.995,0,0,1,42,25v8a5.006,5.006,0,0,0,5,5h5V58.133ZM60,59a1,1,0,0,1-1,1H55a1,1,0,0,1-1-1V37a1,1,0,0,1,1-1h4a1,1,0,0,1,1,1Z" fill="#ea1b29" fill-opacity="1" data-original-color="#000000ff" stroke="none" stroke-opacity="1"/><path d="M21.293,25.707l6,6,1.414-1.414L23.414,25l5.293-5.293-1.414-1.414-6,6A1,1,0,0,0,21.293,25.707Z" fill="#ea1b29" fill-opacity="1" data-original-color="#000000ff" stroke="none" stroke-opacity="1"/><rect x="23.754" y="24" width="16.492" height="1.999" transform="translate(-0.021 49.974) rotate(-75.95)" fill="#ea1b29" fill-opacity="1" data-original-color="#000000ff" stroke="none" stroke-opacity="1"/><rect x="31" y="10" width="2" height="2" fill="#ea1b29" fill-opacity="1" data-original-color="#000000ff" stroke="none" stroke-opacity="1"/><rect x="21.101" y="14.101" width="2" height="2" transform="translate(-4.205 20.05) rotate(-45)" fill="#ea1b29" fill-opacity="1" data-original-color="#000000ff" stroke="none" stroke-opacity="1"/><rect x="17" y="24" width="2" height="2" fill="#ea1b29" fill-opacity="1" data-original-color="#000000ff" stroke="none" stroke-opacity="1"/><rect x="21.101" y="33.9" width="2" height="2" transform="translate(-18.205 25.849) rotate(-45)" fill="#ea1b29" fill-opacity="1" data-original-color="#000000ff" stroke="none" stroke-opacity="1"/><rect x="45" y="24" width="2" height="2" fill="#ea1b29" fill-opacity="1" data-original-color="#000000ff" stroke="none" stroke-opacity="1"/><rect x="40.9" y="14.101" width="2" height="2" transform="translate(1.594 34.05) rotate(-45)" fill="#ea1b29" fill-opacity="1" data-original-color="#000000ff" stroke="none" stroke-opacity="1"/></g></g></svg>