<svg clip-rule="evenodd" fill-rule="evenodd" stroke-linejoin="round" stroke-miterlimit="2" viewBox="0 0 510 510" xmlns="http://www.w3.org/2000/svg" width="300" height="300" version="1.1" xmlns:xlink="http://www.w3.org/1999/xlink" xmlns:svgjs="http://svgjs.dev/svgjs"><g width="100%" height="100%" transform="matrix(1,0,0,1,0,0)"><path d="m288.436 230.26h-13.054l-33.687 53.554c-1.661 2.641-4.868 3.863-7.865 2.999s-5.06-3.607-5.06-6.726v-49.827h-8.999c-15.586 0-28.309-12.723-28.309-28.308v-130.676c0-15.586 12.723-28.309 28.309-28.309h206.513c15.586 0 28.309 12.723 28.309 28.309v17.524c3.58.001 5.857.001 6.505.001 13.301-.672 24.537 10.015 24.537 23.338v176.185h9.365c3.866 0 7 3.134 7 7v16.366c0 12.945-10.615 23.365-23.365 23.365h-166.834c-12.848 0-23.365-10.517-23.365-23.365zm152.157-141.462v-17.522c0-7.878-6.431-14.309-14.309-14.309h-206.513c-7.878 0-14.309 6.431-14.309 14.309v130.676c0 7.877 6.431 14.308 14.309 14.308h15.999c3.866 0 7 3.134 7 7v32.552l22.821-36.279c1.281-2.037 3.518-3.273 5.925-3.273h16.92v-69.329h-25.717c-3.866 0-7-3.134-7-7v-27.792c0-12.848 10.518-23.365 23.366-23.365h.007c1.03 0 113.978.017 161.501.024zm31.042 199.526v-176.185c0-5.369-4.551-9.672-9.92-9.35-.14.008-.28.012-.42.012l-160.827-.024c1.265 2.87 1.968 6.038 1.968 9.362v199.551c0 5.149 4.215 9.365 9.365 9.365 5.149 0 9.365-4.216 9.365-9.365v-16.366c0-3.866 3.134-7 7-7zm-183.199-155.393v-20.792c0-5.148-4.204-9.365-9.352-9.365-5.15 0-9.365 4.215-9.365 9.365v20.792zm42.84 105.406c-3.863 0-7-3.137-7-7 0-3.864 3.137-7 7-7h111.698c3.864 0 7 3.136 7 7 0 3.863-3.136 7-7 7zm0 32.688c-3.863 0-7-3.137-7-7 0-3.864 3.137-7 7-7h111.698c3.864 0 7 3.136 7 7 0 3.863-3.136 7-7 7zm10.829-130.752c-3.863 0-7-3.137-7-7 0-3.864 3.137-7 7-7h90.04c3.864 0 7 3.136 7 7 0 3.863-3.136 7-7 7zm-10.829 32.688c-3.863 0-7-3.137-7-7 0-3.864 3.137-7 7-7h111.698c3.864 0 7 3.136 7 7 0 3.863-3.136 7-7 7zm0 32.688c-3.863 0-7-3.137-7-7 0-3.864 3.137-7 7-7h111.698c3.864 0 7 3.136 7 7 0 3.863-3.136 7-7 7zm1.918 115.406h145.441c5.11 0 9.365-4.176 9.365-9.365v-9.366h-152.834v9.366c0 3.325-.705 6.494-1.972 9.365zm-269.627-99.509h-4.579c-3.208 0-6.006-2.181-6.788-5.293l-15.312-60.899c-.679-2.7.307-5.546 2.511-7.247 2.204-1.702 5.206-1.936 7.647-.595 0 0 39.44 21.659 39.44 21.659l19.316-35.076c1.23-2.236 3.58-3.624 6.132-3.624s4.901 1.389 6.132 3.625l19.356 35.167 39.549-21.749c2.443-1.344 5.45-1.109 7.656.596 2.205 1.706 3.188 4.558 2.502 7.26l-15.466 60.899c-.788 3.104-3.582 5.277-6.785 5.277h-4.424c5.268 8.611 8.305 18.733 8.305 29.559 0 31.321-25.428 56.749-56.749 56.749-31.32 0-56.749-25.428-56.749-56.749 0-10.826 3.037-20.948 8.306-29.559zm79.313 0h-61.739c-7.356 7.68-11.88 18.095-11.88 29.559 0 23.594 19.156 42.749 42.749 42.749 23.594 0 42.749-19.155 42.749-42.749 0-11.464-4.523-21.879-11.879-29.559zm-78.434-14h94.988l10.157-39.997-31.554 17.353c-3.386 1.863-7.642.628-9.505-2.758l-16.6-30.158-16.555 30.063c-1.863 3.384-6.115 4.619-9.501 2.759l-31.496-17.296zm151.574 212.297c0 13.089-8.794 24.084-23.959 31.937-19.414 10.054-49.716 15.253-80.051 15.253-30.334 0-60.637-5.199-80.051-15.253-15.165-7.853-23.959-18.848-23.959-31.937 0-57.429 46.557-103.988 104.01-103.988 57.429 0 104.01 46.559 104.01 103.988zm-14 0c0-49.698-40.311-89.988-90.01-89.988-49.719 0-90.01 40.29-90.01 89.988 0 8.354 6.718 14.493 16.397 19.506 17.838 9.237 45.742 13.684 73.613 13.684 27.872 0 55.776-4.447 73.613-13.684 9.679-5.013 16.397-11.152 16.397-19.506z" fill="#ea1b29" fill-opacity="1" data-original-color="#000000ff" stroke="none" stroke-opacity="1"/></g></svg>