<svg id="Layer_25" viewBox="0 0 72 72" xmlns="http://www.w3.org/2000/svg" width="300" height="300" version="1.1" xmlns:xlink="http://www.w3.org/1999/xlink" xmlns:svgjs="http://svgjs.dev/svgjs"><g width="100%" height="100%" transform="matrix(1,0,0,1,0,0)"><path d="m68 4h-4c-.55273 0-1 .44775-1 1s.44727 1 1 1h1.58594l-6.56549 6.56549c-.60846-.35962-1.29681-.56549-2.02045-.56549-1.8587 0-3.41083 1.27972-3.85797 3h-4.28406c-.44714-1.72028-1.99927-3-3.85797-3-2.20605 0-4 1.79443-4 4 0 .72406.20563 1.41223.56537 2.02057l-6.54498 6.54498c-.60834-.35962-1.29639-.56555-2.02039-.56555-1.85828 0-3.41071 1.27972-3.85797 3h-4.28406c-.44727-1.72028-1.99969-3-3.85797-3-2.20557 0-4 1.79443-4 4 0 .724.20593 1.41205.56555 2.02039l-12.56555 12.56555v-38.58594c0-.55225-.44775-1-1-1s-1 .44775-1 1v60c0 2.75684 2.24316 5 5 5h34c.55273 0 1-.44775 1-1s-.44727-1-1-1h-34c-1.6543 0-3-1.3457-3-3v-18.58594l13.97961-13.97961c.60834.35962 1.29639.56555 2.02039.56555 1.85828 0 3.41071-1.27972 3.85797-3h4.28406c.44727 1.72028 1.99969 3 3.85797 3 2.20557 0 4-1.79443 4-4 0-.724-.20593-1.41205-.56555-2.02039l6.5451-6.5451c.60846.35962 1.29681.56549 2.02045.56549 1.8587 0 3.41083-1.27972 3.85797-3h4.28406c.44714 1.72028 1.99927 3 3.85797 3 2.20605 0 4-1.79443 4-4 0-.72406-.20563-1.41223-.56537-2.02057l6.56537-6.56537v1.58594c0 .55225.44727 1 1 1s1-.44775 1-1v-4c0-.55225-.44727-1-1-1zm-47 26c-.53271 0-1.03467-.2085-1.41309-.58691s-.58691-.88037-.58691-1.41309c0-1.10303.89697-2 2-2s2 .89697 2 2-.89697 2-2 2zm12 0c-1.10303 0-2-.89697-2-2s.89697-2 2-2c.53271 0 1.03467.2085 1.41309.58691s.58691.88037.58691 1.41309c0 1.10303-.89697 2-2 2zm12-12c-.53223 0-1.03418-.2085-1.41309-.58691s-.58691-.88037-.58691-1.41309c0-1.10303.89746-2 2-2s2 .89697 2 2-.89746 2-2 2zm12 0c-1.10254 0-2-.89697-2-2s.89746-2 2-2c.53223 0 1.03418.2085 1.41309.58691s.58691.88037.58691 1.41309c0 1.10303-.89746 2-2 2z" fill="#ea1b29" fill-opacity="1" data-original-color="#000000ff" stroke="none" stroke-opacity="1"/><path d="m66.15723 45c-.37012 0-.69922-.25098-.7998-.60889-.36035-1.29004-.87402-2.53467-1.52734-3.7002-.18555-.33154-.13184-.73242.13379-.99805.53613-.53613.83105-1.24854.83105-2.00635 0-.7583-.29492-1.4707-.83105-2.00684l-1.64355-1.64355c-1.07227-1.07227-2.94043-1.07275-4.01465.00049-.26367.26514-.66406.31982-.99707.13281-1.16504-.65234-2.40918-1.1665-3.69922-1.52734-.3584-.10059-.60938-.4292-.60938-.8042 0-1.56494-1.27344-2.83789-2.83789-2.83789h-2.32422c-1.56445 0-2.83789 1.27295-2.83789 2.84277 0 .37012-.25098.69873-.60938.79932-1.29004.36084-2.53418.875-3.69922 1.52734-.33301.18604-.73242.13232-.99805-.1333-1.07324-1.07275-2.94238-1.07275-4.01367 0l-1.64355 1.64355c-.53613.53613-.83154 1.24854-.83154 2.00684 0 .75781.29541 1.47021.83154 2.00635.26514.26562.31885.6665.1333.99805-.65234 1.16455-1.16602 2.40967-1.52734 3.69971-.10059.35889-.4292.60938-.8042.60938-1.56494 0-2.83789 1.27295-2.83789 2.83789v2.32422c0 1.56494 1.27295 2.83789 2.84277 2.83789.37012 0 .69873.25049.79932.60938.36133 1.29004.875 2.53516 1.52734 3.69922.18555.33203.13184.73291-.1333.99854-.53613.53613-.83154 1.24854-.83154 2.00635 0 .7583.29541 1.4707.83154 2.00684l1.64355 1.64355c1.07129 1.07129 2.93945 1.07275 4.01465-.00049.26367-.26367.66504-.31836.99707-.13281 1.16504.65234 2.40918 1.1665 3.69922 1.52734.3584.10059.60938.4292.60938.8042 0 1.56494 1.27344 2.83789 2.83789 2.83789h2.32422c1.56445 0 2.83789-1.27295 2.83789-2.84277 0-.37012.25098-.69873.60938-.79932 1.29004-.36084 2.53418-.875 3.69922-1.52734.33105-.18652.73242-.13281.99805.1333 1.07227 1.07227 2.94141 1.07227 4.01367 0l1.64355-1.64355c.53613-.53613.83105-1.24854.83105-2.00684 0-.75781-.29492-1.47021-.83105-2.00635-.26562-.26562-.31934-.6665-.13379-.99805.65332-1.16553 1.16699-2.41016 1.52734-3.69824.10059-.35986.42969-.61084.80469-.61084 1.56445 0 2.83789-1.27295 2.83789-2.83789v-2.32422c0-1.56494-1.27344-2.83789-2.84277-2.83789zm.84277 5.16211c0 .46191-.37598.83789-.84277.83789-1.26172 0-2.38281.85059-2.72559 2.0708-.31836 1.13672-.77051 2.23389-1.3457 3.26074-.61914 1.10352-.42773 2.49756.46387 3.38965.32617.32666.32617.8584 0 1.18506l-1.64355 1.64355c-.32617.32715-.8584.32666-1.18457.00049-.89062-.89258-2.28613-1.0835-3.38965-.46484-1.02734.5752-2.125 1.02832-3.26172 1.34668-1.21875.34131-2.07031 1.46191-2.07031 2.72998 0 .46191-.37598.83789-.83789.83789h-2.32422c-.46191 0-.83789-.37598-.83789-.84277 0-1.26318-.85156-2.38379-2.07031-2.7251-1.13672-.31836-2.23438-.77148-3.26172-1.34668-.43359-.24268-.91113-.36084-1.38574-.36084-.73535 0-1.46191.2832-2.00293.8252-.32617.32715-.85938.32715-1.18555 0l-1.64355-1.64355c-.32666-.32666-.32666-.8584 0-1.18506.8916-.8916 1.08252-2.28516.46436-3.38965-.5752-1.02637-1.02832-2.12354-1.34668-3.26123-.34131-1.21924-1.46191-2.07031-2.72998-2.07031-.46191 0-.83789-.37598-.83789-.83789v-2.32422c0-.46191.37598-.83789.84277-.83789 1.26318 0 2.38379-.85107 2.7251-2.07031.31836-1.1377.77148-2.23486 1.34668-3.26172.61816-1.104.42725-2.49756-.46436-3.38916-.32666-.32666-.32666-.8584 0-1.18506l1.64355-1.64355c.32617-.32715.8584-.32666 1.18457-.00049.89258.89355 2.28711 1.08447 3.38965.46484 1.02734-.5752 2.125-1.02832 3.26172-1.34668 1.21875-.34131 2.07031-1.46191 2.07031-2.72998 0-.46191.37598-.83789.83789-.83789h2.32422c.46191 0 .83789.37598.83789.84277 0 1.26318.85156 2.38379 2.07031 2.7251 1.13672.31836 2.23438.77148 3.26172 1.34668 1.10449.61865 2.49805.42725 3.38867-.46436.32617-.32715.85938-.32715 1.18555 0l1.64355 1.64355c.32617.32666.32617.8584 0 1.18506-.8916.89209-1.08301 2.28613-.46387 3.38965.5752 1.02686 1.02734 2.12402 1.3457 3.2627.34277 1.21826 1.46387 2.06885 2.73047 2.06885.46191 0 .83789.37598.83789.83789v2.32422z" fill="#ea1b29" fill-opacity="1" data-original-color="#000000ff" stroke="none" stroke-opacity="1"/><path d="m49 36c-7.16797 0-13 5.83154-13 13 0 3.47803 1.35059 6.74463 3.80273 9.19727.1875.1875.44141.29297.70703.29297s.51953-.10547.70703-.29297l4.25-4.25c.18848-.18799.29395-.44336.29297-.70947-.00098-.26562-.10742-.52051-.2959-.70801-.94434-.93506-1.46387-2.18896-1.46387-3.52979 0-1.77979.95703-3.43652 2.49902-4.32324.47852-.27539.64355-.88672.36816-1.36523s-.88672-.64404-1.36621-.36816c-.24023.13818-.46637.29431-.68561.45795l-2.84918-2.84918c1.90833-1.59161 4.36041-2.55212 7.03381-2.55212s5.12549.96051 7.03381 2.55212l-2.84918 2.84918c-.21924-.16364-.44537-.31976-.68561-.45795-.47949-.27441-1.08984-.11084-1.36621.36816-.27539.47852-.11035 1.08984.36816 1.36523 1.54199.88672 2.49902 2.54346 2.49902 4.32324 0 1.34082-.51953 2.59473-1.46387 3.52979-.18848.1875-.29492.44238-.2959.70801-.00098.26611.10449.52148.29297.70947l4.25 4.25c.1875.1875.44141.29297.70703.29297s.51953-.10547.70703-.29297c2.45215-2.45264 3.80273-5.71924 3.80273-9.19727 0-7.16846-5.83203-13-13-13zm-8.45898 20.04443c-1.64551-1.97119-2.54102-4.4375-2.54102-7.04443 0-2.6734.96051-5.12549 2.55212-7.03381l2.84808 2.84808c-.89038 1.19116-1.40021 2.65454-1.40021 4.18573 0 1.53711.48926 2.99414 1.39355 4.19238l-2.85254 2.85205zm16.91796 0-2.85254-2.85205c.9043-1.19824 1.39355-2.65527 1.39355-4.19238 0-1.53119-.50983-2.99457-1.40021-4.18573l2.84808-2.84808c1.59161 1.90833 2.55212 4.36041 2.55212 7.03381 0 2.60693-.89551 5.07324-2.54102 7.04443z" fill="#ea1b29" fill-opacity="1" data-original-color="#000000ff" stroke="none" stroke-opacity="1"/><path d="m50 46.18427v-6.18427c0-.55225-.44727-1-1-1s-1 .44775-1 1v6.18427c-1.1615.41412-2 1.51379-2 2.81573 0 1.6543 1.3457 3 3 3s3-1.3457 3-3c0-1.30194-.8385-2.40161-2-2.81573zm-1 3.81573c-.55176 0-1-.44873-1-1s.44824-1 1-1 1 .44873 1 1-.44824 1-1 1z" fill="#ea1b29" fill-opacity="1" data-original-color="#000000ff" stroke="none" stroke-opacity="1"/><path d="m22 34c0-.55225-.44775-1-1-1s-1 .44775-1 1v1c0 .55225.44775 1 1 1s1-.44775 1-1z" fill="#ea1b29" fill-opacity="1" data-original-color="#000000ff" stroke="none" stroke-opacity="1"/><path d="m22 51c0-.55225-.44775-1-1-1s-1 .44775-1 1v2c0 .55225.44775 1 1 1s1-.44775 1-1z" fill="#ea1b29" fill-opacity="1" data-original-color="#000000ff" stroke="none" stroke-opacity="1"/><path d="m22 39c0-.55225-.44775-1-1-1s-1 .44775-1 1v2c0 .55225.44775 1 1 1s1-.44775 1-1z" fill="#ea1b29" fill-opacity="1" data-original-color="#000000ff" stroke="none" stroke-opacity="1"/><path d="m22 57c0-.55225-.44775-1-1-1s-1 .44775-1 1v2c0 .55225.44775 1 1 1s1-.44775 1-1z" fill="#ea1b29" fill-opacity="1" data-original-color="#000000ff" stroke="none" stroke-opacity="1"/><path d="m22 45c0-.55225-.44775-1-1-1s-1 .44775-1 1v2c0 .55225.44775 1 1 1s1-.44775 1-1z" fill="#ea1b29" fill-opacity="1" data-original-color="#000000ff" stroke="none" stroke-opacity="1"/><path d="m21 62c-.55225 0-1 .44775-1 1v1c0 .55225.44775 1 1 1s1-.44775 1-1v-1c0-.55225-.44775-1-1-1z" fill="#ea1b29" fill-opacity="1" data-original-color="#000000ff" stroke="none" stroke-opacity="1"/><path d="m57 25c.55273 0 1-.44775 1-1v-2c0-.55225-.44727-1-1-1s-1 .44775-1 1v2c0 .55225.44727 1 1 1z" fill="#ea1b29" fill-opacity="1" data-original-color="#000000ff" stroke="none" stroke-opacity="1"/><path d="m56 30c0 .55225.44727 1 1 1s1-.44775 1-1v-2c0-.55225-.44727-1-1-1s-1 .44775-1 1z" fill="#ea1b29" fill-opacity="1" data-original-color="#000000ff" stroke="none" stroke-opacity="1"/></g></svg>