<svg id="Bahan_copy_2" viewBox="0 0 64 64" xmlns="http://www.w3.org/2000/svg" data-name="Bahan copy 2" width="300" height="300" version="1.1" xmlns:xlink="http://www.w3.org/1999/xlink" xmlns:svgjs="http://svgjs.dev/svgjs"><g width="100%" height="100%" transform="matrix(1,0,0,1,0,0)"><g fill="rgb(0,0,0)"><path d="m56.33984 2.03711h-48.67968a3.66418 3.66418 0 0 0 -3.66016 3.66016v37.09423a3.66961 3.66961 0 0 0 3.66016 3.6709h20.636l-1.63409 8.90967h-3.123a2.4969 2.4969 0 0 0 -2.49414 2.49365v3.09717a.99974.99974 0 0 0 1 1h19.91307a.99974.99974 0 0 0 1-1v-3.09717a2.4969 2.4969 0 0 0 -2.49414-2.49365h-1.98626l-1.63489-8.90967h18.93952a4.223 4.223 0 0 0 4.21777-4.21826v-36.54687a3.66418 3.66418 0 0 0 -3.66016-3.66016zm-48.67968 2h48.67968a1.66221 1.66221 0 0 1 1.66016 1.66016v29.1538h-52v-29.1538a1.66221 1.66221 0 0 1 1.66016-1.66016zm33.29784 53.82861v2.09717h-17.91308v-2.09717a.49461.49461 0 0 1 .49414-.49365h16.92481a.49461.49461 0 0 1 .49413.49365zm-4.51355-2.49365h-7.74945l1.634-8.90967h4.48059zm19.33778-10.90967h-48.12207a1.66765 1.66765 0 0 1 -1.66016-1.6709v-5.94043h52v5.39307a2.22068 2.22068 0 0 1 -2.21777 2.21826z" fill="#ea1b29" fill-opacity="1" data-original-color="#000000ff" stroke="none" stroke-opacity="1"/><path d="m35.0752 39.13086h-6.14747a1.00019 1.00019 0 0 0 .00007 2h6.1474a1.00019 1.00019 0 0 0 0-2z" fill="#ea1b29" fill-opacity="1" data-original-color="#000000ff" stroke="none" stroke-opacity="1"/><path d="m37.28906 10.78711h10.15528a1.00019 1.00019 0 0 0 -.00007-2h-10.15521a1.00019 1.00019 0 0 0 0 2z" fill="#ea1b29" fill-opacity="1" data-original-color="#000000ff" stroke="none" stroke-opacity="1"/><path d="m35.86426 17.11084h13.00488a1 1 0 0 0 0-2h-13.00488a1.00019 1.00019 0 0 0 0 2z" fill="#ea1b29" fill-opacity="1" data-original-color="#000000ff" stroke="none" stroke-opacity="1"/><path d="m26.57422 23h-13.00391a1.00019 1.00019 0 0 0 .00007 2h13.00384a1.00019 1.00019 0 0 0 0-2z" fill="#ea1b29" fill-opacity="1" data-original-color="#000000ff" stroke="none" stroke-opacity="1"/><path d="m25.07813 28.79785h-10.15625a1.00019 1.00019 0 0 0 .00006 2h10.15619a1.00019 1.00019 0 0 0 0-2z" fill="#ea1b29" fill-opacity="1" data-original-color="#000000ff" stroke="none" stroke-opacity="1"/><path d="m43.9707 20.80176a.99974.99974 0 0 0 -1 1v6.4165a2.20863 2.20863 0 0 1 -4.417-.00007v-6.41643a1.00019 1.00019 0 0 0 -2 .00006v6.41644a4.20867 4.20867 0 0 0 8.417-.00009v-6.41641a.99973.99973 0 0 0 -1-1z" fill="#ea1b29" fill-opacity="1" data-original-color="#000000ff" stroke="none" stroke-opacity="1"/><path d="m47.17969 20.80176a.99973.99973 0 0 0 -1 1v9.625a1 1 0 0 0 2 0v-9.625a.99974.99974 0 0 0 -1-1z" fill="#ea1b29" fill-opacity="1" data-original-color="#000000ff" stroke="none" stroke-opacity="1"/><path d="m16.20117 17.27539a3.76723 3.76723 0 0 0 3.7627-3.76367v-5.52637a1 1 0 0 0 -2 0v5.52637a1.76319 1.76319 0 1 1 -3.52638 0v-5.52637a1 1 0 0 0 -2 0v5.52637a3.76808 3.76808 0 0 0 3.76368 3.76367z" fill="#ea1b29" fill-opacity="1" data-original-color="#000000ff" stroke="none" stroke-opacity="1"/><path d="m22.7641 12.22339-2.03363 3.1604a1 1 0 0 0 1.68167 1.082l1.541-2.39485 1.66107 2.58094a1 1 0 0 0 1.6816-1.08209l-2.15377-3.3465 2.273-3.53235a1 1 0 0 0 -1.68167-1.082l-1.78037 2.76679-1.661-2.58081a1 1 0 0 0 -1.68161 1.08208z" fill="#ea1b29" fill-opacity="1" data-original-color="#000000ff" stroke="none" stroke-opacity="1"/></g></g></svg>