<svg height="300" viewBox="0 0 64 64" width="300" xmlns="http://www.w3.org/2000/svg" version="1.1" xmlns:xlink="http://www.w3.org/1999/xlink" xmlns:svgjs="http://svgjs.dev/svgjs"><g width="100%" height="100%" transform="matrix(1,0,0,1,0,0)"><g id="web_design" data-name="web design"><path d="m59 2h-54a3 3 0 0 0 -3 3v54a3 3 0 0 0 3 3h54a3 3 0 0 0 3-3v-54a3 3 0 0 0 -3-3zm-54 2h54a1 1 0 0 1 1 1v5h-56v-5a1 1 0 0 1 1-1zm54 56h-54a1 1 0 0 1 -1-1v-47h56v47a1 1 0 0 1 -1 1z" fill="#ea1b29" fill-opacity="1" data-original-color="#000000ff" stroke="none" stroke-opacity="1"/><path d="m35.007 39.856-1.414-8.485a1 1 0 0 0 -.744-.806l-3.943-.986.165-.165a1 1 0 0 0 0-1.414l-2.829-2.828a1 1 0 0 0 -1.414 0l-.707.707-10.606-10.608a3.075 3.075 0 0 0 -4.243 0 3.005 3.005 0 0 0 0 4.243l10.607 10.607-.707.708a1 1 0 0 0 0 1.414l2.828 2.828a1 1 0 0 0 1.414 0l.166-.166.985 3.944a1 1 0 0 0 .806.744l8.485 1.414a.919.919 0 0 0 .165.014 1 1 0 0 0 .986-1.165zm-24.32-21.756a1 1 0 0 1 0-1.415 1.025 1.025 0 0 1 1.414 0l10.606 10.608-1.414 1.414zm10.606 13.436 4.242-4.243 1.415 1.414-4.243 4.243zm5.054 6.192-1.119-4.471 2.029-2.028 4.471 1.118 1.072 6.453z" fill="#ea1b29" fill-opacity="1" data-original-color="#000000ff" stroke="none" stroke-opacity="1"/><path d="m54.242 45.03-1.292-.323.686-1.142a1 1 0 0 0 -.151-1.222l-2.828-2.828a1 1 0 0 0 -1.221-.151l-1.143.686-.323-1.293a1 1 0 0 0 -.97-.757h-4a1 1 0 0 0 -.97.757l-.323 1.293-1.143-.686a1 1 0 0 0 -1.221.151l-2.828 2.828a1 1 0 0 0 -.151 1.222l.686 1.142-1.292.323a1 1 0 0 0 -.758.97v4a1 1 0 0 0 .758.97l1.292.323-.686 1.142a1 1 0 0 0 .151 1.222l2.828 2.828a1 1 0 0 0 1.221.151l1.143-.686.323 1.293a1 1 0 0 0 .97.757h4a1 1 0 0 0 .97-.757l.323-1.293 1.143.686a1 1 0 0 0 1.221-.151l2.828-2.828a1 1 0 0 0 .151-1.222l-.686-1.142 1.292-.323a1 1 0 0 0 .758-.97v-4a1 1 0 0 0 -.758-.97zm-1.242 4.189-1.844.461a1 1 0 0 0 -.615 1.485l.979 1.63-1.72 1.724-1.63-.978a1 1 0 0 0 -1.484.615l-.467 1.844h-2.438l-.462-1.844a1 1 0 0 0 -1.484-.615l-1.63.978-1.725-1.719.979-1.63a1 1 0 0 0 -.615-1.485l-1.844-.466v-2.438l1.844-.461a1 1 0 0 0 .615-1.485l-.979-1.63 1.725-1.724 1.63.978a1 1 0 0 0 1.484-.615l.462-1.844h2.438l.462 1.844a1 1 0 0 0 1.484.615l1.63-.978 1.725 1.724-.979 1.63a1 1 0 0 0 .615 1.485l1.844.461z" fill="#ea1b29" fill-opacity="1" data-original-color="#000000ff" stroke="none" stroke-opacity="1"/><path d="m36 22h12v2h-12z" fill="#ea1b29" fill-opacity="1" data-original-color="#000000ff" stroke="none" stroke-opacity="1"/><path d="m50 22h8v2h-8z" fill="#ea1b29" fill-opacity="1" data-original-color="#000000ff" stroke="none" stroke-opacity="1"/><path d="m36 18h18v2h-18z" fill="#ea1b29" fill-opacity="1" data-original-color="#000000ff" stroke="none" stroke-opacity="1"/><path d="m56 18h2v2h-2z" fill="#ea1b29" fill-opacity="1" data-original-color="#000000ff" stroke="none" stroke-opacity="1"/><path d="m36 30h12v2h-12z" fill="#ea1b29" fill-opacity="1" data-original-color="#000000ff" stroke="none" stroke-opacity="1"/><path d="m50 30h8v2h-8z" fill="#ea1b29" fill-opacity="1" data-original-color="#000000ff" stroke="none" stroke-opacity="1"/><path d="m36 26h18v2h-18z" fill="#ea1b29" fill-opacity="1" data-original-color="#000000ff" stroke="none" stroke-opacity="1"/><path d="m56 26h2v2h-2z" fill="#ea1b29" fill-opacity="1" data-original-color="#000000ff" stroke="none" stroke-opacity="1"/><path d="m36 14h10v2h-10z" fill="#ea1b29" fill-opacity="1" data-original-color="#000000ff" stroke="none" stroke-opacity="1"/><path d="m48 14h10v2h-10z" fill="#ea1b29" fill-opacity="1" data-original-color="#000000ff" stroke="none" stroke-opacity="1"/><path d="m6 48h12v2h-12z" fill="#ea1b29" fill-opacity="1" data-original-color="#000000ff" stroke="none" stroke-opacity="1"/><path d="m20 48h8v2h-8z" fill="#ea1b29" fill-opacity="1" data-original-color="#000000ff" stroke="none" stroke-opacity="1"/><path d="m6 44h18v2h-18z" fill="#ea1b29" fill-opacity="1" data-original-color="#000000ff" stroke="none" stroke-opacity="1"/><path d="m6 56h12v2h-12z" fill="#ea1b29" fill-opacity="1" data-original-color="#000000ff" stroke="none" stroke-opacity="1"/><path d="m20 56h8v2h-8z" fill="#ea1b29" fill-opacity="1" data-original-color="#000000ff" stroke="none" stroke-opacity="1"/><path d="m6 52h18v2h-18z" fill="#ea1b29" fill-opacity="1" data-original-color="#000000ff" stroke="none" stroke-opacity="1"/><path d="m45 44a4 4 0 1 0 4 4 4 4 0 0 0 -4-4zm0 6a2 2 0 1 1 2-2 2 2 0 0 1 -2 2z" fill="#ea1b29" fill-opacity="1" data-original-color="#000000ff" stroke="none" stroke-opacity="1"/><path d="m6 6h2v2h-2z" fill="#ea1b29" fill-opacity="1" data-original-color="#000000ff" stroke="none" stroke-opacity="1"/><path d="m10 6h2v2h-2z" fill="#ea1b29" fill-opacity="1" data-original-color="#000000ff" stroke="none" stroke-opacity="1"/><path d="m14 6h2v2h-2z" fill="#ea1b29" fill-opacity="1" data-original-color="#000000ff" stroke="none" stroke-opacity="1"/></g></g></svg>