<svg xmlns="http://www.w3.org/2000/svg" xmlns:svg="http://www.w3.org/2000/svg" version="1.1" id="svg2685" width="300" height="300" viewBox="0 0 682.66669 682.66669" xmlns:xlink="http://www.w3.org/1999/xlink" xmlns:svgjs="http://svgjs.dev/svgjs"><g width="100%" height="100%" transform="matrix(1,0,0,1,0,0)"><defs id="defs2689">
    <clipPath clipPathUnits="userSpaceOnUse" id="clipPath2699">
      <path d="M 0,512 H 512 V 0 H 0 Z" id="path2697" fill="#ea1b29" fill-opacity="1" data-original-color="#000000ff" stroke="none" stroke-opacity="1"/>
    </clipPath>
  </defs><mask id="custom"><rect id="bg" x="0" y="0" width="100%" height="100%" fill="white"/><g transform="matrix(1.3333333,0,0,-1.3333333,0,682.66667)"/></mask><g mask="url(#custom)"><g id="g2691" transform="matrix(1.3333333,0,0,-1.3333333,0,682.66667)">
    <g id="g2693">
      <g id="g2695" clip-path="url(#clipPath2699)">
        <g id="g2701" transform="translate(75.5742,123.5874)">
          <path d="m 0,0 h -24.243 c -21.724,0 -39.334,17.611 -39.334,39.334 v 268.504 c 0,21.724 17.61,39.335 39.334,39.335 h 411.331 c 21.724,0 39.335,-17.611 39.335,-39.335 V 39.334 C 426.423,17.611 408.812,0 387.088,0 H 30" style="stroke-linecap: round; stroke-linejoin: round; stroke-miterlimit: 10; stroke-dasharray: none;" id="path2703" fill="none" fill-opacity="1" stroke="#ea1b29" stroke-opacity="1" data-original-stroke-color="#000000ff" stroke-width="15" data-original-stroke-width="15"/>
        </g>
        <g id="g2705" transform="translate(413.9102,442.5962)">
          <path d="m 0,0 h 30.987 c 17.704,0 32.056,-14.352 32.056,-32.055 v -192.708 c 0,-17.703 -14.352,-32.055 -32.056,-32.055 h -375.801 c -17.704,0 -32.055,14.352 -32.055,32.055 v 192.708 c 0,17.703 14.351,32.055 32.055,32.055 L -30,0" style="stroke-linecap: round; stroke-linejoin: round; stroke-miterlimit: 10; stroke-dasharray: none;" id="path2707" fill="none" fill-opacity="1" stroke="#ea1b29" stroke-opacity="1" data-original-stroke-color="#000000ff" stroke-width="15" data-original-stroke-width="15"/>
        </g>
        <g id="g2709" transform="translate(346.1797,71.7109)">
          <path d="m 0,0 h -178.366 l 27.331,51.876 H -27.33 Z" style="stroke-linecap: round; stroke-linejoin: round; stroke-miterlimit: 10; stroke-dasharray: none;" id="path2711" fill="none" fill-opacity="1" stroke="#ea1b29" stroke-opacity="1" data-original-stroke-color="#000000ff" stroke-width="15" data-original-stroke-width="15"/>
        </g>
        <g id="g2713" transform="translate(360.6904,43.7778)">
          <path d="m 0,0 h -207.387 c -7.714,0 -13.967,6.253 -13.967,13.967 0,7.713 6.253,13.966 13.967,13.966 H 0 c 7.713,0 13.967,-6.253 13.967,-13.966 C 13.967,6.253 7.713,0 0,0 Z" style="stroke-linecap: round; stroke-linejoin: round; stroke-miterlimit: 10; stroke-dasharray: none;" id="path2715" fill="none" fill-opacity="1" stroke="#ea1b29" stroke-opacity="1" data-original-stroke-color="#000000ff" stroke-width="15" data-original-stroke-width="15"/>
        </g>
        <g id="g2717" transform="translate(256.9971,185.7783)">
          <path d="M 0,0 V 256.818" style="stroke-linecap: round; stroke-linejoin: round; stroke-miterlimit: 10; stroke-dasharray: none;" id="path2719" fill="none" fill-opacity="1" stroke="#ea1b29" stroke-opacity="1" data-original-stroke-color="#000000ff" stroke-width="15" data-original-stroke-width="15"/>
        </g>
        <g id="g2721" transform="translate(256.9971,372.7837)">
          <path d="M 0,0 H -219.956" style="stroke-linecap: round; stroke-linejoin: round; stroke-miterlimit: 10; stroke-dasharray: none;" id="path2723" fill="none" fill-opacity="1" stroke="#ea1b29" stroke-opacity="1" data-original-stroke-color="#000000ff" stroke-width="15" data-original-stroke-width="15"/>
        </g>
        <g id="g2725" transform="translate(87.7236,407.1235)">
          <path d="m 0,0 c 0,6.98 -5.659,12.638 -12.639,12.638 -6.98,0 -12.638,-5.658 -12.638,-12.638 0,-6.98 5.658,-12.639 12.638,-12.639 C -5.659,-12.639 0,-6.98 0,0 Z" style="stroke-linecap: round; stroke-linejoin: round; stroke-miterlimit: 10; stroke-dasharray: none;" id="path2727" fill="none" fill-opacity="1" stroke="#ea1b29" stroke-opacity="1" data-original-stroke-color="#000000ff" stroke-width="15" data-original-stroke-width="15"/>
        </g>
        <g id="g2729" transform="translate(135.8369,407.1235)">
          <path d="m 0,0 c 0,6.98 -5.658,12.638 -12.639,12.638 -6.979,0 -12.638,-5.658 -12.638,-12.638 0,-6.98 5.659,-12.639 12.638,-12.639 C -5.658,-12.639 0,-6.98 0,0 Z" style="stroke-linecap: round; stroke-linejoin: round; stroke-miterlimit: 10; stroke-dasharray: none;" id="path2731" fill="none" fill-opacity="1" stroke="#ea1b29" stroke-opacity="1" data-original-stroke-color="#000000ff" stroke-width="15" data-original-stroke-width="15"/>
        </g>
        <g id="g2733" transform="translate(183.9502,407.1235)">
          <path d="m 0,0 c 0,6.98 -5.658,12.638 -12.638,12.638 -6.98,0 -12.638,-5.658 -12.638,-12.638 0,-6.98 5.658,-12.639 12.638,-12.639 C -5.658,-12.639 0,-6.98 0,0 Z" style="stroke-linecap: round; stroke-linejoin: round; stroke-miterlimit: 10; stroke-dasharray: none;" id="path2735" fill="none" fill-opacity="1" stroke="#ea1b29" stroke-opacity="1" data-original-stroke-color="#000000ff" stroke-width="15" data-original-stroke-width="15"/>
        </g>
        <g id="g2737" transform="translate(228.2812,328.0518)">
          <path d="M 0,0 H -161.242" style="stroke-linecap: round; stroke-linejoin: round; stroke-miterlimit: 10; stroke-dasharray: none;" id="path2739" fill="none" fill-opacity="1" stroke="#ea1b29" stroke-opacity="1" data-original-stroke-color="#000000ff" stroke-width="15" data-original-stroke-width="15"/>
        </g>
        <g id="g2741" transform="translate(228.2812,295.3018)">
          <path d="M 0,0 H -161.242" style="stroke-linecap: round; stroke-linejoin: round; stroke-miterlimit: 10; stroke-dasharray: none;" id="path2743" fill="none" fill-opacity="1" stroke="#ea1b29" stroke-opacity="1" data-original-stroke-color="#000000ff" stroke-width="15" data-original-stroke-width="15"/>
        </g>
        <g id="g2745" transform="translate(191.4199,262.5518)">
          <path d="M 0,0 H -124.381" style="stroke-linecap: round; stroke-linejoin: round; stroke-miterlimit: 10; stroke-dasharray: none;" id="path2747" fill="none" fill-opacity="1" stroke="#ea1b29" stroke-opacity="1" data-original-stroke-color="#000000ff" stroke-width="15" data-original-stroke-width="15"/>
        </g>
        <g id="g2749" transform="translate(320.8574,348.4165)">
          <path d="M 0,0 -35.742,-35.742 0,-71.483" style="stroke-linecap: round; stroke-linejoin: round; stroke-miterlimit: 10; stroke-dasharray: none;" id="path2751" fill="none" fill-opacity="1" stroke="#ea1b29" stroke-opacity="1" data-original-stroke-color="#000000ff" stroke-width="15" data-original-stroke-width="15"/>
        </g>
        <g id="g2753" transform="translate(398.25,348.4165)">
          <path d="M 0,0 35.742,-35.742 0,-71.483" style="stroke-linecap: round; stroke-linejoin: round; stroke-miterlimit: 10; stroke-dasharray: none;" id="path2755" fill="none" fill-opacity="1" stroke="#ea1b29" stroke-opacity="1" data-original-stroke-color="#000000ff" stroke-width="15" data-original-stroke-width="15"/>
        </g>
        <g id="g2757" transform="translate(373.2695,369.2065)">
          <path d="M 0,0 -27.934,-113.064" style="stroke-linecap: round; stroke-linejoin: round; stroke-miterlimit: 10; stroke-dasharray: none;" id="path2759" fill="none" fill-opacity="1" stroke="#ea1b29" stroke-opacity="1" data-original-stroke-color="#000000ff" stroke-width="15" data-original-stroke-width="15"/>
        </g>
      </g>
    </g>
  </g></g></g></svg>