<svg id="Layer_1" enable-background="new 0 0 58 58" viewBox="0 0 58 58" xmlns="http://www.w3.org/2000/svg" width="300" height="300" version="1.1" xmlns:xlink="http://www.w3.org/1999/xlink" xmlns:svgjs="http://svgjs.dev/svgjs"><g width="100%" height="100%" transform="matrix(1,0,0,1,0,0)"><g><g><g><path d="m45.8393555 46.9020996h-.0097656c-.4140625 0-.75-.3359375-.75-.75s.3359375-.75.75-.75.7548828.3359375.7548828.75-.3310547.75-.7451172.75z" fill="#ea1b29" fill-opacity="1" data-original-color="#000000ff" stroke="none" stroke-opacity="1"/></g></g><g><g><path d="m49.8295898 46.9020996h-.5205078c-.4140625 0-.75-.3359375-.75-.75s.3359375-.75.75-.75h.5205078c1.3339844 0 2.4199219-1.0854492 2.4199219-2.4199219v-34.6596679c0-1.3344727-1.0859375-2.4204102-2.4199219-2.4204102h-41.6601562c-1.3339844 0-2.4199219 1.0859375-2.4199219 2.4204102v34.659668c0 1.3344727 1.0859375 2.4199219 2.4199219 2.4199219h26.1298828c.4140625 0 .75.3359375.75.75s-.3359375.75-.75.75h-26.1298828c-2.1611328 0-3.9199219-1.7583008-3.9199219-3.9199219v-34.659668c0-2.1616211 1.7587891-3.9204102 3.9199219-3.9204102h41.6601562c2.1611328 0 3.9199219 1.7587891 3.9199219 3.9204102v34.659668c0 2.161621-1.758789 3.9199218-3.9199219 3.9199218z" fill="#ea1b29" fill-opacity="1" data-original-color="#000000ff" stroke="none" stroke-opacity="1"/></g></g><g><g><path d="m53.0004883 16.0026855h-48c-.4140625 0-.75-.3359375-.75-.75v-6.9262695c0-2.1621094 1.7597656-3.9213867 3.921875-3.9213867h41.6572266c2.1621094 0 3.9208984 1.7592773 3.9208984 3.9213867v6.9262695c0 .4140625-.3359375.75-.75.75zm-47.25-1.5h46.5v-6.1762695c0-1.3349609-1.0859375-2.4213867-2.4208984-2.4213867h-41.6572266c-1.3349609 0-2.421875 1.0864258-2.421875 2.4213867z" fill="#ea1b29" fill-opacity="1" data-original-color="#000000ff" stroke="none" stroke-opacity="1"/></g></g><g><g><path d="m14.003418 12.697998h-3.8544922c-.6552734 0-1.1884766-.5327148-1.1884766-1.1879883v-2.6123046c0-.6552734.5332031-1.1879883 1.1884766-1.1879883h3.8544922c.6552734 0 1.1875.5327148 1.1875 1.1879883v2.6123047c0 .6552734-.5322266 1.1879882-1.1875 1.1879882zm-3.5429688-1.5h3.2304688v-1.9882812h-3.2304688z" fill="#ea1b29" fill-opacity="1" data-original-color="#000000ff" stroke="none" stroke-opacity="1"/></g></g><g><g><path d="m22.753418 12.697998h-3.8535156c-.6552734 0-1.1884766-.5327148-1.1884766-1.1879883v-2.6123046c0-.6552734.5332031-1.1879883 1.1884766-1.1879883h3.8535156c.6552734 0 1.1884766.5327148 1.1884766 1.1879883v2.6123047c-.0000001.6552734-.5332032 1.1879882-1.1884766 1.1879882zm-3.5419922-1.5h3.2304688v-1.9882812h-3.2304688z" fill="#ea1b29" fill-opacity="1" data-original-color="#000000ff" stroke="none" stroke-opacity="1"/></g></g><g><g><path d="m31.5043945 12.697998h-3.8544922c-.6552734 0-1.1875-.5327148-1.1875-1.1879883v-2.6123046c0-.6552734.5322266-1.1879883 1.1875-1.1879883h3.8544922c.6552734 0 1.1884766.5327148 1.1884766 1.1879883v2.6123047c0 .6552734-.5332031 1.1879882-1.1884766 1.1879882zm-3.5419922-1.5h3.2304688v-1.9882812h-3.2304688z" fill="#ea1b29" fill-opacity="1" data-original-color="#000000ff" stroke="none" stroke-opacity="1"/></g></g><g><g><g><path d="m41.3227539 51.4128418c-.1923828 0-.3837891-.0732422-.5302734-.2197266-.7841797-.784668-1.7714844-1.3261719-2.8544922-1.5673828l-.4052734-.090332c-2.2949219-.5058594-4.0361328-2.3286133-4.4355469-4.6435547l-1.4013672-8.050293c-.0732422-.4267578.0654297-.8637695.3710938-1.1694336.3046875-.3051758.7421875-.4448242 1.1679688-.3691406l8.0517578 1.4013672c2.3144531.3989258 4.1367188 2.1396484 4.6425781 4.4355469l.0908203.4042969c.2402344 1.0839844.7822266 2.0708008 1.5664062 2.8549805.2929688.2929688.2929688.7675781 0 1.0605469l-5.7333984 5.7333984c-.1464844.1464843-.3378907.2197265-.5302735.2197265zm-8.1074219-14.5908203 1.3603516 7.8139648c.2949219 1.7128906 1.5830078 3.0605469 3.2802734 3.4345703.0009766 0 .0019531.0004883.0029297.0004883l.40625.0908203c1.1152344.2480469 2.1503906.7509766 3.0302734 1.4672852l4.7275391-4.7270508c-.7167969-.8798828-1.21875-1.9150391-1.4677734-3.03125l-.0908203-.40625c-.3740234-1.699707-1.7216797-2.9873047-3.4335938-3.2822266z" fill="#ea1b29" fill-opacity="1" data-original-color="#000000ff" stroke="none" stroke-opacity="1"/></g></g><g><g><path d="m42.5922852 53.5979004c-.1923828 0-.3847656-.0737305-.53125-.2207031l-1.3134766-1.3183594c-.5175781-.5185547-.5175781-1.362793 0-1.8818359l5.8222656-5.8217773c.5185547-.5175781 1.3642578-.5200195 1.8828125-.0004883l4.2480469 3.8725586c.3056641.2792969.3271484.753418.0478516 1.0595703-.2783203.3056641-.7529297.3261719-1.0595703.0488281l-4.171875-3.8061523-5.5888672 5.5888672 1.1953125 1.2001953c.2919922.293457.2919922.7680664-.0019531 1.0605469-.1464844.145996-.3378907.2187499-.5292969.2187499zm4.8251953-8.1582031c.0019531.0019531.0039062.003418.0068359.0053711z" fill="#ea1b29" fill-opacity="1" data-original-color="#000000ff" stroke="none" stroke-opacity="1"/></g></g><g><g><path d="m37.0532227 41.4094238c-.1923828 0-.3837891-.0732422-.5302734-.2197266l-4.4560547-4.456543c-.2929688-.2929688-.2929688-.7675781 0-1.0605469s.7675781-.2929688 1.0605469 0l4.4560547 4.456543c.2929688.2929688.2929688.7675781 0 1.0605469-.1464845.1464844-.3378907.2197266-.5302735.2197266z" fill="#ea1b29" fill-opacity="1" data-original-color="#000000ff" stroke="none" stroke-opacity="1"/></g></g><g><g><path d="m38.1420898 44.1174316c-.6074219 0-1.2148438-.2314453-1.6777344-.6933594-.4482422-.4482422-.6943359-1.0444336-.6923828-1.6791992.0009766-.6323242.2490234-1.2270508.6962891-1.6743164.8945312-.8945312 2.4541016-.8955078 3.3486328 0 .9257812.925293.9277344 2.4296875.0048828 3.3530273-.4628906.4624024-1.071289.6938477-1.6796875.6938477zm.0009766-3.2416992c-.2314453 0-.4492188.0908203-.6142578.2553711-.1650391.1655273-.2568359.3847656-.2568359.6176758-.0009766.2324219.0888672.4501953.2529297.6137695v.0004883c.3388672.3388672.8955078.340332 1.2363281-.0004883.3378906-.3378906.3359375-.890625-.0048828-1.2314453-.1650391-.1645508-.3828125-.2553711-.6132813-.2553711z" fill="#ea1b29" fill-opacity="1" data-original-color="#000000ff" stroke="none" stroke-opacity="1"/></g></g></g><g><g><path d="m32.2094727 37.1623535h-21.1503907c-.8876953 0-1.609375-.7177734-1.609375-1.6000977v-15.2197265c0-.8823242.7216797-1.6000977 1.609375-1.6000977h21.1503906c.8818359 0 1.5996094.7177734 1.5996094 1.6000977v15.2197266c0 .3378906-.0966797.6455078-.2880859.9145508-.1005859.1416016-.2412109.237793-.3955078.2836914-.0957031.1489258-.2431641.2617188-.4169922.3120117-.1621094.0605468-.3261719.0898437-.4990234.0898437zm-21.1503907-16.9199219c-.0585938 0-.109375.046875-.109375.1000977v15.2197266c0 .0532227.0507812.1000977.109375.1000977h21.1503906c.0244141-.0107422.0478516-.0200195.0703125-.0273438.0058594-.0092773.0126953-.0185547.0185547-.0273438.0058594-.0078125.0107422-.0151367.0107422-.0454102v-15.2197265c0-.0561523-.0439453-.1000977-.0996094-.1000977z" fill="#ea1b29" fill-opacity="1" data-original-color="#000000ff" stroke="none" stroke-opacity="1"/></g></g><g><g><g><path d="m18.4428711 32.8947754c-.1582031 0-.3173828-.0498047-.453125-.152832-.3291016-.2504883-.3935547-.7211914-.1425781-1.0507812l6.375-8.3881836c.25-.3300781.7207031-.3945312 1.0507812-.1435547.3291016.2504883.3935547.7211914.1425781 1.0507812l-6.375 8.3881836c-.1474609.1943359-.3710937.2963867-.5976562.2963867z" fill="#ea1b29" fill-opacity="1" data-original-color="#000000ff" stroke="none" stroke-opacity="1"/></g></g><g><g><g><path d="m17.8364258 28.057373c-.1923828 0-.3837891-.0732422-.5302734-.2197266l-1.7988281-1.7993164c-.2929688-.2929688-.2929688-.7675781 0-1.0605469l1.8056641-1.8056641c.2929688-.2929688.7675781-.2929688 1.0605469 0s.2929688.7675781 0 1.0605469l-1.2753906 1.2753906 1.2685547 1.269043c.2929688.2929688.2929688.7675781 0 1.0605469-.1464846.1464845-.3378908.2197266-.5302736.2197266z" fill="#ea1b29" fill-opacity="1" data-original-color="#000000ff" stroke="none" stroke-opacity="1"/></g></g><g><g><path d="m25.4262695 32.9489746c-.1923828 0-.3837891-.0732422-.5302734-.2197266-.2929688-.2929688-.2929688-.7675781 0-1.0605469l1.2695312-1.269043-1.2753906-1.2753906c-.2929688-.2929688-.2929688-.7675781 0-1.0605469s.7675781-.2929688 1.0605469 0l1.8056641 1.8056641c.140625.140625.2197266.331543.2197266.5302734 0 .1992188-.0791016.3896484-.2197266.5302734l-1.7998047 1.7993165c-.1464844.1464844-.3378907.2197266-.5302735.2197266z" fill="#ea1b29" fill-opacity="1" data-original-color="#000000ff" stroke="none" stroke-opacity="1"/></g></g></g></g><g><g><path d="m47.8481445 24.6784668h-9.3154297c-.6279297 0-1.1396484-.5112305-1.1396484-1.1396484v-3.659668c0-.628418.5117188-1.1396484 1.1396484-1.1396484h9.3154297c.6279297 0 1.1396484.5112305 1.1396484 1.1396484v3.659668c.0000001.6284179-.5117187 1.1396484-1.1396484 1.1396484zm-8.9550781-1.5h8.5947266v-2.9389648h-8.5947266z" fill="#ea1b29" fill-opacity="1" data-original-color="#000000ff" stroke="none" stroke-opacity="1"/></g></g><g><g><path d="m48.237793 28.7331543h-10.0947266c-.4140625 0-.75-.3359375-.75-.75s.3359375-.75.75-.75h10.0947266c.4140625 0 .75.3359375.75.75s-.3359375.75-.75.75z" fill="#ea1b29" fill-opacity="1" data-original-color="#000000ff" stroke="none" stroke-opacity="1"/></g></g><g><g><path d="m48.237793 32.1911621h-10.0947266c-.4140625 0-.75-.3359375-.75-.75s.3359375-.75.75-.75h10.0947266c.4140625 0 .75.3359375.75.75s-.3359375.75-.75.75z" fill="#ea1b29" fill-opacity="1" data-original-color="#000000ff" stroke="none" stroke-opacity="1"/></g></g><g><g><path d="m26.8227539 41.4094238h-16.6201172c-.4140625 0-.75-.3359375-.75-.75s.3359375-.75.75-.75h16.6201172c.4140625 0 .75.3359375.75.75s-.3359375.75-.75.75z" fill="#ea1b29" fill-opacity="1" data-original-color="#000000ff" stroke="none" stroke-opacity="1"/></g></g></g></g></svg>