<svg clip-rule="evenodd" fill-rule="evenodd" height="300" image-rendering="optimizeQuality" shape-rendering="geometricPrecision" text-rendering="geometricPrecision" viewBox="0 0 1707 1707" width="300" xmlns="http://www.w3.org/2000/svg" version="1.1" xmlns:xlink="http://www.w3.org/1999/xlink" xmlns:svgjs="http://svgjs.dev/svgjs"><g width="100%" height="100%" transform="matrix(1,0,0,1,0,0)"><g id="Layer_x0020_1"><path d="m807 175h-69c-29 0-29-45 0-45h69c29 0 29 45 0 45zm588 1195h-403l76 291h122c29 0 29 46 0 46h-673c-30 0-30-46 0-46h122l90-291h-418c-63 0-115-52-115-115v-715c0-63 50-114 112-116v-284c0-77 63-140 140-140h811c77 0 140 63 140 140v284c62 2 112 53 112 116v715c0 63-52 115-116 115zm-450 0h-168l-90 291h334zm-637-900c-37 2-67 32-67 70v601h1224v-601c0-38-29-68-66-70v441c0 77-63 140-140 140h-811c-77 0-140-63-140-140zm-67 717v68c0 38 32 70 70 70h1084c39 0 70-32 70-70v-68zm1112-739v-144h-999v607c0 52 42 94 94 94h811c52 0 94-42 94-94zm-500 1139c-39 0-71-32-71-71 0-40 32-72 71-72 40 0 72 32 72 72 0 39-32 71-72 71zm0-97c-14 0-26 11-26 26 0 14 12 26 26 26 15 0 26-12 26-26 0-15-11-26-26-26zm470-212c-20 0-63 8-63-22 0-31 43-23 63-23 29 0 29 45 0 45zm-875-1233c-52 0-94 43-94 95v119h999v-119c0-52-42-95-94-95zm811 130h-165c-30 0-30-45 0-45h165c29 0 29 45 0 45zm-591 463h-234c-30 0-30-45 0-45h234c29 0 29 45 0 45zm0 104h-234c-30 0-30-45 0-45h234c29 0 29 45 0 45zm0 104h-234c-30 0-30-45 0-45h234c29 0 29 45 0 45zm0 104h-234c-30 0-30-45 0-45h234c29 0 29 45 0 45zm390-15h-44c-24 0-44-20-44-44v-22c-32-10-62-27-86-50-13 8-26 17-42 17-33 0-46-35-60-59-12-22-5-49 16-62l20-11c-8-32-8-66 0-99l-20-11c-21-12-28-39-16-60 14-25 27-60 60-60 16 0 29 9 42 17 24-23 54-40 86-50v-23c0-24 19-44 44-44h43c25 0 45 20 45 45v22c32 10 61 27 86 50 13-8 26-18 41-18 34 0 46 36 61 60 12 22 5 49-17 61l-19 11c7 33 7 67 0 99l20 12c21 12 28 39 16 60-14 25-27 60-61 60-15 0-28-9-41-17-25 23-54 40-86 50v22c0 25-20 44-44 44zm-170-167c23 0 35 45 109 61 25 5 18 42 18 62l42-1c0-19-7-56 17-61 84-19 91-76 121-58l35 20 20-37c-74-42-36-22-36-99s-38-57 36-100l-21-36c-17 10-45 34-62 15-58-63-110-40-110-75v-40l-42 1c0 19 7 55-18 61-83 18-90 75-121 58l-34-20-20 36c73 43 36 23 36 100s37 57-37 100l22 35c10-6 32-22 45-22zm148 15c-71 0-129-57-129-128s58-128 129-128 128 57 128 128-57 128-128 128zm0-211c-46 0-83 37-83 83s37 83 83 83c45 0 83-37 83-83s-38-83-83-83zm-391-36c-20 0-31-25-16-39l49-49-49-50c-21-21 11-53 32-32l65 65c9 9 9 24 0 33l-65 65c-5 4-10 7-16 7zm-146 0c-6 0-12-3-16-7l-65-65c-9-9-9-24 0-33l65-65c21-21 53 11 32 32l-49 50 49 49c14 14 3 39-16 39zm55 2c-14 0-26-14-22-29l36-131c7-29 51-17 43 11l-35 132c-3 10-12 17-22 17zm-38-363h-68c-30 0-30-45 0-45h68c29 0 29 45 0 45zm145 0h-68c-29 0-29-45 0-45h68c30 0 30 45 0 45z" fill="#ea1b29" fill-opacity="1" data-original-color="#000000ff" stroke="none" stroke-opacity="1"/></g></g></svg>