<svg viewBox="0 0 64 64" xmlns="http://www.w3.org/2000/svg" width="300" height="300" version="1.1" xmlns:xlink="http://www.w3.org/1999/xlink" xmlns:svgjs="http://svgjs.dev/svgjs"><g width="100%" height="100%" transform="matrix(1,0,0,1,0,0)"><g id="Layer_5" data-name="Layer 5"><path d="m58 1h-52a5 5 0 0 0 -5 5v38a5 5 0 0 0 5 5h18v6h-2a4 4 0 0 0 -4 4v3a1 1 0 0 0 1 1h26a1 1 0 0 0 1-1v-3a4 4 0 0 0 -4-4h-2v-6h18a5 5 0 0 0 5-5v-38a5 5 0 0 0 -5-5zm-14 58v2h-24v-2a2 2 0 0 1 2-2h20a2 2 0 0 1 2 2zm-6-4h-12v-6h12zm23-11a3 3 0 0 1 -3 3h-52a3 3 0 0 1 -3-3v-38a3 3 0 0 1 3-3h52a3 3 0 0 1 3 3z" fill="#ea1b29" fill-opacity="1" data-original-color="#000000ff" stroke="none" stroke-opacity="1"/><path d="m58 5h-52a1 1 0 0 0 -1 1v34a1 1 0 0 0 1 1h52a1 1 0 0 0 1-1v-34a1 1 0 0 0 -1-1zm-1 34h-50v-32h50z" fill="#ea1b29" fill-opacity="1" data-original-color="#000000ff" stroke="none" stroke-opacity="1"/><path d="m57 43h2v2h-2z" fill="#ea1b29" fill-opacity="1" data-original-color="#000000ff" stroke="none" stroke-opacity="1"/><path d="m53 43h2v2h-2z" fill="#ea1b29" fill-opacity="1" data-original-color="#000000ff" stroke="none" stroke-opacity="1"/><path d="m33 23h.66l-1.66 5.52-1.66-5.52h.66v-2h-4v2h.66l-1.66 5.52-1.66-5.52h.66v-2h-4v2h1.26l2.74 9.29a1 1 0 0 0 1.92 0l2-6.81 2 6.81a1 1 0 0 0 1.92 0l2.9-9.29h1.26v-2h-4z" fill="#ea1b29" fill-opacity="1" data-original-color="#000000ff" stroke="none" stroke-opacity="1"/><path d="m14 37h30a3 3 0 0 0 2.9-2.26l1.28 1.83a1 1 0 0 0 .82.43h.22a1 1 0 0 0 .77-.82l.94-5.68 3.78-3.77a1 1 0 0 0 .21-1.09 1 1 0 0 0 -.92-.64h-7v-13a3 3 0 0 0 -3-3h-30a3 3 0 0 0 -3 3v22a3 3 0 0 0 3 3zm35.29-7.71a1.11 1.11 0 0 0 -.28.55l-.59 3.58-4.5-6.42h7.67zm-7.29-4.29a1 1 0 0 0 -.89.54 1 1 0 0 0 .07 1l3.82 5.46v2a1 1 0 0 1 -1 1h-30a1 1 0 0 1 -1-1v-15h32v6zm-28-14h30a1 1 0 0 1 1 1v5h-32v-5a1 1 0 0 1 1-1z" fill="#ea1b29" fill-opacity="1" data-original-color="#000000ff" stroke="none" stroke-opacity="1"/><path d="m41 13h2v2h-2z" fill="#ea1b29" fill-opacity="1" data-original-color="#000000ff" stroke="none" stroke-opacity="1"/><path d="m37 13h2v2h-2z" fill="#ea1b29" fill-opacity="1" data-original-color="#000000ff" stroke="none" stroke-opacity="1"/><path d="m33 13h2v2h-2z" fill="#ea1b29" fill-opacity="1" data-original-color="#000000ff" stroke="none" stroke-opacity="1"/></g></g></svg>